<svg width="1658" height="626" xmlns="http://www.w3.org/2000/svg" xmlns:xlink="http://www.w3.org/1999/xlink" overflow="hidden"><defs><clipPath id="clip0"><rect x="1455" y="336" width="1658" height="626"/></clipPath></defs><g clip-path="url(#clip0)" transform="translate(-1455 -336)"><rect x="1662.5" y="538.5" width="237" height="236" stroke="#000000" stroke-width="4.58333" stroke-miterlimit="8" fill="none"/><path d="M0 0 0.000360892 89.6294" stroke="#000000" stroke-width="2.29167" stroke-miterlimit="8" fill="none" fill-rule="evenodd" transform="matrix(1 0 0 -1 1731 537.629)"/><path d="M0 0 0.000360892 89.6294" stroke="#000000" stroke-width="2.29167" stroke-miterlimit="8" fill="none" fill-rule="evenodd" transform="matrix(1 0 0 -1 1852 537.629)"/><path d="M1733.31 571.211C1730.53 571.211 1728.03 572.332 1725.81 574.575 1723.6 576.817 1721.87 579.823 1720.63 583.592 1719.38 587.361 1718.76 591.123 1718.76 594.879 1718.76 597.689 1719.15 599.789 1719.92 601.181 1720.69 602.572 1721.98 603.268 1723.79 603.268 1725.57 603.268 1727.32 602.498 1729.04 600.958 1730.75 599.418 1732.52 597.223 1734.35 594.372 1736.17 591.522 1737.46 588.232 1738.22 584.504L1738.58 582.761C1738.82 581.653 1738.99 580.694 1739.07 579.884 1739.15 579.073 1739.19 578.195 1739.19 577.249 1739.19 575.169 1738.74 573.643 1737.85 572.67 1736.96 571.697 1735.45 571.211 1733.31 571.211ZM1732.5 568.009C1734.26 568.009 1735.9 568.205 1737.43 568.597 1738.95 568.989 1740.53 569.684 1742.15 570.684L1745.88 568.009 1748.47 568.658 1742.51 594.352C1741.92 596.919 1741.62 598.918 1741.62 600.35 1741.62 601.431 1741.8 602.214 1742.15 602.701 1742.5 603.187 1743.05 603.43 1743.81 603.43 1744.62 603.43 1745.48 603.099 1746.4 602.437 1747.32 601.775 1748.62 600.512 1750.29 598.648L1752.6 600.917C1750.17 603.511 1748.1 605.355 1746.38 606.449 1744.67 607.544 1742.81 608.091 1740.81 608.091 1739.13 608.091 1737.8 607.537 1736.8 606.429 1735.8 605.321 1735.3 603.849 1735.3 602.012 1735.3 600.526 1735.61 598.945 1736.23 597.27L1735.7 597.108C1733.11 600.89 1730.65 603.66 1728.33 605.416 1726 607.172 1723.54 608.05 1720.95 608.05 1717.98 608.05 1715.68 606.929 1714.04 604.686 1712.41 602.444 1711.59 599.296 1711.59 595.244 1711.59 590.596 1712.5 586.132 1714.32 581.849 1716.15 577.567 1718.65 574.19 1721.84 571.717 1725.03 569.245 1728.58 568.009 1732.5 568.009Z" fill-rule="evenodd"/><text fill="#000000" fill-opacity="0" font-family="Arial,Arial_MSFontService,sans-serif" font-size="40.0815" x="1711.59" y="603.081">𝑎</text><path d="M1856.45 572.791C1855.16 572.791 1853.88 573.203 1852.62 574.027 1851.37 574.851 1849.97 576.216 1848.43 578.12 1846.89 580.025 1845.63 581.977 1844.66 583.977 1843.69 585.976 1842.86 588.529 1842.19 591.636L1841.82 593.338C1841.42 595.23 1841.22 597.067 1841.22 598.85 1841.22 600.985 1841.68 602.525 1842.61 603.47 1843.55 604.416 1845.09 604.889 1847.25 604.889 1848.36 604.889 1849.42 604.706 1850.42 604.342 1851.42 603.977 1852.44 603.376 1853.48 602.538 1854.52 601.701 1855.5 600.6 1856.43 599.235 1857.37 597.871 1858.22 596.189 1859.01 594.19 1859.79 592.19 1860.4 590.049 1860.83 587.766 1861.26 585.483 1861.48 583.301 1861.48 581.221 1861.48 578.411 1861.08 576.303 1860.28 574.898 1859.49 573.494 1858.21 572.791 1856.45 572.791ZM1849.36 549.488 1851.71 549.488 1844.58 577.857 1845.11 578.019C1847.73 574.507 1850.19 571.967 1852.48 570.4 1854.78 568.833 1857.08 568.049 1859.37 568.049 1862.32 568.049 1864.61 569.171 1866.24 571.413 1867.88 573.656 1868.69 576.817 1868.69 580.897 1868.69 585.355 1867.79 589.738 1866 594.048 1864.2 598.357 1861.71 601.775 1858.52 604.301 1855.33 606.827 1851.77 608.09 1847.82 608.09 1844.23 608.09 1841.04 607.212 1838.26 605.456L1834.53 608.09 1831.93 607.442 1842.43 561.119C1843.05 558.363 1843.36 556.364 1843.36 555.121 1843.36 553.986 1843.02 553.189 1842.33 552.73 1841.64 552.271 1840.41 552.014 1838.62 551.96L1839.11 549.853Z" fill-rule="evenodd"/><text fill="#000000" fill-opacity="0" font-family="Arial,Arial_MSFontService,sans-serif" font-size="58.6025" x="1831.93" y="600.765">𝑏</text><path d="M1778.33 727.957C1780.85 727.957 1783.14 728.105 1785.2 728.403 1787.27 728.7 1789.33 729.213 1791.38 729.943L1789.56 738.453 1786.28 738.453C1785.98 736.049 1785.19 734.225 1783.91 732.982 1782.62 731.739 1780.6 731.118 1777.85 731.118 1775.71 731.118 1773.98 731.665 1772.66 732.759 1771.34 733.854 1770.67 735.292 1770.67 737.075 1770.67 738.048 1770.84 738.906 1771.18 739.649 1771.52 740.392 1772.2 741.209 1773.23 742.101 1774.25 742.992 1775.85 744.087 1778.01 745.384 1779.71 746.41 1781.08 747.349 1782.1 748.2 1783.13 749.051 1783.94 749.896 1784.53 750.733 1785.13 751.571 1785.56 752.456 1785.83 753.388 1786.1 754.32 1786.24 755.448 1786.24 756.772 1786.24 759.176 1785.59 761.237 1784.31 762.952 1783.03 764.668 1781.29 765.944 1779.08 766.782 1776.88 767.62 1774.38 768.038 1771.57 768.038 1769.32 768.038 1767.12 767.869 1764.96 767.532 1762.8 767.194 1760.39 766.62 1757.75 765.809L1759.69 756.974 1762.85 756.974C1762.96 759.568 1763.69 761.527 1765.04 762.851 1766.39 764.175 1768.54 764.837 1771.48 764.837 1774.05 764.837 1776.06 764.263 1777.5 763.114 1778.95 761.966 1779.67 760.338 1779.67 758.231 1779.67 757.015 1779.47 755.968 1779.06 755.09 1778.66 754.212 1778 753.367 1777.08 752.557 1776.16 751.746 1774.7 750.733 1772.7 749.517 1770.59 748.247 1768.95 747.099 1767.78 746.073 1766.6 745.046 1765.72 743.931 1765.12 742.729 1764.53 741.527 1764.23 740.142 1764.23 738.575 1764.23 736.44 1764.8 734.57 1765.95 732.962 1767.1 731.354 1768.74 730.118 1770.88 729.254 1773.01 728.389 1775.5 727.957 1778.33 727.957Z" fill-rule="evenodd"/><text fill="#000000" fill-opacity="0" font-family="Arial,Arial_MSFontService,sans-serif" font-size="40.0815" x="1757.75" y="763.028">𝑠</text><path d="M0 0 0.000360892 89.6294" stroke="#000000" stroke-width="2.29167" stroke-miterlimit="8" fill="none" fill-rule="evenodd" transform="matrix(1 0 0 -1 1776 863.63)"/><path d="M1703.47 649.005C1700.66 649.005 1698.2 650.18 1696.11 652.531 1694.02 654.881 1692.37 658.245 1691.17 662.622 1689.96 666.999 1689.36 670.768 1689.36 673.929 1689.36 676.901 1689.98 679.096 1691.21 680.515 1692.44 681.933 1694.29 682.642 1696.78 682.642 1699.43 682.642 1701.78 681.454 1703.83 679.076 1705.88 676.698 1707.51 673.368 1708.69 669.086 1709.88 664.804 1710.48 661.041 1710.48 657.799 1710.48 654.881 1709.91 652.686 1708.78 651.213 1707.64 649.741 1705.87 649.005 1703.47 649.005ZM1704.28 645.763C1708.6 645.763 1711.9 646.945 1714.17 649.309 1716.44 651.673 1717.57 655.057 1717.57 659.461 1717.57 662.595 1717.02 665.945 1715.93 669.512 1714.83 673.078 1713.34 676.077 1711.43 678.509 1709.53 680.94 1707.25 682.771 1704.6 684 1701.95 685.229 1698.91 685.844 1695.48 685.844 1691.3 685.844 1688.05 684.669 1685.74 682.318 1683.43 679.968 1682.27 676.59 1682.27 672.186 1682.27 670.025 1682.6 667.526 1683.24 664.689 1684.08 660.852 1685.49 657.502 1687.46 654.638 1689.43 651.774 1691.86 649.579 1694.75 648.052 1697.64 646.526 1700.82 645.763 1704.28 645.763Z" fill-rule="evenodd"/><text fill="#000000" fill-opacity="0" font-family="Arial,Arial_MSFontService,sans-serif" font-size="40.0815" x="1682.27" y="680.834">𝑜</text><path d="M1850.12 648.516 1852.52 648.516 1846.68 674.534C1846.09 677.182 1845.79 679.181 1845.79 680.532 1845.79 681.613 1845.96 682.397 1846.31 682.883 1846.67 683.369 1847.22 683.612 1847.98 683.612 1848.79 683.612 1849.65 683.281 1850.57 682.62 1851.49 681.958 1852.79 680.694 1854.46 678.83L1856.77 681.1C1854.12 683.883 1851.97 685.774 1850.33 686.774 1848.68 687.773 1846.83 688.273 1844.77 688.273 1843.02 688.273 1841.61 687.631 1840.56 686.348 1839.51 685.065 1838.98 683.423 1838.98 681.424 1838.98 679.371 1839.36 676.75 1840.11 673.562L1843.15 660.309C1843.78 657.607 1844.09 655.581 1844.09 654.23 1844.09 653.014 1843.8 652.19 1843.21 651.758 1842.63 651.326 1841.49 651.082 1839.79 651.028L1840.24 648.88ZM1849.03 632.994 1856.2 632.994 1854.34 640.856 1847.17 640.856Z" fill-rule="evenodd"/><text fill="#000000" fill-opacity="0" font-family="Arial,Arial_MSFontService,sans-serif" font-size="55.2793" x="1838.98" y="681.363">𝑖</text><path d="M2135.44 722.795C2137.95 722.795 2140.24 722.943 2142.31 723.24 2144.38 723.538 2146.44 724.051 2148.49 724.78L2146.67 733.291 2143.38 733.291C2143.09 730.887 2142.3 729.063 2141.01 727.82 2139.73 726.577 2137.71 725.956 2134.95 725.956 2132.82 725.956 2131.09 726.503 2129.77 727.597 2128.44 728.691 2127.78 730.13 2127.78 731.913 2127.78 732.886 2127.95 733.744 2128.29 734.487 2128.62 735.23 2129.31 736.047 2130.33 736.939 2131.36 737.83 2132.95 738.924 2135.12 740.221 2136.82 741.248 2138.18 742.187 2139.21 743.038 2140.24 743.889 2141.05 744.733 2141.64 745.571 2142.23 746.409 2142.67 747.293 2142.94 748.226 2143.21 749.158 2143.34 750.286 2143.34 751.61 2143.34 754.014 2142.7 756.074 2141.42 757.79 2140.13 759.506 2138.39 760.782 2136.19 761.62 2133.99 762.457 2131.48 762.876 2128.67 762.876 2126.43 762.876 2124.23 762.707 2122.07 762.37 2119.9 762.032 2117.5 761.458 2114.85 760.647L2116.8 751.812 2119.96 751.812C2120.07 754.406 2120.8 756.365 2122.15 757.689 2123.5 759.013 2125.65 759.674 2128.59 759.674 2131.16 759.674 2133.16 759.1 2134.61 757.952 2136.05 756.804 2136.78 755.176 2136.78 753.069 2136.78 751.853 2136.57 750.806 2136.17 749.928 2135.76 749.05 2135.1 748.205 2134.18 747.395 2133.26 746.584 2131.81 745.571 2129.81 744.355 2127.7 743.085 2126.06 741.937 2124.88 740.91 2123.71 739.884 2122.82 738.769 2122.23 737.567 2121.63 736.365 2121.34 734.98 2121.34 733.413 2121.34 731.278 2121.91 729.407 2123.06 727.8 2124.21 726.192 2125.85 724.956 2127.98 724.091 2130.12 723.227 2132.6 722.795 2135.44 722.795Z" fill-rule="evenodd"/><text fill="#000000" fill-opacity="0" font-family="Arial,Arial_MSFontService,sans-serif" font-size="40.0815" x="2114.85" y="757.866">𝑠</text><path d="M2060.57 643.842C2057.76 643.842 2055.31 645.018 2053.22 647.368 2051.12 649.719 2049.47 653.083 2048.27 657.46 2047.07 661.837 2046.47 665.606 2046.47 668.767 2046.47 671.739 2047.08 673.934 2048.31 675.352 2049.54 676.771 2051.4 677.48 2053.89 677.48 2056.53 677.48 2058.88 676.291 2060.94 673.914 2062.99 671.536 2064.61 668.206 2065.8 663.924 2066.99 659.641 2067.58 655.879 2067.58 652.637 2067.58 649.719 2067.02 647.524 2065.88 646.051 2064.75 644.579 2062.98 643.842 2060.57 643.842ZM2061.38 640.6C2065.71 640.6 2069 641.782 2071.27 644.146 2073.54 646.51 2074.68 649.895 2074.68 654.299 2074.68 657.433 2074.13 660.783 2073.03 664.349 2071.94 667.916 2070.44 670.915 2068.54 673.346 2066.63 675.778 2064.36 677.609 2061.71 678.838 2059.06 680.067 2056.02 680.682 2052.59 680.682 2048.4 680.682 2045.15 679.507 2042.84 677.156 2040.53 674.805 2039.38 671.428 2039.38 667.024 2039.38 664.863 2039.7 662.363 2040.35 659.527 2041.19 655.69 2042.59 652.34 2044.56 649.476 2046.54 646.612 2048.97 644.417 2051.86 642.89 2054.75 641.364 2057.92 640.6 2061.38 640.6Z" fill-rule="evenodd"/><text fill="#000000" fill-opacity="0" font-family="Arial,Arial_MSFontService,sans-serif" font-size="40.0815" x="2039.38" y="675.672">𝑜</text><path d="M2207.23 643.354 2209.62 643.354 2203.79 669.372C2203.19 672.02 2202.89 674.019 2202.89 675.37 2202.89 676.451 2203.07 677.234 2203.42 677.721 2203.77 678.207 2204.33 678.45 2205.08 678.45 2205.89 678.45 2206.76 678.119 2207.68 677.457 2208.59 676.795 2209.89 675.532 2211.57 673.668L2213.88 675.938C2211.23 678.72 2209.08 680.612 2207.43 681.611 2205.78 682.611 2203.93 683.111 2201.88 683.111 2200.12 683.111 2198.72 682.469 2197.67 681.186 2196.61 679.902 2196.09 678.261 2196.09 676.262 2196.09 674.208 2196.46 671.588 2197.22 668.399L2200.26 655.147C2200.88 652.445 2201.19 650.419 2201.19 649.068 2201.19 647.852 2200.9 647.028 2200.32 646.596 2199.74 646.163 2198.6 645.92 2196.9 645.866L2197.34 643.718ZM2206.14 627.832 2213.31 627.832 2211.45 635.694 2204.27 635.694Z" fill-rule="evenodd"/><text fill="#000000" fill-opacity="0" font-family="Arial,Arial_MSFontService,sans-serif" font-size="55.2793" x="2196.09" y="676.201">𝑖</text><path d="M2492.55 717.632C2495.06 717.632 2497.35 717.781 2499.42 718.078 2501.48 718.375 2503.54 718.889 2505.6 719.618L2503.77 728.129 2500.49 728.129C2500.19 725.724 2499.4 723.901 2498.12 722.658 2496.83 721.415 2494.82 720.794 2492.06 720.794 2489.92 720.794 2488.2 721.341 2486.87 722.435 2485.55 723.529 2484.89 724.968 2484.89 726.751 2484.89 727.724 2485.05 728.582 2485.39 729.325 2485.73 730.068 2486.41 730.885 2487.44 731.776 2488.47 732.668 2490.06 733.762 2492.22 735.059 2493.92 736.086 2495.29 737.025 2496.31 737.876 2497.34 738.727 2498.15 739.571 2498.75 740.409 2499.34 741.246 2499.77 742.131 2500.04 743.063 2500.31 743.995 2500.45 745.123 2500.45 746.447 2500.45 748.852 2499.81 750.912 2498.52 752.628 2497.24 754.343 2495.5 755.62 2493.3 756.458 2491.09 757.295 2488.59 757.714 2485.78 757.714 2483.54 757.714 2481.33 757.545 2479.17 757.207 2477.01 756.87 2474.61 756.295 2471.96 755.485L2473.9 746.65 2477.06 746.65C2477.17 749.244 2477.9 751.203 2479.25 752.526 2480.6 753.85 2482.75 754.512 2485.7 754.512 2488.26 754.512 2490.27 753.938 2491.71 752.79 2493.16 751.642 2493.88 750.014 2493.88 747.906 2493.88 746.69 2493.68 745.644 2493.28 744.765 2492.87 743.887 2492.21 743.043 2491.29 742.232 2490.37 741.422 2488.91 740.409 2486.91 739.193 2484.8 737.923 2483.16 736.775 2481.99 735.748 2480.81 734.721 2479.93 733.607 2479.33 732.405 2478.74 731.202 2478.44 729.818 2478.44 728.251 2478.44 726.116 2479.02 724.245 2480.16 722.638 2481.31 721.03 2482.95 719.794 2485.09 718.929 2487.22 718.065 2489.71 717.632 2492.55 717.632Z" fill-rule="evenodd"/><text fill="#000000" fill-opacity="0" font-family="Arial,Arial_MSFontService,sans-serif" font-size="40.0815" x="2471.96" y="752.704">𝑠</text><path d="M2417.68 638.68C2414.87 638.68 2412.42 639.856 2410.32 642.206 2408.23 644.557 2406.58 647.92 2405.38 652.297 2404.18 656.674 2403.57 660.443 2403.57 663.605 2403.57 666.577 2404.19 668.772 2405.42 670.19 2406.65 671.609 2408.51 672.318 2410.99 672.318 2413.64 672.318 2415.99 671.129 2418.04 668.752 2420.1 666.374 2421.72 663.044 2422.91 658.762 2424.1 654.479 2424.69 650.717 2424.69 647.475 2424.69 644.557 2424.12 642.361 2422.99 640.889 2421.85 639.417 2420.08 638.68 2417.68 638.68ZM2418.49 635.438C2422.81 635.438 2426.11 636.62 2428.38 638.984 2430.65 641.348 2431.78 644.732 2431.78 649.136 2431.78 652.27 2431.23 655.621 2430.14 659.187 2429.05 662.753 2427.55 665.753 2425.64 668.184 2423.74 670.616 2421.46 672.446 2418.81 673.676 2416.17 674.905 2413.13 675.52 2409.69 675.52 2405.51 675.52 2402.26 674.344 2399.95 671.994 2397.64 669.643 2396.48 666.266 2396.48 661.862 2396.48 659.7 2396.81 657.201 2397.46 654.364 2398.29 650.528 2399.7 647.177 2401.67 644.314 2403.64 641.45 2406.07 639.254 2408.97 637.728 2411.86 636.201 2415.03 635.438 2418.49 635.438Z" fill-rule="evenodd"/><text fill="#000000" fill-opacity="0" font-family="Arial,Arial_MSFontService,sans-serif" font-size="40.0815" x="2396.48" y="670.509">𝑜</text><path d="M2564.34 638.191 2566.73 638.191 2560.89 664.21C2560.3 666.858 2560 668.857 2560 670.208 2560 671.289 2560.18 672.072 2560.53 672.559 2560.88 673.045 2561.43 673.288 2562.19 673.288 2563 673.288 2563.86 672.957 2564.78 672.295 2565.7 671.633 2567 670.37 2568.67 668.506L2570.98 670.775C2568.33 673.558 2566.19 675.449 2564.54 676.449 2562.89 677.449 2561.04 677.949 2558.99 677.949 2557.23 677.949 2555.83 677.307 2554.77 676.024 2553.72 674.74 2553.19 673.099 2553.19 671.1 2553.19 669.046 2553.57 666.425 2554.33 663.237L2557.37 649.985C2557.99 647.283 2558.3 645.257 2558.3 643.906 2558.3 642.69 2558.01 641.866 2557.43 641.434 2556.85 641.001 2555.7 640.758 2554 640.704L2554.45 638.556ZM2563.24 622.669 2570.42 622.669 2568.55 630.532 2561.38 630.532Z" fill-rule="evenodd"/><text fill="#000000" fill-opacity="0" font-family="Arial,Arial_MSFontService,sans-serif" font-size="55.2793" x="2553.19" y="671.039">𝑖</text><path d="M2854.08 716.615C2856.59 716.615 2858.88 716.764 2860.95 717.061 2863.02 717.358 2865.08 717.872 2867.13 718.601L2865.31 727.112 2862.03 727.112C2861.73 724.707 2860.94 722.884 2859.65 721.641 2858.37 720.398 2856.35 719.777 2853.6 719.777 2851.46 719.777 2849.73 720.324 2848.41 721.418 2847.08 722.512 2846.42 723.951 2846.42 725.734 2846.42 726.707 2846.59 727.565 2846.93 728.308 2847.27 729.051 2847.95 729.868 2848.98 730.759 2850 731.651 2851.6 732.745 2853.76 734.042 2855.46 735.069 2856.82 736.008 2857.85 736.859 2858.88 737.71 2859.69 738.554 2860.28 739.392 2860.88 740.229 2861.31 741.114 2861.58 742.046 2861.85 742.978 2861.98 744.106 2861.98 745.43 2861.98 747.835 2861.34 749.895 2860.06 751.611 2858.78 753.326 2857.03 754.603 2854.83 755.441 2852.63 756.278 2850.12 756.697 2847.31 756.697 2845.07 756.697 2842.87 756.528 2840.71 756.19 2838.55 755.853 2836.14 755.279 2833.49 754.468L2835.44 745.633 2838.6 745.633C2838.71 748.227 2839.44 750.186 2840.79 751.509 2842.14 752.833 2844.29 753.495 2847.23 753.495 2849.8 753.495 2851.81 752.921 2853.25 751.773 2854.7 750.625 2855.42 748.997 2855.42 746.889 2855.42 745.674 2855.22 744.627 2854.81 743.748 2854.41 742.87 2853.74 742.026 2852.83 741.216 2851.91 740.405 2850.45 739.392 2848.45 738.176 2846.34 736.906 2844.7 735.758 2843.52 734.731 2842.35 733.704 2841.46 732.59 2840.87 731.388 2840.28 730.185 2839.98 728.801 2839.98 727.234 2839.98 725.099 2840.55 723.228 2841.7 721.621 2842.85 720.013 2844.49 718.777 2846.62 717.912 2848.76 717.048 2851.25 716.615 2854.08 716.615Z" fill-rule="evenodd"/><text fill="#000000" fill-opacity="0" font-family="Arial,Arial_MSFontService,sans-serif" font-size="40.0815" x="2833.49" y="751.687">𝑠</text><path d="M2779.22 637.663C2776.41 637.663 2773.95 638.839 2771.86 641.189 2769.77 643.54 2768.12 646.904 2766.92 651.28 2765.71 655.657 2765.11 659.426 2765.11 662.588 2765.11 665.56 2765.73 667.755 2766.96 669.173 2768.18 670.592 2770.04 671.301 2772.53 671.301 2775.18 671.301 2777.53 670.112 2779.58 667.735 2781.63 665.357 2783.25 662.027 2784.44 657.745 2785.63 653.462 2786.23 649.7 2786.23 646.458 2786.23 643.54 2785.66 641.344 2784.52 639.872 2783.39 638.4 2781.62 637.663 2779.22 637.663ZM2780.03 634.421C2784.35 634.421 2787.64 635.603 2789.91 637.967 2792.18 640.331 2793.32 643.715 2793.32 648.119 2793.32 651.253 2792.77 654.604 2791.68 658.17 2790.58 661.737 2789.08 664.736 2787.18 667.167 2785.27 669.599 2783 671.429 2780.35 672.659 2777.7 673.888 2774.66 674.503 2771.23 674.503 2767.04 674.503 2763.79 673.327 2761.48 670.977 2759.17 668.626 2758.02 665.249 2758.02 660.845 2758.02 658.683 2758.34 656.184 2758.99 653.347 2759.83 649.511 2761.23 646.161 2763.21 643.297 2765.18 640.433 2767.61 638.237 2770.5 636.711 2773.39 635.184 2776.57 634.421 2780.03 634.421Z" fill-rule="evenodd"/><text fill="#000000" fill-opacity="0" font-family="Arial,Arial_MSFontService,sans-serif" font-size="40.0815" x="2758.02" y="669.492">𝑜</text><path d="M2925.87 637.174 2928.26 637.174 2922.43 663.193C2921.83 665.841 2921.54 667.84 2921.54 669.191 2921.54 670.272 2921.71 671.055 2922.06 671.542 2922.41 672.028 2922.97 672.271 2923.72 672.271 2924.54 672.271 2925.4 671.94 2926.32 671.278 2927.24 670.616 2928.53 669.353 2930.21 667.489L2932.52 669.758C2929.87 672.541 2927.72 674.432 2926.08 675.432 2924.43 676.432 2922.58 676.932 2920.52 676.932 2918.77 676.932 2917.36 676.29 2916.31 675.007 2915.25 673.723 2914.73 672.082 2914.73 670.083 2914.73 668.029 2915.11 665.408 2915.86 662.22L2918.9 648.968C2919.52 646.266 2919.83 644.24 2919.83 642.889 2919.83 641.673 2919.54 640.849 2918.96 640.417 2918.38 639.984 2917.24 639.741 2915.54 639.687L2915.98 637.539ZM2924.78 621.652 2931.95 621.652 2930.09 629.515 2922.91 629.515Z" fill-rule="evenodd"/><text fill="#000000" fill-opacity="0" font-family="Arial,Arial_MSFontService,sans-serif" font-size="55.2793" x="2914.73" y="670.022">𝑖</text><rect x="2019.5" y="537.5" width="236" height="236" stroke="#000000" stroke-width="4.58333" stroke-miterlimit="8" fill="none"/><path d="M0 0 0.000360892 89.6294" stroke="#000000" stroke-width="2.29167" stroke-miterlimit="8" fill="none" fill-rule="evenodd" transform="matrix(1 0 0 -1 2088 536.629)"/><path d="M0 0 0.000360892 89.6294" stroke="#000000" stroke-width="2.29167" stroke-miterlimit="8" fill="none" fill-rule="evenodd" transform="matrix(1 0 0 -1 2208 536.629)"/><path d="M2089.79 570.421C2087.01 570.421 2084.51 571.542 2082.3 573.785 2080.08 576.027 2078.35 579.033 2077.11 582.802 2075.86 586.571 2075.24 590.334 2075.24 594.089 2075.24 596.899 2075.63 599 2076.4 600.391 2077.17 601.783 2078.46 602.478 2080.27 602.478 2082.05 602.478 2083.8 601.708 2085.52 600.168 2087.23 598.628 2089 596.433 2090.83 593.583 2092.65 590.732 2093.94 587.443 2094.7 583.714L2095.06 581.971C2095.3 580.864 2095.47 579.905 2095.55 579.094 2095.63 578.284 2095.67 577.405 2095.67 576.46 2095.67 574.379 2095.22 572.853 2094.33 571.88 2093.44 570.908 2091.93 570.421 2089.79 570.421ZM2088.98 567.22C2090.74 567.22 2092.38 567.415 2093.91 567.807 2095.43 568.199 2097.01 568.895 2098.63 569.894L2102.36 567.22 2104.95 567.868 2098.99 593.562C2098.4 596.129 2098.1 598.128 2098.1 599.56 2098.1 600.641 2098.28 601.425 2098.63 601.911 2098.98 602.397 2099.53 602.64 2100.29 602.64 2101.1 602.64 2101.96 602.309 2102.88 601.648 2103.8 600.986 2105.1 599.722 2106.77 597.858L2109.08 600.128C2106.65 602.721 2104.58 604.565 2102.86 605.66 2101.15 606.754 2099.29 607.301 2097.29 607.301 2095.62 607.301 2094.28 606.747 2093.28 605.639 2092.28 604.532 2091.78 603.059 2091.78 601.222 2091.78 599.736 2092.09 598.155 2092.71 596.48L2092.18 596.318C2089.59 600.101 2087.13 602.87 2084.81 604.626 2082.48 606.382 2080.03 607.261 2077.43 607.261 2074.46 607.261 2072.16 606.139 2070.52 603.897 2068.89 601.654 2068.07 598.507 2068.07 594.454 2068.07 589.807 2068.98 585.342 2070.81 581.06 2072.63 576.777 2075.14 573.4 2078.32 570.928 2081.51 568.456 2085.06 567.22 2088.98 567.22Z" fill-rule="evenodd"/><text fill="#000000" fill-opacity="0" font-family="Arial,Arial_MSFontService,sans-serif" font-size="40.0815" x="2068.07" y="602.291">𝑎</text><path d="M2212.93 572.001C2211.64 572.001 2210.36 572.414 2209.1 573.238 2207.85 574.062 2206.45 575.426 2204.91 577.331 2203.37 579.236 2202.11 581.188 2201.14 583.187 2200.17 585.186 2199.34 587.74 2198.67 590.847L2198.3 592.549C2197.9 594.44 2197.7 596.277 2197.7 598.061 2197.7 600.195 2198.16 601.735 2199.09 602.681 2200.03 603.626 2201.57 604.099 2203.74 604.099 2204.84 604.099 2205.9 603.917 2206.9 603.552 2207.9 603.187 2208.92 602.586 2209.96 601.749 2211 600.911 2211.98 599.81 2212.91 598.446 2213.85 597.081 2214.7 595.399 2215.49 593.4 2216.27 591.401 2216.88 589.259 2217.31 586.976 2217.74 584.693 2217.96 582.512 2217.96 580.431 2217.96 577.621 2217.56 575.514 2216.76 574.109 2215.97 572.704 2214.69 572.001 2212.93 572.001ZM2205.84 548.698 2208.19 548.698 2201.06 577.067 2201.59 577.229C2204.21 573.717 2206.67 571.177 2208.96 569.61 2211.26 568.043 2213.56 567.26 2215.85 567.26 2218.8 567.26 2221.09 568.381 2222.72 570.624 2224.36 572.866 2225.17 576.027 2225.17 580.107 2225.17 584.565 2224.28 588.949 2222.48 593.258 2220.68 597.567 2218.19 600.985 2215 603.511 2211.81 606.038 2208.25 607.301 2204.3 607.301 2200.71 607.301 2197.52 606.423 2194.74 604.667L2191.01 607.301 2188.42 606.652 2198.91 560.33C2199.53 557.574 2199.84 555.574 2199.84 554.332 2199.84 553.197 2199.5 552.4 2198.81 551.94 2198.12 551.481 2196.89 551.224 2195.1 551.17L2195.59 549.063Z" fill-rule="evenodd"/><text fill="#000000" fill-opacity="0" font-family="Arial,Arial_MSFontService,sans-serif" font-size="58.6025" x="2188.42" y="599.975">𝑏</text><path d="M0 0 0.000360892 89.6294" stroke="#000000" stroke-width="2.29167" stroke-miterlimit="8" fill="none" fill-rule="evenodd" transform="matrix(1 0 0 -1 2133 862.63)"/><rect x="2375.5" y="536.5" width="236" height="236" stroke="#000000" stroke-width="4.58333" stroke-miterlimit="8" fill="none"/><path d="M0 0 0.000360892 89.6294" stroke="#000000" stroke-width="2.29167" stroke-miterlimit="8" fill="none" fill-rule="evenodd" transform="matrix(1 0 0 -1 2444 536.629)"/><path d="M0 0 0.000360892 89.6294" stroke="#000000" stroke-width="2.29167" stroke-miterlimit="8" fill="none" fill-rule="evenodd" transform="matrix(1 0 0 -1 2565 536.629)"/><path d="M2446.27 569.632C2443.49 569.632 2440.99 570.753 2438.78 572.995 2436.56 575.238 2434.83 578.244 2433.59 582.013 2432.35 585.782 2431.72 589.544 2431.72 593.3 2431.72 596.109 2432.11 598.21 2432.88 599.602 2433.65 600.993 2434.94 601.689 2436.75 601.689 2438.53 601.689 2440.28 600.919 2442 599.379 2443.71 597.839 2445.48 595.643 2447.31 592.793 2449.13 589.943 2450.42 586.653 2451.18 582.925L2451.54 581.182C2451.79 580.074 2451.95 579.115 2452.03 578.304 2452.11 577.494 2452.15 576.616 2452.15 575.67 2452.15 573.59 2451.7 572.063 2450.81 571.091 2449.92 570.118 2448.41 569.632 2446.27 569.632ZM2445.46 566.43C2447.22 566.43 2448.86 566.626 2450.39 567.018 2451.91 567.409 2453.49 568.105 2455.11 569.105L2458.84 566.43 2461.43 567.078 2455.47 592.773C2454.88 595.339 2454.58 597.339 2454.58 598.771 2454.58 599.852 2454.76 600.635 2455.11 601.121 2455.46 601.608 2456.01 601.851 2456.77 601.851 2457.58 601.851 2458.45 601.52 2459.36 600.858 2460.28 600.196 2461.58 598.933 2463.25 597.069L2465.56 599.338C2463.13 601.932 2461.06 603.776 2459.34 604.87 2457.63 605.964 2455.77 606.511 2453.77 606.511 2452.1 606.511 2450.76 605.958 2449.76 604.85 2448.76 603.742 2448.26 602.27 2448.26 600.432 2448.26 598.946 2448.57 597.366 2449.19 595.691L2448.66 595.529C2446.07 599.311 2443.61 602.081 2441.29 603.837 2438.97 605.593 2436.51 606.471 2433.91 606.471 2430.94 606.471 2428.64 605.35 2427 603.107 2425.37 600.865 2424.55 597.717 2424.55 593.664 2424.55 589.017 2425.46 584.552 2427.29 580.27 2429.11 575.988 2431.62 572.61 2434.8 570.138 2437.99 567.666 2441.55 566.43 2445.46 566.43Z" fill-rule="evenodd"/><text fill="#000000" fill-opacity="0" font-family="Arial,Arial_MSFontService,sans-serif" font-size="40.0815" x="2424.55" y="601.501">𝑎</text><path d="M2569.42 571.212C2568.12 571.212 2566.84 571.624 2565.59 572.448 2564.33 573.272 2562.93 574.636 2561.39 576.541 2559.85 578.446 2558.59 580.398 2557.62 582.397 2556.65 584.397 2555.83 586.95 2555.15 590.057L2554.79 591.759C2554.38 593.65 2554.18 595.488 2554.18 597.271 2554.18 599.405 2554.64 600.945 2555.58 601.891 2556.51 602.837 2558.05 603.309 2560.22 603.309 2561.32 603.309 2562.38 603.127 2563.38 602.762 2564.38 602.398 2565.4 601.796 2566.44 600.959 2567.48 600.121 2568.46 599.02 2569.4 597.656 2570.33 596.291 2571.19 594.61 2571.97 592.61 2572.75 590.611 2573.36 588.47 2573.79 586.187 2574.22 583.904 2574.44 581.722 2574.44 579.641 2574.44 576.832 2574.04 574.724 2573.25 573.319 2572.45 571.914 2571.17 571.212 2569.42 571.212ZM2562.32 547.909 2564.67 547.909 2557.54 576.278 2558.07 576.44C2560.69 572.927 2563.15 570.388 2565.44 568.821 2567.74 567.254 2570.04 566.47 2572.33 566.47 2575.28 566.47 2577.57 567.591 2579.2 569.834 2580.84 572.076 2581.65 575.237 2581.65 579.317 2581.65 583.775 2580.76 588.159 2578.96 592.468 2577.16 596.778 2574.67 600.196 2571.48 602.722 2568.29 605.248 2564.73 606.511 2560.78 606.511 2557.19 606.511 2554 605.633 2551.22 603.877L2547.49 606.511 2544.9 605.863 2555.39 559.54C2556.01 556.784 2556.33 554.785 2556.33 553.542 2556.33 552.407 2555.98 551.61 2555.29 551.151 2554.6 550.691 2553.37 550.435 2551.58 550.381L2552.07 548.273Z" fill-rule="evenodd"/><text fill="#000000" fill-opacity="0" font-family="Arial,Arial_MSFontService,sans-serif" font-size="58.6025" x="2544.9" y="599.186">𝑏</text><path d="M0 0 0.000360892 89.6294" stroke="#000000" stroke-width="2.29167" stroke-miterlimit="8" fill="none" fill-rule="evenodd" transform="matrix(1 0 0 -1 2489 861.63)"/><rect x="2732.5" y="535.5" width="236" height="237" stroke="#000000" stroke-width="4.58333" stroke-miterlimit="8" fill="none"/><path d="M0 0 0.000360892 89.6294" stroke="#000000" stroke-width="2.29167" stroke-miterlimit="8" fill="none" fill-rule="evenodd" transform="matrix(1 0 0 -1 2801 535.629)"/><path d="M0 0 0.000360892 89.6294" stroke="#000000" stroke-width="2.29167" stroke-miterlimit="8" fill="none" fill-rule="evenodd" transform="matrix(1 0 0 -1 2921 535.629)"/><path d="M2802.75 568.842C2799.97 568.842 2797.47 569.963 2795.26 572.206 2793.04 574.448 2791.31 577.454 2790.07 581.223 2788.83 584.992 2788.21 588.754 2788.21 592.51 2788.21 595.32 2788.59 597.421 2789.36 598.812 2790.13 600.203 2791.42 600.899 2793.23 600.899 2795.01 600.899 2796.76 600.129 2798.48 598.589 2800.19 597.049 2801.96 594.854 2803.79 592.003 2805.61 589.153 2806.9 585.863 2807.66 582.135L2808.02 580.392C2808.27 579.285 2808.43 578.325 2808.51 577.515 2808.59 576.704 2808.63 575.826 2808.63 574.881 2808.63 572.8 2808.19 571.274 2807.29 570.301 2806.4 569.328 2804.89 568.842 2802.75 568.842ZM2801.94 565.64C2803.7 565.64 2805.34 565.836 2806.87 566.228 2808.39 566.62 2809.97 567.315 2811.59 568.315L2815.32 565.64 2817.91 566.289 2811.95 591.983C2811.36 594.55 2811.06 596.549 2811.06 597.981 2811.06 599.062 2811.24 599.845 2811.59 600.332 2811.94 600.818 2812.49 601.061 2813.25 601.061 2814.06 601.061 2814.93 600.73 2815.84 600.068 2816.76 599.406 2818.06 598.143 2819.74 596.279L2822.05 598.549C2819.61 601.142 2817.54 602.986 2815.82 604.081 2814.11 605.175 2812.25 605.722 2810.25 605.722 2808.58 605.722 2807.24 605.168 2806.24 604.06 2805.24 602.953 2804.74 601.48 2804.74 599.643 2804.74 598.157 2805.05 596.576 2805.67 594.901L2805.15 594.739C2802.55 598.521 2800.09 601.291 2797.77 603.047 2795.45 604.803 2792.99 605.681 2790.39 605.681 2787.42 605.681 2785.12 604.56 2783.48 602.318 2781.85 600.075 2781.03 596.927 2781.03 592.875 2781.03 588.228 2781.94 583.763 2783.77 579.48 2785.59 575.198 2788.1 571.821 2791.29 569.349 2794.47 566.876 2798.03 565.64 2801.94 565.64Z" fill-rule="evenodd"/><text fill="#000000" fill-opacity="0" font-family="Arial,Arial_MSFontService,sans-serif" font-size="40.0815" x="2781.03" y="600.712">𝑎</text><path d="M2925.9 570.422C2924.6 570.422 2923.32 570.834 2922.07 571.658 2920.81 572.482 2919.41 573.847 2917.87 575.752 2916.33 577.656 2915.08 579.608 2914.1 581.608 2913.13 583.607 2912.31 586.16 2911.63 589.267L2911.27 590.97C2910.86 592.861 2910.66 594.698 2910.66 596.481 2910.66 598.616 2911.12 600.156 2912.06 601.101 2912.99 602.047 2914.54 602.52 2916.7 602.52 2917.8 602.52 2918.86 602.337 2919.86 601.973 2920.86 601.608 2921.88 601.007 2922.92 600.169 2923.96 599.332 2924.94 598.231 2925.88 596.866 2926.81 595.502 2927.67 593.82 2928.45 591.821 2929.23 589.821 2929.84 587.68 2930.27 585.397 2930.71 583.114 2930.92 580.932 2930.92 578.852 2930.92 576.042 2930.52 573.935 2929.73 572.53 2928.93 571.125 2927.65 570.422 2925.9 570.422ZM2918.8 547.119 2921.15 547.119 2914.02 575.488 2914.55 575.65C2917.17 572.138 2919.63 569.598 2921.92 568.031 2924.22 566.464 2926.52 565.68 2928.81 565.68 2931.76 565.68 2934.05 566.802 2935.68 569.044 2937.32 571.287 2938.14 574.448 2938.14 578.528 2938.14 582.986 2937.24 587.369 2935.44 591.679 2933.64 595.988 2931.15 599.406 2927.96 601.932 2924.78 604.458 2921.21 605.721 2917.26 605.721 2913.67 605.721 2910.48 604.843 2907.7 603.087L2903.97 605.721 2901.38 605.073 2911.87 558.75C2912.5 555.994 2912.81 553.995 2912.81 552.752 2912.81 551.617 2912.46 550.82 2911.77 550.361 2911.08 549.902 2909.85 549.645 2908.06 549.591L2908.55 547.484Z" fill-rule="evenodd"/><text fill="#000000" fill-opacity="0" font-family="Arial,Arial_MSFontService,sans-serif" font-size="58.6025" x="2901.38" y="598.396">𝑏</text><path d="M0 0 0.000360892 89.6294" stroke="#000000" stroke-width="2.29167" stroke-miterlimit="8" fill="none" fill-rule="evenodd" transform="matrix(1 0 0 -1 2846 861.63)"/><path d="M0 0 120.185 0.789633" stroke="#000000" stroke-width="2.29167" stroke-miterlimit="8" fill="none" fill-rule="evenodd" transform="matrix(1 0 0 -1 1899 655.789)"/><path d="M0 0 120.185 0.789633" stroke="#000000" stroke-width="2.29167" stroke-miterlimit="8" fill="none" fill-rule="evenodd" transform="matrix(1 0 0 -1 2257 653.79)"/><path d="M0 0 120.185 0.789633" stroke="#000000" stroke-width="2.29167" stroke-miterlimit="8" fill="none" fill-rule="evenodd" transform="matrix(1 0 0 -1 2615 650.79)"/><path d="M0 0 120.185 0.789633" stroke="#000000" stroke-width="2.29167" stroke-miterlimit="8" fill="none" fill-rule="evenodd" transform="matrix(1 0 0 -1 2973 648.79)"/><path d="M0 0 120.185 0.789633" stroke="#000000" stroke-width="2.29167" stroke-miterlimit="8" fill="none" fill-rule="evenodd" transform="matrix(1 0 0 -1 1537 655.789)"/><path d="M2783.46 396.969C2780.68 396.969 2778.18 398.09 2775.97 400.333 2773.75 402.575 2772.02 405.581 2770.78 409.35 2769.53 413.119 2768.91 416.881 2768.91 420.637 2768.91 423.447 2769.3 425.547 2770.07 426.939 2770.84 428.33 2772.13 429.026 2773.94 429.026 2775.72 429.026 2777.47 428.256 2779.19 426.716 2780.9 425.176 2782.67 422.981 2784.5 420.13 2786.32 417.28 2787.61 413.99 2788.37 410.262L2788.73 408.519C2788.97 407.411 2789.14 406.452 2789.22 405.642 2789.3 404.831 2789.34 403.953 2789.34 403.007 2789.34 400.927 2788.89 399.4 2788 398.428 2787.11 397.455 2785.6 396.969 2783.46 396.969ZM2782.65 393.767C2784.41 393.767 2786.05 393.963 2787.58 394.355 2789.1 394.747 2790.68 395.442 2792.3 396.442L2796.03 393.767 2798.62 394.416 2792.66 420.11C2792.07 422.677 2791.77 424.676 2791.77 426.108 2791.77 427.189 2791.95 427.972 2792.3 428.459 2792.65 428.945 2793.2 429.188 2793.96 429.188 2794.77 429.188 2795.63 428.857 2796.55 428.195 2797.47 427.533 2798.77 426.27 2800.44 424.406L2802.75 426.675C2800.32 429.269 2798.25 431.113 2796.53 432.207 2794.82 433.302 2792.96 433.849 2790.96 433.849 2789.29 433.849 2787.95 433.295 2786.95 432.187 2785.95 431.079 2785.45 429.607 2785.45 427.77 2785.45 426.284 2785.76 424.703 2786.38 423.028L2785.85 422.866C2783.26 426.648 2780.8 429.418 2778.48 431.174 2776.15 432.93 2773.7 433.808 2771.1 433.808 2768.13 433.808 2765.83 432.687 2764.19 430.444 2762.56 428.202 2761.74 425.054 2761.74 421.001 2761.74 416.354 2762.65 411.89 2764.48 407.607 2766.3 403.325 2768.81 399.948 2771.99 397.475 2775.18 395.003 2778.73 393.767 2782.65 393.767Z" fill-rule="evenodd"/><text fill="#000000" fill-opacity="0" font-family="Arial,Arial_MSFontService,sans-serif" font-size="40.0815" x="2761.74" y="428.838">𝑎</text><path d="M2820.98 414.361C2819.59 414.361 2818.43 414.724 2817.5 415.449 2816.56 416.173 2815.82 417.236 2815.28 418.636 2814.73 420.035 2814.34 421.743 2814.12 423.759 2813.89 425.774 2813.77 428.063 2813.77 430.624 2813.77 433.583 2813.92 436.139 2814.2 438.294 2814.49 440.448 2814.94 442.22 2815.54 443.61 2816.15 445 2816.91 446.023 2817.82 446.678 2818.74 447.334 2819.83 447.661 2821.1 447.661 2822.29 447.661 2823.33 447.353 2824.23 446.738 2825.12 446.122 2825.86 445.164 2826.45 443.864 2827.03 442.563 2827.47 440.915 2827.77 438.919 2828.07 436.924 2828.22 434.566 2828.22 431.845 2828.22 428.787 2828.05 426.156 2827.73 423.952 2827.4 421.748 2826.94 419.936 2826.34 418.516 2825.75 417.097 2825 416.049 2824.09 415.374 2823.19 414.699 2822.15 414.361 2820.98 414.361ZM2821.1 411.472C2823.46 411.472 2825.48 411.914 2827.16 412.798 2828.84 413.681 2830.21 414.942 2831.27 416.58 2832.33 418.219 2833.11 420.219 2833.61 422.582 2834.11 424.945 2834.35 427.616 2834.35 430.594 2834.35 437.207 2833.18 442.206 2830.84 445.591 2828.5 448.977 2825.1 450.669 2820.65 450.669 2816.24 450.669 2812.97 449.071 2810.82 445.874 2808.68 442.677 2807.61 437.832 2807.61 431.339 2807.61 427.943 2807.94 425.005 2808.6 422.522 2809.27 420.04 2810.2 417.98 2811.4 416.342 2812.61 414.704 2814.03 413.483 2815.68 412.678 2817.33 411.874 2819.13 411.472 2821.1 411.472Z" fill-rule="evenodd"/><text fill="#000000" fill-opacity="0" font-family="Arial,Arial_MSFontService,sans-serif" font-size="39.1973" x="2807.61" y="445.77">0</text><path d="M2429.69 396.969C2426.91 396.969 2424.41 398.09 2422.19 400.333 2419.98 402.575 2418.25 405.581 2417.01 409.35 2415.76 413.119 2415.14 416.881 2415.14 420.637 2415.14 423.447 2415.53 425.547 2416.3 426.939 2417.07 428.33 2418.36 429.026 2420.17 429.026 2421.95 429.026 2423.7 428.256 2425.42 426.716 2427.13 425.176 2428.9 422.981 2430.72 420.13 2432.55 417.28 2433.84 413.99 2434.59 410.262L2434.96 408.519C2435.2 407.411 2435.36 406.452 2435.45 405.642 2435.53 404.831 2435.57 403.953 2435.57 403.007 2435.57 400.927 2435.12 399.4 2434.23 398.428 2433.34 397.455 2431.83 396.969 2429.69 396.969ZM2428.88 393.767C2430.64 393.767 2432.28 393.963 2433.8 394.355 2435.33 394.747 2436.9 395.442 2438.53 396.442L2442.25 393.767 2444.85 394.416 2438.89 420.11C2438.3 422.677 2438 424.676 2438 426.108 2438 427.189 2438.17 427.972 2438.53 428.459 2438.88 428.945 2439.43 429.188 2440.19 429.188 2441 429.188 2441.86 428.857 2442.78 428.195 2443.7 427.533 2445 426.27 2446.67 424.406L2448.98 426.675C2446.55 429.269 2444.48 431.113 2442.76 432.207 2441.05 433.302 2439.19 433.849 2437.19 433.849 2435.51 433.849 2434.18 433.295 2433.18 432.187 2432.18 431.079 2431.68 429.607 2431.68 427.77 2431.68 426.284 2431.99 424.703 2432.61 423.028L2432.08 422.866C2429.49 426.648 2427.03 429.418 2424.71 431.174 2422.38 432.93 2419.92 433.808 2417.33 433.808 2414.36 433.808 2412.05 432.687 2410.42 430.444 2408.79 428.202 2407.97 425.054 2407.97 421.001 2407.97 416.354 2408.88 411.89 2410.7 407.607 2412.53 403.325 2415.03 399.948 2418.22 397.475 2421.41 395.003 2424.96 393.767 2428.88 393.767Z" fill-rule="evenodd"/><text fill="#000000" fill-opacity="0" font-family="Arial,Arial_MSFontService,sans-serif" font-size="40.0815" x="2407.97" y="428.838">𝑎</text><path d="M2467.75 411.681 2469.57 411.681C2469.53 412.773 2469.5 413.751 2469.48 414.615 2469.46 415.478 2469.44 416.317 2469.43 417.131 2469.42 417.945 2469.42 418.75 2469.42 419.544L2469.42 442.181C2469.42 442.796 2469.44 443.327 2469.48 443.774 2469.52 444.221 2469.58 444.598 2469.67 444.906 2469.76 445.214 2469.88 445.477 2470.03 445.695 2470.18 445.914 2470.35 446.102 2470.55 446.261 2470.79 446.5 2471.1 446.683 2471.5 446.812 2471.9 446.941 2472.41 447.051 2473.02 447.14 2473.64 447.229 2474.38 447.299 2475.24 447.348 2476.1 447.398 2477.14 447.433 2478.35 447.453L2478.35 450.044 2454.73 450.044 2454.73 447.453C2455.9 447.413 2456.9 447.368 2457.71 447.319 2458.53 447.269 2459.22 447.199 2459.8 447.11 2460.37 447.021 2460.83 446.922 2461.18 446.812 2461.53 446.703 2461.83 446.569 2462.09 446.41 2462.37 446.231 2462.61 446.038 2462.8 445.829 2463 445.621 2463.16 445.358 2463.28 445.04 2463.4 444.722 2463.49 444.335 2463.56 443.878 2463.63 443.422 2463.67 442.856 2463.67 442.181L2463.67 420.825C2463.67 420.05 2463.52 419.504 2463.22 419.187 2462.92 418.869 2462.5 418.71 2461.94 418.71 2461.33 418.71 2460.41 419.028 2459.2 419.663 2457.99 420.299 2456.42 421.242 2454.49 422.493 2454.24 422.036 2454 421.579 2453.78 421.123 2453.56 420.666 2453.33 420.199 2453.09 419.723 2455.56 418.372 2457.99 417.027 2460.41 415.687 2462.82 414.346 2465.27 413.011 2467.75 411.681Z" fill-rule="evenodd"/><text fill="#000000" fill-opacity="0" font-family="Arial,Arial_MSFontService,sans-serif" font-size="38.3633" x="2453.09" y="445.249">1</text><path d="M2075.74 396.969C2072.95 396.969 2070.45 398.09 2068.24 400.333 2066.02 402.575 2064.29 405.581 2063.05 409.35 2061.81 413.119 2061.19 416.881 2061.19 420.637 2061.19 423.447 2061.57 425.547 2062.34 426.939 2063.11 428.33 2064.4 429.026 2066.21 429.026 2068 429.026 2069.74 428.256 2071.46 426.716 2073.18 425.176 2074.95 422.981 2076.77 420.13 2078.59 417.28 2079.88 413.99 2080.64 410.262L2081 408.519C2081.25 407.411 2081.41 406.452 2081.49 405.642 2081.57 404.831 2081.61 403.953 2081.61 403.007 2081.61 400.927 2081.17 399.4 2080.27 398.428 2079.38 397.455 2077.87 396.969 2075.74 396.969ZM2074.93 393.767C2076.68 393.767 2078.32 393.963 2079.85 394.355 2081.38 394.747 2082.95 395.442 2084.57 396.442L2088.3 393.767 2090.89 394.416 2084.94 420.11C2084.34 422.677 2084.04 424.676 2084.04 426.108 2084.04 427.189 2084.22 427.972 2084.57 428.459 2084.92 428.945 2085.48 429.188 2086.23 429.188 2087.04 429.188 2087.91 428.857 2088.83 428.195 2089.74 427.533 2091.04 426.27 2092.72 424.406L2095.03 426.675C2092.6 429.269 2090.52 431.113 2088.81 432.207 2087.09 433.302 2085.23 433.849 2083.23 433.849 2081.56 433.849 2080.22 433.295 2079.22 432.187 2078.22 431.079 2077.72 429.607 2077.72 427.77 2077.72 426.284 2078.03 424.703 2078.65 423.028L2078.13 422.866C2075.53 426.648 2073.07 429.418 2070.75 431.174 2068.43 432.93 2065.97 433.808 2063.38 433.808 2060.4 433.808 2058.1 432.687 2056.47 430.444 2054.83 428.202 2054.01 425.054 2054.01 421.001 2054.01 416.354 2054.93 411.89 2056.75 407.607 2058.57 403.325 2061.08 399.948 2064.27 397.475 2067.45 395.003 2071.01 393.767 2074.93 393.767Z" fill-rule="evenodd"/><text fill="#000000" fill-opacity="0" font-family="Arial,Arial_MSFontService,sans-serif" font-size="40.0815" x="2054.01" y="428.838">𝑎</text><path d="M2113.37 411.472C2115.44 411.472 2117.2 411.706 2118.66 412.172 2120.12 412.639 2121.31 413.269 2122.22 414.064 2123.13 414.858 2123.79 415.811 2124.2 416.923 2124.61 418.035 2124.81 419.236 2124.81 420.527 2124.81 421.301 2124.76 422.021 2124.65 422.686 2124.54 423.352 2124.35 424.007 2124.08 424.652 2123.81 425.297 2123.46 425.948 2123.02 426.603 2122.59 427.258 2122.04 427.953 2121.39 428.688 2120.89 429.323 2120.24 430.058 2119.45 430.892 2118.66 431.726 2117.79 432.62 2116.84 433.573 2115.9 434.526 2114.91 435.519 2113.88 436.551 2112.85 437.584 2111.84 438.606 2110.87 439.619 2109.9 440.632 2109 441.615 2108.19 442.568 2107.38 443.521 2106.71 444.395 2106.19 445.189L2117.22 445.189C2118.15 445.189 2118.89 445.154 2119.45 445.085 2120.01 445.015 2120.47 444.861 2120.83 444.623 2121.2 444.385 2121.51 444.022 2121.77 443.536 2122.03 443.049 2122.33 442.379 2122.67 441.525L2125.44 441.525C2125.34 442.935 2125.24 444.355 2125.15 445.785 2125.06 447.214 2124.97 448.634 2124.87 450.044L2099.64 450.044 2099.64 448.495C2100.12 447.423 2100.67 446.366 2101.31 445.323 2101.95 444.281 2102.66 443.223 2103.45 442.151 2104.25 441.079 2105.15 439.972 2106.17 438.83 2107.18 437.688 2108.3 436.502 2109.53 435.271 2111.4 433.404 2112.92 431.81 2114.09 430.49 2115.26 429.17 2116.18 427.993 2116.86 426.96 2117.53 425.928 2117.99 424.975 2118.24 424.101 2118.49 423.227 2118.62 422.294 2118.62 421.301 2118.62 420.289 2118.47 419.355 2118.18 418.501 2117.9 417.648 2117.48 416.923 2116.95 416.327 2116.41 415.731 2115.73 415.265 2114.91 414.927 2114.08 414.59 2113.13 414.421 2112.06 414.421 2110.22 414.421 2108.67 414.922 2107.42 415.925 2106.17 416.928 2105.19 418.382 2104.5 420.289L2100.6 420.289 2100.6 414.48C2103.14 413.428 2105.48 412.664 2107.61 412.187 2109.74 411.71 2111.67 411.472 2113.37 411.472Z" fill-rule="evenodd"/><text fill="#000000" fill-opacity="0" font-family="Arial,Arial_MSFontService,sans-serif" font-size="38.5718" x="2099.64" y="445.223">2</text><path d="M1721.87 396.969C1719.09 396.969 1716.59 398.09 1714.38 400.333 1712.16 402.575 1710.43 405.581 1709.19 409.35 1707.94 413.119 1707.32 416.881 1707.32 420.637 1707.32 423.447 1707.71 425.547 1708.48 426.939 1709.25 428.33 1710.54 429.026 1712.35 429.026 1714.13 429.026 1715.88 428.256 1717.6 426.716 1719.31 425.176 1721.08 422.981 1722.91 420.13 1724.73 417.28 1726.02 413.99 1726.78 410.262L1727.14 408.519C1727.38 407.411 1727.55 406.452 1727.63 405.642 1727.71 404.831 1727.75 403.953 1727.75 403.007 1727.75 400.927 1727.3 399.4 1726.41 398.428 1725.52 397.455 1724.01 396.969 1721.87 396.969ZM1721.06 393.767C1722.82 393.767 1724.46 393.963 1725.99 394.355 1727.51 394.747 1729.09 395.442 1730.71 396.442L1734.44 393.767 1737.03 394.416 1731.07 420.11C1730.48 422.677 1730.18 424.676 1730.18 426.108 1730.18 427.189 1730.36 427.972 1730.71 428.459 1731.06 428.945 1731.61 429.188 1732.37 429.188 1733.18 429.188 1734.04 428.857 1734.96 428.195 1735.88 427.533 1737.18 426.27 1738.85 424.406L1741.16 426.675C1738.73 429.269 1736.66 431.113 1734.94 432.207 1733.23 433.302 1731.37 433.849 1729.37 433.849 1727.69 433.849 1726.36 433.295 1725.36 432.187 1724.36 431.079 1723.86 429.607 1723.86 427.77 1723.86 426.284 1724.17 424.703 1724.79 423.028L1724.26 422.866C1721.67 426.648 1719.21 429.418 1716.89 431.174 1714.56 432.93 1712.11 433.808 1709.51 433.808 1706.54 433.808 1704.24 432.687 1702.6 430.444 1700.97 428.202 1700.15 425.054 1700.15 421.001 1700.15 416.354 1701.06 411.89 1702.89 407.607 1704.71 403.325 1707.22 399.948 1710.4 397.475 1713.59 395.003 1717.14 393.767 1721.06 393.767Z" fill-rule="evenodd"/><text fill="#000000" fill-opacity="0" font-family="Arial,Arial_MSFontService,sans-serif" font-size="40.0815" x="1700.15" y="428.838">𝑎</text><path d="M1759.45 411.472C1761.04 411.472 1762.52 411.641 1763.9 411.979 1765.28 412.316 1766.48 412.827 1767.49 413.512 1768.5 414.198 1769.29 415.051 1769.86 416.074 1770.43 417.097 1770.71 418.283 1770.71 419.633 1770.71 420.904 1770.53 422.026 1770.17 422.999 1769.82 423.972 1769.26 424.856 1768.52 425.65 1767.78 426.444 1766.86 427.164 1765.78 427.809 1764.7 428.455 1763.45 429.075 1762.04 429.671L1762.04 430.028C1763.37 430.267 1764.61 430.649 1765.76 431.175 1766.92 431.701 1767.92 432.366 1768.79 433.171 1769.65 433.975 1770.33 434.903 1770.83 435.956 1771.32 437.008 1771.57 438.17 1771.57 439.44 1771.57 441.029 1771.27 442.503 1770.68 443.864 1770.08 445.224 1769.19 446.4 1768 447.393 1766.81 448.386 1765.34 449.16 1763.59 449.716 1761.84 450.272 1759.8 450.55 1757.45 450.55 1755.61 450.55 1753.73 450.367 1751.83 449.999 1749.92 449.632 1748.11 449.15 1746.4 448.555L1746.4 442.121 1750.25 442.121C1750.56 443.114 1750.94 443.963 1751.38 444.668 1751.82 445.373 1752.33 445.949 1752.91 446.395 1753.5 446.842 1754.17 447.165 1754.94 447.363 1755.7 447.562 1756.57 447.661 1757.54 447.661 1760.11 447.661 1762.05 447.051 1763.37 445.829 1764.69 444.608 1765.35 442.757 1765.35 440.274 1765.35 437.633 1764.48 435.633 1762.74 434.273 1761 432.913 1758.43 432.232 1755.01 432.232L1752.39 432.232 1752.39 429.373C1754.48 429.274 1756.28 428.981 1757.8 428.494 1759.32 428.008 1760.58 427.377 1761.59 426.603 1762.61 425.829 1763.36 424.925 1763.86 423.893 1764.35 422.86 1764.6 421.758 1764.6 420.586 1764.6 418.68 1764.04 417.176 1762.91 416.074 1761.77 414.972 1760.14 414.421 1757.99 414.421 1756.18 414.421 1754.67 414.917 1753.45 415.91 1752.23 416.903 1751.29 418.382 1750.63 420.348L1746.85 420.348 1746.85 414.48C1749.19 413.488 1751.4 412.738 1753.48 412.232 1755.55 411.725 1757.54 411.472 1759.45 411.472Z" fill-rule="evenodd"/><text fill="#000000" fill-opacity="0" font-family="Arial,Arial_MSFontService,sans-serif" font-size="39.0781" x="1746.4" y="445.666">3</text><path d="M2908.43 397.725C2907.13 397.725 2905.85 398.137 2904.6 398.961 2903.34 399.785 2901.94 401.149 2900.4 403.054 2898.86 404.959 2897.61 406.911 2896.63 408.91 2895.66 410.91 2894.84 413.463 2894.16 416.57L2893.8 418.272C2893.39 420.163 2893.19 422.001 2893.19 423.784 2893.19 425.918 2893.66 427.458 2894.59 428.404 2895.52 429.35 2897.07 429.822 2899.23 429.822 2900.34 429.822 2901.39 429.64 2902.39 429.275 2903.39 428.91 2904.41 428.309 2905.45 427.472 2906.49 426.634 2907.48 425.533 2908.41 424.169 2909.34 422.804 2910.2 421.122 2910.98 419.123 2911.76 417.124 2912.37 414.983 2912.8 412.7 2913.24 410.417 2913.45 408.235 2913.45 406.154 2913.45 403.344 2913.05 401.237 2912.26 399.832 2911.46 398.427 2910.18 397.725 2908.43 397.725ZM2901.34 374.421 2903.69 374.421 2896.55 402.791 2897.08 402.953C2899.7 399.44 2902.16 396.901 2904.46 395.334 2906.75 393.767 2909.05 392.983 2911.35 392.983 2914.29 392.983 2916.58 394.104 2918.21 396.347 2919.85 398.589 2920.67 401.75 2920.67 405.83 2920.67 410.288 2919.77 414.672 2917.97 418.981 2916.18 423.291 2913.68 426.708 2910.49 429.235 2907.31 431.761 2903.74 433.024 2899.8 433.024 2896.2 433.024 2893.01 432.146 2890.23 430.39L2886.5 433.024 2883.91 432.376 2894.41 386.053C2895.03 383.297 2895.34 381.298 2895.34 380.055 2895.34 378.92 2894.99 378.123 2894.3 377.664 2893.61 377.204 2892.38 376.948 2890.6 376.894L2891.08 374.786Z" fill-rule="evenodd"/><text fill="#000000" fill-opacity="0" font-family="Arial,Arial_MSFontService,sans-serif" font-size="58.6025" x="2883.91" y="425.699">𝑏</text><path d="M2939.92 413.537C2938.53 413.537 2937.37 413.899 2936.43 414.624 2935.5 415.349 2934.76 416.411 2934.21 417.811 2933.67 419.211 2933.28 420.918 2933.05 422.934 2932.82 424.949 2932.71 427.238 2932.71 429.799 2932.71 432.758 2932.85 435.315 2933.14 437.469 2933.43 439.624 2933.88 441.396 2934.48 442.786 2935.09 444.176 2935.85 445.198 2936.76 445.854 2937.67 446.509 2938.77 446.837 2940.04 446.837 2941.23 446.837 2942.27 446.529 2943.16 445.913 2944.06 445.298 2944.8 444.34 2945.38 443.039 2945.97 441.738 2946.41 440.09 2946.71 438.095 2947.01 436.099 2947.16 433.741 2947.16 431.021 2947.16 427.963 2946.99 425.332 2946.66 423.128 2946.34 420.923 2945.87 419.112 2945.28 417.692 2944.68 416.272 2943.93 415.225 2943.03 414.549 2942.13 413.874 2941.09 413.537 2939.92 413.537ZM2940.04 410.648C2942.4 410.648 2944.42 411.089 2946.1 411.973 2947.78 412.857 2949.15 414.118 2950.21 415.756 2951.27 417.394 2952.05 419.394 2952.55 421.757 2953.04 424.12 2953.29 426.791 2953.29 429.77 2953.29 436.382 2952.12 441.381 2949.78 444.766 2947.43 448.152 2944.04 449.845 2939.59 449.845 2935.18 449.845 2931.91 448.246 2929.76 445.049 2927.62 441.852 2926.54 437.007 2926.54 430.514 2926.54 427.119 2926.88 424.18 2927.54 421.698 2928.21 419.216 2929.14 417.156 2930.34 415.517 2931.54 413.879 2932.97 412.658 2934.62 411.854 2936.26 411.05 2938.07 410.648 2940.04 410.648Z" fill-rule="evenodd"/><text fill="#000000" fill-opacity="0" font-family="Arial,Arial_MSFontService,sans-serif" font-size="39.1973" x="2926.54" y="444.945">0</text><path d="M2554.36 397.725C2553.06 397.725 2551.78 398.137 2550.53 398.961 2549.27 399.785 2547.87 401.149 2546.33 403.054 2544.79 404.959 2543.54 406.911 2542.56 408.91 2541.59 410.91 2540.77 413.463 2540.09 416.57L2539.73 418.272C2539.32 420.163 2539.12 422.001 2539.12 423.784 2539.12 425.918 2539.59 427.458 2540.52 428.404 2541.45 429.35 2543 429.822 2545.16 429.822 2546.27 429.822 2547.32 429.64 2548.32 429.275 2549.32 428.91 2550.34 428.309 2551.38 427.472 2552.42 426.634 2553.41 425.533 2554.34 424.169 2555.27 422.804 2556.13 421.122 2556.91 419.123 2557.69 417.124 2558.3 414.983 2558.73 412.7 2559.17 410.417 2559.38 408.235 2559.38 406.154 2559.38 403.344 2558.98 401.237 2558.19 399.832 2557.39 398.427 2556.11 397.725 2554.36 397.725ZM2547.27 374.421 2549.62 374.421 2542.48 402.791 2543.01 402.953C2545.63 399.44 2548.09 396.901 2550.39 395.334 2552.68 393.767 2554.98 392.983 2557.28 392.983 2560.22 392.983 2562.51 394.104 2564.15 396.347 2565.78 398.589 2566.6 401.75 2566.6 405.83 2566.6 410.288 2565.7 414.672 2563.9 418.981 2562.11 423.291 2559.61 426.708 2556.42 429.235 2553.24 431.761 2549.67 433.024 2545.73 433.024 2542.13 433.024 2538.94 432.146 2536.16 430.39L2532.43 433.024 2529.84 432.376 2540.34 386.053C2540.96 383.297 2541.27 381.298 2541.27 380.055 2541.27 378.92 2540.92 378.123 2540.23 377.664 2539.54 377.204 2538.31 376.948 2536.53 376.894L2537.01 374.786Z" fill-rule="evenodd"/><text fill="#000000" fill-opacity="0" font-family="Arial,Arial_MSFontService,sans-serif" font-size="58.6025" x="2529.84" y="425.699">𝑏</text><path d="M2586.39 410.856 2588.2 410.856C2588.17 411.948 2588.14 412.926 2588.12 413.79 2588.1 414.654 2588.08 415.493 2588.07 416.307 2588.06 417.121 2588.06 417.925 2588.06 418.719L2588.06 441.356C2588.06 441.972 2588.08 442.503 2588.12 442.95 2588.16 443.396 2588.22 443.774 2588.31 444.081 2588.4 444.389 2588.52 444.652 2588.67 444.871 2588.82 445.089 2588.99 445.278 2589.19 445.437 2589.43 445.675 2589.74 445.859 2590.14 445.988 2590.54 446.117 2591.04 446.226 2591.66 446.315 2592.28 446.405 2593.02 446.474 2593.88 446.524 2594.74 446.573 2595.78 446.608 2596.99 446.628L2596.99 449.219 2573.37 449.219 2573.37 446.628C2574.54 446.588 2575.54 446.544 2576.35 446.494 2577.16 446.444 2577.86 446.375 2578.44 446.285 2579.01 446.196 2579.47 446.097 2579.82 445.988 2580.17 445.878 2580.47 445.744 2580.73 445.586 2581.01 445.407 2581.25 445.213 2581.44 445.005 2581.64 444.796 2581.8 444.533 2581.92 444.215 2582.04 443.898 2582.13 443.51 2582.2 443.054 2582.27 442.597 2582.31 442.031 2582.31 441.356L2582.31 420C2582.31 419.226 2582.16 418.68 2581.86 418.362 2581.56 418.044 2581.14 417.885 2580.58 417.885 2579.96 417.885 2579.05 418.203 2577.84 418.838 2576.63 419.474 2575.06 420.417 2573.13 421.668 2572.88 421.211 2572.64 420.755 2572.42 420.298 2572.2 419.841 2571.97 419.375 2571.73 418.898 2574.2 417.548 2576.63 416.202 2579.05 414.862 2581.46 413.522 2583.91 412.186 2586.39 410.856Z" fill-rule="evenodd"/><text fill="#000000" fill-opacity="0" font-family="Arial,Arial_MSFontService,sans-serif" font-size="38.3633" x="2571.73" y="444.424">1</text><path d="M2200.7 397.725C2199.4 397.725 2198.13 398.137 2196.87 398.961 2195.61 399.785 2194.22 401.149 2192.68 403.054 2191.14 404.959 2189.88 406.911 2188.91 408.91 2187.93 410.91 2187.11 413.463 2186.44 416.57L2186.07 418.272C2185.67 420.163 2185.46 422.001 2185.46 423.784 2185.46 425.918 2185.93 427.458 2186.86 428.404 2187.79 429.35 2189.34 429.822 2191.5 429.822 2192.61 429.822 2193.66 429.64 2194.66 429.275 2195.66 428.91 2196.68 428.309 2197.72 427.472 2198.76 426.634 2199.75 425.533 2200.68 424.169 2201.61 422.804 2202.47 421.122 2203.25 419.123 2204.04 417.124 2204.65 414.983 2205.08 412.7 2205.51 410.417 2205.73 408.235 2205.73 406.154 2205.73 403.344 2205.33 401.237 2204.53 399.832 2203.73 398.427 2202.46 397.725 2200.7 397.725ZM2193.61 374.421 2195.96 374.421 2188.83 402.791 2189.35 402.953C2191.97 399.44 2194.43 396.901 2196.73 395.334 2199.03 393.767 2201.32 392.983 2203.62 392.983 2206.56 392.983 2208.85 394.104 2210.49 396.347 2212.12 398.589 2212.94 401.75 2212.94 405.83 2212.94 410.288 2212.04 414.672 2210.24 418.981 2208.45 423.291 2205.96 426.708 2202.77 429.235 2199.58 431.761 2196.01 433.024 2192.07 433.024 2188.47 433.024 2185.29 432.146 2182.5 430.39L2178.78 433.024 2176.18 432.376 2186.68 386.053C2187.3 383.297 2187.61 381.298 2187.61 380.055 2187.61 378.92 2187.27 378.123 2186.58 377.664 2185.89 377.204 2184.65 376.948 2182.87 376.894L2183.35 374.786Z" fill-rule="evenodd"/><text fill="#000000" fill-opacity="0" font-family="Arial,Arial_MSFontService,sans-serif" font-size="58.6025" x="2176.18" y="425.699">𝑏</text><path d="M2232.31 410.648C2234.38 410.648 2236.14 410.881 2237.6 411.348 2239.06 411.814 2240.24 412.445 2241.16 413.239 2242.07 414.033 2242.73 414.986 2243.14 416.098 2243.54 417.21 2243.75 418.412 2243.75 419.702 2243.75 420.477 2243.69 421.196 2243.58 421.862 2243.47 422.527 2243.29 423.182 2243.02 423.827 2242.75 424.473 2242.4 425.123 2241.96 425.778 2241.52 426.434 2240.98 427.129 2240.32 427.863 2239.83 428.499 2239.18 429.233 2238.39 430.067 2237.59 430.901 2236.72 431.795 2235.78 432.748 2234.84 433.701 2233.85 434.694 2232.82 435.727 2231.78 436.759 2230.78 437.782 2229.81 438.795 2228.83 439.807 2227.94 440.79 2227.13 441.743 2226.31 442.696 2225.65 443.57 2225.13 444.364L2236.15 444.364C2237.09 444.364 2237.83 444.33 2238.39 444.26 2238.94 444.191 2239.4 444.037 2239.77 443.798 2240.14 443.56 2240.45 443.198 2240.71 442.711 2240.97 442.225 2241.27 441.555 2241.6 440.701L2244.37 440.701C2244.27 442.111 2244.18 443.53 2244.09 444.96 2244 446.39 2243.91 447.81 2243.81 449.219L2218.58 449.219 2218.58 447.671C2219.06 446.598 2219.61 445.541 2220.25 444.498 2220.88 443.456 2221.6 442.399 2222.39 441.326 2223.19 440.254 2224.09 439.147 2225.1 438.005 2226.11 436.863 2227.24 435.677 2228.47 434.446 2230.33 432.579 2231.85 430.986 2233.02 429.665 2234.2 428.345 2235.12 427.168 2235.79 426.136 2236.47 425.103 2236.93 424.15 2237.18 423.276 2237.43 422.403 2237.55 421.469 2237.55 420.477 2237.55 419.464 2237.41 418.531 2237.12 417.677 2236.83 416.823 2236.42 416.098 2235.88 415.503 2235.35 414.907 2234.67 414.44 2233.84 414.103 2233.02 413.765 2232.07 413.596 2231 413.596 2229.15 413.596 2227.6 414.098 2226.35 415.1 2225.1 416.103 2224.13 417.558 2223.43 419.464L2219.53 419.464 2219.53 413.656C2222.07 412.603 2224.41 411.839 2226.55 411.362 2228.68 410.886 2230.6 410.648 2232.31 410.648Z" fill-rule="evenodd"/><text fill="#000000" fill-opacity="0" font-family="Arial,Arial_MSFontService,sans-serif" font-size="38.5718" x="2218.58" y="444.398">2</text><path d="M1846.84 397.725C1845.54 397.725 1844.26 398.137 1843.01 398.961 1841.75 399.785 1840.35 401.149 1838.81 403.054 1837.27 404.959 1836.02 406.911 1835.04 408.91 1834.07 410.91 1833.25 413.463 1832.57 416.57L1832.21 418.272C1831.8 420.163 1831.6 422.001 1831.6 423.784 1831.6 425.918 1832.07 427.458 1833 428.404 1833.93 429.35 1835.48 429.822 1837.64 429.822 1838.75 429.822 1839.8 429.64 1840.8 429.275 1841.8 428.91 1842.82 428.309 1843.86 427.472 1844.9 426.634 1845.89 425.533 1846.82 424.169 1847.75 422.804 1848.61 421.122 1849.39 419.123 1850.17 417.124 1850.78 414.983 1851.21 412.7 1851.65 410.417 1851.86 408.235 1851.86 406.154 1851.86 403.344 1851.46 401.237 1850.67 399.832 1849.87 398.427 1848.59 397.725 1846.84 397.725ZM1839.75 374.421 1842.1 374.421 1834.96 402.791 1835.49 402.953C1838.11 399.44 1840.57 396.901 1842.87 395.334 1845.16 393.767 1847.46 392.983 1849.76 392.983 1852.7 392.983 1854.99 394.104 1856.62 396.347 1858.26 398.589 1859.08 401.75 1859.08 405.83 1859.08 410.288 1858.18 414.672 1856.38 418.981 1854.58 423.291 1852.09 426.708 1848.9 429.235 1845.72 431.761 1842.15 433.024 1838.21 433.024 1834.61 433.024 1831.42 432.146 1828.64 430.39L1824.91 433.024 1822.32 432.376 1832.81 386.053C1833.44 383.297 1833.75 381.298 1833.75 380.055 1833.75 378.92 1833.4 378.123 1832.71 377.664 1832.02 377.204 1830.79 376.948 1829.01 376.894L1829.49 374.786Z" fill-rule="evenodd"/><text fill="#000000" fill-opacity="0" font-family="Arial,Arial_MSFontService,sans-serif" font-size="58.6025" x="1822.32" y="425.699">𝑏</text><path d="M1878.39 410.648C1879.98 410.648 1881.46 410.816 1882.84 411.154 1884.22 411.491 1885.42 412.003 1886.43 412.688 1887.44 413.373 1888.23 414.227 1888.8 415.249 1889.36 416.272 1889.65 417.458 1889.65 418.809 1889.65 420.08 1889.47 421.201 1889.11 422.174 1888.75 423.147 1888.2 424.031 1887.46 424.825 1886.71 425.62 1885.8 426.339 1884.72 426.985 1883.63 427.63 1882.39 428.251 1880.98 428.846L1880.98 429.204C1882.31 429.442 1883.55 429.824 1884.7 430.35 1885.85 430.877 1886.86 431.542 1887.72 432.346 1888.59 433.15 1889.27 434.079 1889.77 435.131 1890.26 436.183 1890.51 437.345 1890.51 438.616 1890.51 440.204 1890.21 441.679 1889.62 443.039 1889.02 444.399 1888.13 445.576 1886.94 446.568 1885.74 447.561 1884.27 448.336 1882.53 448.892 1880.78 449.448 1878.73 449.726 1876.39 449.726 1874.54 449.726 1872.67 449.542 1870.76 449.175 1868.86 448.807 1867.05 448.326 1865.34 447.73L1865.34 441.296 1869.18 441.296C1869.5 442.289 1869.88 443.138 1870.32 443.843 1870.75 444.548 1871.26 445.124 1871.85 445.571 1872.44 446.017 1873.11 446.34 1873.87 446.539 1874.64 446.737 1875.51 446.837 1876.48 446.837 1879.04 446.837 1880.98 446.226 1882.3 445.005 1883.62 443.784 1884.28 441.932 1884.28 439.45 1884.28 436.809 1883.42 434.808 1881.68 433.448 1879.94 432.088 1877.36 431.408 1873.95 431.408L1871.33 431.408 1871.33 428.548C1873.41 428.449 1875.21 428.156 1876.73 427.67 1878.25 427.183 1879.52 426.553 1880.53 425.778 1881.54 425.004 1882.3 424.101 1882.8 423.068 1883.29 422.035 1883.54 420.933 1883.54 419.762 1883.54 417.856 1882.97 416.351 1881.84 415.249 1880.71 414.147 1879.07 413.596 1876.93 413.596 1875.12 413.596 1873.61 414.093 1872.39 415.086 1871.16 416.078 1870.23 417.558 1869.57 419.524L1865.79 419.524 1865.79 413.656C1868.13 412.663 1870.34 411.913 1872.42 411.407 1874.49 410.901 1876.48 410.648 1878.39 410.648Z" fill-rule="evenodd"/><text fill="#000000" fill-opacity="0" font-family="Arial,Arial_MSFontService,sans-serif" font-size="39.0781" x="1865.34" y="444.841">3</text><path d="M3020.18 585.5C3023.78 585.5 3027.09 585.905 3030.11 586.715L3028.13 595.875 3023.87 595.875C3023.82 593.821 3023.65 592.335 3023.37 591.417 3023.08 590.498 3022.62 589.809 3021.99 589.35 3021.35 588.89 3020.45 588.661 3019.29 588.661 3016.56 588.661 3014.11 589.748 3011.94 591.923 3009.76 594.098 3007.99 597.178 3006.61 601.163 3005.23 605.149 3004.54 608.978 3004.54 612.653 3004.54 615.409 3005.08 617.455 3006.16 618.793 3007.24 620.13 3008.86 620.799 3011.03 620.799 3013.48 620.799 3015.61 620.333 3017.41 619.401 3019.2 618.469 3021.1 617.003 3023.1 615.003L3025.57 617.476C3023.03 620.286 3020.47 622.339 3017.89 623.636 3015.31 624.933 3012.54 625.581 3009.57 625.581 3005.65 625.581 3002.68 624.419 3000.65 622.096 2998.62 619.772 2997.61 616.395 2997.61 611.964 2997.61 609.073 2998.15 605.898 2999.23 602.44 3000.31 598.982 3001.89 595.942 3003.97 593.321 3006.05 590.701 3008.49 588.742 3011.27 587.445 3014.05 586.148 3017.02 585.5 3020.18 585.5Z" fill-rule="evenodd"/><text fill="#000000" fill-opacity="0" font-family="Arial,Arial_MSFontService,sans-serif" font-size="40.0815" x="2997.61" y="620.571">𝑐</text><path d="M3046.81 606.053C3045.42 606.053 3044.26 606.416 3043.33 607.14 3042.4 607.865 3041.66 608.928 3041.11 610.327 3040.56 611.727 3040.18 613.435 3039.95 615.451 3039.72 617.466 3039.61 619.754 3039.61 622.316 3039.61 625.275 3039.75 627.831 3040.04 629.986 3040.33 632.14 3040.77 633.912 3041.38 635.302 3041.98 636.692 3042.74 637.715 3043.66 638.37 3044.57 639.025 3045.66 639.353 3046.93 639.353 3048.12 639.353 3049.17 639.045 3050.06 638.43 3050.95 637.814 3051.69 636.856 3052.28 635.555 3052.86 634.255 3053.31 632.607 3053.6 630.611 3053.9 628.616 3054.05 626.258 3054.05 623.537 3054.05 620.479 3053.89 617.848 3053.56 615.644 3053.23 613.44 3052.77 611.628 3052.18 610.208 3051.58 608.789 3050.83 607.741 3049.93 607.066 3049.02 606.391 3047.99 606.053 3046.81 606.053ZM3046.93 603.164C3049.3 603.164 3051.32 603.606 3052.99 604.49 3054.67 605.373 3056.04 606.634 3057.1 608.272 3058.17 609.91 3058.95 611.911 3059.44 614.274 3059.94 616.637 3060.19 619.308 3060.19 622.286 3060.19 628.898 3059.02 633.897 3056.67 637.283 3054.33 640.669 3050.93 642.361 3046.49 642.361 3042.08 642.361 3038.8 640.763 3036.66 637.566 3034.51 634.369 3033.44 629.524 3033.44 623.031 3033.44 619.635 3033.77 616.697 3034.44 614.214 3035.1 611.732 3036.04 609.672 3037.24 608.034 3038.44 606.396 3039.86 605.175 3041.51 604.37 3043.16 603.566 3044.97 603.164 3046.93 603.164Z" fill-rule="evenodd"/><text fill="#000000" fill-opacity="0" font-family="Arial,Arial_MSFontService,sans-serif" font-size="39.1973" x="3033.44" y="637.462">0</text><path d="M2666.14 585.5C2669.73 585.5 2673.04 585.905 2676.07 586.715L2674.08 595.875 2669.83 595.875C2669.77 593.821 2669.6 592.335 2669.32 591.417 2669.04 590.498 2668.58 589.809 2667.94 589.35 2667.31 588.89 2666.41 588.661 2665.25 588.661 2662.52 588.661 2660.07 589.748 2657.89 591.923 2655.72 594.098 2653.94 597.178 2652.56 601.163 2651.18 605.149 2650.49 608.978 2650.49 612.653 2650.49 615.409 2651.03 617.455 2652.11 618.793 2653.2 620.13 2654.82 620.799 2656.98 620.799 2659.44 620.799 2661.56 620.333 2663.36 619.401 2665.16 618.469 2667.06 617.003 2669.06 615.003L2671.53 617.476C2668.99 620.286 2666.43 622.339 2663.85 623.636 2661.27 624.933 2658.49 625.581 2655.52 625.581 2651.6 625.581 2648.63 624.419 2646.6 622.096 2644.58 619.772 2643.56 616.395 2643.56 611.964 2643.56 609.073 2644.1 605.898 2645.18 602.44 2646.27 598.982 2647.85 595.942 2649.93 593.321 2652.01 590.701 2654.44 588.742 2657.22 587.445 2660 586.148 2662.98 585.5 2666.14 585.5Z" fill-rule="evenodd"/><text fill="#000000" fill-opacity="0" font-family="Arial,Arial_MSFontService,sans-serif" font-size="40.0815" x="2643.56" y="620.571">𝑐</text><path d="M2693.31 603.373 2695.12 603.373C2695.08 604.465 2695.05 605.443 2695.03 606.306 2695.01 607.17 2695 608.009 2694.99 608.823 2694.98 609.637 2694.98 610.442 2694.98 611.236L2694.98 633.873C2694.98 634.488 2694.99 635.019 2695.03 635.466 2695.07 635.913 2695.14 636.29 2695.23 636.598 2695.32 636.906 2695.44 637.169 2695.59 637.387 2695.73 637.606 2695.91 637.794 2696.11 637.953 2696.35 638.191 2696.66 638.375 2697.06 638.504 2697.46 638.633 2697.96 638.742 2698.58 638.832 2699.19 638.921 2699.93 638.991 2700.8 639.04 2701.66 639.09 2702.7 639.125 2703.91 639.145L2703.91 641.736 2680.29 641.736 2680.29 639.145C2681.46 639.105 2682.46 639.06 2683.27 639.011 2684.08 638.961 2684.78 638.891 2685.35 638.802 2685.93 638.713 2686.39 638.613 2686.74 638.504 2687.09 638.395 2687.39 638.261 2687.65 638.102 2687.93 637.923 2688.16 637.73 2688.36 637.521 2688.56 637.313 2688.72 637.05 2688.84 636.732 2688.96 636.414 2689.05 636.027 2689.12 635.57 2689.19 635.114 2689.23 634.548 2689.23 633.873L2689.23 612.517C2689.23 611.742 2689.08 611.196 2688.78 610.878 2688.48 610.561 2688.05 610.402 2687.5 610.402 2686.88 610.402 2685.97 610.72 2684.76 611.355 2683.55 611.99 2681.98 612.934 2680.05 614.185 2679.79 613.728 2679.56 613.271 2679.34 612.815 2679.12 612.358 2678.89 611.891 2678.65 611.415 2681.11 610.064 2683.55 608.719 2685.97 607.379 2688.38 606.038 2690.82 604.703 2693.31 603.373Z" fill-rule="evenodd"/><text fill="#000000" fill-opacity="0" font-family="Arial,Arial_MSFontService,sans-serif" font-size="38.3633" x="2678.65" y="636.94">1</text><path d="M2312.46 585.5C2316.05 585.5 2319.36 585.905 2322.39 586.715L2320.4 595.875 2316.15 595.875C2316.09 593.821 2315.92 592.335 2315.64 591.417 2315.36 590.498 2314.9 589.809 2314.26 589.35 2313.63 588.89 2312.73 588.661 2311.57 588.661 2308.84 588.661 2306.39 589.748 2304.21 591.923 2302.04 594.098 2300.26 597.178 2298.88 601.163 2297.5 605.149 2296.81 608.978 2296.81 612.653 2296.81 615.409 2297.35 617.455 2298.44 618.793 2299.52 620.13 2301.14 620.799 2303.3 620.799 2305.76 620.799 2307.88 620.333 2309.68 619.401 2311.48 618.469 2313.38 617.003 2315.38 615.003L2317.85 617.476C2315.31 620.286 2312.75 622.339 2310.17 623.636 2307.59 624.933 2304.81 625.581 2301.84 625.581 2297.92 625.581 2294.95 624.419 2292.92 622.096 2290.9 619.772 2289.88 616.395 2289.88 611.964 2289.88 609.073 2290.42 605.898 2291.5 602.44 2292.59 598.982 2294.17 595.942 2296.25 593.321 2298.33 590.701 2300.76 588.742 2303.54 587.445 2306.32 586.148 2309.3 585.5 2312.46 585.5Z" fill-rule="evenodd"/><text fill="#000000" fill-opacity="0" font-family="Arial,Arial_MSFontService,sans-serif" font-size="40.0815" x="2289.88" y="620.571">𝑐</text><path d="M2339.21 603.164C2341.27 603.164 2343.03 603.397 2344.49 603.864 2345.95 604.331 2347.14 604.961 2348.05 605.755 2348.97 606.55 2349.63 607.503 2350.03 608.615 2350.44 609.727 2350.64 610.928 2350.64 612.219 2350.64 612.993 2350.59 613.713 2350.48 614.378 2350.37 615.043 2350.18 615.699 2349.91 616.344 2349.65 616.989 2349.29 617.64 2348.86 618.295 2348.42 618.95 2347.87 619.645 2347.22 620.38 2346.72 621.015 2346.08 621.75 2345.28 622.584 2344.49 623.418 2343.62 624.312 2342.68 625.265 2341.73 626.218 2340.74 627.211 2339.71 628.243 2338.68 629.276 2337.68 630.298 2336.7 631.311 2335.73 632.324 2334.84 633.307 2334.02 634.26 2333.21 635.213 2332.54 636.087 2332.03 636.881L2343.05 636.881C2343.98 636.881 2344.73 636.846 2345.28 636.777 2345.84 636.707 2346.3 636.553 2346.67 636.315 2347.03 636.077 2347.35 635.714 2347.61 635.228 2347.86 634.741 2348.16 634.071 2348.5 633.217L2351.27 633.217C2351.17 634.627 2351.08 636.047 2350.99 637.477 2350.9 638.906 2350.8 640.326 2350.7 641.736L2325.48 641.736 2325.48 640.187C2325.95 639.115 2326.51 638.057 2327.14 637.015 2327.78 635.972 2328.49 634.915 2329.29 633.843 2330.08 632.771 2330.99 631.664 2332 630.522 2333.01 629.38 2334.13 628.194 2335.36 626.962 2337.23 625.096 2338.75 623.502 2339.92 622.182 2341.09 620.861 2342.02 619.685 2342.69 618.652 2343.37 617.62 2343.83 616.667 2344.08 615.793 2344.32 614.919 2344.45 613.986 2344.45 612.993 2344.45 611.981 2344.3 611.047 2344.02 610.193 2343.73 609.34 2343.32 608.615 2342.78 608.019 2342.24 607.423 2341.56 606.957 2340.74 606.619 2339.92 606.282 2338.97 606.113 2337.9 606.113 2336.05 606.113 2334.5 606.614 2333.25 607.617 2332 608.62 2331.03 610.074 2330.33 611.981L2326.43 611.981 2326.43 606.172C2328.97 605.12 2331.31 604.356 2333.44 603.879 2335.58 603.402 2337.5 603.164 2339.21 603.164Z" fill-rule="evenodd"/><text fill="#000000" fill-opacity="0" font-family="Arial,Arial_MSFontService,sans-serif" font-size="38.5718" x="2325.48" y="636.914">2</text><path d="M1958.59 585.5C1962.19 585.5 1965.5 585.905 1968.52 586.715L1966.54 595.875 1962.28 595.875C1962.23 593.821 1962.06 592.335 1961.78 591.417 1961.49 590.498 1961.03 589.809 1960.4 589.35 1959.76 588.89 1958.86 588.661 1957.7 588.661 1954.97 588.661 1952.52 589.748 1950.35 591.923 1948.17 594.098 1946.4 597.178 1945.02 601.163 1943.64 605.149 1942.95 608.978 1942.95 612.653 1942.95 615.409 1943.49 617.455 1944.57 618.793 1945.65 620.13 1947.27 620.799 1949.44 620.799 1951.89 620.799 1954.02 620.333 1955.82 619.401 1957.61 618.469 1959.51 617.003 1961.51 615.003L1963.98 617.476C1961.44 620.286 1958.88 622.339 1956.3 623.636 1953.72 624.933 1950.95 625.581 1947.98 625.581 1944.06 625.581 1941.09 624.419 1939.06 622.096 1937.03 619.772 1936.02 616.395 1936.02 611.964 1936.02 609.073 1936.56 605.898 1937.64 602.44 1938.72 598.982 1940.3 595.942 1942.38 593.321 1944.46 590.701 1946.9 588.742 1949.68 587.445 1952.46 586.148 1955.43 585.5 1958.59 585.5Z" fill-rule="evenodd"/><text fill="#000000" fill-opacity="0" font-family="Arial,Arial_MSFontService,sans-serif" font-size="40.0815" x="1936.02" y="620.571">𝑐</text><path d="M1985.28 603.164C1986.87 603.164 1988.36 603.333 1989.74 603.67 1991.12 604.008 1992.31 604.519 1993.33 605.204 1994.34 605.889 1995.13 606.743 1995.69 607.766 1996.26 608.789 1996.54 609.975 1996.54 611.325 1996.54 612.596 1996.36 613.718 1996.01 614.691 1995.65 615.664 1995.1 616.548 1994.35 617.342 1993.61 618.136 1992.69 618.856 1991.61 619.501 1990.53 620.147 1989.28 620.767 1987.87 621.363L1987.87 621.72C1989.2 621.959 1990.45 622.341 1991.6 622.867 1992.75 623.393 1993.76 624.058 1994.62 624.863 1995.48 625.667 1996.16 626.595 1996.66 627.648 1997.16 628.7 1997.41 629.862 1997.41 631.132 1997.41 632.721 1997.11 634.195 1996.51 635.555 1995.92 636.916 1995.02 638.092 1993.83 639.085 1992.64 640.078 1991.17 640.852 1989.42 641.408 1987.68 641.964 1985.63 642.242 1983.29 642.242 1981.44 642.242 1979.56 642.059 1977.66 641.691 1975.75 641.324 1973.94 640.842 1972.24 640.247L1972.24 633.813 1976.08 633.813C1976.4 634.806 1976.77 635.655 1977.21 636.36 1977.65 637.065 1978.16 637.64 1978.75 638.087 1979.33 638.534 1980.01 638.857 1980.77 639.055 1981.54 639.254 1982.4 639.353 1983.38 639.353 1985.94 639.353 1987.88 638.742 1989.2 637.521 1990.52 636.3 1991.18 634.448 1991.18 631.966 1991.18 629.325 1990.31 627.325 1988.57 625.965 1986.84 624.604 1984.26 623.924 1980.85 623.924L1978.22 623.924 1978.22 621.065C1980.31 620.966 1982.11 620.673 1983.63 620.186 1985.15 619.7 1986.42 619.069 1987.43 618.295 1988.44 617.521 1989.19 616.617 1989.69 615.585 1990.19 614.552 1990.44 613.45 1990.44 612.278 1990.44 610.372 1989.87 608.868 1988.74 607.766 1987.61 606.664 1985.97 606.113 1983.82 606.113 1982.02 606.113 1980.5 606.609 1979.28 607.602 1978.06 608.595 1977.12 610.074 1976.47 612.04L1972.68 612.04 1972.68 606.172C1975.03 605.18 1977.24 604.43 1979.31 603.924 1981.39 603.417 1983.38 603.164 1985.28 603.164Z" fill-rule="evenodd"/><text fill="#000000" fill-opacity="0" font-family="Arial,Arial_MSFontService,sans-serif" font-size="39.0781" x="1972.24" y="637.357">3</text><path d="M1594.03 589.778C1597.62 589.778 1600.93 590.184 1603.95 590.994L1601.97 600.153 1597.71 600.153C1597.66 598.1 1597.49 596.614 1597.21 595.695 1596.92 594.777 1596.46 594.088 1595.83 593.628 1595.19 593.169 1594.3 592.939 1593.13 592.939 1590.4 592.939 1587.95 594.027 1585.78 596.202 1583.6 598.377 1581.83 601.457 1580.45 605.442 1579.07 609.427 1578.38 613.257 1578.38 616.932 1578.38 619.688 1578.92 621.734 1580 623.072 1581.08 624.409 1582.7 625.078 1584.87 625.078 1587.32 625.078 1589.45 624.612 1591.25 623.679 1593.05 622.747 1594.94 621.282 1596.94 619.282L1599.42 621.754C1596.88 624.564 1594.32 626.618 1591.74 627.915 1589.16 629.211 1586.38 629.86 1583.41 629.86 1579.49 629.86 1576.52 628.698 1574.49 626.375 1572.46 624.051 1571.45 620.674 1571.45 616.243 1571.45 613.352 1571.99 610.177 1573.07 606.719 1574.15 603.26 1575.73 600.221 1577.81 597.6 1579.89 594.979 1582.33 593.021 1585.11 591.724 1587.89 590.427 1590.86 589.778 1594.03 589.778Z" fill-rule="evenodd"/><text fill="#000000" fill-opacity="0" font-family="Arial,Arial_MSFontService,sans-serif" font-size="40.0815" x="1571.45" y="624.85">𝑐</text><path d="M1622.17 614.83C1620.27 617.59 1618.37 620.33 1616.47 623.05 1614.57 625.771 1612.66 628.501 1610.74 631.241L1610.74 631.599 1622.17 631.599 1622.17 625.612C1622.17 624.937 1622.18 624.103 1622.2 623.11 1622.22 622.117 1622.25 621.109 1622.28 620.087 1622.31 619.064 1622.34 618.091 1622.38 617.168 1622.42 616.244 1622.46 615.465 1622.5 614.83ZM1623.04 607.86 1627.77 607.86 1627.77 631.599 1628.31 631.599C1629.12 631.599 1629.78 631.559 1630.29 631.479 1630.8 631.4 1631.2 631.236 1631.51 630.988 1631.82 630.74 1632.08 630.392 1632.29 629.946 1632.49 629.499 1632.72 628.918 1632.96 628.203L1635.49 628.203C1635.43 629.295 1635.36 630.377 1635.29 631.45 1635.22 632.522 1635.16 633.614 1635.1 634.726L1627.77 634.726 1627.77 638.628C1627.77 639.78 1627.8 640.673 1627.85 641.309 1627.9 641.944 1628.05 642.44 1628.29 642.798 1628.54 643.155 1628.91 643.423 1629.4 643.602 1629.88 643.781 1630.56 643.989 1631.44 644.228L1631.44 646.015 1618.57 646.015 1618.57 644.228C1619.17 644.069 1619.67 643.925 1620.09 643.796 1620.51 643.667 1620.85 643.518 1621.13 643.349 1621.41 643.18 1621.61 642.982 1621.74 642.753 1621.87 642.525 1621.97 642.237 1622.04 641.889 1622.11 641.542 1622.15 641.105 1622.16 640.579 1622.17 640.053 1622.17 639.402 1622.17 638.628L1622.17 634.726 1605.4 634.726 1605.4 632.373C1608.36 628.263 1611.3 624.177 1614.22 620.116 1617.14 616.056 1620.08 611.97 1623.04 607.86Z" fill-rule="evenodd"/><text fill="#000000" fill-opacity="0" font-family="Arial,Arial_MSFontService,sans-serif" font-size="38.1548" x="1605.4" y="641.245">4</text><path d="M2836.34 885.866C2838.85 885.866 2841.14 886.014 2843.21 886.311 2845.27 886.609 2847.33 887.122 2849.39 887.851L2847.56 896.362 2844.28 896.362C2843.98 893.958 2843.19 892.134 2841.91 890.891 2840.63 889.648 2838.61 889.027 2835.85 889.027 2833.72 889.027 2831.99 889.574 2830.66 890.668 2829.34 891.762 2828.68 893.201 2828.68 894.984 2828.68 895.957 2828.85 896.815 2829.18 897.558 2829.52 898.301 2830.2 899.118 2831.23 900.01 2832.26 900.901 2833.85 901.995 2836.01 903.292 2837.71 904.319 2839.08 905.258 2840.11 906.109 2841.13 906.96 2841.94 907.804 2842.54 908.642 2843.13 909.48 2843.56 910.364 2843.83 911.297 2844.1 912.229 2844.24 913.357 2844.24 914.681 2844.24 917.085 2843.6 919.145 2842.31 920.861 2841.03 922.577 2839.29 923.853 2837.09 924.691 2834.88 925.528 2832.38 925.947 2829.57 925.947 2827.33 925.947 2825.12 925.778 2822.96 925.441 2820.8 925.103 2818.4 924.529 2815.75 923.718L2817.69 914.883 2820.85 914.883C2820.96 917.477 2821.69 919.436 2823.04 920.76 2824.39 922.084 2826.54 922.745 2829.49 922.745 2832.05 922.745 2834.06 922.171 2835.51 921.023 2836.95 919.875 2837.67 918.247 2837.67 916.14 2837.67 914.924 2837.47 913.877 2837.07 912.999 2836.66 912.121 2836 911.276 2835.08 910.466 2834.16 909.655 2832.7 908.642 2830.7 907.426 2828.6 906.156 2826.95 905.008 2825.78 903.981 2824.6 902.955 2823.72 901.84 2823.12 900.638 2822.53 899.435 2822.23 898.051 2822.23 896.484 2822.23 894.349 2822.81 892.478 2823.96 890.871 2825.1 889.263 2826.74 888.027 2828.88 887.162 2831.01 886.298 2833.5 885.866 2836.34 885.866Z" fill-rule="evenodd"/><text fill="#000000" fill-opacity="0" font-family="Arial,Arial_MSFontService,sans-serif" font-size="40.0815" x="2815.75" y="920.937">𝑠</text><path d="M2867.75 906.419C2866.36 906.419 2865.2 906.782 2864.27 907.506 2863.34 908.231 2862.6 909.294 2862.05 910.693 2861.5 912.093 2861.12 913.801 2860.89 915.817 2860.66 917.832 2860.55 920.12 2860.55 922.682 2860.55 925.641 2860.69 928.197 2860.98 930.352 2861.27 932.506 2861.71 934.278 2862.32 935.668 2862.92 937.058 2863.68 938.081 2864.6 938.736 2865.51 939.391 2866.6 939.719 2867.87 939.719 2869.06 939.719 2870.11 939.411 2871 938.796 2871.89 938.18 2872.63 937.222 2873.22 935.922 2873.8 934.621 2874.25 932.973 2874.54 930.977 2874.84 928.982 2874.99 926.624 2874.99 923.903 2874.99 920.845 2874.83 918.214 2874.5 916.01 2874.17 913.806 2873.71 911.994 2873.11 910.574 2872.52 909.155 2871.77 908.107 2870.87 907.432 2869.96 906.757 2868.93 906.419 2867.75 906.419ZM2867.87 903.53C2870.24 903.53 2872.26 903.972 2873.93 904.856 2875.61 905.739 2876.98 907 2878.04 908.638 2879.11 910.276 2879.89 912.277 2880.38 914.64 2880.88 917.003 2881.13 919.674 2881.13 922.652 2881.13 929.265 2879.96 934.263 2877.61 937.649 2875.27 941.035 2871.87 942.727 2867.43 942.727 2863.02 942.727 2859.74 941.129 2857.6 937.932 2855.45 934.735 2854.38 929.89 2854.38 923.397 2854.38 920.001 2854.71 917.063 2855.38 914.58 2856.04 912.098 2856.98 910.038 2858.18 908.4 2859.38 906.762 2860.8 905.541 2862.45 904.736 2864.1 903.932 2865.91 903.53 2867.87 903.53Z" fill-rule="evenodd"/><text fill="#000000" fill-opacity="0" font-family="Arial,Arial_MSFontService,sans-serif" font-size="39.1973" x="2854.38" y="937.828">0</text><path d="M2482.29 885.866C2484.8 885.866 2487.09 886.014 2489.16 886.311 2491.23 886.609 2493.29 887.122 2495.34 887.851L2493.52 896.362 2490.23 896.362C2489.94 893.958 2489.15 892.134 2487.86 890.891 2486.58 889.648 2484.56 889.027 2481.8 889.027 2479.67 889.027 2477.94 889.574 2476.62 890.668 2475.29 891.762 2474.63 893.201 2474.63 894.984 2474.63 895.957 2474.8 896.815 2475.14 897.558 2475.47 898.301 2476.16 899.118 2477.18 900.01 2478.21 900.901 2479.8 901.995 2481.97 903.292 2483.67 904.319 2485.03 905.258 2486.06 906.109 2487.09 906.96 2487.9 907.804 2488.49 908.642 2489.08 909.48 2489.52 910.364 2489.79 911.297 2490.06 912.229 2490.19 913.357 2490.19 914.681 2490.19 917.085 2489.55 919.145 2488.27 920.861 2486.98 922.577 2485.24 923.853 2483.04 924.691 2480.84 925.528 2478.33 925.947 2475.52 925.947 2473.28 925.947 2471.08 925.778 2468.92 925.441 2466.75 925.103 2464.35 924.529 2461.7 923.718L2463.65 914.883 2466.81 914.883C2466.92 917.477 2467.65 919.436 2469 920.76 2470.35 922.084 2472.5 922.745 2475.44 922.745 2478.01 922.745 2480.01 922.171 2481.46 921.023 2482.9 919.875 2483.63 918.247 2483.63 916.14 2483.63 914.924 2483.42 913.877 2483.02 912.999 2482.61 912.121 2481.95 911.276 2481.03 910.466 2480.11 909.655 2478.66 908.642 2476.66 907.426 2474.55 906.156 2472.91 905.008 2471.73 903.981 2470.56 902.955 2469.67 901.84 2469.08 900.638 2468.48 899.435 2468.19 898.051 2468.19 896.484 2468.19 894.349 2468.76 892.478 2469.91 890.871 2471.06 889.263 2472.7 888.027 2474.83 887.162 2476.97 886.298 2479.45 885.866 2482.29 885.866Z" fill-rule="evenodd"/><text fill="#000000" fill-opacity="0" font-family="Arial,Arial_MSFontService,sans-serif" font-size="40.0815" x="2461.7" y="920.937">𝑠</text><path d="M2514.25 903.739 2516.06 903.739C2516.02 904.831 2515.99 905.809 2515.97 906.672 2515.95 907.536 2515.94 908.375 2515.93 909.189 2515.92 910.003 2515.91 910.808 2515.91 911.602L2515.91 934.239C2515.91 934.854 2515.93 935.385 2515.97 935.832 2516.01 936.279 2516.08 936.656 2516.17 936.964 2516.26 937.272 2516.38 937.535 2516.53 937.753 2516.67 937.972 2516.85 938.16 2517.05 938.319 2517.28 938.557 2517.6 938.741 2518 938.87 2518.4 938.999 2518.9 939.109 2519.52 939.198 2520.13 939.287 2520.87 939.357 2521.74 939.406 2522.6 939.456 2523.64 939.491 2524.85 939.511L2524.85 942.102 2501.23 942.102 2501.23 939.511C2502.4 939.471 2503.4 939.426 2504.21 939.377 2505.02 939.327 2505.72 939.257 2506.29 939.168 2506.87 939.079 2507.33 938.979 2507.68 938.87 2508.03 938.761 2508.33 938.627 2508.59 938.468 2508.87 938.289 2509.1 938.096 2509.3 937.887 2509.5 937.679 2509.66 937.416 2509.78 937.098 2509.9 936.78 2509.99 936.393 2510.06 935.936 2510.13 935.48 2510.17 934.914 2510.17 934.239L2510.17 912.883C2510.17 912.108 2510.02 911.562 2509.72 911.245 2509.42 910.927 2508.99 910.768 2508.44 910.768 2507.82 910.768 2506.91 911.086 2505.7 911.721 2504.49 912.357 2502.92 913.3 2500.99 914.551 2500.73 914.094 2500.5 913.637 2500.28 913.181 2500.06 912.724 2499.83 912.257 2499.59 911.781 2502.05 910.43 2504.49 909.085 2506.9 907.745 2509.32 906.404 2511.76 905.069 2514.25 903.739Z" fill-rule="evenodd"/><text fill="#000000" fill-opacity="0" font-family="Arial,Arial_MSFontService,sans-serif" font-size="38.3633" x="2499.59" y="937.307">1</text><path d="M2128.61 885.866C2131.12 885.866 2133.41 886.014 2135.48 886.311 2137.55 886.609 2139.61 887.122 2141.66 887.851L2139.84 896.362 2136.55 896.362C2136.26 893.958 2135.47 892.134 2134.18 890.891 2132.9 889.648 2130.88 889.027 2128.12 889.027 2125.99 889.027 2124.26 889.574 2122.94 890.668 2121.61 891.762 2120.95 893.201 2120.95 894.984 2120.95 895.957 2121.12 896.815 2121.46 897.558 2121.79 898.301 2122.48 899.118 2123.5 900.01 2124.53 900.901 2126.12 901.995 2128.29 903.292 2129.99 904.319 2131.35 905.258 2132.38 906.109 2133.41 906.96 2134.22 907.804 2134.81 908.642 2135.4 909.48 2135.84 910.364 2136.11 911.297 2136.38 912.229 2136.51 913.357 2136.51 914.681 2136.51 917.085 2135.87 919.145 2134.59 920.861 2133.3 922.577 2131.56 923.853 2129.36 924.691 2127.16 925.528 2124.65 925.947 2121.84 925.947 2119.6 925.947 2117.4 925.778 2115.24 925.441 2113.07 925.103 2110.67 924.529 2108.02 923.718L2109.97 914.883 2113.13 914.883C2113.24 917.477 2113.97 919.436 2115.32 920.76 2116.67 922.084 2118.82 922.745 2121.76 922.745 2124.33 922.745 2126.33 922.171 2127.78 921.023 2129.22 919.875 2129.95 918.247 2129.95 916.14 2129.95 914.924 2129.74 913.877 2129.34 912.999 2128.93 912.121 2128.27 911.276 2127.35 910.466 2126.43 909.655 2124.98 908.642 2122.98 907.426 2120.87 906.156 2119.23 905.008 2118.05 903.981 2116.88 902.955 2115.99 901.84 2115.4 900.638 2114.8 899.435 2114.51 898.051 2114.51 896.484 2114.51 894.349 2115.08 892.478 2116.23 890.871 2117.38 889.263 2119.02 888.027 2121.15 887.162 2123.29 886.298 2125.77 885.866 2128.61 885.866Z" fill-rule="evenodd"/><text fill="#000000" fill-opacity="0" font-family="Arial,Arial_MSFontService,sans-serif" font-size="40.0815" x="2108.02" y="920.937">𝑠</text><path d="M2160.15 903.53C2162.21 903.53 2163.97 903.763 2165.43 904.23 2166.89 904.697 2168.08 905.327 2168.99 906.121 2169.91 906.916 2170.57 907.869 2170.97 908.981 2171.38 910.093 2171.58 911.294 2171.58 912.585 2171.58 913.359 2171.53 914.079 2171.42 914.744 2171.31 915.409 2171.12 916.065 2170.85 916.71 2170.59 917.355 2170.23 918.006 2169.8 918.661 2169.36 919.316 2168.81 920.011 2168.16 920.746 2167.66 921.381 2167.02 922.116 2166.22 922.95 2165.43 923.784 2164.56 924.678 2163.62 925.631 2162.67 926.584 2161.68 927.577 2160.65 928.609 2159.62 929.642 2158.62 930.664 2157.64 931.677 2156.67 932.69 2155.78 933.673 2154.96 934.626 2154.15 935.579 2153.48 936.453 2152.97 937.247L2163.99 937.247C2164.92 937.247 2165.67 937.212 2166.22 937.143 2166.78 937.073 2167.24 936.919 2167.61 936.681 2167.97 936.443 2168.29 936.08 2168.55 935.594 2168.8 935.107 2169.1 934.437 2169.44 933.583L2172.21 933.583C2172.11 934.993 2172.02 936.413 2171.93 937.843 2171.84 939.272 2171.74 940.692 2171.64 942.102L2146.41 942.102 2146.41 940.553C2146.89 939.481 2147.45 938.423 2148.08 937.381 2148.72 936.339 2149.43 935.281 2150.23 934.209 2151.02 933.137 2151.93 932.03 2152.94 930.888 2153.95 929.746 2155.07 928.56 2156.3 927.328 2158.17 925.462 2159.69 923.868 2160.86 922.548 2162.03 921.227 2162.96 920.051 2163.63 919.018 2164.31 917.986 2164.77 917.033 2165.02 916.159 2165.26 915.285 2165.39 914.352 2165.39 913.359 2165.39 912.347 2165.24 911.413 2164.96 910.559 2164.67 909.706 2164.26 908.981 2163.72 908.385 2163.18 907.789 2162.5 907.323 2161.68 906.985 2160.86 906.648 2159.91 906.479 2158.84 906.479 2156.99 906.479 2155.44 906.98 2154.19 907.983 2152.94 908.986 2151.96 910.44 2151.27 912.347L2147.37 912.347 2147.37 906.538C2149.91 905.486 2152.25 904.722 2154.38 904.245 2156.52 903.768 2158.44 903.53 2160.15 903.53Z" fill-rule="evenodd"/><text fill="#000000" fill-opacity="0" font-family="Arial,Arial_MSFontService,sans-serif" font-size="38.5718" x="2146.41" y="937.28">2</text><path d="M1774.75 885.866C1777.26 885.866 1779.55 886.014 1781.62 886.311 1783.68 886.609 1785.74 887.122 1787.8 887.851L1785.97 896.362 1782.69 896.362C1782.39 893.958 1781.6 892.134 1780.32 890.891 1779.04 889.648 1777.02 889.027 1774.26 889.027 1772.13 889.027 1770.4 889.574 1769.07 890.668 1767.75 891.762 1767.09 893.201 1767.09 894.984 1767.09 895.957 1767.26 896.815 1767.59 897.558 1767.93 898.301 1768.61 899.118 1769.64 900.01 1770.67 900.901 1772.26 901.995 1774.42 903.292 1776.12 904.319 1777.49 905.258 1778.52 906.109 1779.54 906.96 1780.35 907.804 1780.95 908.642 1781.54 909.48 1781.97 910.364 1782.24 911.297 1782.51 912.229 1782.65 913.357 1782.65 914.681 1782.65 917.085 1782.01 919.145 1780.72 920.861 1779.44 922.577 1777.7 923.853 1775.5 924.691 1773.29 925.528 1770.79 925.947 1767.98 925.947 1765.74 925.947 1763.53 925.778 1761.37 925.441 1759.21 925.103 1756.81 924.529 1754.16 923.718L1756.1 914.883 1759.26 914.883C1759.37 917.477 1760.1 919.436 1761.45 920.76 1762.8 922.084 1764.95 922.745 1767.9 922.745 1770.46 922.745 1772.47 922.171 1773.92 921.023 1775.36 919.875 1776.08 918.247 1776.08 916.14 1776.08 914.924 1775.88 913.877 1775.48 912.999 1775.07 912.121 1774.41 911.276 1773.49 910.466 1772.57 909.655 1771.11 908.642 1769.11 907.426 1767.01 906.156 1765.36 905.008 1764.19 903.981 1763.01 902.955 1762.13 901.84 1761.53 900.638 1760.94 899.435 1760.64 898.051 1760.64 896.484 1760.64 894.349 1761.22 892.478 1762.37 890.871 1763.51 889.263 1765.15 888.027 1767.29 887.162 1769.42 886.298 1771.91 885.866 1774.75 885.866Z" fill-rule="evenodd"/><text fill="#000000" fill-opacity="0" font-family="Arial,Arial_MSFontService,sans-serif" font-size="40.0815" x="1754.16" y="920.937">𝑠</text><path d="M1806.22 903.53C1807.81 903.53 1809.3 903.699 1810.68 904.036 1812.06 904.374 1813.25 904.885 1814.27 905.57 1815.28 906.255 1816.07 907.109 1816.63 908.132 1817.2 909.155 1817.48 910.341 1817.48 911.691 1817.48 912.962 1817.3 914.084 1816.95 915.057 1816.59 916.03 1816.04 916.914 1815.29 917.708 1814.55 918.502 1813.63 919.222 1812.55 919.867 1811.47 920.513 1810.22 921.133 1808.81 921.729L1808.81 922.086C1810.14 922.325 1811.39 922.707 1812.54 923.233 1813.69 923.759 1814.7 924.424 1815.56 925.229 1816.42 926.033 1817.1 926.961 1817.6 928.014 1818.1 929.066 1818.35 930.228 1818.35 931.498 1818.35 933.087 1818.05 934.561 1817.45 935.922 1816.86 937.282 1815.96 938.458 1814.77 939.451 1813.58 940.444 1812.11 941.218 1810.36 941.774 1808.62 942.33 1806.57 942.608 1804.23 942.608 1802.38 942.608 1800.5 942.425 1798.6 942.057 1796.69 941.69 1794.88 941.208 1793.18 940.613L1793.18 934.179 1797.02 934.179C1797.34 935.172 1797.71 936.021 1798.15 936.726 1798.59 937.431 1799.1 938.006 1799.69 938.453 1800.27 938.9 1800.95 939.223 1801.71 939.421 1802.48 939.62 1803.34 939.719 1804.32 939.719 1806.88 939.719 1808.82 939.109 1810.14 937.887 1811.46 936.666 1812.12 934.815 1812.12 932.332 1812.12 929.691 1811.25 927.691 1809.51 926.331 1807.78 924.971 1805.2 924.29 1801.79 924.29L1799.16 924.29 1799.16 921.431C1801.25 921.332 1803.05 921.039 1804.57 920.552 1806.09 920.066 1807.35 919.435 1808.37 918.661 1809.38 917.887 1810.13 916.983 1810.63 915.951 1811.13 914.918 1811.38 913.816 1811.38 912.644 1811.38 910.738 1810.81 909.234 1809.68 908.132 1808.55 907.03 1806.91 906.479 1804.76 906.479 1802.96 906.479 1801.44 906.975 1800.22 907.968 1799 908.961 1798.06 910.44 1797.41 912.406L1793.62 912.406 1793.62 906.538C1795.97 905.546 1798.18 904.796 1800.25 904.29 1802.33 903.783 1804.32 903.53 1806.22 903.53Z" fill-rule="evenodd"/><text fill="#000000" fill-opacity="0" font-family="Arial,Arial_MSFontService,sans-serif" font-size="39.0781" x="1793.18" y="937.724">3</text><path d="M0 0 0.000360892 206.579" stroke="#000000" stroke-width="2.29167" stroke-miterlimit="8" fill="none" fill-rule="evenodd" transform="matrix(1 0 0 -1 1537 861.579)"/><path d="M1523.38 885.866C1525.9 885.866 1528.18 886.014 1530.25 886.311 1532.32 886.609 1534.38 887.122 1536.43 887.851L1534.61 896.362 1531.33 896.362C1531.03 893.958 1530.24 892.134 1528.95 890.891 1527.67 889.648 1525.65 889.027 1522.9 889.027 1520.76 889.027 1519.03 889.574 1517.71 890.668 1516.38 891.762 1515.72 893.201 1515.72 894.984 1515.72 895.957 1515.89 896.815 1516.23 897.558 1516.57 898.301 1517.25 899.118 1518.28 900.01 1519.3 900.901 1520.9 901.995 1523.06 903.292 1524.76 904.319 1526.12 905.258 1527.15 906.109 1528.18 906.96 1528.99 907.804 1529.58 908.642 1530.18 909.48 1530.61 910.364 1530.88 911.297 1531.15 912.229 1531.29 913.357 1531.29 914.681 1531.29 917.085 1530.64 919.145 1529.36 920.861 1528.08 922.577 1526.33 923.853 1524.13 924.691 1521.93 925.528 1519.42 925.947 1516.61 925.947 1514.37 925.947 1512.17 925.778 1510.01 925.441 1507.85 925.103 1505.44 924.529 1502.79 923.718L1504.74 914.883 1507.9 914.883C1508.01 917.477 1508.74 919.436 1510.09 920.76 1511.44 922.084 1513.59 922.745 1516.53 922.745 1519.1 922.745 1521.11 922.171 1522.55 921.023 1524 919.875 1524.72 918.247 1524.72 916.14 1524.72 914.924 1524.52 913.877 1524.11 912.999 1523.71 912.121 1523.04 911.276 1522.13 910.466 1521.21 909.655 1519.75 908.642 1517.75 907.426 1515.64 906.156 1514 905.008 1512.82 903.981 1511.65 902.955 1510.76 901.84 1510.17 900.638 1509.58 899.435 1509.28 898.051 1509.28 896.484 1509.28 894.349 1509.85 892.478 1511 890.871 1512.15 889.263 1513.79 888.027 1515.93 887.162 1518.06 886.298 1520.55 885.866 1523.38 885.866Z" fill-rule="evenodd"/><text fill="#000000" fill-opacity="0" font-family="Arial,Arial_MSFontService,sans-serif" font-size="40.0815" x="1502.79" y="920.937">𝑠</text><path d="M1554.71 910.917C1552.81 913.677 1550.91 916.417 1549.01 919.138 1547.11 921.858 1545.2 924.588 1543.28 927.328L1543.28 927.686 1554.71 927.686 1554.71 921.699C1554.71 921.024 1554.72 920.19 1554.74 919.197 1554.76 918.204 1554.79 917.197 1554.82 916.174 1554.85 915.151 1554.88 914.178 1554.92 913.255 1554.96 912.332 1555 911.552 1555.04 910.917ZM1555.58 903.947 1560.31 903.947 1560.31 927.686 1560.85 927.686C1561.66 927.686 1562.32 927.646 1562.83 927.567 1563.34 927.487 1563.74 927.324 1564.05 927.075 1564.36 926.827 1564.62 926.48 1564.83 926.033 1565.03 925.586 1565.26 925.005 1565.5 924.29L1568.03 924.29C1567.97 925.383 1567.9 926.465 1567.83 927.537 1567.77 928.609 1567.7 929.701 1567.64 930.813L1560.31 930.813 1560.31 934.715C1560.31 935.867 1560.34 936.76 1560.39 937.396 1560.44 938.031 1560.59 938.528 1560.84 938.885 1561.08 939.243 1561.45 939.511 1561.94 939.689 1562.42 939.868 1563.1 940.077 1563.98 940.315L1563.98 942.102 1551.11 942.102 1551.11 940.315C1551.71 940.156 1552.21 940.012 1552.63 939.883 1553.05 939.754 1553.39 939.605 1553.67 939.436 1553.95 939.267 1554.15 939.069 1554.28 938.84 1554.41 938.612 1554.51 938.324 1554.58 937.977 1554.65 937.629 1554.69 937.192 1554.7 936.666 1554.71 936.14 1554.71 935.49 1554.71 934.715L1554.71 930.813 1537.95 930.813 1537.95 928.46C1540.9 924.35 1543.84 920.264 1546.76 916.204 1549.68 912.143 1552.62 908.057 1555.58 903.947Z" fill-rule="evenodd"/><text fill="#000000" fill-opacity="0" font-family="Arial,Arial_MSFontService,sans-serif" font-size="38.1548" x="1537.95" y="937.333">4</text></g></svg>