<svg width="1591" height="626" xmlns="http://www.w3.org/2000/svg" xmlns:xlink="http://www.w3.org/1999/xlink" overflow="hidden"><defs><clipPath id="clip0"><rect x="1522" y="336" width="1591" height="626"/></clipPath></defs><g clip-path="url(#clip0)" transform="translate(-1522 -336)"><rect x="1662.5" y="538.5" width="237" height="236" stroke="#000000" stroke-width="4.58333" stroke-miterlimit="8" fill="none"/><path d="M0 0 0.000360892 89.6294" stroke="#000000" stroke-width="2.29167" stroke-miterlimit="8" fill="none" fill-rule="evenodd" transform="matrix(1 0 0 -1 1731 537.629)"/><path d="M0 0 0.000360892 89.6294" stroke="#000000" stroke-width="2.29167" stroke-miterlimit="8" fill="none" fill-rule="evenodd" transform="matrix(1 0 0 -1 1852 537.629)"/><path d="M1733.31 571.211C1730.53 571.211 1728.03 572.332 1725.81 574.575 1723.6 576.817 1721.87 579.823 1720.63 583.592 1719.38 587.361 1718.76 591.123 1718.76 594.879 1718.76 597.689 1719.15 599.789 1719.92 601.181 1720.69 602.572 1721.98 603.268 1723.79 603.268 1725.57 603.268 1727.32 602.498 1729.04 600.958 1730.75 599.418 1732.52 597.223 1734.35 594.372 1736.17 591.522 1737.46 588.232 1738.22 584.504L1738.58 582.761C1738.82 581.653 1738.99 580.694 1739.07 579.884 1739.15 579.073 1739.19 578.195 1739.19 577.249 1739.19 575.169 1738.74 573.643 1737.85 572.67 1736.96 571.697 1735.45 571.211 1733.31 571.211ZM1732.5 568.009C1734.26 568.009 1735.9 568.205 1737.43 568.597 1738.95 568.989 1740.53 569.684 1742.15 570.684L1745.88 568.009 1748.47 568.658 1742.51 594.352C1741.92 596.919 1741.62 598.918 1741.62 600.35 1741.62 601.431 1741.8 602.214 1742.15 602.701 1742.5 603.187 1743.05 603.43 1743.81 603.43 1744.62 603.43 1745.48 603.099 1746.4 602.437 1747.32 601.775 1748.62 600.512 1750.29 598.648L1752.6 600.917C1750.17 603.511 1748.1 605.355 1746.38 606.449 1744.67 607.544 1742.81 608.091 1740.81 608.091 1739.13 608.091 1737.8 607.537 1736.8 606.429 1735.8 605.321 1735.3 603.849 1735.3 602.012 1735.3 600.526 1735.61 598.945 1736.23 597.27L1735.7 597.108C1733.11 600.89 1730.65 603.66 1728.33 605.416 1726 607.172 1723.54 608.05 1720.95 608.05 1717.98 608.05 1715.68 606.929 1714.04 604.686 1712.41 602.444 1711.59 599.296 1711.59 595.244 1711.59 590.596 1712.5 586.132 1714.32 581.849 1716.15 577.567 1718.65 574.19 1721.84 571.717 1725.03 569.245 1728.58 568.009 1732.5 568.009Z" fill-rule="evenodd"/><text fill="#000000" fill-opacity="0" font-family="Arial,Arial_MSFontService,sans-serif" font-size="40.0815" x="1711.59" y="603.081">洧녩</text><path d="M1856.45 572.791C1855.16 572.791 1853.88 573.203 1852.62 574.027 1851.37 574.851 1849.97 576.216 1848.43 578.12 1846.89 580.025 1845.63 581.977 1844.66 583.977 1843.69 585.976 1842.86 588.529 1842.19 591.636L1841.82 593.338C1841.42 595.23 1841.22 597.067 1841.22 598.85 1841.22 600.985 1841.68 602.525 1842.61 603.47 1843.55 604.416 1845.09 604.889 1847.25 604.889 1848.36 604.889 1849.42 604.706 1850.42 604.342 1851.42 603.977 1852.44 603.376 1853.48 602.538 1854.52 601.701 1855.5 600.6 1856.43 599.235 1857.37 597.871 1858.22 596.189 1859.01 594.19 1859.79 592.19 1860.4 590.049 1860.83 587.766 1861.26 585.483 1861.48 583.301 1861.48 581.221 1861.48 578.411 1861.08 576.303 1860.28 574.898 1859.49 573.494 1858.21 572.791 1856.45 572.791ZM1849.36 549.488 1851.71 549.488 1844.58 577.857 1845.11 578.019C1847.73 574.507 1850.19 571.967 1852.48 570.4 1854.78 568.833 1857.08 568.049 1859.37 568.049 1862.32 568.049 1864.61 569.171 1866.24 571.413 1867.88 573.656 1868.69 576.817 1868.69 580.897 1868.69 585.355 1867.79 589.738 1866 594.048 1864.2 598.357 1861.71 601.775 1858.52 604.301 1855.33 606.827 1851.77 608.09 1847.82 608.09 1844.23 608.09 1841.04 607.212 1838.26 605.456L1834.53 608.09 1831.93 607.442 1842.43 561.119C1843.05 558.363 1843.36 556.364 1843.36 555.121 1843.36 553.986 1843.02 553.189 1842.33 552.73 1841.64 552.271 1840.41 552.014 1838.62 551.96L1839.11 549.853Z" fill-rule="evenodd"/><text fill="#000000" fill-opacity="0" font-family="Arial,Arial_MSFontService,sans-serif" font-size="58.6025" x="1831.93" y="600.765">洧녪</text><path d="M1778.33 727.957C1780.85 727.957 1783.14 728.105 1785.2 728.403 1787.27 728.7 1789.33 729.213 1791.38 729.943L1789.56 738.453 1786.28 738.453C1785.98 736.049 1785.19 734.225 1783.91 732.982 1782.62 731.739 1780.6 731.118 1777.85 731.118 1775.71 731.118 1773.98 731.665 1772.66 732.759 1771.34 733.854 1770.67 735.292 1770.67 737.075 1770.67 738.048 1770.84 738.906 1771.18 739.649 1771.52 740.392 1772.2 741.209 1773.23 742.101 1774.25 742.992 1775.85 744.087 1778.01 745.384 1779.71 746.41 1781.08 747.349 1782.1 748.2 1783.13 749.051 1783.94 749.896 1784.53 750.733 1785.13 751.571 1785.56 752.456 1785.83 753.388 1786.1 754.32 1786.24 755.448 1786.24 756.772 1786.24 759.176 1785.59 761.237 1784.31 762.952 1783.03 764.668 1781.29 765.944 1779.08 766.782 1776.88 767.62 1774.38 768.038 1771.57 768.038 1769.32 768.038 1767.12 767.869 1764.96 767.532 1762.8 767.194 1760.39 766.62 1757.75 765.809L1759.69 756.974 1762.85 756.974C1762.96 759.568 1763.69 761.527 1765.04 762.851 1766.39 764.175 1768.54 764.837 1771.48 764.837 1774.05 764.837 1776.06 764.263 1777.5 763.114 1778.95 761.966 1779.67 760.338 1779.67 758.231 1779.67 757.015 1779.47 755.968 1779.06 755.09 1778.66 754.212 1778 753.367 1777.08 752.557 1776.16 751.746 1774.7 750.733 1772.7 749.517 1770.59 748.247 1768.95 747.099 1767.78 746.073 1766.6 745.046 1765.72 743.931 1765.12 742.729 1764.53 741.527 1764.23 740.142 1764.23 738.575 1764.23 736.44 1764.8 734.57 1765.95 732.962 1767.1 731.354 1768.74 730.118 1770.88 729.254 1773.01 728.389 1775.5 727.957 1778.33 727.957Z" fill-rule="evenodd"/><text fill="#000000" fill-opacity="0" font-family="Arial,Arial_MSFontService,sans-serif" font-size="40.0815" x="1757.75" y="763.028">洧</text><path d="M0 0 0.000360892 89.6294" stroke="#000000" stroke-width="2.29167" stroke-miterlimit="8" fill="none" fill-rule="evenodd" transform="matrix(1 0 0 -1 1776 863.63)"/><path d="M1703.47 649.005C1700.66 649.005 1698.2 650.18 1696.11 652.531 1694.02 654.881 1692.37 658.245 1691.17 662.622 1689.96 666.999 1689.36 670.768 1689.36 673.929 1689.36 676.901 1689.98 679.096 1691.21 680.515 1692.44 681.933 1694.29 682.642 1696.78 682.642 1699.43 682.642 1701.78 681.454 1703.83 679.076 1705.88 676.698 1707.51 673.368 1708.69 669.086 1709.88 664.804 1710.48 661.041 1710.48 657.799 1710.48 654.881 1709.91 652.686 1708.78 651.213 1707.64 649.741 1705.87 649.005 1703.47 649.005ZM1704.28 645.763C1708.6 645.763 1711.9 646.945 1714.17 649.309 1716.44 651.673 1717.57 655.057 1717.57 659.461 1717.57 662.595 1717.02 665.945 1715.93 669.512 1714.83 673.078 1713.34 676.077 1711.43 678.509 1709.53 680.94 1707.25 682.771 1704.6 684 1701.95 685.229 1698.91 685.844 1695.48 685.844 1691.3 685.844 1688.05 684.669 1685.74 682.318 1683.43 679.968 1682.27 676.59 1682.27 672.186 1682.27 670.025 1682.6 667.526 1683.24 664.689 1684.08 660.852 1685.49 657.502 1687.46 654.638 1689.43 651.774 1691.86 649.579 1694.75 648.052 1697.64 646.526 1700.82 645.763 1704.28 645.763Z" fill-rule="evenodd"/><text fill="#000000" fill-opacity="0" font-family="Arial,Arial_MSFontService,sans-serif" font-size="40.0815" x="1682.27" y="680.834">洧녶</text><path d="M1850.12 648.516 1852.52 648.516 1846.68 674.534C1846.09 677.182 1845.79 679.181 1845.79 680.532 1845.79 681.613 1845.96 682.397 1846.31 682.883 1846.67 683.369 1847.22 683.612 1847.98 683.612 1848.79 683.612 1849.65 683.281 1850.57 682.62 1851.49 681.958 1852.79 680.694 1854.46 678.83L1856.77 681.1C1854.12 683.883 1851.97 685.774 1850.33 686.774 1848.68 687.773 1846.83 688.273 1844.77 688.273 1843.02 688.273 1841.61 687.631 1840.56 686.348 1839.51 685.065 1838.98 683.423 1838.98 681.424 1838.98 679.371 1839.36 676.75 1840.11 673.562L1843.15 660.309C1843.78 657.607 1844.09 655.581 1844.09 654.23 1844.09 653.014 1843.8 652.19 1843.21 651.758 1842.63 651.326 1841.49 651.082 1839.79 651.028L1840.24 648.88ZM1849.03 632.994 1856.2 632.994 1854.34 640.856 1847.17 640.856Z" fill-rule="evenodd"/><text fill="#000000" fill-opacity="0" font-family="Arial,Arial_MSFontService,sans-serif" font-size="55.2793" x="1838.98" y="681.363">洧녰</text><path d="M2135.44 722.795C2137.95 722.795 2140.24 722.943 2142.31 723.24 2144.38 723.538 2146.44 724.051 2148.49 724.78L2146.67 733.291 2143.38 733.291C2143.09 730.887 2142.3 729.063 2141.01 727.82 2139.73 726.577 2137.71 725.956 2134.95 725.956 2132.82 725.956 2131.09 726.503 2129.77 727.597 2128.44 728.691 2127.78 730.13 2127.78 731.913 2127.78 732.886 2127.95 733.744 2128.29 734.487 2128.62 735.23 2129.31 736.047 2130.33 736.939 2131.36 737.83 2132.95 738.924 2135.12 740.221 2136.82 741.248 2138.18 742.187 2139.21 743.038 2140.24 743.889 2141.05 744.733 2141.64 745.571 2142.23 746.409 2142.67 747.293 2142.94 748.226 2143.21 749.158 2143.34 750.286 2143.34 751.61 2143.34 754.014 2142.7 756.074 2141.42 757.79 2140.13 759.506 2138.39 760.782 2136.19 761.62 2133.99 762.457 2131.48 762.876 2128.67 762.876 2126.43 762.876 2124.23 762.707 2122.07 762.37 2119.9 762.032 2117.5 761.458 2114.85 760.647L2116.8 751.812 2119.96 751.812C2120.07 754.406 2120.8 756.365 2122.15 757.689 2123.5 759.013 2125.65 759.674 2128.59 759.674 2131.16 759.674 2133.16 759.1 2134.61 757.952 2136.05 756.804 2136.78 755.176 2136.78 753.069 2136.78 751.853 2136.57 750.806 2136.17 749.928 2135.76 749.05 2135.1 748.205 2134.18 747.395 2133.26 746.584 2131.81 745.571 2129.81 744.355 2127.7 743.085 2126.06 741.937 2124.88 740.91 2123.71 739.884 2122.82 738.769 2122.23 737.567 2121.63 736.365 2121.34 734.98 2121.34 733.413 2121.34 731.278 2121.91 729.407 2123.06 727.8 2124.21 726.192 2125.85 724.956 2127.98 724.091 2130.12 723.227 2132.6 722.795 2135.44 722.795Z" fill-rule="evenodd"/><text fill="#000000" fill-opacity="0" font-family="Arial,Arial_MSFontService,sans-serif" font-size="40.0815" x="2114.85" y="757.866">洧</text><path d="M2060.57 643.842C2057.76 643.842 2055.31 645.018 2053.22 647.368 2051.12 649.719 2049.47 653.083 2048.27 657.46 2047.07 661.837 2046.47 665.606 2046.47 668.767 2046.47 671.739 2047.08 673.934 2048.31 675.352 2049.54 676.771 2051.4 677.48 2053.89 677.48 2056.53 677.48 2058.88 676.291 2060.94 673.914 2062.99 671.536 2064.61 668.206 2065.8 663.924 2066.99 659.641 2067.58 655.879 2067.58 652.637 2067.58 649.719 2067.02 647.524 2065.88 646.051 2064.75 644.579 2062.98 643.842 2060.57 643.842ZM2061.38 640.6C2065.71 640.6 2069 641.782 2071.27 644.146 2073.54 646.51 2074.68 649.895 2074.68 654.299 2074.68 657.433 2074.13 660.783 2073.03 664.349 2071.94 667.916 2070.44 670.915 2068.54 673.346 2066.63 675.778 2064.36 677.609 2061.71 678.838 2059.06 680.067 2056.02 680.682 2052.59 680.682 2048.4 680.682 2045.15 679.507 2042.84 677.156 2040.53 674.805 2039.38 671.428 2039.38 667.024 2039.38 664.863 2039.7 662.363 2040.35 659.527 2041.19 655.69 2042.59 652.34 2044.56 649.476 2046.54 646.612 2048.97 644.417 2051.86 642.89 2054.75 641.364 2057.92 640.6 2061.38 640.6Z" fill-rule="evenodd"/><text fill="#000000" fill-opacity="0" font-family="Arial,Arial_MSFontService,sans-serif" font-size="40.0815" x="2039.38" y="675.672">洧녶</text><path d="M2207.23 643.354 2209.62 643.354 2203.79 669.372C2203.19 672.02 2202.89 674.019 2202.89 675.37 2202.89 676.451 2203.07 677.234 2203.42 677.721 2203.77 678.207 2204.33 678.45 2205.08 678.45 2205.89 678.45 2206.76 678.119 2207.68 677.457 2208.59 676.795 2209.89 675.532 2211.57 673.668L2213.88 675.938C2211.23 678.72 2209.08 680.612 2207.43 681.611 2205.78 682.611 2203.93 683.111 2201.88 683.111 2200.12 683.111 2198.72 682.469 2197.67 681.186 2196.61 679.902 2196.09 678.261 2196.09 676.262 2196.09 674.208 2196.46 671.588 2197.22 668.399L2200.26 655.147C2200.88 652.445 2201.19 650.419 2201.19 649.068 2201.19 647.852 2200.9 647.028 2200.32 646.596 2199.74 646.163 2198.6 645.92 2196.9 645.866L2197.34 643.718ZM2206.14 627.832 2213.31 627.832 2211.45 635.694 2204.27 635.694Z" fill-rule="evenodd"/><text fill="#000000" fill-opacity="0" font-family="Arial,Arial_MSFontService,sans-serif" font-size="55.2793" x="2196.09" y="676.201">洧녰</text><path d="M2492.55 717.632C2495.06 717.632 2497.35 717.781 2499.42 718.078 2501.48 718.375 2503.54 718.889 2505.6 719.618L2503.77 728.129 2500.49 728.129C2500.19 725.724 2499.4 723.901 2498.12 722.658 2496.83 721.415 2494.82 720.794 2492.06 720.794 2489.92 720.794 2488.2 721.341 2486.87 722.435 2485.55 723.529 2484.89 724.968 2484.89 726.751 2484.89 727.724 2485.05 728.582 2485.39 729.325 2485.73 730.068 2486.41 730.885 2487.44 731.776 2488.47 732.668 2490.06 733.762 2492.22 735.059 2493.92 736.086 2495.29 737.025 2496.31 737.876 2497.34 738.727 2498.15 739.571 2498.75 740.409 2499.34 741.246 2499.77 742.131 2500.04 743.063 2500.31 743.995 2500.45 745.123 2500.45 746.447 2500.45 748.852 2499.81 750.912 2498.52 752.628 2497.24 754.343 2495.5 755.62 2493.3 756.458 2491.09 757.295 2488.59 757.714 2485.78 757.714 2483.54 757.714 2481.33 757.545 2479.17 757.207 2477.01 756.87 2474.61 756.295 2471.96 755.485L2473.9 746.65 2477.06 746.65C2477.17 749.244 2477.9 751.203 2479.25 752.526 2480.6 753.85 2482.75 754.512 2485.7 754.512 2488.26 754.512 2490.27 753.938 2491.71 752.79 2493.16 751.642 2493.88 750.014 2493.88 747.906 2493.88 746.69 2493.68 745.644 2493.28 744.765 2492.87 743.887 2492.21 743.043 2491.29 742.232 2490.37 741.422 2488.91 740.409 2486.91 739.193 2484.8 737.923 2483.16 736.775 2481.99 735.748 2480.81 734.721 2479.93 733.607 2479.33 732.405 2478.74 731.202 2478.44 729.818 2478.44 728.251 2478.44 726.116 2479.02 724.245 2480.16 722.638 2481.31 721.03 2482.95 719.794 2485.09 718.929 2487.22 718.065 2489.71 717.632 2492.55 717.632Z" fill-rule="evenodd"/><text fill="#000000" fill-opacity="0" font-family="Arial,Arial_MSFontService,sans-serif" font-size="40.0815" x="2471.96" y="752.704">洧</text><path d="M2417.68 638.68C2414.87 638.68 2412.42 639.856 2410.32 642.206 2408.23 644.557 2406.58 647.92 2405.38 652.297 2404.18 656.674 2403.57 660.443 2403.57 663.605 2403.57 666.577 2404.19 668.772 2405.42 670.19 2406.65 671.609 2408.51 672.318 2410.99 672.318 2413.64 672.318 2415.99 671.129 2418.04 668.752 2420.1 666.374 2421.72 663.044 2422.91 658.762 2424.1 654.479 2424.69 650.717 2424.69 647.475 2424.69 644.557 2424.12 642.361 2422.99 640.889 2421.85 639.417 2420.08 638.68 2417.68 638.68ZM2418.49 635.438C2422.81 635.438 2426.11 636.62 2428.38 638.984 2430.65 641.348 2431.78 644.732 2431.78 649.136 2431.78 652.27 2431.23 655.621 2430.14 659.187 2429.05 662.753 2427.55 665.753 2425.64 668.184 2423.74 670.616 2421.46 672.446 2418.81 673.676 2416.17 674.905 2413.13 675.52 2409.69 675.52 2405.51 675.52 2402.26 674.344 2399.95 671.994 2397.64 669.643 2396.48 666.266 2396.48 661.862 2396.48 659.7 2396.81 657.201 2397.46 654.364 2398.29 650.528 2399.7 647.177 2401.67 644.314 2403.64 641.45 2406.07 639.254 2408.97 637.728 2411.86 636.201 2415.03 635.438 2418.49 635.438Z" fill-rule="evenodd"/><text fill="#000000" fill-opacity="0" font-family="Arial,Arial_MSFontService,sans-serif" font-size="40.0815" x="2396.48" y="670.509">洧녶</text><path d="M2564.34 638.191 2566.73 638.191 2560.89 664.21C2560.3 666.858 2560 668.857 2560 670.208 2560 671.289 2560.18 672.072 2560.53 672.559 2560.88 673.045 2561.43 673.288 2562.19 673.288 2563 673.288 2563.86 672.957 2564.78 672.295 2565.7 671.633 2567 670.37 2568.67 668.506L2570.98 670.775C2568.33 673.558 2566.19 675.449 2564.54 676.449 2562.89 677.449 2561.04 677.949 2558.99 677.949 2557.23 677.949 2555.83 677.307 2554.77 676.024 2553.72 674.74 2553.19 673.099 2553.19 671.1 2553.19 669.046 2553.57 666.425 2554.33 663.237L2557.37 649.985C2557.99 647.283 2558.3 645.257 2558.3 643.906 2558.3 642.69 2558.01 641.866 2557.43 641.434 2556.85 641.001 2555.7 640.758 2554 640.704L2554.45 638.556ZM2563.24 622.669 2570.42 622.669 2568.55 630.532 2561.38 630.532Z" fill-rule="evenodd"/><text fill="#000000" fill-opacity="0" font-family="Arial,Arial_MSFontService,sans-serif" font-size="55.2793" x="2553.19" y="671.039">洧녰</text><path d="M2854.08 716.615C2856.59 716.615 2858.88 716.764 2860.95 717.061 2863.02 717.358 2865.08 717.872 2867.13 718.601L2865.31 727.112 2862.03 727.112C2861.73 724.707 2860.94 722.884 2859.65 721.641 2858.37 720.398 2856.35 719.777 2853.6 719.777 2851.46 719.777 2849.73 720.324 2848.41 721.418 2847.08 722.512 2846.42 723.951 2846.42 725.734 2846.42 726.707 2846.59 727.565 2846.93 728.308 2847.27 729.051 2847.95 729.868 2848.98 730.759 2850 731.651 2851.6 732.745 2853.76 734.042 2855.46 735.069 2856.82 736.008 2857.85 736.859 2858.88 737.71 2859.69 738.554 2860.28 739.392 2860.88 740.229 2861.31 741.114 2861.58 742.046 2861.85 742.978 2861.98 744.106 2861.98 745.43 2861.98 747.835 2861.34 749.895 2860.06 751.611 2858.78 753.326 2857.03 754.603 2854.83 755.441 2852.63 756.278 2850.12 756.697 2847.31 756.697 2845.07 756.697 2842.87 756.528 2840.71 756.19 2838.55 755.853 2836.14 755.279 2833.49 754.468L2835.44 745.633 2838.6 745.633C2838.71 748.227 2839.44 750.186 2840.79 751.509 2842.14 752.833 2844.29 753.495 2847.23 753.495 2849.8 753.495 2851.81 752.921 2853.25 751.773 2854.7 750.625 2855.42 748.997 2855.42 746.889 2855.42 745.674 2855.22 744.627 2854.81 743.748 2854.41 742.87 2853.74 742.026 2852.83 741.216 2851.91 740.405 2850.45 739.392 2848.45 738.176 2846.34 736.906 2844.7 735.758 2843.52 734.731 2842.35 733.704 2841.46 732.59 2840.87 731.388 2840.28 730.185 2839.98 728.801 2839.98 727.234 2839.98 725.099 2840.55 723.228 2841.7 721.621 2842.85 720.013 2844.49 718.777 2846.62 717.912 2848.76 717.048 2851.25 716.615 2854.08 716.615Z" fill-rule="evenodd"/><text fill="#000000" fill-opacity="0" font-family="Arial,Arial_MSFontService,sans-serif" font-size="40.0815" x="2833.49" y="751.687">洧</text><path d="M2779.22 637.663C2776.41 637.663 2773.95 638.839 2771.86 641.189 2769.77 643.54 2768.12 646.904 2766.92 651.28 2765.71 655.657 2765.11 659.426 2765.11 662.588 2765.11 665.56 2765.73 667.755 2766.96 669.173 2768.18 670.592 2770.04 671.301 2772.53 671.301 2775.18 671.301 2777.53 670.112 2779.58 667.735 2781.63 665.357 2783.25 662.027 2784.44 657.745 2785.63 653.462 2786.23 649.7 2786.23 646.458 2786.23 643.54 2785.66 641.344 2784.52 639.872 2783.39 638.4 2781.62 637.663 2779.22 637.663ZM2780.03 634.421C2784.35 634.421 2787.64 635.603 2789.91 637.967 2792.18 640.331 2793.32 643.715 2793.32 648.119 2793.32 651.253 2792.77 654.604 2791.68 658.17 2790.58 661.737 2789.08 664.736 2787.18 667.167 2785.27 669.599 2783 671.429 2780.35 672.659 2777.7 673.888 2774.66 674.503 2771.23 674.503 2767.04 674.503 2763.79 673.327 2761.48 670.977 2759.17 668.626 2758.02 665.249 2758.02 660.845 2758.02 658.683 2758.34 656.184 2758.99 653.347 2759.83 649.511 2761.23 646.161 2763.21 643.297 2765.18 640.433 2767.61 638.237 2770.5 636.711 2773.39 635.184 2776.57 634.421 2780.03 634.421Z" fill-rule="evenodd"/><text fill="#000000" fill-opacity="0" font-family="Arial,Arial_MSFontService,sans-serif" font-size="40.0815" x="2758.02" y="669.492">洧녶</text><path d="M2925.87 637.174 2928.26 637.174 2922.43 663.193C2921.83 665.841 2921.54 667.84 2921.54 669.191 2921.54 670.272 2921.71 671.055 2922.06 671.542 2922.41 672.028 2922.97 672.271 2923.72 672.271 2924.54 672.271 2925.4 671.94 2926.32 671.278 2927.24 670.616 2928.53 669.353 2930.21 667.489L2932.52 669.758C2929.87 672.541 2927.72 674.432 2926.08 675.432 2924.43 676.432 2922.58 676.932 2920.52 676.932 2918.77 676.932 2917.36 676.29 2916.31 675.007 2915.25 673.723 2914.73 672.082 2914.73 670.083 2914.73 668.029 2915.11 665.408 2915.86 662.22L2918.9 648.968C2919.52 646.266 2919.83 644.24 2919.83 642.889 2919.83 641.673 2919.54 640.849 2918.96 640.417 2918.38 639.984 2917.24 639.741 2915.54 639.687L2915.98 637.539ZM2924.78 621.652 2931.95 621.652 2930.09 629.515 2922.91 629.515Z" fill-rule="evenodd"/><text fill="#000000" fill-opacity="0" font-family="Arial,Arial_MSFontService,sans-serif" font-size="55.2793" x="2914.73" y="670.022">洧녰</text><rect x="2019.5" y="537.5" width="236" height="236" stroke="#000000" stroke-width="4.58333" stroke-miterlimit="8" fill="none"/><path d="M0 0 0.000360892 89.6294" stroke="#000000" stroke-width="2.29167" stroke-miterlimit="8" fill="none" fill-rule="evenodd" transform="matrix(1 0 0 -1 2088 536.629)"/><path d="M0 0 0.000360892 89.6294" stroke="#000000" stroke-width="2.29167" stroke-miterlimit="8" fill="none" fill-rule="evenodd" transform="matrix(1 0 0 -1 2208 536.629)"/><path d="M2089.79 570.421C2087.01 570.421 2084.51 571.542 2082.3 573.785 2080.08 576.027 2078.35 579.033 2077.11 582.802 2075.86 586.571 2075.24 590.334 2075.24 594.089 2075.24 596.899 2075.63 599 2076.4 600.391 2077.17 601.783 2078.46 602.478 2080.27 602.478 2082.05 602.478 2083.8 601.708 2085.52 600.168 2087.23 598.628 2089 596.433 2090.83 593.583 2092.65 590.732 2093.94 587.443 2094.7 583.714L2095.06 581.971C2095.3 580.864 2095.47 579.905 2095.55 579.094 2095.63 578.284 2095.67 577.405 2095.67 576.46 2095.67 574.379 2095.22 572.853 2094.33 571.88 2093.44 570.908 2091.93 570.421 2089.79 570.421ZM2088.98 567.22C2090.74 567.22 2092.38 567.415 2093.91 567.807 2095.43 568.199 2097.01 568.895 2098.63 569.894L2102.36 567.22 2104.95 567.868 2098.99 593.562C2098.4 596.129 2098.1 598.128 2098.1 599.56 2098.1 600.641 2098.28 601.425 2098.63 601.911 2098.98 602.397 2099.53 602.64 2100.29 602.64 2101.1 602.64 2101.96 602.309 2102.88 601.648 2103.8 600.986 2105.1 599.722 2106.77 597.858L2109.08 600.128C2106.65 602.721 2104.58 604.565 2102.86 605.66 2101.15 606.754 2099.29 607.301 2097.29 607.301 2095.62 607.301 2094.28 606.747 2093.28 605.639 2092.28 604.532 2091.78 603.059 2091.78 601.222 2091.78 599.736 2092.09 598.155 2092.71 596.48L2092.18 596.318C2089.59 600.101 2087.13 602.87 2084.81 604.626 2082.48 606.382 2080.03 607.261 2077.43 607.261 2074.46 607.261 2072.16 606.139 2070.52 603.897 2068.89 601.654 2068.07 598.507 2068.07 594.454 2068.07 589.807 2068.98 585.342 2070.81 581.06 2072.63 576.777 2075.14 573.4 2078.32 570.928 2081.51 568.456 2085.06 567.22 2088.98 567.22Z" fill-rule="evenodd"/><text fill="#000000" fill-opacity="0" font-family="Arial,Arial_MSFontService,sans-serif" font-size="40.0815" x="2068.07" y="602.291">洧녩</text><path d="M2212.93 572.001C2211.64 572.001 2210.36 572.414 2209.1 573.238 2207.85 574.062 2206.45 575.426 2204.91 577.331 2203.37 579.236 2202.11 581.188 2201.14 583.187 2200.17 585.186 2199.34 587.74 2198.67 590.847L2198.3 592.549C2197.9 594.44 2197.7 596.277 2197.7 598.061 2197.7 600.195 2198.16 601.735 2199.09 602.681 2200.03 603.626 2201.57 604.099 2203.74 604.099 2204.84 604.099 2205.9 603.917 2206.9 603.552 2207.9 603.187 2208.92 602.586 2209.96 601.749 2211 600.911 2211.98 599.81 2212.91 598.446 2213.85 597.081 2214.7 595.399 2215.49 593.4 2216.27 591.401 2216.88 589.259 2217.31 586.976 2217.74 584.693 2217.96 582.512 2217.96 580.431 2217.96 577.621 2217.56 575.514 2216.76 574.109 2215.97 572.704 2214.69 572.001 2212.93 572.001ZM2205.84 548.698 2208.19 548.698 2201.06 577.067 2201.59 577.229C2204.21 573.717 2206.67 571.177 2208.96 569.61 2211.26 568.043 2213.56 567.26 2215.85 567.26 2218.8 567.26 2221.09 568.381 2222.72 570.624 2224.36 572.866 2225.17 576.027 2225.17 580.107 2225.17 584.565 2224.28 588.949 2222.48 593.258 2220.68 597.567 2218.19 600.985 2215 603.511 2211.81 606.038 2208.25 607.301 2204.3 607.301 2200.71 607.301 2197.52 606.423 2194.74 604.667L2191.01 607.301 2188.42 606.652 2198.91 560.33C2199.53 557.574 2199.84 555.574 2199.84 554.332 2199.84 553.197 2199.5 552.4 2198.81 551.94 2198.12 551.481 2196.89 551.224 2195.1 551.17L2195.59 549.063Z" fill-rule="evenodd"/><text fill="#000000" fill-opacity="0" font-family="Arial,Arial_MSFontService,sans-serif" font-size="58.6025" x="2188.42" y="599.975">洧녪</text><path d="M0 0 0.000360892 89.6294" stroke="#000000" stroke-width="2.29167" stroke-miterlimit="8" fill="none" fill-rule="evenodd" transform="matrix(1 0 0 -1 2133 862.63)"/><rect x="2375.5" y="536.5" width="236" height="236" stroke="#000000" stroke-width="4.58333" stroke-miterlimit="8" fill="none"/><path d="M0 0 0.000360892 89.6294" stroke="#000000" stroke-width="2.29167" stroke-miterlimit="8" fill="none" fill-rule="evenodd" transform="matrix(1 0 0 -1 2444 536.629)"/><path d="M0 0 0.000360892 89.6294" stroke="#000000" stroke-width="2.29167" stroke-miterlimit="8" fill="none" fill-rule="evenodd" transform="matrix(1 0 0 -1 2565 536.629)"/><path d="M2446.27 569.632C2443.49 569.632 2440.99 570.753 2438.78 572.995 2436.56 575.238 2434.83 578.244 2433.59 582.013 2432.35 585.782 2431.72 589.544 2431.72 593.3 2431.72 596.109 2432.11 598.21 2432.88 599.602 2433.65 600.993 2434.94 601.689 2436.75 601.689 2438.53 601.689 2440.28 600.919 2442 599.379 2443.71 597.839 2445.48 595.643 2447.31 592.793 2449.13 589.943 2450.42 586.653 2451.18 582.925L2451.54 581.182C2451.79 580.074 2451.95 579.115 2452.03 578.304 2452.11 577.494 2452.15 576.616 2452.15 575.67 2452.15 573.59 2451.7 572.063 2450.81 571.091 2449.92 570.118 2448.41 569.632 2446.27 569.632ZM2445.46 566.43C2447.22 566.43 2448.86 566.626 2450.39 567.018 2451.91 567.409 2453.49 568.105 2455.11 569.105L2458.84 566.43 2461.43 567.078 2455.47 592.773C2454.88 595.339 2454.58 597.339 2454.58 598.771 2454.58 599.852 2454.76 600.635 2455.11 601.121 2455.46 601.608 2456.01 601.851 2456.77 601.851 2457.58 601.851 2458.45 601.52 2459.36 600.858 2460.28 600.196 2461.58 598.933 2463.25 597.069L2465.56 599.338C2463.13 601.932 2461.06 603.776 2459.34 604.87 2457.63 605.964 2455.77 606.511 2453.77 606.511 2452.1 606.511 2450.76 605.958 2449.76 604.85 2448.76 603.742 2448.26 602.27 2448.26 600.432 2448.26 598.946 2448.57 597.366 2449.19 595.691L2448.66 595.529C2446.07 599.311 2443.61 602.081 2441.29 603.837 2438.97 605.593 2436.51 606.471 2433.91 606.471 2430.94 606.471 2428.64 605.35 2427 603.107 2425.37 600.865 2424.55 597.717 2424.55 593.664 2424.55 589.017 2425.46 584.552 2427.29 580.27 2429.11 575.988 2431.62 572.61 2434.8 570.138 2437.99 567.666 2441.55 566.43 2445.46 566.43Z" fill-rule="evenodd"/><text fill="#000000" fill-opacity="0" font-family="Arial,Arial_MSFontService,sans-serif" font-size="40.0815" x="2424.55" y="601.501">洧녩</text><path d="M2569.42 571.212C2568.12 571.212 2566.84 571.624 2565.59 572.448 2564.33 573.272 2562.93 574.636 2561.39 576.541 2559.85 578.446 2558.59 580.398 2557.62 582.397 2556.65 584.397 2555.83 586.95 2555.15 590.057L2554.79 591.759C2554.38 593.65 2554.18 595.488 2554.18 597.271 2554.18 599.405 2554.64 600.945 2555.58 601.891 2556.51 602.837 2558.05 603.309 2560.22 603.309 2561.32 603.309 2562.38 603.127 2563.38 602.762 2564.38 602.398 2565.4 601.796 2566.44 600.959 2567.48 600.121 2568.46 599.02 2569.4 597.656 2570.33 596.291 2571.19 594.61 2571.97 592.61 2572.75 590.611 2573.36 588.47 2573.79 586.187 2574.22 583.904 2574.44 581.722 2574.44 579.641 2574.44 576.832 2574.04 574.724 2573.25 573.319 2572.45 571.914 2571.17 571.212 2569.42 571.212ZM2562.32 547.909 2564.67 547.909 2557.54 576.278 2558.07 576.44C2560.69 572.927 2563.15 570.388 2565.44 568.821 2567.74 567.254 2570.04 566.47 2572.33 566.47 2575.28 566.47 2577.57 567.591 2579.2 569.834 2580.84 572.076 2581.65 575.237 2581.65 579.317 2581.65 583.775 2580.76 588.159 2578.96 592.468 2577.16 596.778 2574.67 600.196 2571.48 602.722 2568.29 605.248 2564.73 606.511 2560.78 606.511 2557.19 606.511 2554 605.633 2551.22 603.877L2547.49 606.511 2544.9 605.863 2555.39 559.54C2556.01 556.784 2556.33 554.785 2556.33 553.542 2556.33 552.407 2555.98 551.61 2555.29 551.151 2554.6 550.691 2553.37 550.435 2551.58 550.381L2552.07 548.273Z" fill-rule="evenodd"/><text fill="#000000" fill-opacity="0" font-family="Arial,Arial_MSFontService,sans-serif" font-size="58.6025" x="2544.9" y="599.186">洧녪</text><path d="M0 0 0.000360892 89.6294" stroke="#000000" stroke-width="2.29167" stroke-miterlimit="8" fill="none" fill-rule="evenodd" transform="matrix(1 0 0 -1 2489 861.63)"/><rect x="2732.5" y="535.5" width="236" height="237" stroke="#000000" stroke-width="4.58333" stroke-miterlimit="8" fill="none"/><path d="M0 0 0.000360892 89.6294" stroke="#000000" stroke-width="2.29167" stroke-miterlimit="8" fill="none" fill-rule="evenodd" transform="matrix(1 0 0 -1 2801 535.629)"/><path d="M0 0 0.000360892 89.6294" stroke="#000000" stroke-width="2.29167" stroke-miterlimit="8" fill="none" fill-rule="evenodd" transform="matrix(1 0 0 -1 2921 535.629)"/><path d="M2802.75 568.842C2799.97 568.842 2797.47 569.963 2795.26 572.206 2793.04 574.448 2791.31 577.454 2790.07 581.223 2788.83 584.992 2788.21 588.754 2788.21 592.51 2788.21 595.32 2788.59 597.421 2789.36 598.812 2790.13 600.203 2791.42 600.899 2793.23 600.899 2795.01 600.899 2796.76 600.129 2798.48 598.589 2800.19 597.049 2801.96 594.854 2803.79 592.003 2805.61 589.153 2806.9 585.863 2807.66 582.135L2808.02 580.392C2808.27 579.285 2808.43 578.325 2808.51 577.515 2808.59 576.704 2808.63 575.826 2808.63 574.881 2808.63 572.8 2808.19 571.274 2807.29 570.301 2806.4 569.328 2804.89 568.842 2802.75 568.842ZM2801.94 565.64C2803.7 565.64 2805.34 565.836 2806.87 566.228 2808.39 566.62 2809.97 567.315 2811.59 568.315L2815.32 565.64 2817.91 566.289 2811.95 591.983C2811.36 594.55 2811.06 596.549 2811.06 597.981 2811.06 599.062 2811.24 599.845 2811.59 600.332 2811.94 600.818 2812.49 601.061 2813.25 601.061 2814.06 601.061 2814.93 600.73 2815.84 600.068 2816.76 599.406 2818.06 598.143 2819.74 596.279L2822.05 598.549C2819.61 601.142 2817.54 602.986 2815.82 604.081 2814.11 605.175 2812.25 605.722 2810.25 605.722 2808.58 605.722 2807.24 605.168 2806.24 604.06 2805.24 602.953 2804.74 601.48 2804.74 599.643 2804.74 598.157 2805.05 596.576 2805.67 594.901L2805.15 594.739C2802.55 598.521 2800.09 601.291 2797.77 603.047 2795.45 604.803 2792.99 605.681 2790.39 605.681 2787.42 605.681 2785.12 604.56 2783.48 602.318 2781.85 600.075 2781.03 596.927 2781.03 592.875 2781.03 588.228 2781.94 583.763 2783.77 579.48 2785.59 575.198 2788.1 571.821 2791.29 569.349 2794.47 566.876 2798.03 565.64 2801.94 565.64Z" fill-rule="evenodd"/><text fill="#000000" fill-opacity="0" font-family="Arial,Arial_MSFontService,sans-serif" font-size="40.0815" x="2781.03" y="600.712">洧녩</text><path d="M2925.9 570.422C2924.6 570.422 2923.32 570.834 2922.07 571.658 2920.81 572.482 2919.41 573.847 2917.87 575.752 2916.33 577.656 2915.08 579.608 2914.1 581.608 2913.13 583.607 2912.31 586.16 2911.63 589.267L2911.27 590.97C2910.86 592.861 2910.66 594.698 2910.66 596.481 2910.66 598.616 2911.12 600.156 2912.06 601.101 2912.99 602.047 2914.54 602.52 2916.7 602.52 2917.8 602.52 2918.86 602.337 2919.86 601.973 2920.86 601.608 2921.88 601.007 2922.92 600.169 2923.96 599.332 2924.94 598.231 2925.88 596.866 2926.81 595.502 2927.67 593.82 2928.45 591.821 2929.23 589.821 2929.84 587.68 2930.27 585.397 2930.71 583.114 2930.92 580.932 2930.92 578.852 2930.92 576.042 2930.52 573.935 2929.73 572.53 2928.93 571.125 2927.65 570.422 2925.9 570.422ZM2918.8 547.119 2921.15 547.119 2914.02 575.488 2914.55 575.65C2917.17 572.138 2919.63 569.598 2921.92 568.031 2924.22 566.464 2926.52 565.68 2928.81 565.68 2931.76 565.68 2934.05 566.802 2935.68 569.044 2937.32 571.287 2938.14 574.448 2938.14 578.528 2938.14 582.986 2937.24 587.369 2935.44 591.679 2933.64 595.988 2931.15 599.406 2927.96 601.932 2924.78 604.458 2921.21 605.721 2917.26 605.721 2913.67 605.721 2910.48 604.843 2907.7 603.087L2903.97 605.721 2901.38 605.073 2911.87 558.75C2912.5 555.994 2912.81 553.995 2912.81 552.752 2912.81 551.617 2912.46 550.82 2911.77 550.361 2911.08 549.902 2909.85 549.645 2908.06 549.591L2908.55 547.484Z" fill-rule="evenodd"/><text fill="#000000" fill-opacity="0" font-family="Arial,Arial_MSFontService,sans-serif" font-size="58.6025" x="2901.38" y="598.396">洧녪</text><path d="M0 0 0.000360892 89.6294" stroke="#000000" stroke-width="2.29167" stroke-miterlimit="8" fill="none" fill-rule="evenodd" transform="matrix(1 0 0 -1 2846 861.63)"/><path d="M0 0 120.185 0.789633" stroke="#000000" stroke-width="2.29167" stroke-miterlimit="8" fill="none" fill-rule="evenodd" transform="matrix(1 0 0 -1 1899 655.789)"/><path d="M0 0 120.185 0.789633" stroke="#000000" stroke-width="2.29167" stroke-miterlimit="8" fill="none" fill-rule="evenodd" transform="matrix(1 0 0 -1 2257 653.79)"/><path d="M0 0 120.185 0.789633" stroke="#000000" stroke-width="2.29167" stroke-miterlimit="8" fill="none" fill-rule="evenodd" transform="matrix(1 0 0 -1 2615 650.79)"/><path d="M0 0 120.185 0.789633" stroke="#000000" stroke-width="2.29167" stroke-miterlimit="8" fill="none" fill-rule="evenodd" transform="matrix(1 0 0 -1 2973 648.79)"/><path d="M0 0 120.185 0.789633" stroke="#000000" stroke-width="2.29167" stroke-miterlimit="8" fill="none" fill-rule="evenodd" transform="matrix(1 0 0 -1 1537 655.789)"/><path d="M2773.61 393.767C2774.45 393.767 2775.18 393.862 2775.82 394.051 2776.45 394.24 2777.01 394.53 2777.5 394.922 2777.98 395.314 2778.42 395.82 2778.8 396.442 2779.17 397.063 2779.54 397.908 2779.89 398.975 2780.24 400.042 2780.57 401.366 2780.88 402.947 2781.19 404.527 2781.47 406.168 2781.71 407.871L2782.12 407.871C2784.71 404.223 2786.68 401.555 2788.02 399.866 2789.35 398.178 2790.48 396.922 2791.4 396.097 2792.32 395.273 2793.2 394.693 2794.05 394.355 2794.9 394.017 2796.03 393.848 2797.44 393.848 2798.71 393.848 2799.75 394.01 2800.56 394.335L2798.94 401.67 2796.1 401.67C2795.94 400.535 2795.47 399.968 2794.68 399.968 2794.44 399.968 2794.18 400.008 2793.91 400.089 2793.64 400.17 2793.31 400.346 2792.92 400.616 2792.53 400.886 2791.95 401.413 2791.2 402.197 2790.44 402.98 2789.59 403.939 2788.64 405.074 2787.7 406.209 2786.73 407.398 2785.73 408.641L2782.97 412.085C2783.46 414.679 2783.92 416.922 2784.35 418.813 2784.78 420.704 2785.16 422.278 2785.5 423.534 2785.84 424.791 2786.14 425.784 2786.39 426.513 2786.65 427.243 2786.93 427.79 2787.22 428.155 2787.52 428.519 2787.83 428.776 2788.14 428.925 2788.45 429.073 2788.81 429.147 2789.21 429.147 2789.94 429.147 2790.65 428.864 2791.34 428.296 2792.03 427.729 2793.02 426.446 2794.32 424.446L2796.95 426.189C2795.06 428.999 2793.35 430.978 2791.82 432.126 2790.3 433.275 2788.48 433.849 2786.37 433.849 2785.21 433.849 2784.23 433.639 2783.42 433.22 2782.6 432.802 2781.9 432.133 2781.31 431.214 2780.71 430.296 2780.19 428.864 2779.73 426.918 2778.89 423.46 2778.38 420.812 2778.19 418.975L2777.78 418.975C2774.92 423.001 2772.79 425.892 2771.4 427.648 2770.01 429.404 2768.86 430.701 2767.95 431.539 2767.05 432.376 2766.17 432.964 2765.32 433.302 2764.47 433.639 2763.34 433.808 2761.94 433.808 2760.67 433.808 2759.63 433.646 2758.82 433.322L2760.44 425.986 2763.27 425.986C2763.44 427.121 2763.91 427.689 2764.69 427.689 2765.07 427.689 2765.47 427.587 2765.89 427.385 2766.31 427.182 2766.91 426.696 2767.69 425.926 2768.47 425.156 2769.55 423.946 2770.93 422.298 2772.31 420.65 2774.31 418.178 2776.93 414.882 2776.53 412.747 2776.11 410.694 2775.67 408.722 2775.24 406.749 2774.8 404.912 2774.34 403.21 2773.88 401.508 2773.5 400.393 2773.2 399.866 2772.91 399.34 2772.59 398.975 2772.25 398.772 2771.91 398.57 2771.49 398.468 2770.97 398.468 2770.41 398.468 2769.89 398.597 2769.43 398.853 2768.97 399.11 2768.47 399.556 2767.93 400.191 2767.39 400.826 2766.68 401.819 2765.79 403.169L2763.15 401.427C2764.85 398.86 2766.49 396.942 2768.06 395.672 2769.62 394.402 2771.47 393.767 2773.61 393.767Z" fill-rule="evenodd"/><text fill="#000000" fill-opacity="0" font-family="Arial,Arial_MSFontService,sans-serif" font-size="40.0815" x="2758.82" y="428.838">洧논</text><path d="M2818.57 414.361C2817.18 414.361 2816.02 414.724 2815.09 415.449 2814.16 416.173 2813.42 417.236 2812.87 418.636 2812.32 420.035 2811.94 421.743 2811.71 423.759 2811.48 425.774 2811.37 428.063 2811.37 430.624 2811.37 433.583 2811.51 436.139 2811.8 438.294 2812.09 440.448 2812.53 442.22 2813.14 443.61 2813.74 445 2814.5 446.023 2815.42 446.678 2816.33 447.334 2817.42 447.661 2818.69 447.661 2819.89 447.661 2820.93 447.353 2821.82 446.738 2822.71 446.122 2823.45 445.164 2824.04 443.864 2824.63 442.563 2825.07 440.915 2825.37 438.919 2825.66 436.924 2825.81 434.566 2825.81 431.845 2825.81 428.787 2825.65 426.156 2825.32 423.952 2824.99 421.748 2824.53 419.936 2823.94 418.516 2823.34 417.097 2822.59 416.049 2821.69 415.374 2820.78 414.699 2819.75 414.361 2818.57 414.361ZM2818.69 411.472C2821.06 411.472 2823.08 411.914 2824.75 412.798 2826.43 413.681 2827.8 414.942 2828.87 416.58 2829.93 418.219 2830.71 420.219 2831.2 422.582 2831.7 424.945 2831.95 427.616 2831.95 430.594 2831.95 437.207 2830.78 442.206 2828.43 445.591 2826.09 448.977 2822.69 450.669 2818.25 450.669 2813.84 450.669 2810.56 449.071 2808.42 445.874 2806.27 442.677 2805.2 437.832 2805.2 431.339 2805.2 427.943 2805.53 425.005 2806.2 422.522 2806.86 420.04 2807.8 417.98 2809 416.342 2810.2 414.704 2811.62 413.483 2813.27 412.678 2814.92 411.874 2816.73 411.472 2818.69 411.472Z" fill-rule="evenodd"/><text fill="#000000" fill-opacity="0" font-family="Arial,Arial_MSFontService,sans-serif" font-size="39.1973" x="2805.2" y="445.77">0</text><path d="M2420.68 393.767C2421.52 393.767 2422.26 393.862 2422.89 394.051 2423.53 394.24 2424.09 394.53 2424.57 394.922 2425.06 395.314 2425.49 395.82 2425.87 396.442 2426.25 397.063 2426.61 397.908 2426.97 398.975 2427.32 400.042 2427.65 401.366 2427.96 402.947 2428.27 404.527 2428.55 406.168 2428.79 407.871L2429.19 407.871C2431.79 404.223 2433.75 401.555 2435.09 399.866 2436.43 398.178 2437.56 396.922 2438.48 396.097 2439.39 395.273 2440.28 394.693 2441.13 394.355 2441.98 394.017 2443.11 393.848 2444.51 393.848 2445.78 393.848 2446.82 394.01 2447.63 394.335L2446.01 401.67 2443.18 401.67C2443.01 400.535 2442.54 399.968 2441.76 399.968 2441.51 399.968 2441.26 400.008 2440.99 400.089 2440.72 400.17 2440.39 400.346 2439.99 400.616 2439.6 400.886 2439.03 401.413 2438.27 402.197 2437.52 402.98 2436.66 403.939 2435.72 405.074 2434.77 406.209 2433.8 407.398 2432.8 408.641L2430.05 412.085C2430.53 414.679 2430.99 416.922 2431.42 418.813 2431.86 420.704 2432.24 422.278 2432.58 423.534 2432.92 424.791 2433.21 425.784 2433.47 426.513 2433.73 427.243 2434 427.79 2434.3 428.155 2434.6 428.519 2434.9 428.776 2435.21 428.925 2435.52 429.073 2435.88 429.147 2436.29 429.147 2437.02 429.147 2437.73 428.864 2438.41 428.296 2439.1 427.729 2440.1 426.446 2441.39 424.446L2444.03 426.189C2442.14 428.999 2440.43 430.978 2438.9 432.126 2437.37 433.275 2435.56 433.849 2433.45 433.849 2432.29 433.849 2431.3 433.639 2430.49 433.22 2429.68 432.802 2428.98 432.133 2428.38 431.214 2427.79 430.296 2427.26 428.864 2426.8 426.918 2425.97 423.46 2425.45 420.812 2425.26 418.975L2424.86 418.975C2421.99 423.001 2419.87 425.892 2418.47 427.648 2417.08 429.404 2415.94 430.701 2415.03 431.539 2414.12 432.376 2413.25 432.964 2412.4 433.302 2411.54 433.639 2410.42 433.808 2409.01 433.808 2407.74 433.808 2406.7 433.646 2405.89 433.322L2407.51 425.986 2410.35 425.986C2410.51 427.121 2410.98 427.689 2411.77 427.689 2412.15 427.689 2412.54 427.587 2412.96 427.385 2413.38 427.182 2413.98 426.696 2414.77 425.926 2415.55 425.156 2416.63 423.946 2418.01 422.298 2419.39 420.65 2421.39 418.178 2424.01 414.882 2423.6 412.747 2423.18 410.694 2422.75 408.722 2422.32 406.749 2421.87 404.912 2421.41 403.21 2420.95 401.508 2420.58 400.393 2420.28 399.866 2419.98 399.34 2419.66 398.975 2419.33 398.772 2418.99 398.57 2418.56 398.468 2418.05 398.468 2417.48 398.468 2416.97 398.597 2416.51 398.853 2416.05 399.11 2415.55 399.556 2415.01 400.191 2414.47 400.826 2413.75 401.819 2412.86 403.169L2410.23 401.427C2411.93 398.86 2413.56 396.942 2415.13 395.672 2416.7 394.402 2418.55 393.767 2420.68 393.767Z" fill-rule="evenodd"/><text fill="#000000" fill-opacity="0" font-family="Arial,Arial_MSFontService,sans-serif" font-size="40.0815" x="2405.89" y="428.838">洧논</text><path d="M2466.19 411.681 2468.01 411.681C2467.97 412.773 2467.94 413.751 2467.92 414.615 2467.9 415.478 2467.88 416.317 2467.87 417.131 2467.86 417.945 2467.86 418.75 2467.86 419.544L2467.86 442.181C2467.86 442.796 2467.88 443.327 2467.92 443.774 2467.96 444.221 2468.02 444.598 2468.11 444.906 2468.2 445.214 2468.32 445.477 2468.47 445.695 2468.62 445.914 2468.79 446.102 2468.99 446.261 2469.23 446.5 2469.55 446.683 2469.94 446.812 2470.34 446.941 2470.85 447.051 2471.46 447.14 2472.08 447.229 2472.82 447.299 2473.68 447.348 2474.55 447.398 2475.58 447.433 2476.79 447.453L2476.79 450.044 2453.17 450.044 2453.17 447.453C2454.35 447.413 2455.34 447.368 2456.15 447.319 2456.97 447.269 2457.66 447.199 2458.24 447.11 2458.81 447.021 2459.28 446.922 2459.62 446.812 2459.97 446.703 2460.27 446.569 2460.53 446.41 2460.81 446.231 2461.05 446.038 2461.25 445.829 2461.44 445.621 2461.6 445.358 2461.72 445.04 2461.84 444.722 2461.94 444.335 2462.01 443.878 2462.08 443.422 2462.11 442.856 2462.11 442.181L2462.11 420.825C2462.11 420.05 2461.96 419.504 2461.66 419.187 2461.37 418.869 2460.94 418.71 2460.38 418.71 2459.77 418.71 2458.85 419.028 2457.64 419.663 2456.43 420.299 2454.86 421.242 2452.94 422.493 2452.68 422.036 2452.44 421.579 2452.22 421.123 2452 420.666 2451.77 420.199 2451.54 419.723 2454 418.372 2456.44 417.027 2458.85 415.687 2461.26 414.346 2463.71 413.011 2466.19 411.681Z" fill-rule="evenodd"/><text fill="#000000" fill-opacity="0" font-family="Arial,Arial_MSFontService,sans-serif" font-size="38.3633" x="2451.54" y="445.249">1</text><path d="M2065.88 393.767C2066.72 393.767 2067.45 393.862 2068.09 394.051 2068.72 394.24 2069.29 394.53 2069.77 394.922 2070.26 395.314 2070.69 395.82 2071.07 396.442 2071.45 397.063 2071.81 397.908 2072.16 398.975 2072.51 400.042 2072.84 401.366 2073.16 402.947 2073.47 404.527 2073.74 406.168 2073.99 407.871L2074.39 407.871C2076.99 404.223 2078.95 401.555 2080.29 399.866 2081.63 398.178 2082.75 396.922 2083.67 396.097 2084.59 395.273 2085.48 394.693 2086.33 394.355 2087.18 394.017 2088.31 393.848 2089.71 393.848 2090.98 393.848 2092.02 394.01 2092.83 394.335L2091.21 401.67 2088.37 401.67C2088.21 400.535 2087.74 399.968 2086.96 399.968 2086.71 399.968 2086.46 400.008 2086.19 400.089 2085.91 400.17 2085.58 400.346 2085.19 400.616 2084.8 400.886 2084.23 401.413 2083.47 402.197 2082.71 402.98 2081.86 403.939 2080.92 405.074 2079.97 406.209 2079 407.398 2078 408.641L2075.24 412.085C2075.73 414.679 2076.19 416.922 2076.62 418.813 2077.05 420.704 2077.44 422.278 2077.78 423.534 2078.11 424.791 2078.41 425.784 2078.67 426.513 2078.92 427.243 2079.2 427.79 2079.5 428.155 2079.8 428.519 2080.1 428.776 2080.41 428.925 2080.72 429.073 2081.08 429.147 2081.48 429.147 2082.21 429.147 2082.92 428.864 2083.61 428.296 2084.3 427.729 2085.29 426.446 2086.59 424.446L2089.22 426.189C2087.33 428.999 2085.62 430.978 2084.1 432.126 2082.57 433.275 2080.75 433.849 2078.65 433.849 2077.49 433.849 2076.5 433.639 2075.69 433.22 2074.88 432.802 2074.18 432.133 2073.58 431.214 2072.99 430.296 2072.46 428.864 2072 426.918 2071.16 423.46 2070.65 420.812 2070.46 418.975L2070.06 418.975C2067.19 423.001 2065.06 425.892 2063.67 427.648 2062.28 429.404 2061.13 430.701 2060.23 431.539 2059.32 432.376 2058.44 432.964 2057.59 433.302 2056.74 433.639 2055.61 433.808 2054.21 433.808 2052.94 433.808 2051.9 433.646 2051.09 433.322L2052.71 425.986 2055.55 425.986C2055.71 427.121 2056.18 427.689 2056.96 427.689 2057.34 427.689 2057.74 427.587 2058.16 427.385 2058.58 427.182 2059.18 426.696 2059.96 425.926 2060.75 425.156 2061.83 423.946 2063.21 422.298 2064.58 420.65 2066.58 418.178 2069.2 414.882 2068.8 412.747 2068.38 410.694 2067.95 408.722 2067.52 406.749 2067.07 404.912 2066.61 403.21 2066.15 401.508 2065.77 400.393 2065.48 399.866 2065.18 399.34 2064.86 398.975 2064.52 398.772 2064.19 398.57 2063.76 398.468 2063.25 398.468 2062.68 398.468 2062.17 398.597 2061.71 398.853 2061.25 399.11 2060.75 399.556 2060.21 400.191 2059.67 400.826 2058.95 401.819 2058.06 403.169L2055.42 401.427C2057.13 398.86 2058.76 396.942 2060.33 395.672 2061.9 394.402 2063.75 393.767 2065.88 393.767Z" fill-rule="evenodd"/><text fill="#000000" fill-opacity="0" font-family="Arial,Arial_MSFontService,sans-serif" font-size="40.0815" x="2051.09" y="428.838">洧논</text><path d="M2110.97 411.472C2113.03 411.472 2114.79 411.706 2116.25 412.172 2117.71 412.639 2118.9 413.269 2119.81 414.064 2120.73 414.858 2121.39 415.811 2121.79 416.923 2122.2 418.035 2122.4 419.236 2122.4 420.527 2122.4 421.301 2122.35 422.021 2122.24 422.686 2122.13 423.352 2121.94 424.007 2121.67 424.652 2121.41 425.297 2121.05 425.948 2120.62 426.603 2120.18 427.258 2119.63 427.953 2118.98 428.688 2118.48 429.323 2117.84 430.058 2117.04 430.892 2116.25 431.726 2115.38 432.62 2114.44 433.573 2113.49 434.526 2112.51 435.519 2111.47 436.551 2110.44 437.584 2109.44 438.606 2108.46 439.619 2107.49 440.632 2106.6 441.615 2105.78 442.568 2104.97 443.521 2104.3 444.395 2103.79 445.189L2114.81 445.189C2115.74 445.189 2116.49 445.154 2117.04 445.085 2117.6 445.015 2118.06 444.861 2118.43 444.623 2118.8 444.385 2119.11 444.022 2119.37 443.536 2119.62 443.049 2119.92 442.379 2120.26 441.525L2123.03 441.525C2122.93 442.935 2122.84 444.355 2122.75 445.785 2122.66 447.214 2122.56 448.634 2122.46 450.044L2097.24 450.044 2097.24 448.495C2097.71 447.423 2098.27 446.366 2098.9 445.323 2099.54 444.281 2100.25 443.223 2101.05 442.151 2101.84 441.079 2102.75 439.972 2103.76 438.83 2104.77 437.688 2105.89 436.502 2107.12 435.271 2108.99 433.404 2110.51 431.81 2111.68 430.49 2112.85 429.17 2113.78 427.993 2114.45 426.96 2115.13 425.928 2115.59 424.975 2115.84 424.101 2116.08 423.227 2116.21 422.294 2116.21 421.301 2116.21 420.289 2116.06 419.355 2115.78 418.501 2115.49 417.648 2115.08 416.923 2114.54 416.327 2114 415.731 2113.32 415.265 2112.5 414.927 2111.68 414.59 2110.73 414.421 2109.66 414.421 2107.81 414.421 2106.26 414.922 2105.01 415.925 2103.76 416.928 2102.79 418.382 2102.09 420.289L2098.19 420.289 2098.19 414.48C2100.73 413.428 2103.07 412.664 2105.2 412.187 2107.34 411.71 2109.26 411.472 2110.97 411.472Z" fill-rule="evenodd"/><text fill="#000000" fill-opacity="0" font-family="Arial,Arial_MSFontService,sans-serif" font-size="38.5718" x="2097.24" y="445.223">2</text><path d="M1712.02 393.767C1712.85 393.767 1713.59 393.862 1714.23 394.051 1714.86 394.24 1715.42 394.53 1715.91 394.922 1716.39 395.314 1716.83 395.82 1717.2 396.442 1717.58 397.063 1717.95 397.908 1718.3 398.975 1718.65 400.042 1718.98 401.366 1719.29 402.947 1719.6 404.527 1719.88 406.168 1720.12 407.871L1720.53 407.871C1723.12 404.223 1725.09 401.555 1726.42 399.866 1727.76 398.178 1728.89 396.922 1729.81 396.097 1730.73 395.273 1731.61 394.693 1732.46 394.355 1733.31 394.017 1734.44 393.848 1735.85 393.848 1737.12 393.848 1738.16 394.01 1738.97 394.335L1737.35 401.67 1734.51 401.67C1734.35 400.535 1733.88 399.968 1733.09 399.968 1732.85 399.968 1732.59 400.008 1732.32 400.089 1732.05 400.17 1731.72 400.346 1731.33 400.616 1730.94 400.886 1730.36 401.413 1729.61 402.197 1728.85 402.98 1728 403.939 1727.05 405.074 1726.11 406.209 1725.13 407.398 1724.14 408.641L1721.38 412.085C1721.87 414.679 1722.32 416.922 1722.76 418.813 1723.19 420.704 1723.57 422.278 1723.91 423.534 1724.25 424.791 1724.55 425.784 1724.8 426.513 1725.06 427.243 1725.34 427.79 1725.63 428.155 1725.93 428.519 1726.24 428.776 1726.55 428.925 1726.86 429.073 1727.22 429.147 1727.62 429.147 1728.35 429.147 1729.06 428.864 1729.75 428.296 1730.44 427.729 1731.43 426.446 1732.73 424.446L1735.36 426.189C1733.47 428.999 1731.76 430.978 1730.23 432.126 1728.71 433.275 1726.89 433.849 1724.78 433.849 1723.62 433.849 1722.64 433.639 1721.83 433.22 1721.01 432.802 1720.31 432.133 1719.72 431.214 1719.12 430.296 1718.6 428.864 1718.14 426.918 1717.3 423.46 1716.79 420.812 1716.6 418.975L1716.19 418.975C1713.33 423.001 1711.2 425.892 1709.81 427.648 1708.42 429.404 1707.27 430.701 1706.36 431.539 1705.46 432.376 1704.58 432.964 1703.73 433.302 1702.88 433.639 1701.75 433.808 1700.35 433.808 1699.08 433.808 1698.04 433.646 1697.22 433.322L1698.85 425.986 1701.68 425.986C1701.85 427.121 1702.32 427.689 1703.1 427.689 1703.48 427.689 1703.88 427.587 1704.3 427.385 1704.72 427.182 1705.32 426.696 1706.1 425.926 1706.88 425.156 1707.96 423.946 1709.34 422.298 1710.72 420.65 1712.72 418.178 1715.34 414.882 1714.94 412.747 1714.52 410.694 1714.08 408.722 1713.65 406.749 1713.21 404.912 1712.75 403.21 1712.29 401.508 1711.91 400.393 1711.61 399.866 1711.31 399.34 1711 398.975 1710.66 398.772 1710.32 398.57 1709.9 398.468 1709.38 398.468 1708.82 398.468 1708.3 398.597 1707.84 398.853 1707.38 399.11 1706.88 399.556 1706.34 400.191 1705.8 400.826 1705.09 401.819 1704.2 403.169L1701.56 401.427C1703.26 398.86 1704.9 396.942 1706.47 395.672 1708.03 394.402 1709.88 393.767 1712.02 393.767Z" fill-rule="evenodd"/><text fill="#000000" fill-opacity="0" font-family="Arial,Arial_MSFontService,sans-serif" font-size="40.0815" x="1697.22" y="428.838">洧논</text><path d="M1757.04 411.472C1758.63 411.472 1760.12 411.641 1761.5 411.979 1762.88 412.316 1764.07 412.827 1765.09 413.512 1766.1 414.198 1766.89 415.051 1767.45 416.074 1768.02 417.097 1768.3 418.283 1768.3 419.633 1768.3 420.904 1768.12 422.026 1767.77 422.999 1767.41 423.972 1766.86 424.856 1766.11 425.65 1765.37 426.444 1764.46 427.164 1763.37 427.809 1762.29 428.455 1761.04 429.075 1759.64 429.671L1759.64 430.028C1760.97 430.267 1762.21 430.649 1763.36 431.175 1764.51 431.701 1765.52 432.366 1766.38 433.171 1767.25 433.975 1767.93 434.903 1768.42 435.956 1768.92 437.008 1769.17 438.17 1769.17 439.44 1769.17 441.029 1768.87 442.503 1768.27 443.864 1767.68 445.224 1766.78 446.4 1765.59 447.393 1764.4 448.386 1762.93 449.16 1761.18 449.716 1759.44 450.272 1757.39 450.55 1755.05 450.55 1753.2 450.55 1751.33 450.367 1749.42 449.999 1747.51 449.632 1745.71 449.15 1744 448.555L1744 442.121 1747.84 442.121C1748.16 443.114 1748.54 443.963 1748.97 444.668 1749.41 445.373 1749.92 445.949 1750.51 446.395 1751.09 446.842 1751.77 447.165 1752.53 447.363 1753.3 447.562 1754.16 447.661 1755.14 447.661 1757.7 447.661 1759.64 447.051 1760.96 445.829 1762.28 444.608 1762.94 442.757 1762.94 440.274 1762.94 437.633 1762.07 435.633 1760.34 434.273 1758.6 432.913 1756.02 432.232 1752.61 432.232L1749.98 432.232 1749.98 429.373C1752.07 429.274 1753.87 428.981 1755.39 428.494 1756.91 428.008 1758.18 427.377 1759.19 426.603 1760.2 425.829 1760.96 424.925 1761.45 423.893 1761.95 422.86 1762.2 421.758 1762.2 420.586 1762.2 418.68 1761.63 417.176 1760.5 416.074 1759.37 414.972 1757.73 414.421 1755.58 414.421 1753.78 414.421 1752.26 414.917 1751.04 415.91 1749.82 416.903 1748.88 418.382 1748.23 420.348L1744.44 420.348 1744.44 414.48C1746.79 413.488 1749 412.738 1751.07 412.232 1753.15 411.725 1755.14 411.472 1757.04 411.472Z" fill-rule="evenodd"/><text fill="#000000" fill-opacity="0" font-family="Arial,Arial_MSFontService,sans-serif" font-size="39.0781" x="1744" y="445.666">3</text><path d="M2893.21 392.983C2894.32 392.983 2895.26 393.132 2896.05 393.429 2896.59 393.645 2897.13 394.003 2897.67 394.503 2898.21 395.003 2898.69 395.698 2899.11 396.59 2899.53 397.482 2899.89 398.481 2900.2 399.589 2900.51 400.697 2900.86 402.291 2901.23 404.371 2901.88 407.857 2902.51 411.524 2903.12 415.374 2903.73 419.224 2904.25 422.798 2904.68 426.094 2907.3 422.311 2909.52 418.61 2911.35 414.989 2913.17 411.369 2914.48 408.221 2915.28 405.546 2916.07 402.872 2916.47 400.697 2916.47 399.022 2916.47 397.752 2916.2 396.887 2915.66 396.428 2915.12 395.969 2914.2 395.698 2912.91 395.617L2913.31 393.631 2923.97 393.631 2925.06 395.658C2923.01 401.278 2920.23 407.289 2916.72 413.692 2913.26 419.961 2909.3 426.202 2904.84 432.416 2900.57 438.333 2897.02 442.615 2894.18 445.263 2892.21 447.073 2890.31 448.37 2888.47 449.154 2887.01 449.748 2885.46 450.046 2883.81 450.046 2883.24 450.046 2882.59 449.998 2881.84 449.904 2881.1 449.809 2880.53 449.681 2880.12 449.519L2881.86 441.656 2885.06 441.656C2885.06 443.385 2885.66 444.25 2886.85 444.25 2888.41 444.25 2890.24 443.271 2892.32 441.312 2894.4 439.353 2896.84 436.401 2899.65 432.457 2898.87 427.728 2897.8 422.028 2896.45 415.354 2895.02 408.221 2894.07 403.804 2893.62 402.102 2893.05 400.048 2892.45 398.738 2891.83 398.171 2891.45 397.819 2890.98 397.644 2890.41 397.644 2889.55 397.644 2888.74 397.995 2887.98 398.697 2887.23 399.4 2886.29 400.616 2885.19 402.345L2882.55 400.602C2884.42 397.819 2886.16 395.854 2887.78 394.705 2889.4 393.557 2891.21 392.983 2893.21 392.983Z" fill-rule="evenodd"/><text fill="#000000" fill-opacity="0" font-family="Arial,Arial_MSFontService,sans-serif" font-size="57.0625" x="2880.12" y="442.913">洧녽</text><path d="M2941.41 413.537C2940.02 413.537 2938.86 413.899 2937.92 414.624 2936.99 415.349 2936.25 416.411 2935.7 417.811 2935.16 419.211 2934.77 420.918 2934.54 422.934 2934.31 424.949 2934.2 427.238 2934.2 429.799 2934.2 432.758 2934.34 435.315 2934.63 437.469 2934.92 439.624 2935.37 441.396 2935.97 442.786 2936.58 444.176 2937.34 445.198 2938.25 445.854 2939.16 446.509 2940.26 446.837 2941.53 446.837 2942.72 446.837 2943.76 446.529 2944.65 445.913 2945.55 445.298 2946.29 444.34 2946.87 443.039 2947.46 441.738 2947.9 440.09 2948.2 438.095 2948.5 436.099 2948.65 433.741 2948.65 431.021 2948.65 427.963 2948.48 425.332 2948.15 423.128 2947.83 420.923 2947.36 419.112 2946.77 417.692 2946.17 416.272 2945.42 415.225 2944.52 414.549 2943.62 413.874 2942.58 413.537 2941.41 413.537ZM2941.53 410.648C2943.89 410.648 2945.91 411.089 2947.59 411.973 2949.27 412.857 2950.64 414.118 2951.7 415.756 2952.76 417.394 2953.54 419.394 2954.04 421.757 2954.53 424.12 2954.78 426.791 2954.78 429.77 2954.78 436.382 2953.61 441.381 2951.27 444.766 2948.92 448.152 2945.53 449.845 2941.08 449.845 2936.67 449.845 2933.4 448.246 2931.25 445.049 2929.11 441.852 2928.03 437.007 2928.03 430.514 2928.03 427.119 2928.37 424.18 2929.03 421.698 2929.7 419.216 2930.63 417.156 2931.83 415.517 2933.03 413.879 2934.46 412.658 2936.11 411.854 2937.75 411.05 2939.56 410.648 2941.53 410.648Z" fill-rule="evenodd"/><text fill="#000000" fill-opacity="0" font-family="Arial,Arial_MSFontService,sans-serif" font-size="39.1973" x="2928.03" y="444.945">0</text><path d="M2540.29 392.983C2541.39 392.983 2542.34 393.132 2543.12 393.429 2543.66 393.645 2544.2 394.003 2544.74 394.503 2545.28 395.003 2545.76 395.698 2546.18 396.59 2546.6 397.482 2546.97 398.481 2547.28 399.589 2547.59 400.697 2547.93 402.291 2548.31 404.371 2548.96 407.857 2549.59 411.524 2550.2 415.374 2550.8 419.224 2551.32 422.798 2551.76 426.094 2554.38 422.311 2556.6 418.61 2558.42 414.989 2560.25 411.369 2561.56 408.221 2562.35 405.546 2563.15 402.872 2563.55 400.697 2563.55 399.022 2563.55 397.752 2563.28 396.887 2562.74 396.428 2562.2 395.969 2561.28 395.698 2559.98 395.617L2560.39 393.631 2571.05 393.631 2572.14 395.658C2570.09 401.278 2567.3 407.289 2563.79 413.692 2560.33 419.961 2556.38 426.202 2551.92 432.416 2547.65 438.333 2544.1 442.615 2541.26 445.263 2539.29 447.073 2537.38 448.37 2535.54 449.154 2534.09 449.748 2532.53 450.046 2530.88 450.046 2530.32 450.046 2529.66 449.998 2528.92 449.904 2528.18 449.809 2527.6 449.681 2527.2 449.519L2528.94 441.656 2532.14 441.656C2532.14 443.385 2532.73 444.25 2533.92 444.25 2535.49 444.25 2537.31 443.271 2539.39 441.312 2541.48 439.353 2543.92 436.401 2546.73 432.457 2545.95 427.728 2544.88 422.028 2543.53 415.354 2542.1 408.221 2541.15 403.804 2540.69 402.102 2540.12 400.048 2539.53 398.738 2538.91 398.171 2538.53 397.819 2538.06 397.644 2537.49 397.644 2536.63 397.644 2535.81 397.995 2535.06 398.697 2534.3 399.4 2533.37 400.616 2532.26 402.345L2529.63 400.602C2531.49 397.819 2533.23 395.854 2534.86 394.705 2536.48 393.557 2538.29 392.983 2540.29 392.983Z" fill-rule="evenodd"/><text fill="#000000" fill-opacity="0" font-family="Arial,Arial_MSFontService,sans-serif" font-size="57.0625" x="2527.2" y="442.913">洧녽</text><path d="M2589.02 410.856 2590.84 410.856C2590.8 411.948 2590.77 412.926 2590.75 413.79 2590.73 414.654 2590.72 415.493 2590.71 416.307 2590.7 417.121 2590.69 417.925 2590.69 418.719L2590.69 441.356C2590.69 441.972 2590.71 442.503 2590.75 442.95 2590.79 443.396 2590.86 443.774 2590.94 444.081 2591.03 444.389 2591.15 444.652 2591.3 444.871 2591.45 445.089 2591.62 445.278 2591.82 445.437 2592.06 445.675 2592.38 445.859 2592.78 445.988 2593.17 446.117 2593.68 446.226 2594.3 446.315 2594.91 446.405 2595.65 446.474 2596.51 446.524 2597.38 446.573 2598.42 446.608 2599.63 446.628L2599.63 449.219 2576.01 449.219 2576.01 446.628C2577.18 446.588 2578.17 446.544 2578.99 446.494 2579.8 446.444 2580.49 446.375 2581.07 446.285 2581.65 446.196 2582.11 446.097 2582.46 445.988 2582.8 445.878 2583.11 445.744 2583.36 445.586 2583.64 445.407 2583.88 445.213 2584.08 445.005 2584.28 444.796 2584.44 444.533 2584.56 444.215 2584.67 443.898 2584.77 443.51 2584.84 443.054 2584.91 442.597 2584.94 442.031 2584.94 441.356L2584.94 420C2584.94 419.226 2584.79 418.68 2584.5 418.362 2584.2 418.044 2583.77 417.885 2583.22 417.885 2582.6 417.885 2581.69 418.203 2580.48 418.838 2579.26 419.474 2577.7 420.417 2575.77 421.668 2575.51 421.211 2575.27 420.755 2575.05 420.298 2574.84 419.841 2574.61 419.375 2574.37 418.898 2576.83 417.548 2579.27 416.202 2581.68 414.862 2584.09 413.522 2586.54 412.186 2589.02 410.856Z" fill-rule="evenodd"/><text fill="#000000" fill-opacity="0" font-family="Arial,Arial_MSFontService,sans-serif" font-size="38.3633" x="2574.37" y="444.424">1</text><path d="M2185.48 392.983C2186.59 392.983 2187.54 393.132 2188.32 393.429 2188.86 393.645 2189.4 394.003 2189.94 394.503 2190.48 395.003 2190.96 395.698 2191.38 396.59 2191.8 397.482 2192.16 398.481 2192.47 399.589 2192.79 400.697 2193.13 402.291 2193.51 404.371 2194.16 407.857 2194.78 411.524 2195.39 415.374 2196 419.224 2196.52 422.798 2196.95 426.094 2199.57 422.311 2201.8 418.61 2203.62 414.989 2205.44 411.369 2206.75 408.221 2207.55 405.546 2208.35 402.872 2208.75 400.697 2208.75 399.022 2208.75 397.752 2208.48 396.887 2207.94 396.428 2207.4 395.969 2206.48 395.698 2205.18 395.617L2205.58 393.631 2216.24 393.631 2217.34 395.658C2215.28 401.278 2212.5 407.289 2208.99 413.692 2205.53 419.961 2201.57 426.202 2197.11 432.416 2192.85 438.333 2189.29 442.615 2186.46 445.263 2184.48 447.073 2182.58 448.37 2180.74 449.154 2179.28 449.748 2177.73 450.046 2176.08 450.046 2175.51 450.046 2174.86 449.998 2174.12 449.904 2173.37 449.809 2172.8 449.681 2172.39 449.519L2174.14 441.656 2177.34 441.656C2177.34 443.385 2177.93 444.25 2179.12 444.25 2180.69 444.25 2182.51 443.271 2184.59 441.312 2186.67 439.353 2189.12 436.401 2191.93 432.457 2191.14 427.728 2190.08 422.028 2188.73 415.354 2187.29 408.221 2186.35 403.804 2185.89 402.102 2185.32 400.048 2184.73 398.738 2184.11 398.171 2183.73 397.819 2183.25 397.644 2182.69 397.644 2181.82 397.644 2181.01 397.995 2180.26 398.697 2179.5 399.4 2178.57 400.616 2177.46 402.345L2174.82 400.602C2176.69 397.819 2178.43 395.854 2180.05 394.705 2181.67 393.557 2183.48 392.983 2185.48 392.983Z" fill-rule="evenodd"/><text fill="#000000" fill-opacity="0" font-family="Arial,Arial_MSFontService,sans-serif" font-size="57.0625" x="2172.39" y="442.913">洧녽</text><path d="M2233.8 410.648C2235.86 410.648 2237.63 410.881 2239.09 411.348 2240.55 411.814 2241.73 412.445 2242.65 413.239 2243.56 414.033 2244.22 414.986 2244.63 416.098 2245.03 417.21 2245.24 418.412 2245.24 419.702 2245.24 420.477 2245.18 421.196 2245.07 421.862 2244.96 422.527 2244.78 423.182 2244.51 423.827 2244.24 424.473 2243.89 425.123 2243.45 425.778 2243.01 426.434 2242.47 427.129 2241.81 427.863 2241.32 428.499 2240.67 429.233 2239.88 430.067 2239.08 430.901 2238.21 431.795 2237.27 432.748 2236.33 433.701 2235.34 434.694 2234.31 435.727 2233.27 436.759 2232.27 437.782 2231.3 438.795 2230.32 439.807 2229.43 440.79 2228.62 441.743 2227.8 442.696 2227.14 443.57 2226.62 444.364L2237.64 444.364C2238.58 444.364 2239.32 444.33 2239.88 444.26 2240.43 444.191 2240.89 444.037 2241.26 443.798 2241.63 443.56 2241.94 443.198 2242.2 442.711 2242.46 442.225 2242.75 441.555 2243.09 440.701L2245.86 440.701C2245.76 442.111 2245.67 443.53 2245.58 444.96 2245.49 446.39 2245.4 447.81 2245.3 449.219L2220.07 449.219 2220.07 447.671C2220.55 446.598 2221.1 445.541 2221.74 444.498 2222.37 443.456 2223.09 442.399 2223.88 441.326 2224.68 440.254 2225.58 439.147 2226.59 438.005 2227.6 436.863 2228.73 435.677 2229.96 434.446 2231.82 432.579 2233.34 430.986 2234.51 429.665 2235.69 428.345 2236.61 427.168 2237.28 426.136 2237.96 425.103 2238.42 424.15 2238.67 423.276 2238.92 422.403 2239.04 421.469 2239.04 420.477 2239.04 419.464 2238.9 418.531 2238.61 417.677 2238.32 416.823 2237.91 416.098 2237.37 415.503 2236.84 414.907 2236.16 414.44 2235.33 414.103 2234.51 413.765 2233.56 413.596 2232.49 413.596 2230.64 413.596 2229.09 414.098 2227.84 415.1 2226.59 416.103 2225.62 417.558 2224.92 419.464L2221.02 419.464 2221.02 413.656C2223.56 412.603 2225.9 411.839 2228.04 411.362 2230.17 410.886 2232.09 410.648 2233.8 410.648Z" fill-rule="evenodd"/><text fill="#000000" fill-opacity="0" font-family="Arial,Arial_MSFontService,sans-serif" font-size="38.5718" x="2220.07" y="444.398">2</text><path d="M1831.9 392.983C1833 392.983 1833.95 393.132 1834.73 393.429 1835.27 393.645 1835.81 394.003 1836.35 394.503 1836.89 395.003 1837.37 395.698 1837.79 396.59 1838.21 397.482 1838.58 398.481 1838.89 399.589 1839.2 400.697 1839.54 402.291 1839.92 404.371 1840.57 407.857 1841.2 411.524 1841.8 415.374 1842.41 419.224 1842.93 422.798 1843.36 426.094 1845.99 422.311 1848.21 418.61 1850.03 414.989 1851.85 411.369 1853.17 408.221 1853.96 405.546 1854.76 402.872 1855.16 400.697 1855.16 399.022 1855.16 397.752 1854.89 396.887 1854.35 396.428 1853.81 395.969 1852.89 395.698 1851.59 395.617L1852 393.631 1862.66 393.631 1863.75 395.658C1861.7 401.278 1858.91 407.289 1855.4 413.692 1851.94 419.961 1847.98 426.202 1843.53 432.416 1839.26 438.333 1835.7 442.615 1832.87 445.263 1830.9 447.073 1828.99 448.37 1827.15 449.154 1825.69 449.748 1824.14 450.046 1822.49 450.046 1821.93 450.046 1821.27 449.998 1820.53 449.904 1819.78 449.809 1819.21 449.681 1818.8 449.519L1820.55 441.656 1823.75 441.656C1823.75 443.385 1824.34 444.25 1825.53 444.25 1827.1 444.25 1828.92 443.271 1831 441.312 1833.08 439.353 1835.53 436.401 1838.34 432.457 1837.56 427.728 1836.49 422.028 1835.14 415.354 1833.71 408.221 1832.76 403.804 1832.3 402.102 1831.73 400.048 1831.14 398.738 1830.52 398.171 1830.14 397.819 1829.67 397.644 1829.1 397.644 1828.23 397.644 1827.42 397.995 1826.67 398.697 1825.91 399.4 1824.98 400.616 1823.87 402.345L1821.24 400.602C1823.1 397.819 1824.84 395.854 1826.46 394.705 1828.09 393.557 1829.9 392.983 1831.9 392.983Z" fill-rule="evenodd"/><text fill="#000000" fill-opacity="0" font-family="Arial,Arial_MSFontService,sans-serif" font-size="57.0625" x="1818.8" y="442.913">洧녽</text><path d="M1880.15 410.648C1881.74 410.648 1883.22 410.816 1884.6 411.154 1885.98 411.491 1887.18 412.003 1888.19 412.688 1889.21 413.373 1890 414.227 1890.56 415.249 1891.13 416.272 1891.41 417.458 1891.41 418.809 1891.41 420.08 1891.23 421.201 1890.87 422.174 1890.52 423.147 1889.97 424.031 1889.22 424.825 1888.48 425.62 1887.56 426.339 1886.48 426.985 1885.4 427.63 1884.15 428.251 1882.74 428.846L1882.74 429.204C1884.07 429.442 1885.31 429.824 1886.47 430.35 1887.62 430.877 1888.63 431.542 1889.49 432.346 1890.35 433.15 1891.03 434.079 1891.53 435.131 1892.03 436.183 1892.27 437.345 1892.27 438.616 1892.27 440.204 1891.98 441.679 1891.38 443.039 1890.78 444.399 1889.89 445.576 1888.7 446.568 1887.51 447.561 1886.04 448.336 1884.29 448.892 1882.54 449.448 1880.5 449.726 1878.16 449.726 1876.31 449.726 1874.43 449.542 1872.53 449.175 1870.62 448.807 1868.81 448.326 1867.11 447.73L1867.11 441.296 1870.95 441.296C1871.27 442.289 1871.64 443.138 1872.08 443.843 1872.52 444.548 1873.03 445.124 1873.61 445.571 1874.2 446.017 1874.87 446.34 1875.64 446.539 1876.4 446.737 1877.27 446.837 1878.25 446.837 1880.81 446.837 1882.75 446.226 1884.07 445.005 1885.39 443.784 1886.05 441.932 1886.05 439.45 1886.05 436.809 1885.18 434.808 1883.44 433.448 1881.71 432.088 1879.13 431.408 1875.71 431.408L1873.09 431.408 1873.09 428.548C1875.18 428.449 1876.98 428.156 1878.5 427.67 1880.02 427.183 1881.28 426.553 1882.3 425.778 1883.31 425.004 1884.06 424.101 1884.56 423.068 1885.06 422.035 1885.3 420.933 1885.3 419.762 1885.3 417.856 1884.74 416.351 1883.61 415.249 1882.47 414.147 1880.84 413.596 1878.69 413.596 1876.89 413.596 1875.37 414.093 1874.15 415.086 1872.93 416.078 1871.99 417.558 1871.34 419.524L1867.55 419.524 1867.55 413.656C1869.9 412.663 1872.1 411.913 1874.18 411.407 1876.25 410.901 1878.25 410.648 1880.15 410.648Z" fill-rule="evenodd"/><text fill="#000000" fill-opacity="0" font-family="Arial,Arial_MSFontService,sans-serif" font-size="39.0781" x="1867.11" y="444.841">3</text><path d="M3020.18 585.5C3023.78 585.5 3027.09 585.905 3030.11 586.715L3028.13 595.875 3023.87 595.875C3023.82 593.821 3023.65 592.335 3023.37 591.417 3023.08 590.498 3022.62 589.809 3021.99 589.35 3021.35 588.89 3020.45 588.661 3019.29 588.661 3016.56 588.661 3014.11 589.748 3011.94 591.923 3009.76 594.098 3007.99 597.178 3006.61 601.163 3005.23 605.149 3004.54 608.978 3004.54 612.653 3004.54 615.409 3005.08 617.455 3006.16 618.793 3007.24 620.13 3008.86 620.799 3011.03 620.799 3013.48 620.799 3015.61 620.333 3017.41 619.401 3019.2 618.469 3021.1 617.003 3023.1 615.003L3025.57 617.476C3023.03 620.286 3020.47 622.339 3017.89 623.636 3015.31 624.933 3012.54 625.581 3009.57 625.581 3005.65 625.581 3002.68 624.419 3000.65 622.096 2998.62 619.772 2997.61 616.395 2997.61 611.964 2997.61 609.073 2998.15 605.898 2999.23 602.44 3000.31 598.982 3001.89 595.942 3003.97 593.321 3006.05 590.701 3008.49 588.742 3011.27 587.445 3014.05 586.148 3017.02 585.5 3020.18 585.5Z" fill-rule="evenodd"/><text fill="#000000" fill-opacity="0" font-family="Arial,Arial_MSFontService,sans-serif" font-size="40.0815" x="2997.61" y="620.571">洧녫</text><path d="M3046.81 606.053C3045.42 606.053 3044.26 606.416 3043.33 607.14 3042.4 607.865 3041.66 608.928 3041.11 610.327 3040.56 611.727 3040.18 613.435 3039.95 615.451 3039.72 617.466 3039.61 619.754 3039.61 622.316 3039.61 625.275 3039.75 627.831 3040.04 629.986 3040.33 632.14 3040.77 633.912 3041.38 635.302 3041.98 636.692 3042.74 637.715 3043.66 638.37 3044.57 639.025 3045.66 639.353 3046.93 639.353 3048.12 639.353 3049.17 639.045 3050.06 638.43 3050.95 637.814 3051.69 636.856 3052.28 635.555 3052.86 634.255 3053.31 632.607 3053.6 630.611 3053.9 628.616 3054.05 626.258 3054.05 623.537 3054.05 620.479 3053.89 617.848 3053.56 615.644 3053.23 613.44 3052.77 611.628 3052.18 610.208 3051.58 608.789 3050.83 607.741 3049.93 607.066 3049.02 606.391 3047.99 606.053 3046.81 606.053ZM3046.93 603.164C3049.3 603.164 3051.32 603.606 3052.99 604.49 3054.67 605.373 3056.04 606.634 3057.1 608.272 3058.17 609.91 3058.95 611.911 3059.44 614.274 3059.94 616.637 3060.19 619.308 3060.19 622.286 3060.19 628.898 3059.02 633.897 3056.67 637.283 3054.33 640.669 3050.93 642.361 3046.49 642.361 3042.08 642.361 3038.8 640.763 3036.66 637.566 3034.51 634.369 3033.44 629.524 3033.44 623.031 3033.44 619.635 3033.77 616.697 3034.44 614.214 3035.1 611.732 3036.04 609.672 3037.24 608.034 3038.44 606.396 3039.86 605.175 3041.51 604.37 3043.16 603.566 3044.97 603.164 3046.93 603.164Z" fill-rule="evenodd"/><text fill="#000000" fill-opacity="0" font-family="Arial,Arial_MSFontService,sans-serif" font-size="39.1973" x="3033.44" y="637.462">0</text><path d="M2666.14 585.5C2669.73 585.5 2673.04 585.905 2676.07 586.715L2674.08 595.875 2669.83 595.875C2669.77 593.821 2669.6 592.335 2669.32 591.417 2669.04 590.498 2668.58 589.809 2667.94 589.35 2667.31 588.89 2666.41 588.661 2665.25 588.661 2662.52 588.661 2660.07 589.748 2657.89 591.923 2655.72 594.098 2653.94 597.178 2652.56 601.163 2651.18 605.149 2650.49 608.978 2650.49 612.653 2650.49 615.409 2651.03 617.455 2652.11 618.793 2653.2 620.13 2654.82 620.799 2656.98 620.799 2659.44 620.799 2661.56 620.333 2663.36 619.401 2665.16 618.469 2667.06 617.003 2669.06 615.003L2671.53 617.476C2668.99 620.286 2666.43 622.339 2663.85 623.636 2661.27 624.933 2658.49 625.581 2655.52 625.581 2651.6 625.581 2648.63 624.419 2646.6 622.096 2644.58 619.772 2643.56 616.395 2643.56 611.964 2643.56 609.073 2644.1 605.898 2645.18 602.44 2646.27 598.982 2647.85 595.942 2649.93 593.321 2652.01 590.701 2654.44 588.742 2657.22 587.445 2660 586.148 2662.98 585.5 2666.14 585.5Z" fill-rule="evenodd"/><text fill="#000000" fill-opacity="0" font-family="Arial,Arial_MSFontService,sans-serif" font-size="40.0815" x="2643.56" y="620.571">洧녫</text><path d="M2693.31 603.373 2695.12 603.373C2695.08 604.465 2695.05 605.443 2695.03 606.306 2695.01 607.17 2695 608.009 2694.99 608.823 2694.98 609.637 2694.98 610.442 2694.98 611.236L2694.98 633.873C2694.98 634.488 2694.99 635.019 2695.03 635.466 2695.07 635.913 2695.14 636.29 2695.23 636.598 2695.32 636.906 2695.44 637.169 2695.59 637.387 2695.73 637.606 2695.91 637.794 2696.11 637.953 2696.35 638.191 2696.66 638.375 2697.06 638.504 2697.46 638.633 2697.96 638.742 2698.58 638.832 2699.19 638.921 2699.93 638.991 2700.8 639.04 2701.66 639.09 2702.7 639.125 2703.91 639.145L2703.91 641.736 2680.29 641.736 2680.29 639.145C2681.46 639.105 2682.46 639.06 2683.27 639.011 2684.08 638.961 2684.78 638.891 2685.35 638.802 2685.93 638.713 2686.39 638.613 2686.74 638.504 2687.09 638.395 2687.39 638.261 2687.65 638.102 2687.93 637.923 2688.16 637.73 2688.36 637.521 2688.56 637.313 2688.72 637.05 2688.84 636.732 2688.96 636.414 2689.05 636.027 2689.12 635.57 2689.19 635.114 2689.23 634.548 2689.23 633.873L2689.23 612.517C2689.23 611.742 2689.08 611.196 2688.78 610.878 2688.48 610.561 2688.05 610.402 2687.5 610.402 2686.88 610.402 2685.97 610.72 2684.76 611.355 2683.55 611.99 2681.98 612.934 2680.05 614.185 2679.79 613.728 2679.56 613.271 2679.34 612.815 2679.12 612.358 2678.89 611.891 2678.65 611.415 2681.11 610.064 2683.55 608.719 2685.97 607.379 2688.38 606.038 2690.82 604.703 2693.31 603.373Z" fill-rule="evenodd"/><text fill="#000000" fill-opacity="0" font-family="Arial,Arial_MSFontService,sans-serif" font-size="38.3633" x="2678.65" y="636.94">1</text><path d="M2312.46 585.5C2316.05 585.5 2319.36 585.905 2322.39 586.715L2320.4 595.875 2316.15 595.875C2316.09 593.821 2315.92 592.335 2315.64 591.417 2315.36 590.498 2314.9 589.809 2314.26 589.35 2313.63 588.89 2312.73 588.661 2311.57 588.661 2308.84 588.661 2306.39 589.748 2304.21 591.923 2302.04 594.098 2300.26 597.178 2298.88 601.163 2297.5 605.149 2296.81 608.978 2296.81 612.653 2296.81 615.409 2297.35 617.455 2298.44 618.793 2299.52 620.13 2301.14 620.799 2303.3 620.799 2305.76 620.799 2307.88 620.333 2309.68 619.401 2311.48 618.469 2313.38 617.003 2315.38 615.003L2317.85 617.476C2315.31 620.286 2312.75 622.339 2310.17 623.636 2307.59 624.933 2304.81 625.581 2301.84 625.581 2297.92 625.581 2294.95 624.419 2292.92 622.096 2290.9 619.772 2289.88 616.395 2289.88 611.964 2289.88 609.073 2290.42 605.898 2291.5 602.44 2292.59 598.982 2294.17 595.942 2296.25 593.321 2298.33 590.701 2300.76 588.742 2303.54 587.445 2306.32 586.148 2309.3 585.5 2312.46 585.5Z" fill-rule="evenodd"/><text fill="#000000" fill-opacity="0" font-family="Arial,Arial_MSFontService,sans-serif" font-size="40.0815" x="2289.88" y="620.571">洧녫</text><path d="M2339.21 603.164C2341.27 603.164 2343.03 603.397 2344.49 603.864 2345.95 604.331 2347.14 604.961 2348.05 605.755 2348.97 606.55 2349.63 607.503 2350.03 608.615 2350.44 609.727 2350.64 610.928 2350.64 612.219 2350.64 612.993 2350.59 613.713 2350.48 614.378 2350.37 615.043 2350.18 615.699 2349.91 616.344 2349.65 616.989 2349.29 617.64 2348.86 618.295 2348.42 618.95 2347.87 619.645 2347.22 620.38 2346.72 621.015 2346.08 621.75 2345.28 622.584 2344.49 623.418 2343.62 624.312 2342.68 625.265 2341.73 626.218 2340.74 627.211 2339.71 628.243 2338.68 629.276 2337.68 630.298 2336.7 631.311 2335.73 632.324 2334.84 633.307 2334.02 634.26 2333.21 635.213 2332.54 636.087 2332.03 636.881L2343.05 636.881C2343.98 636.881 2344.73 636.846 2345.28 636.777 2345.84 636.707 2346.3 636.553 2346.67 636.315 2347.03 636.077 2347.35 635.714 2347.61 635.228 2347.86 634.741 2348.16 634.071 2348.5 633.217L2351.27 633.217C2351.17 634.627 2351.08 636.047 2350.99 637.477 2350.9 638.906 2350.8 640.326 2350.7 641.736L2325.48 641.736 2325.48 640.187C2325.95 639.115 2326.51 638.057 2327.14 637.015 2327.78 635.972 2328.49 634.915 2329.29 633.843 2330.08 632.771 2330.99 631.664 2332 630.522 2333.01 629.38 2334.13 628.194 2335.36 626.962 2337.23 625.096 2338.75 623.502 2339.92 622.182 2341.09 620.861 2342.02 619.685 2342.69 618.652 2343.37 617.62 2343.83 616.667 2344.08 615.793 2344.32 614.919 2344.45 613.986 2344.45 612.993 2344.45 611.981 2344.3 611.047 2344.02 610.193 2343.73 609.34 2343.32 608.615 2342.78 608.019 2342.24 607.423 2341.56 606.957 2340.74 606.619 2339.92 606.282 2338.97 606.113 2337.9 606.113 2336.05 606.113 2334.5 606.614 2333.25 607.617 2332 608.62 2331.03 610.074 2330.33 611.981L2326.43 611.981 2326.43 606.172C2328.97 605.12 2331.31 604.356 2333.44 603.879 2335.58 603.402 2337.5 603.164 2339.21 603.164Z" fill-rule="evenodd"/><text fill="#000000" fill-opacity="0" font-family="Arial,Arial_MSFontService,sans-serif" font-size="38.5718" x="2325.48" y="636.914">2</text><path d="M1958.59 585.5C1962.19 585.5 1965.5 585.905 1968.52 586.715L1966.54 595.875 1962.28 595.875C1962.23 593.821 1962.06 592.335 1961.78 591.417 1961.49 590.498 1961.03 589.809 1960.4 589.35 1959.76 588.89 1958.86 588.661 1957.7 588.661 1954.97 588.661 1952.52 589.748 1950.35 591.923 1948.17 594.098 1946.4 597.178 1945.02 601.163 1943.64 605.149 1942.95 608.978 1942.95 612.653 1942.95 615.409 1943.49 617.455 1944.57 618.793 1945.65 620.13 1947.27 620.799 1949.44 620.799 1951.89 620.799 1954.02 620.333 1955.82 619.401 1957.61 618.469 1959.51 617.003 1961.51 615.003L1963.98 617.476C1961.44 620.286 1958.88 622.339 1956.3 623.636 1953.72 624.933 1950.95 625.581 1947.98 625.581 1944.06 625.581 1941.09 624.419 1939.06 622.096 1937.03 619.772 1936.02 616.395 1936.02 611.964 1936.02 609.073 1936.56 605.898 1937.64 602.44 1938.72 598.982 1940.3 595.942 1942.38 593.321 1944.46 590.701 1946.9 588.742 1949.68 587.445 1952.46 586.148 1955.43 585.5 1958.59 585.5Z" fill-rule="evenodd"/><text fill="#000000" fill-opacity="0" font-family="Arial,Arial_MSFontService,sans-serif" font-size="40.0815" x="1936.02" y="620.571">洧녫</text><path d="M1985.28 603.164C1986.87 603.164 1988.36 603.333 1989.74 603.67 1991.12 604.008 1992.31 604.519 1993.33 605.204 1994.34 605.889 1995.13 606.743 1995.69 607.766 1996.26 608.789 1996.54 609.975 1996.54 611.325 1996.54 612.596 1996.36 613.718 1996.01 614.691 1995.65 615.664 1995.1 616.548 1994.35 617.342 1993.61 618.136 1992.69 618.856 1991.61 619.501 1990.53 620.147 1989.28 620.767 1987.87 621.363L1987.87 621.72C1989.2 621.959 1990.45 622.341 1991.6 622.867 1992.75 623.393 1993.76 624.058 1994.62 624.863 1995.48 625.667 1996.16 626.595 1996.66 627.648 1997.16 628.7 1997.41 629.862 1997.41 631.132 1997.41 632.721 1997.11 634.195 1996.51 635.555 1995.92 636.916 1995.02 638.092 1993.83 639.085 1992.64 640.078 1991.17 640.852 1989.42 641.408 1987.68 641.964 1985.63 642.242 1983.29 642.242 1981.44 642.242 1979.56 642.059 1977.66 641.691 1975.75 641.324 1973.94 640.842 1972.24 640.247L1972.24 633.813 1976.08 633.813C1976.4 634.806 1976.77 635.655 1977.21 636.36 1977.65 637.065 1978.16 637.64 1978.75 638.087 1979.33 638.534 1980.01 638.857 1980.77 639.055 1981.54 639.254 1982.4 639.353 1983.38 639.353 1985.94 639.353 1987.88 638.742 1989.2 637.521 1990.52 636.3 1991.18 634.448 1991.18 631.966 1991.18 629.325 1990.31 627.325 1988.57 625.965 1986.84 624.604 1984.26 623.924 1980.85 623.924L1978.22 623.924 1978.22 621.065C1980.31 620.966 1982.11 620.673 1983.63 620.186 1985.15 619.7 1986.42 619.069 1987.43 618.295 1988.44 617.521 1989.19 616.617 1989.69 615.585 1990.19 614.552 1990.44 613.45 1990.44 612.278 1990.44 610.372 1989.87 608.868 1988.74 607.766 1987.61 606.664 1985.97 606.113 1983.82 606.113 1982.02 606.113 1980.5 606.609 1979.28 607.602 1978.06 608.595 1977.12 610.074 1976.47 612.04L1972.68 612.04 1972.68 606.172C1975.03 605.18 1977.24 604.43 1979.31 603.924 1981.39 603.417 1983.38 603.164 1985.28 603.164Z" fill-rule="evenodd"/><text fill="#000000" fill-opacity="0" font-family="Arial,Arial_MSFontService,sans-serif" font-size="39.0781" x="1972.24" y="637.357">3</text><path d="M1594.03 589.778C1597.62 589.778 1600.93 590.184 1603.95 590.994L1601.97 600.153 1597.71 600.153C1597.66 598.1 1597.49 596.614 1597.21 595.695 1596.92 594.777 1596.46 594.088 1595.83 593.628 1595.19 593.169 1594.3 592.939 1593.13 592.939 1590.4 592.939 1587.95 594.027 1585.78 596.202 1583.6 598.377 1581.83 601.457 1580.45 605.442 1579.07 609.427 1578.38 613.257 1578.38 616.932 1578.38 619.688 1578.92 621.734 1580 623.072 1581.08 624.409 1582.7 625.078 1584.87 625.078 1587.32 625.078 1589.45 624.612 1591.25 623.679 1593.05 622.747 1594.94 621.282 1596.94 619.282L1599.42 621.754C1596.88 624.564 1594.32 626.618 1591.74 627.915 1589.16 629.211 1586.38 629.86 1583.41 629.86 1579.49 629.86 1576.52 628.698 1574.49 626.375 1572.46 624.051 1571.45 620.674 1571.45 616.243 1571.45 613.352 1571.99 610.177 1573.07 606.719 1574.15 603.26 1575.73 600.221 1577.81 597.6 1579.89 594.979 1582.33 593.021 1585.11 591.724 1587.89 590.427 1590.86 589.778 1594.03 589.778Z" fill-rule="evenodd"/><text fill="#000000" fill-opacity="0" font-family="Arial,Arial_MSFontService,sans-serif" font-size="40.0815" x="1571.45" y="624.85">洧녫</text><path d="M1622.17 614.83C1620.27 617.59 1618.37 620.33 1616.47 623.05 1614.57 625.771 1612.66 628.501 1610.74 631.241L1610.74 631.599 1622.17 631.599 1622.17 625.612C1622.17 624.937 1622.18 624.103 1622.2 623.11 1622.22 622.117 1622.25 621.109 1622.28 620.087 1622.31 619.064 1622.34 618.091 1622.38 617.168 1622.42 616.244 1622.46 615.465 1622.5 614.83ZM1623.04 607.86 1627.77 607.86 1627.77 631.599 1628.31 631.599C1629.12 631.599 1629.78 631.559 1630.29 631.479 1630.8 631.4 1631.2 631.236 1631.51 630.988 1631.82 630.74 1632.08 630.392 1632.29 629.946 1632.49 629.499 1632.72 628.918 1632.96 628.203L1635.49 628.203C1635.43 629.295 1635.36 630.377 1635.29 631.45 1635.22 632.522 1635.16 633.614 1635.1 634.726L1627.77 634.726 1627.77 638.628C1627.77 639.78 1627.8 640.673 1627.85 641.309 1627.9 641.944 1628.05 642.44 1628.29 642.798 1628.54 643.155 1628.91 643.423 1629.4 643.602 1629.88 643.781 1630.56 643.989 1631.44 644.228L1631.44 646.015 1618.57 646.015 1618.57 644.228C1619.17 644.069 1619.67 643.925 1620.09 643.796 1620.51 643.667 1620.85 643.518 1621.13 643.349 1621.41 643.18 1621.61 642.982 1621.74 642.753 1621.87 642.525 1621.97 642.237 1622.04 641.889 1622.11 641.542 1622.15 641.105 1622.16 640.579 1622.17 640.053 1622.17 639.402 1622.17 638.628L1622.17 634.726 1605.4 634.726 1605.4 632.373C1608.36 628.263 1611.3 624.177 1614.22 620.116 1617.14 616.056 1620.08 611.97 1623.04 607.86Z" fill-rule="evenodd"/><text fill="#000000" fill-opacity="0" font-family="Arial,Arial_MSFontService,sans-serif" font-size="38.1548" x="1605.4" y="641.245">4</text><path d="M2825.84 886.514 2854.65 886.514 2855.42 888.54 2836.09 910.749C2832.33 915.045 2829.08 918.693 2826.32 921.692L2826.57 921.975 2835.72 921.975C2837.35 921.975 2838.59 921.888 2839.45 921.712 2840.32 921.536 2841.07 921.205 2841.72 920.719 2842.37 920.233 2843.04 919.497 2843.73 918.51 2844.42 917.524 2845.28 915.977 2846.3 913.87L2849.91 913.87 2847.44 925.258 2818.09 925.258 2817.32 923.272 2839.49 897.74C2842.63 894.147 2844.92 891.593 2846.38 890.08L2846.14 889.797 2836.66 889.797C2835.25 889.797 2834.22 889.891 2833.58 890.08 2832.93 890.27 2832.28 890.601 2831.63 891.073 2830.98 891.546 2830.29 892.249 2829.54 893.181 2828.8 894.113 2827.97 895.444 2827.05 897.173L2823.44 897.173Z" fill-rule="evenodd"/><text fill="#000000" fill-opacity="0" font-family="Arial,Arial_MSFontService,sans-serif" font-size="38.7441" x="2817.32" y="920.415">洧녾</text><path d="M2872.06 906.419C2870.67 906.419 2869.51 906.782 2868.58 907.506 2867.64 908.231 2866.9 909.294 2866.36 910.693 2865.81 912.093 2865.42 913.801 2865.2 915.817 2864.97 917.832 2864.85 920.12 2864.85 922.682 2864.85 925.641 2865 928.197 2865.29 930.352 2865.57 932.506 2866.02 934.278 2866.63 935.668 2867.23 937.058 2867.99 938.081 2868.9 938.736 2869.82 939.391 2870.91 939.719 2872.18 939.719 2873.37 939.719 2874.42 939.411 2875.31 938.796 2876.2 938.18 2876.94 937.222 2877.53 935.922 2878.11 934.621 2878.56 932.973 2878.85 930.977 2879.15 928.982 2879.3 926.624 2879.3 923.903 2879.3 920.845 2879.14 918.214 2878.81 916.01 2878.48 913.806 2878.02 911.994 2877.42 910.574 2876.83 909.155 2876.08 908.107 2875.17 907.432 2874.27 906.757 2873.23 906.419 2872.06 906.419ZM2872.18 903.53C2874.54 903.53 2876.56 903.972 2878.24 904.856 2879.92 905.739 2881.29 907 2882.35 908.638 2883.42 910.276 2884.19 912.277 2884.69 914.64 2885.19 917.003 2885.44 919.674 2885.44 922.652 2885.44 929.265 2884.26 934.263 2881.92 937.649 2879.58 941.035 2876.18 942.727 2871.73 942.727 2867.33 942.727 2864.05 941.129 2861.91 937.932 2859.76 934.735 2858.69 929.89 2858.69 923.397 2858.69 920.001 2859.02 917.063 2859.69 914.58 2860.35 912.098 2861.28 910.038 2862.49 908.4 2863.69 906.762 2865.11 905.541 2866.76 904.736 2868.41 903.932 2870.22 903.53 2872.18 903.53Z" fill-rule="evenodd"/><text fill="#000000" fill-opacity="0" font-family="Arial,Arial_MSFontService,sans-serif" font-size="39.1973" x="2858.69" y="937.828">0</text><path d="M2469.2 886.514 2498.01 886.514 2498.78 888.54 2479.45 910.749C2475.7 915.045 2472.44 918.693 2469.69 921.692L2469.93 921.975 2479.09 921.975C2480.71 921.975 2481.95 921.888 2482.82 921.712 2483.68 921.536 2484.44 921.205 2485.09 920.719 2485.73 920.233 2486.4 919.497 2487.09 918.51 2487.78 917.524 2488.64 915.977 2489.67 913.87L2493.27 913.87 2490.8 925.258 2461.46 925.258 2460.69 923.272 2482.86 897.74C2485.99 894.147 2488.29 891.593 2489.75 890.08L2489.5 889.797 2480.02 889.797C2478.61 889.797 2477.59 889.891 2476.94 890.08 2476.29 890.27 2475.64 890.601 2474.99 891.073 2474.35 891.546 2473.65 892.249 2472.91 893.181 2472.16 894.113 2471.33 895.444 2470.42 897.173L2466.81 897.173Z" fill-rule="evenodd"/><text fill="#000000" fill-opacity="0" font-family="Arial,Arial_MSFontService,sans-serif" font-size="38.7441" x="2460.69" y="920.415">洧녾</text><path d="M2515.97 903.739 2517.78 903.739C2517.74 904.831 2517.71 905.809 2517.69 906.672 2517.67 907.536 2517.66 908.375 2517.65 909.189 2517.64 910.003 2517.63 910.808 2517.63 911.602L2517.63 934.239C2517.63 934.854 2517.65 935.385 2517.69 935.832 2517.73 936.279 2517.8 936.656 2517.89 936.964 2517.98 937.272 2518.1 937.535 2518.24 937.753 2518.39 937.972 2518.57 938.16 2518.77 938.319 2519 938.557 2519.32 938.741 2519.72 938.87 2520.12 938.999 2520.62 939.109 2521.24 939.198 2521.85 939.287 2522.59 939.357 2523.46 939.406 2524.32 939.456 2525.36 939.491 2526.57 939.511L2526.57 942.102 2502.95 942.102 2502.95 939.511C2504.12 939.471 2505.11 939.426 2505.93 939.377 2506.74 939.327 2507.44 939.257 2508.01 939.168 2508.59 939.079 2509.05 938.979 2509.4 938.87 2509.75 938.761 2510.05 938.627 2510.31 938.468 2510.58 938.289 2510.82 938.096 2511.02 937.887 2511.22 937.679 2511.38 937.416 2511.5 937.098 2511.62 936.78 2511.71 936.393 2511.78 935.936 2511.85 935.48 2511.89 934.914 2511.89 934.239L2511.89 912.883C2511.89 912.108 2511.74 911.562 2511.44 911.245 2511.14 910.927 2510.71 910.768 2510.16 910.768 2509.54 910.768 2508.63 911.086 2507.42 911.721 2506.21 912.357 2504.64 913.3 2502.71 914.551 2502.45 914.094 2502.21 913.637 2502 913.181 2501.78 912.724 2501.55 912.257 2501.31 911.781 2503.77 910.43 2506.21 909.085 2508.62 907.745 2511.04 906.404 2513.48 905.069 2515.97 903.739Z" fill-rule="evenodd"/><text fill="#000000" fill-opacity="0" font-family="Arial,Arial_MSFontService,sans-serif" font-size="38.3633" x="2501.31" y="937.307">1</text><path d="M2118.11 886.514 2146.92 886.514 2147.69 888.54 2128.36 910.749C2124.61 915.045 2121.35 918.693 2118.6 921.692L2118.84 921.975 2128 921.975C2129.62 921.975 2130.86 921.888 2131.73 921.712 2132.59 921.536 2133.35 921.205 2134 920.719 2134.64 920.233 2135.31 919.497 2136 918.51 2136.69 917.524 2137.55 915.977 2138.58 913.87L2142.18 913.87 2139.71 925.258 2110.37 925.258 2109.6 923.272 2131.77 897.74C2134.9 894.147 2137.2 891.593 2138.66 890.08L2138.41 889.797 2128.93 889.797C2127.52 889.797 2126.5 889.891 2125.85 890.08 2125.2 890.27 2124.55 890.601 2123.9 891.073 2123.26 891.546 2122.56 892.249 2121.82 893.181 2121.07 894.113 2120.24 895.444 2119.32 897.173L2115.72 897.173Z" fill-rule="evenodd"/><text fill="#000000" fill-opacity="0" font-family="Arial,Arial_MSFontService,sans-serif" font-size="38.7441" x="2109.6" y="920.415">洧녾</text><path d="M2164.45 903.53C2166.52 903.53 2168.28 903.763 2169.74 904.23 2171.2 904.697 2172.39 905.327 2173.3 906.121 2174.21 906.916 2174.87 907.869 2175.28 908.981 2175.69 910.093 2175.89 911.294 2175.89 912.585 2175.89 913.359 2175.84 914.079 2175.73 914.744 2175.62 915.409 2175.43 916.065 2175.16 916.71 2174.89 917.355 2174.54 918.006 2174.1 918.661 2173.67 919.316 2173.12 920.011 2172.47 920.746 2171.97 921.381 2171.32 922.116 2170.53 922.95 2169.74 923.784 2168.87 924.678 2167.92 925.631 2166.98 926.584 2165.99 927.577 2164.96 928.609 2163.93 929.642 2162.93 930.664 2161.95 931.677 2160.98 932.69 2160.09 933.673 2159.27 934.626 2158.46 935.579 2157.79 936.453 2157.28 937.247L2168.3 937.247C2169.23 937.247 2169.97 937.212 2170.53 937.143 2171.09 937.073 2171.55 936.919 2171.92 936.681 2172.28 936.443 2172.6 936.08 2172.85 935.594 2173.11 935.107 2173.41 934.437 2173.75 933.583L2176.52 933.583C2176.42 934.993 2176.32 936.413 2176.23 937.843 2176.14 939.272 2176.05 940.692 2175.95 942.102L2150.72 942.102 2150.72 940.553C2151.2 939.481 2151.76 938.423 2152.39 937.381 2153.03 936.339 2153.74 935.281 2154.54 934.209 2155.33 933.137 2156.23 932.03 2157.25 930.888 2158.26 929.746 2159.38 928.56 2160.61 927.328 2162.48 925.462 2164 923.868 2165.17 922.548 2166.34 921.227 2167.26 920.051 2167.94 919.018 2168.61 917.986 2169.08 917.033 2169.32 916.159 2169.57 915.285 2169.7 914.352 2169.7 913.359 2169.7 912.347 2169.55 911.413 2169.26 910.559 2168.98 909.706 2168.56 908.981 2168.03 908.385 2167.49 907.789 2166.81 907.323 2165.99 906.985 2165.16 906.648 2164.22 906.479 2163.14 906.479 2161.3 906.479 2159.75 906.98 2158.5 907.983 2157.25 908.986 2156.27 910.44 2155.58 912.347L2151.68 912.347 2151.68 906.538C2154.22 905.486 2156.56 904.722 2158.69 904.245 2160.83 903.768 2162.75 903.53 2164.45 903.53Z" fill-rule="evenodd"/><text fill="#000000" fill-opacity="0" font-family="Arial,Arial_MSFontService,sans-serif" font-size="38.5718" x="2150.72" y="937.28">2</text><path d="M1764.52 886.514 1793.34 886.514 1794.11 888.54 1774.77 910.749C1771.02 915.045 1767.76 918.693 1765.01 921.692L1765.25 921.975 1774.41 921.975C1776.03 921.975 1777.27 921.888 1778.14 921.712 1779 921.536 1779.76 921.205 1780.41 920.719 1781.06 920.233 1781.72 919.497 1782.41 918.51 1783.1 917.524 1783.96 915.977 1784.99 913.87L1788.59 913.87 1786.12 925.258 1756.78 925.258 1756.01 923.272 1778.18 897.74C1781.31 894.147 1783.61 891.593 1785.07 890.08L1784.82 889.797 1775.34 889.797C1773.94 889.797 1772.91 889.891 1772.26 890.08 1771.61 890.27 1770.96 890.601 1770.32 891.073 1769.67 891.546 1768.97 892.249 1768.23 893.181 1767.49 894.113 1766.66 895.444 1765.74 897.173L1762.13 897.173Z" fill-rule="evenodd"/><text fill="#000000" fill-opacity="0" font-family="Arial,Arial_MSFontService,sans-serif" font-size="38.7441" x="1756.01" y="920.415">洧녾</text><path d="M1810.81 903.53C1812.39 903.53 1813.88 903.699 1815.26 904.036 1816.64 904.374 1817.84 904.885 1818.85 905.57 1819.86 906.255 1820.65 907.109 1821.22 908.132 1821.78 909.155 1822.07 910.341 1822.07 911.691 1822.07 912.962 1821.89 914.084 1821.53 915.057 1821.17 916.03 1820.62 916.914 1819.88 917.708 1819.13 918.502 1818.22 919.222 1817.14 919.867 1816.05 920.513 1814.81 921.133 1813.4 921.729L1813.4 922.086C1814.73 922.325 1815.97 922.707 1817.12 923.233 1818.27 923.759 1819.28 924.424 1820.14 925.229 1821.01 926.033 1821.69 926.961 1822.18 928.014 1822.68 929.066 1822.93 930.228 1822.93 931.498 1822.93 933.087 1822.63 934.561 1822.04 935.922 1821.44 937.282 1820.55 938.458 1819.35 939.451 1818.16 940.444 1816.69 941.218 1814.95 941.774 1813.2 942.33 1811.15 942.608 1808.81 942.608 1806.96 942.608 1805.09 942.425 1803.18 942.057 1801.28 941.69 1799.47 941.208 1797.76 940.613L1797.76 934.179 1801.6 934.179C1801.92 935.172 1802.3 936.021 1802.73 936.726 1803.17 937.431 1803.68 938.006 1804.27 938.453 1804.85 938.9 1805.53 939.223 1806.29 939.421 1807.06 939.62 1807.93 939.719 1808.9 939.719 1811.46 939.719 1813.4 939.109 1814.72 937.887 1816.04 936.666 1816.7 934.815 1816.7 932.332 1816.7 929.691 1815.84 927.691 1814.1 926.331 1812.36 924.971 1809.78 924.29 1806.37 924.29L1803.75 924.29 1803.75 921.431C1805.83 921.332 1807.63 921.039 1809.15 920.552 1810.67 920.066 1811.94 919.435 1812.95 918.661 1813.96 917.887 1814.72 916.983 1815.21 915.951 1815.71 914.918 1815.96 913.816 1815.96 912.644 1815.96 910.738 1815.39 909.234 1814.26 908.132 1813.13 907.03 1811.49 906.479 1809.35 906.479 1807.54 906.479 1806.03 906.975 1804.8 907.968 1803.58 908.961 1802.65 910.44 1801.99 912.406L1798.21 912.406 1798.21 906.538C1800.55 905.546 1802.76 904.796 1804.83 904.29 1806.91 903.783 1808.9 903.53 1810.81 903.53Z" fill-rule="evenodd"/><text fill="#000000" fill-opacity="0" font-family="Arial,Arial_MSFontService,sans-serif" font-size="39.0781" x="1797.76" y="937.724">3</text></g></svg>