<?xml version="1.0" encoding="UTF-8" standalone="no"?>
<!DOCTYPE svg PUBLIC "-//W3C//DTD SVG 1.1//EN"
 "http://www.w3.org/Graphics/SVG/1.1/DTD/svg11.dtd">
<!-- Generated by graphviz version 2.43.0 (0)
 -->
<!-- Title: G Pages: 1 -->
<svg width="451pt" height="449pt"
 viewBox="0.00 0.00 451.00 449.00" xmlns="http://www.w3.org/2000/svg" xmlns:xlink="http://www.w3.org/1999/xlink">
<g id="graph0" class="graph" transform="scale(1 1) rotate(0) translate(23 445)">
<title>G</title>
<polygon fill="white" stroke="transparent" points="-23,4 -23,-445 428,-445 428,4 -23,4"/>
<!-- 0 -->
<g id="node1" class="node">
<title>0</title>
<ellipse fill="#ffffff" stroke="black" cx="215" cy="-210" rx="18" ry="18"/>
<text text-anchor="middle" x="215" y="-206.3" font-family="Times,serif" font-size="14.00">0</text>
</g>
<!-- 2 -->
<g id="node3" class="node">
<title>2</title>
<ellipse fill="#ffffff" stroke="black" cx="46" cy="-403" rx="18" ry="18"/>
<text text-anchor="middle" x="46" y="-399.3" font-family="Times,serif" font-size="14.00">2</text>
<text text-anchor="middle" x="18.5" y="-424.8" font-family="Times,serif" font-size="14.00">57</text>
</g>
<!-- 0&#45;&gt;2 -->
<g id="edge8" class="edge">
<title>0&#45;&gt;2</title>
<path fill="none" stroke="#0066cc" stroke-width="2" d="M203.12,-223.57C172.09,-259.01 88.89,-354.02 57.87,-389.44"/>
</g>
<!-- 4 -->
<g id="node5" class="node">
<title>4</title>
<ellipse fill="#ffffff" stroke="black" cx="406" cy="-240" rx="18" ry="18"/>
<text text-anchor="middle" x="406" y="-236.3" font-family="Times,serif" font-size="14.00">4</text>
<text text-anchor="middle" x="378.5" y="-261.8" font-family="Times,serif" font-size="14.00">91</text>
</g>
<!-- 0&#45;&gt;4 -->
<g id="edge1" class="edge">
<title>0&#45;&gt;4</title>
<path fill="none" stroke="#cc0000" stroke-width="2" d="M231.99,-216.83C267.83,-226.02 350.88,-239.07 387.78,-241.3"/>
</g>
<!-- 6 -->
<g id="node7" class="node">
<title>6</title>
<ellipse fill="#ffffff" stroke="black" cx="212" cy="-109" rx="18" ry="18"/>
<text text-anchor="middle" x="212" y="-105.3" font-family="Times,serif" font-size="14.00">6</text>
<text text-anchor="middle" x="184.5" y="-130.8" font-family="Times,serif" font-size="14.00">59</text>
</g>
<!-- 0&#45;&gt;6 -->
<g id="edge3" class="edge">
<title>0&#45;&gt;6</title>
<path fill="none" stroke="#00aa00" stroke-width="2" d="M214.46,-191.94C213.92,-173.67 213.09,-145.58 212.54,-127.24"/>
</g>
<!-- 1 -->
<g id="node2" class="node">
<title>1</title>
<ellipse fill="#ffffff" stroke="black" cx="262" cy="-306" rx="18" ry="18"/>
<text text-anchor="middle" x="262" y="-302.3" font-family="Times,serif" font-size="14.00">1</text>
<text text-anchor="middle" x="234.5" y="-327.8" font-family="Times,serif" font-size="14.00">44</text>
</g>
<!-- 1&#45;&gt;0 -->
<g id="edge12" class="edge">
<title>1&#45;&gt;0</title>
<path fill="none" stroke="#0066cc" stroke-width="2" d="M254.03,-289.71C245.38,-272.06 231.67,-244.05 223.01,-226.36"/>
</g>
<!-- 3 -->
<g id="node4" class="node">
<title>3</title>
<ellipse fill="#ffffff" stroke="black" cx="111" cy="-408" rx="18" ry="18"/>
<text text-anchor="middle" x="111" y="-404.3" font-family="Times,serif" font-size="14.00">3</text>
<text text-anchor="middle" x="83.5" y="-429.8" font-family="Times,serif" font-size="14.00">94</text>
</g>
<!-- 2&#45;&gt;3 -->
<g id="edge9" class="edge">
<title>2&#45;&gt;3</title>
<path fill="none" stroke="#0066cc" stroke-width="2" d="M64.11,-404.39C73.12,-405.09 83.99,-405.92 92.99,-406.61"/>
</g>
<!-- 9 -->
<g id="node10" class="node">
<title>9</title>
<ellipse fill="#ffffff" stroke="black" cx="296" cy="-389" rx="18" ry="18"/>
<text text-anchor="middle" x="296" y="-385.3" font-family="Times,serif" font-size="14.00">9</text>
<text text-anchor="middle" x="268.5" y="-410.8" font-family="Times,serif" font-size="14.00">83</text>
</g>
<!-- 3&#45;&gt;9 -->
<g id="edge10" class="edge">
<title>3&#45;&gt;9</title>
<path fill="none" stroke="#0066cc" stroke-width="2" d="M129.08,-406.14C164.44,-402.51 242.42,-394.5 277.85,-390.86"/>
</g>
<!-- 4&#45;&gt;0 -->
<g id="edge2" class="edge">
<title>4&#45;&gt;0</title>
<path fill="none" stroke="#cc0000" stroke-width="2" d="M389.01,-233.17C353.17,-223.98 270.12,-210.93 233.22,-208.7"/>
</g>
<!-- 5 -->
<g id="node6" class="node">
<title>5</title>
<ellipse fill="#ffffff" stroke="black" cx="133" cy="-105" rx="18" ry="18"/>
<text text-anchor="middle" x="133" y="-101.3" font-family="Times,serif" font-size="14.00">5</text>
<text text-anchor="middle" x="105.5" y="-126.8" font-family="Times,serif" font-size="14.00">66</text>
</g>
<!-- 5&#45;&gt;0 -->
<g id="edge7" class="edge">
<title>5&#45;&gt;0</title>
<path fill="none" stroke="#00aa00" stroke-width="2" d="M144.4,-119.6C160.07,-139.66 188.08,-175.53 203.7,-195.52"/>
</g>
<!-- 7 -->
<g id="node8" class="node">
<title>7</title>
<ellipse fill="#ffffff" stroke="black" cx="239" cy="-18" rx="18" ry="18"/>
<text text-anchor="middle" x="239" y="-14.3" font-family="Times,serif" font-size="14.00">7</text>
<text text-anchor="middle" x="211.5" y="-39.8" font-family="Times,serif" font-size="14.00">10</text>
</g>
<!-- 6&#45;&gt;7 -->
<g id="edge4" class="edge">
<title>6&#45;&gt;7</title>
<path fill="none" stroke="#00aa00" stroke-width="2" d="M217.21,-91.45C221.99,-75.34 229.03,-51.59 233.81,-35.49"/>
</g>
<!-- 8 -->
<g id="node9" class="node">
<title>8</title>
<ellipse fill="#ffffff" stroke="black" cx="18" cy="-20" rx="18" ry="18"/>
<text text-anchor="middle" x="18" y="-16.3" font-family="Times,serif" font-size="14.00">8</text>
<text text-anchor="middle" x="-9.5" y="-41.8" font-family="Times,serif" font-size="14.00">52</text>
</g>
<!-- 7&#45;&gt;8 -->
<g id="edge5" class="edge">
<title>7&#45;&gt;8</title>
<path fill="none" stroke="#00aa00" stroke-width="2" d="M220.91,-18.16C179.37,-18.54 77.51,-19.46 36.03,-19.84"/>
</g>
<!-- 8&#45;&gt;5 -->
<g id="edge6" class="edge">
<title>8&#45;&gt;5</title>
<path fill="none" stroke="#00aa00" stroke-width="2" d="M32.56,-30.77C54.56,-47.03 96.05,-77.69 118.19,-94.05"/>
</g>
<!-- 9&#45;&gt;1 -->
<g id="edge11" class="edge">
<title>9&#45;&gt;1</title>
<path fill="none" stroke="#0066cc" stroke-width="2" d="M289.12,-372.2C283.22,-357.8 274.77,-337.16 268.87,-322.77"/>
</g>
</g>
</svg>
