<?xml version="1.0" encoding="UTF-8" standalone="no"?>
<!DOCTYPE svg PUBLIC "-//W3C//DTD SVG 1.1//EN"
 "http://www.w3.org/Graphics/SVG/1.1/DTD/svg11.dtd">
<!-- Generated by graphviz version 2.43.0 (0)
 -->
<!-- Title: G Pages: 1 -->
<svg width="457pt" height="440pt"
 viewBox="0.00 0.00 457.00 440.00" xmlns="http://www.w3.org/2000/svg" xmlns:xlink="http://www.w3.org/1999/xlink">
<g id="graph0" class="graph" transform="scale(1 1) rotate(0) translate(23 436)">
<title>G</title>
<polygon fill="white" stroke="transparent" points="-23,4 -23,-436 434,-436 434,4 -23,4"/>
<!-- 0 -->
<g id="node1" class="node">
<title>0</title>
<ellipse fill="#ffffff" stroke="black" cx="215" cy="-209" rx="18" ry="18"/>
<text text-anchor="middle" x="215" y="-205.3" font-family="Times,serif" font-size="14.00">0</text>
</g>
<!-- 4 -->
<g id="node5" class="node">
<title>4</title>
<ellipse fill="#ffffff" stroke="black" cx="94" cy="-242" rx="18" ry="18"/>
<text text-anchor="middle" x="94" y="-238.3" font-family="Times,serif" font-size="14.00">4</text>
<text text-anchor="middle" x="66.5" y="-263.8" font-family="Times,serif" font-size="14.00">95</text>
</g>
<!-- 0&#45;&gt;4 -->
<g id="edge6" class="edge">
<title>0&#45;&gt;4</title>
<path fill="none" stroke="#00aa00" stroke-width="2" d="M197.41,-213.8C177.42,-219.25 144.57,-228.21 121.26,-234.56"/>
<polygon fill="#00aa00" stroke="#00aa00" stroke-width="2" points="120.34,-231.19 111.62,-237.2 122.18,-237.94 120.34,-231.19"/>
</g>
<!-- 10 -->
<g id="node11" class="node">
<title>10</title>
<ellipse fill="#ffffff" stroke="black" cx="229" cy="-116" rx="18" ry="18"/>
<text text-anchor="middle" x="229" y="-112.3" font-family="Times,serif" font-size="14.00">10</text>
<text text-anchor="middle" x="201.5" y="-137.8" font-family="Times,serif" font-size="14.00">48</text>
</g>
<!-- 0&#45;&gt;10 -->
<g id="edge13" class="edge">
<title>0&#45;&gt;10</title>
<path fill="none" stroke="#0066cc" stroke-width="2" d="M217.7,-191.07C219.71,-177.69 222.5,-159.16 224.81,-143.85"/>
<polygon fill="#0066cc" stroke="#0066cc" stroke-width="2" points="228.28,-144.29 226.31,-133.88 221.36,-143.24 228.28,-144.29"/>
</g>
<!-- 13 -->
<g id="node14" class="node">
<title>13</title>
<ellipse fill="#ffffff" stroke="black" cx="213" cy="-323" rx="18" ry="18"/>
<text text-anchor="middle" x="213" y="-319.3" font-family="Times,serif" font-size="14.00">13</text>
<text text-anchor="middle" x="185.5" y="-344.8" font-family="Times,serif" font-size="14.00">47</text>
</g>
<!-- 0&#45;&gt;13 -->
<g id="edge1" class="edge">
<title>0&#45;&gt;13</title>
<path fill="none" stroke="#cc0000" stroke-width="2" d="M214.68,-227.06C214.36,-245.22 213.87,-273.46 213.5,-294.61"/>
<polygon fill="#cc0000" stroke="#cc0000" stroke-width="2" points="210,-294.58 213.32,-304.64 217,-294.71 210,-294.58"/>
</g>
<!-- 1 -->
<g id="node2" class="node">
<title>1</title>
<ellipse fill="#ffffff" stroke="black" cx="345" cy="-329" rx="18" ry="18"/>
<text text-anchor="middle" x="345" y="-325.3" font-family="Times,serif" font-size="14.00">1</text>
<text text-anchor="middle" x="317.5" y="-350.8" font-family="Times,serif" font-size="14.00">38</text>
</g>
<!-- 6 -->
<g id="node7" class="node">
<title>6</title>
<ellipse fill="#ffffff" stroke="black" cx="412" cy="-288" rx="18" ry="18"/>
<text text-anchor="middle" x="412" y="-284.3" font-family="Times,serif" font-size="14.00">6</text>
<text text-anchor="middle" x="384.5" y="-309.8" font-family="Times,serif" font-size="14.00">48</text>
</g>
<!-- 1&#45;&gt;6 -->
<g id="edge4" class="edge">
<title>1&#45;&gt;6</title>
<path fill="none" stroke="#cc0000" stroke-width="2" d="M360.54,-319.49C368.66,-314.52 378.77,-308.33 387.88,-302.76"/>
<polygon fill="#cc0000" stroke="#cc0000" stroke-width="2" points="389.84,-305.66 396.54,-297.46 386.19,-299.69 389.84,-305.66"/>
</g>
<!-- 2 -->
<g id="node3" class="node">
<title>2</title>
<ellipse fill="#ffffff" stroke="black" cx="32" cy="-399" rx="18" ry="18"/>
<text text-anchor="middle" x="32" y="-395.3" font-family="Times,serif" font-size="14.00">2</text>
<text text-anchor="middle" x="4.5" y="-420.8" font-family="Times,serif" font-size="14.00">25</text>
</g>
<!-- 3 -->
<g id="node4" class="node">
<title>3</title>
<ellipse fill="#ffffff" stroke="black" cx="72" cy="-361" rx="18" ry="18"/>
<text text-anchor="middle" x="72" y="-357.3" font-family="Times,serif" font-size="14.00">3</text>
<text text-anchor="middle" x="44.5" y="-346.8" font-family="Times,serif" font-size="14.00">13</text>
</g>
<!-- 2&#45;&gt;3 -->
<g id="edge10" class="edge">
<title>2&#45;&gt;3</title>
<path fill="none" stroke="#00aa00" stroke-width="2" d="M45.1,-386.56C47.15,-384.61 49.31,-382.56 51.48,-380.5"/>
<polygon fill="#00aa00" stroke="#00aa00" stroke-width="2" points="53.9,-383.03 58.74,-373.6 49.08,-377.95 53.9,-383.03"/>
</g>
<!-- 12 -->
<g id="node13" class="node">
<title>12</title>
<ellipse fill="#ffffff" stroke="black" cx="121" cy="-380" rx="18" ry="18"/>
<text text-anchor="middle" x="121" y="-376.3" font-family="Times,serif" font-size="14.00">12</text>
<text text-anchor="middle" x="93.5" y="-401.8" font-family="Times,serif" font-size="14.00">61</text>
</g>
<!-- 3&#45;&gt;12 -->
<g id="edge11" class="edge">
<title>3&#45;&gt;12</title>
<path fill="none" stroke="#00aa00" stroke-width="2" d="M88.86,-367.54C90.69,-368.25 92.58,-368.98 94.49,-369.72"/>
<polygon fill="#00aa00" stroke="#00aa00" stroke-width="2" points="93.35,-373.03 103.94,-373.38 95.88,-366.51 93.35,-373.03"/>
</g>
<!-- 9 -->
<g id="node10" class="node">
<title>9</title>
<ellipse fill="#ffffff" stroke="black" cx="18" cy="-224" rx="18" ry="18"/>
<text text-anchor="middle" x="18" y="-220.3" font-family="Times,serif" font-size="14.00">9</text>
<text text-anchor="middle" x="-9.5" y="-245.8" font-family="Times,serif" font-size="14.00">31</text>
</g>
<!-- 4&#45;&gt;9 -->
<g id="edge7" class="edge">
<title>4&#45;&gt;9</title>
<path fill="none" stroke="#00aa00" stroke-width="2" d="M76.37,-237.83C67.16,-235.64 55.69,-232.93 45.36,-230.48"/>
<polygon fill="#00aa00" stroke="#00aa00" stroke-width="2" points="46.07,-227.05 35.53,-228.15 44.46,-233.86 46.07,-227.05"/>
</g>
<!-- 5 -->
<g id="node6" class="node">
<title>5</title>
<ellipse fill="#ffffff" stroke="black" cx="24" cy="-325" rx="18" ry="18"/>
<text text-anchor="middle" x="24" y="-321.3" font-family="Times,serif" font-size="14.00">5</text>
<text text-anchor="middle" x="-3.5" y="-346.8" font-family="Times,serif" font-size="14.00">16</text>
</g>
<!-- 5&#45;&gt;2 -->
<g id="edge9" class="edge">
<title>5&#45;&gt;2</title>
<path fill="none" stroke="#00aa00" stroke-width="2" d="M25.94,-342.91C26.84,-351.3 27.95,-361.5 28.96,-370.88"/>
<polygon fill="#00aa00" stroke="#00aa00" stroke-width="2" points="25.5,-371.43 30.05,-381 32.46,-370.68 25.5,-371.43"/>
</g>
<!-- 6&#45;&gt;0 -->
<g id="edge5" class="edge">
<title>6&#45;&gt;0</title>
<path fill="none" stroke="#cc0000" stroke-width="2" d="M395.2,-281.26C360.82,-267.48 282.2,-235.95 241.11,-219.47"/>
<polygon fill="#cc0000" stroke="#cc0000" stroke-width="2" points="242.34,-216.19 231.75,-215.72 239.73,-222.69 242.34,-216.19"/>
</g>
<!-- 7 -->
<g id="node8" class="node">
<title>7</title>
<ellipse fill="#ffffff" stroke="black" cx="266" cy="-357" rx="18" ry="18"/>
<text text-anchor="middle" x="266" y="-353.3" font-family="Times,serif" font-size="14.00">7</text>
<text text-anchor="middle" x="238.5" y="-378.8" font-family="Times,serif" font-size="14.00">32</text>
</g>
<!-- 7&#45;&gt;1 -->
<g id="edge3" class="edge">
<title>7&#45;&gt;1</title>
<path fill="none" stroke="#cc0000" stroke-width="2" d="M283.14,-350.92C293.39,-347.29 306.63,-342.6 318.24,-338.49"/>
<polygon fill="#cc0000" stroke="#cc0000" stroke-width="2" points="319.64,-341.7 327.89,-335.06 317.3,-335.11 319.64,-341.7"/>
</g>
<!-- 8 -->
<g id="node9" class="node">
<title>8</title>
<ellipse fill="#ffffff" stroke="black" cx="273" cy="-166" rx="18" ry="18"/>
<text text-anchor="middle" x="273" y="-162.3" font-family="Times,serif" font-size="14.00">8</text>
<text text-anchor="middle" x="245.5" y="-187.8" font-family="Times,serif" font-size="14.00">63</text>
</g>
<!-- 8&#45;&gt;0 -->
<g id="edge17" class="edge">
<title>8&#45;&gt;0</title>
<path fill="none" stroke="#0066cc" stroke-width="2" d="M258.36,-176.85C252.23,-181.4 244.95,-186.8 238.12,-191.86"/>
<polygon fill="#0066cc" stroke="#0066cc" stroke-width="2" points="235.78,-189.24 229.83,-198 239.95,-194.86 235.78,-189.24"/>
</g>
<!-- 9&#45;&gt;5 -->
<g id="edge8" class="edge">
<title>9&#45;&gt;5</title>
<path fill="none" stroke="#00aa00" stroke-width="2" d="M19.07,-242.06C19.97,-257.19 21.27,-279.06 22.31,-296.54"/>
<polygon fill="#00aa00" stroke="#00aa00" stroke-width="2" points="18.83,-296.98 22.92,-306.76 25.82,-296.57 18.83,-296.98"/>
</g>
<!-- 11 -->
<g id="node12" class="node">
<title>11</title>
<ellipse fill="#ffffff" stroke="black" cx="404" cy="-18" rx="18" ry="18"/>
<text text-anchor="middle" x="404" y="-14.3" font-family="Times,serif" font-size="14.00">11</text>
<text text-anchor="middle" x="376.5" y="-39.8" font-family="Times,serif" font-size="14.00">80</text>
</g>
<!-- 10&#45;&gt;11 -->
<g id="edge14" class="edge">
<title>10&#45;&gt;11</title>
<path fill="none" stroke="#0066cc" stroke-width="2" d="M244.84,-107.13C275.35,-90.05 342.47,-52.46 379.05,-31.97"/>
<polygon fill="#0066cc" stroke="#0066cc" stroke-width="2" points="381.06,-34.86 388.07,-26.92 377.64,-28.75 381.06,-34.86"/>
</g>
<!-- 14 -->
<g id="node15" class="node">
<title>14</title>
<ellipse fill="#ffffff" stroke="black" cx="330" cy="-164" rx="18" ry="18"/>
<text text-anchor="middle" x="330" y="-160.3" font-family="Times,serif" font-size="14.00">14</text>
<text text-anchor="middle" x="302.5" y="-185.8" font-family="Times,serif" font-size="14.00">76</text>
</g>
<!-- 11&#45;&gt;14 -->
<g id="edge15" class="edge">
<title>11&#45;&gt;14</title>
<path fill="none" stroke="#0066cc" stroke-width="2" d="M395.8,-34.18C382.96,-59.51 358.03,-108.7 342.81,-138.73"/>
<polygon fill="#0066cc" stroke="#0066cc" stroke-width="2" points="339.64,-137.24 338.24,-147.75 345.88,-140.41 339.64,-137.24"/>
</g>
<!-- 12&#45;&gt;0 -->
<g id="edge12" class="edge">
<title>12&#45;&gt;0</title>
<path fill="none" stroke="#00aa00" stroke-width="2" d="M129.67,-364.22C146.03,-334.47 181.54,-269.86 201.21,-234.09"/>
<polygon fill="#00aa00" stroke="#00aa00" stroke-width="2" points="204.32,-235.69 206.07,-225.24 198.19,-232.32 204.32,-235.69"/>
</g>
<!-- 13&#45;&gt;7 -->
<g id="edge2" class="edge">
<title>13&#45;&gt;7</title>
<path fill="none" stroke="#cc0000" stroke-width="2" d="M228.33,-332.83C232.58,-335.56 237.29,-338.58 241.91,-341.55"/>
<polygon fill="#cc0000" stroke="#cc0000" stroke-width="2" points="240.21,-344.62 250.52,-347.07 243.99,-338.72 240.21,-344.62"/>
</g>
<!-- 14&#45;&gt;8 -->
<g id="edge16" class="edge">
<title>14&#45;&gt;8</title>
<path fill="none" stroke="#0066cc" stroke-width="2" d="M311.96,-164.63C308.53,-164.75 304.87,-164.88 301.21,-165.01"/>
<polygon fill="#0066cc" stroke="#0066cc" stroke-width="2" points="300.98,-161.52 291.11,-165.36 301.23,-168.51 300.98,-161.52"/>
</g>
</g>
</svg>
