<?xml version="1.0" encoding="UTF-8" standalone="no"?>
<!DOCTYPE svg PUBLIC "-//W3C//DTD SVG 1.1//EN"
 "http://www.w3.org/Graphics/SVG/1.1/DTD/svg11.dtd">
<!-- Generated by graphviz version 2.43.0 (0)
 -->
<!-- Title: G Pages: 1 -->
<svg width="358pt" height="305pt"
 viewBox="0.00 0.00 357.55 304.56" xmlns="http://www.w3.org/2000/svg" xmlns:xlink="http://www.w3.org/1999/xlink">
<g id="graph0" class="graph" transform="scale(1 1) rotate(0) translate(4 300.56)">
<title>G</title>
<polygon fill="white" stroke="transparent" points="-4,4 -4,-300.56 353.55,-300.56 353.55,4 -4,4"/>
<!-- 0 -->
<g id="node1" class="node">
<title>0</title>
<ellipse fill="#ffffff" stroke="black" cx="18" cy="-184.6" rx="18" ry="18"/>
<text text-anchor="middle" x="18" y="-180.9" font-family="Times,serif" font-size="14.00">0</text>
</g>
<!-- 1 -->
<g id="node2" class="node">
<title>1</title>
<ellipse fill="#ffff66" stroke="black" cx="82.89" cy="-249.97" rx="18" ry="18"/>
<text text-anchor="middle" x="82.89" y="-246.27" font-family="Times,serif" font-size="14.00">1</text>
</g>
<!-- 0&#45;&gt;1 -->
<g id="edge1" class="edge">
<title>0&#45;&gt;1</title>
<path fill="none" stroke="#000000" d="M30.82,-197.51C42.2,-208.97 58.73,-225.63 70.09,-237.08"/>
</g>
<!-- 2 -->
<g id="node3" class="node">
<title>2</title>
<ellipse fill="#ffffff" stroke="black" cx="42.97" cy="-98.33" rx="18" ry="18"/>
<text text-anchor="middle" x="42.97" y="-94.63" font-family="Times,serif" font-size="14.00">2</text>
</g>
<!-- 0&#45;&gt;2 -->
<g id="edge2" class="edge">
<title>0&#45;&gt;2</title>
<path fill="none" stroke="#000000" d="M23.05,-167.14C27.39,-152.17 33.59,-130.72 37.92,-115.76"/>
</g>
<!-- 3 -->
<g id="node4" class="node">
<title>3</title>
<ellipse fill="#ffffff" stroke="black" cx="174.76" cy="-278.56" rx="18" ry="18"/>
<text text-anchor="middle" x="174.76" y="-274.86" font-family="Times,serif" font-size="14.00">3</text>
</g>
<!-- 1&#45;&gt;3 -->
<g id="edge3" class="edge">
<title>1&#45;&gt;3</title>
<path fill="none" stroke="#000000" d="M100.17,-255.35C116.59,-260.46 141.15,-268.1 157.55,-273.2"/>
</g>
<!-- 4 -->
<g id="node5" class="node">
<title>4</title>
<ellipse fill="#ffffff" stroke="black" cx="99.07" cy="-182.73" rx="18" ry="18"/>
<text text-anchor="middle" x="99.07" y="-179.03" font-family="Times,serif" font-size="14.00">4</text>
</g>
<!-- 1&#45;&gt;4 -->
<g id="edge4" class="edge">
<title>1&#45;&gt;4</title>
<path fill="none" stroke="#000000" d="M87.14,-232.3C89.5,-222.5 92.43,-210.34 94.79,-200.51"/>
</g>
<!-- 5 -->
<g id="node6" class="node">
<title>5</title>
<ellipse fill="#ffffff" stroke="black" cx="71.51" cy="-18" rx="18" ry="18"/>
<text text-anchor="middle" x="71.51" y="-14.3" font-family="Times,serif" font-size="14.00">5</text>
</g>
<!-- 2&#45;&gt;5 -->
<g id="edge5" class="edge">
<title>2&#45;&gt;5</title>
<path fill="none" stroke="#000000" d="M49.02,-81.29C53.87,-67.66 60.63,-48.64 65.47,-35.01"/>
</g>
<!-- 6 -->
<g id="node7" class="node">
<title>6</title>
<ellipse fill="#ffff66" stroke="black" cx="124.09" cy="-106.23" rx="18" ry="18"/>
<text text-anchor="middle" x="124.09" y="-102.53" font-family="Times,serif" font-size="14.00">6</text>
</g>
<!-- 2&#45;&gt;6 -->
<g id="edge6" class="edge">
<title>2&#45;&gt;6</title>
<path fill="none" stroke="#000000" d="M60.97,-100.08C74.42,-101.39 92.7,-103.17 106.14,-104.48"/>
</g>
<!-- 7 -->
<g id="node8" class="node">
<title>7</title>
<ellipse fill="#ffffff" stroke="black" cx="167.67" cy="-213.26" rx="18" ry="18"/>
<text text-anchor="middle" x="167.67" y="-209.56" font-family="Times,serif" font-size="14.00">7</text>
</g>
<!-- 3&#45;&gt;7 -->
<g id="edge7" class="edge">
<title>3&#45;&gt;7</title>
<path fill="none" stroke="#000000" d="M172.78,-260.37C171.8,-251.31 170.62,-240.39 169.63,-231.35"/>
</g>
<!-- 13 -->
<g id="node14" class="node">
<title>13</title>
<ellipse fill="#ffffff" stroke="black" cx="267.61" cy="-257.24" rx="18" ry="18"/>
<text text-anchor="middle" x="267.61" y="-253.54" font-family="Times,serif" font-size="14.00">13</text>
</g>
<!-- 3&#45;&gt;13 -->
<g id="edge8" class="edge">
<title>3&#45;&gt;13</title>
<path fill="none" stroke="#000000" d="M192.66,-274.45C209.1,-270.67 233.33,-265.11 249.76,-261.34"/>
</g>
<!-- 4&#45;&gt;6 -->
<g id="edge9" class="edge">
<title>4&#45;&gt;6</title>
<path fill="none" stroke="#000000" d="M104.75,-165.37C108.84,-152.85 114.34,-136.03 118.43,-123.52"/>
</g>
<!-- 4&#45;&gt;7 -->
<g id="edge10" class="edge">
<title>4&#45;&gt;7</title>
<path fill="none" stroke="#000000" d="M115.68,-190.12C126.46,-194.92 140.46,-201.15 151.22,-205.93"/>
</g>
<!-- 8 -->
<g id="node9" class="node">
<title>8</title>
<ellipse fill="#ffff66" stroke="black" cx="154.12" cy="-27.75" rx="18" ry="18"/>
<text text-anchor="middle" x="154.12" y="-24.05" font-family="Times,serif" font-size="14.00">8</text>
</g>
<!-- 5&#45;&gt;8 -->
<g id="edge11" class="edge">
<title>5&#45;&gt;8</title>
<path fill="none" stroke="#000000" d="M89.44,-20.12C103.29,-21.75 122.39,-24.01 136.23,-25.64"/>
</g>
<!-- 6&#45;&gt;8 -->
<g id="edge12" class="edge">
<title>6&#45;&gt;8</title>
<path fill="none" stroke="#000000" d="M130.61,-89.2C135.64,-76.04 142.58,-57.9 147.62,-44.75"/>
</g>
<!-- 14 -->
<g id="node15" class="node">
<title>14</title>
<ellipse fill="#ffff66" stroke="black" cx="199.82" cy="-141.54" rx="18" ry="18"/>
<text text-anchor="middle" x="199.82" y="-137.84" font-family="Times,serif" font-size="14.00">14</text>
</g>
<!-- 6&#45;&gt;14 -->
<g id="edge13" class="edge">
<title>6&#45;&gt;14</title>
<path fill="none" stroke="#000000" d="M140.52,-113.89C153.22,-119.82 170.72,-127.97 183.42,-133.89"/>
</g>
<!-- 7&#45;&gt;14 -->
<g id="edge14" class="edge">
<title>7&#45;&gt;14</title>
<path fill="none" stroke="#000000" d="M175.13,-196.62C180.32,-185.04 187.22,-169.65 192.4,-158.08"/>
</g>
<!-- 9 -->
<g id="node10" class="node">
<title>9</title>
<ellipse fill="#ffffff" stroke="black" cx="243.09" cy="-25.1" rx="18" ry="18"/>
<text text-anchor="middle" x="243.09" y="-21.4" font-family="Times,serif" font-size="14.00">9</text>
</g>
<!-- 8&#45;&gt;9 -->
<g id="edge15" class="edge">
<title>8&#45;&gt;9</title>
<path fill="none" stroke="#000000" d="M172.13,-27.22C187.46,-26.76 209.4,-26.11 224.81,-25.65"/>
</g>
<!-- 10 -->
<g id="node11" class="node">
<title>10</title>
<ellipse fill="#ffffff" stroke="black" cx="316.23" cy="-87" rx="18" ry="18"/>
<text text-anchor="middle" x="316.23" y="-83.3" font-family="Times,serif" font-size="14.00">10</text>
</g>
<!-- 9&#45;&gt;10 -->
<g id="edge16" class="edge">
<title>9&#45;&gt;10</title>
<path fill="none" stroke="#000000" d="M256.85,-36.74C269.76,-47.67 288.99,-63.94 302.04,-74.99"/>
</g>
<!-- 12 -->
<g id="node13" class="node">
<title>12</title>
<ellipse fill="#ffffff" stroke="black" cx="254.99" cy="-84.33" rx="18" ry="18"/>
<text text-anchor="middle" x="254.99" y="-80.63" font-family="Times,serif" font-size="14.00">12</text>
</g>
<!-- 9&#45;&gt;12 -->
<g id="edge17" class="edge">
<title>9&#45;&gt;12</title>
<path fill="none" stroke="#000000" d="M246.66,-42.87C248.17,-50.37 249.92,-59.08 251.42,-66.57"/>
</g>
<!-- 11 -->
<g id="node12" class="node">
<title>11</title>
<ellipse fill="#ffff66" stroke="black" cx="331.55" cy="-180.62" rx="18" ry="18"/>
<text text-anchor="middle" x="331.55" y="-176.92" font-family="Times,serif" font-size="14.00">11</text>
</g>
<!-- 10&#45;&gt;11 -->
<g id="edge18" class="edge">
<title>10&#45;&gt;11</title>
<path fill="none" stroke="#000000" d="M319.18,-105.05C321.9,-121.63 325.89,-146.06 328.6,-162.62"/>
</g>
<!-- 10&#45;&gt;12 -->
<g id="edge19" class="edge">
<title>10&#45;&gt;12</title>
<path fill="none" stroke="#000000" d="M298.19,-86.21C290.28,-85.87 281.03,-85.47 273.12,-85.12"/>
</g>
<!-- 11&#45;&gt;13 -->
<g id="edge20" class="edge">
<title>11&#45;&gt;13</title>
<path fill="none" stroke="#000000" d="M319.82,-194.67C308.28,-208.5 290.77,-229.48 279.26,-243.27"/>
</g>
<!-- 12&#45;&gt;14 -->
<g id="edge21" class="edge">
<title>12&#45;&gt;14</title>
<path fill="none" stroke="#000000" d="M242.47,-97.32C233.57,-106.55 221.65,-118.91 212.67,-128.21"/>
</g>
<!-- 15 -->
<g id="node16" class="node">
<title>15</title>
<ellipse fill="#ffffff" stroke="black" cx="256.95" cy="-197.65" rx="18" ry="18"/>
<text text-anchor="middle" x="256.95" y="-193.95" font-family="Times,serif" font-size="14.00">15</text>
</g>
<!-- 13&#45;&gt;15 -->
<g id="edge22" class="edge">
<title>13&#45;&gt;15</title>
<path fill="none" stroke="#000000" d="M264.41,-239.36C263.06,-231.82 261.49,-223.05 260.15,-215.51"/>
</g>
<!-- 14&#45;&gt;15 -->
<g id="edge23" class="edge">
<title>14&#45;&gt;15</title>
<path fill="none" stroke="#000000" d="M212.78,-154.27C222.13,-163.45 234.7,-175.79 244.04,-184.96"/>
</g>
</g>
</svg>
