<?xml version="1.0" encoding="UTF-8" standalone="no"?>
<!DOCTYPE svg PUBLIC "-//W3C//DTD SVG 1.1//EN"
 "http://www.w3.org/Graphics/SVG/1.1/DTD/svg11.dtd">
<!-- Generated by graphviz version 2.43.0 (0)
 -->
<!-- Title: G Pages: 1 -->
<svg width="316pt" height="286pt"
 viewBox="0.00 0.00 316.00 285.65" xmlns="http://www.w3.org/2000/svg" xmlns:xlink="http://www.w3.org/1999/xlink">
<g id="graph0" class="graph" transform="scale(1 1) rotate(0) translate(4 281.65)">
<title>G</title>
<polygon fill="white" stroke="transparent" points="-4,4 -4,-281.65 312,-281.65 312,4 -4,4"/>
<!-- 0 -->
<g id="node1" class="node">
<title>0</title>
<ellipse fill="#ffffff" stroke="black" cx="25.4" cy="-190.02" rx="18" ry="18"/>
<text text-anchor="middle" x="25.4" y="-186.32" font-family="Times,serif" font-size="14.00">0</text>
</g>
<!-- 1 -->
<g id="node2" class="node">
<title>1</title>
<ellipse fill="#ffffff" stroke="black" cx="93.45" cy="-247.87" rx="18" ry="18"/>
<text text-anchor="middle" x="93.45" y="-244.17" font-family="Times,serif" font-size="14.00">1</text>
</g>
<!-- 0&#45;&gt;1 -->
<g id="edge1" class="edge">
<title>0&#45;&gt;1</title>
<path fill="none" stroke="#cc0000" stroke-width="2" d="M39.17,-201.73C50.97,-211.76 67.9,-226.15 79.7,-236.18"/>
</g>
<!-- 2 -->
<g id="node3" class="node">
<title>2</title>
<ellipse fill="#ffffff" stroke="black" cx="18" cy="-99.86" rx="18" ry="18"/>
<text text-anchor="middle" x="18" y="-96.16" font-family="Times,serif" font-size="14.00">2</text>
</g>
<!-- 0&#45;&gt;2 -->
<g id="edge2" class="edge">
<title>0&#45;&gt;2</title>
<path fill="none" stroke="#00aa00" stroke-width="2" d="M23.9,-171.77C22.62,-156.13 20.78,-133.71 19.5,-118.08"/>
</g>
<!-- 4 -->
<g id="node5" class="node">
<title>4</title>
<ellipse fill="#ffffff" stroke="black" cx="90.95" cy="-177.62" rx="18" ry="18"/>
<text text-anchor="middle" x="90.95" y="-173.92" font-family="Times,serif" font-size="14.00">4</text>
</g>
<!-- 0&#45;&gt;4 -->
<g id="edge3" class="edge">
<title>0&#45;&gt;4</title>
<path fill="none" stroke="#0066cc" stroke-width="2" d="M43.31,-186.63C52.56,-184.88 63.82,-182.75 73.06,-181"/>
</g>
<!-- 3 -->
<g id="node4" class="node">
<title>3</title>
<ellipse fill="#ffffff" stroke="black" cx="193.54" cy="-259.65" rx="18" ry="18"/>
<text text-anchor="middle" x="193.54" y="-255.95" font-family="Times,serif" font-size="14.00">3</text>
</g>
<!-- 1&#45;&gt;3 -->
<g id="edge4" class="edge">
<title>1&#45;&gt;3</title>
<path fill="none" stroke="#00aa00" stroke-width="2" d="M111.34,-249.98C129.45,-252.11 157.29,-255.38 175.46,-257.52"/>
</g>
<!-- 1&#45;&gt;4 -->
<g id="edge5" class="edge">
<title>1&#45;&gt;4</title>
<path fill="none" stroke="#cc8800" stroke-width="2" d="M92.8,-229.78C92.44,-219.37 91.97,-206.33 91.6,-195.89"/>
</g>
<!-- 7 -->
<g id="node8" class="node">
<title>7</title>
<ellipse fill="#ffffff" stroke="black" cx="146.58" cy="-223.05" rx="18" ry="18"/>
<text text-anchor="middle" x="146.58" y="-219.35" font-family="Times,serif" font-size="14.00">7</text>
</g>
<!-- 1&#45;&gt;7 -->
<g id="edge6" class="edge">
<title>1&#45;&gt;7</title>
<path fill="none" stroke="#0066cc" stroke-width="2" d="M109.97,-240.15C116.42,-237.14 123.81,-233.69 130.25,-230.68"/>
</g>
<!-- 5 -->
<g id="node6" class="node">
<title>5</title>
<ellipse fill="#ffffff" stroke="black" cx="54.7" cy="-18" rx="18" ry="18"/>
<text text-anchor="middle" x="54.7" y="-14.3" font-family="Times,serif" font-size="14.00">5</text>
</g>
<!-- 2&#45;&gt;5 -->
<g id="edge7" class="edge">
<title>2&#45;&gt;5</title>
<path fill="none" stroke="#cc0000" stroke-width="2" d="M25.43,-83.29C31.79,-69.09 40.92,-48.74 47.29,-34.54"/>
</g>
<!-- 6 -->
<g id="node7" class="node">
<title>6</title>
<ellipse fill="#ffffff" stroke="black" cx="93.95" cy="-100.61" rx="18" ry="18"/>
<text text-anchor="middle" x="93.95" y="-96.91" font-family="Times,serif" font-size="14.00">6</text>
</g>
<!-- 2&#45;&gt;6 -->
<g id="edge8" class="edge">
<title>2&#45;&gt;6</title>
<path fill="none" stroke="#0066cc" stroke-width="2" d="M36,-100.04C48.02,-100.16 63.77,-100.31 75.82,-100.43"/>
</g>
<!-- 3&#45;&gt;7 -->
<g id="edge9" class="edge">
<title>3&#45;&gt;7</title>
<path fill="none" stroke="#cc0000" stroke-width="2" d="M179.19,-248.47C173.37,-243.93 166.65,-238.7 160.83,-234.16"/>
</g>
<!-- 13 -->
<g id="node14" class="node">
<title>13</title>
<ellipse fill="#ffffff" stroke="black" cx="267.82" cy="-195.09" rx="18" ry="18"/>
<text text-anchor="middle" x="267.82" y="-191.39" font-family="Times,serif" font-size="14.00">13</text>
</g>
<!-- 3&#45;&gt;13 -->
<g id="edge10" class="edge">
<title>3&#45;&gt;13</title>
<path fill="none" stroke="#0066cc" stroke-width="2" d="M207.16,-247.81C220.48,-236.23 240.65,-218.7 254.03,-207.08"/>
</g>
<!-- 15 -->
<g id="node16" class="node">
<title>15</title>
<ellipse fill="#ffffff" stroke="black" cx="210.49" cy="-197.03" rx="18" ry="18"/>
<text text-anchor="middle" x="210.49" y="-193.33" font-family="Times,serif" font-size="14.00">15</text>
</g>
<!-- 3&#45;&gt;15 -->
<g id="edge11" class="edge">
<title>3&#45;&gt;15</title>
<path fill="none" stroke="#cc8800" stroke-width="2" d="M198.26,-242.21C200.57,-233.67 203.35,-223.4 205.68,-214.82"/>
</g>
<!-- 4&#45;&gt;6 -->
<g id="edge12" class="edge">
<title>4&#45;&gt;6</title>
<path fill="none" stroke="#cc0000" stroke-width="2" d="M91.67,-159.37C92.14,-147.09 92.77,-130.98 93.25,-118.73"/>
</g>
<!-- 4&#45;&gt;7 -->
<g id="edge13" class="edge">
<title>4&#45;&gt;7</title>
<path fill="none" stroke="#00aa00" stroke-width="2" d="M104.99,-189.08C113.36,-195.92 123.95,-204.57 132.35,-211.43"/>
</g>
<!-- 14 -->
<g id="node15" class="node">
<title>14</title>
<ellipse fill="#ffffff" stroke="black" cx="156.3" cy="-145.69" rx="18" ry="18"/>
<text text-anchor="middle" x="156.3" y="-141.99" font-family="Times,serif" font-size="14.00">14</text>
</g>
<!-- 4&#45;&gt;14 -->
<g id="edge14" class="edge">
<title>4&#45;&gt;14</title>
<path fill="none" stroke="#00aaaa" stroke-width="2" d="M107.44,-169.56C117.43,-164.68 130.1,-158.49 140.04,-153.63"/>
</g>
<!-- 8 -->
<g id="node9" class="node">
<title>8</title>
<ellipse fill="#ffffff" stroke="black" cx="138.78" cy="-27.01" rx="18" ry="18"/>
<text text-anchor="middle" x="138.78" y="-23.31" font-family="Times,serif" font-size="14.00">8</text>
</g>
<!-- 5&#45;&gt;8 -->
<g id="edge15" class="edge">
<title>5&#45;&gt;8</title>
<path fill="none" stroke="#cc8800" stroke-width="2" d="M72.95,-19.95C87.14,-21.48 106.74,-23.58 120.86,-25.09"/>
</g>
<!-- 6&#45;&gt;8 -->
<g id="edge16" class="edge">
<title>6&#45;&gt;8</title>
<path fill="none" stroke="#00aa00" stroke-width="2" d="M103.46,-85C111.07,-72.51 121.68,-55.08 129.29,-42.59"/>
</g>
<!-- 6&#45;&gt;14 -->
<g id="edge17" class="edge">
<title>6&#45;&gt;14</title>
<path fill="none" stroke="#cc8800" stroke-width="2" d="M108.73,-111.29C118.67,-118.48 131.72,-127.91 141.63,-135.08"/>
</g>
<!-- 7&#45;&gt;14 -->
<g id="edge18" class="edge">
<title>7&#45;&gt;14</title>
<path fill="none" stroke="#aa00aa" stroke-width="2" d="M148.83,-205.11C150.39,-192.7 152.46,-176.25 154.03,-163.8"/>
</g>
<!-- 7&#45;&gt;15 -->
<g id="edge19" class="edge">
<title>7&#45;&gt;15</title>
<path fill="none" stroke="#00aaaa" stroke-width="2" d="M163.37,-216.22C172.69,-212.42 184.25,-207.72 193.59,-203.91"/>
</g>
<!-- 9 -->
<g id="node10" class="node">
<title>9</title>
<ellipse fill="#ffffff" stroke="black" cx="232.1" cy="-45.66" rx="18" ry="18"/>
<text text-anchor="middle" x="232.1" y="-41.96" font-family="Times,serif" font-size="14.00">9</text>
</g>
<!-- 8&#45;&gt;9 -->
<g id="edge20" class="edge">
<title>8&#45;&gt;9</title>
<path fill="none" stroke="#cc0000" stroke-width="2" d="M156.77,-30.6C173.3,-33.91 197.65,-38.77 214.16,-42.07"/>
</g>
<!-- 12 -->
<g id="node13" class="node">
<title>12</title>
<ellipse fill="#ffffff" stroke="black" cx="184.15" cy="-73.99" rx="18" ry="18"/>
<text text-anchor="middle" x="184.15" y="-70.29" font-family="Times,serif" font-size="14.00">12</text>
</g>
<!-- 8&#45;&gt;12 -->
<g id="edge21" class="edge">
<title>8&#45;&gt;12</title>
<path fill="none" stroke="#0066cc" stroke-width="2" d="M151.42,-40.09C157.71,-46.61 165.29,-54.47 171.58,-60.97"/>
</g>
<!-- 10 -->
<g id="node11" class="node">
<title>10</title>
<ellipse fill="#ffffff" stroke="black" cx="230.04" cy="-126.19" rx="18" ry="18"/>
<text text-anchor="middle" x="230.04" y="-122.49" font-family="Times,serif" font-size="14.00">10</text>
</g>
<!-- 9&#45;&gt;10 -->
<g id="edge22" class="edge">
<title>9&#45;&gt;10</title>
<path fill="none" stroke="#00aa00" stroke-width="2" d="M231.63,-63.93C231.29,-77.11 230.84,-94.83 230.5,-107.99"/>
</g>
<!-- 11 -->
<g id="node12" class="node">
<title>11</title>
<ellipse fill="#ffffff" stroke="black" cx="290" cy="-110.53" rx="18" ry="18"/>
<text text-anchor="middle" x="290" y="-106.83" font-family="Times,serif" font-size="14.00">11</text>
</g>
<!-- 9&#45;&gt;11 -->
<g id="edge23" class="edge">
<title>9&#45;&gt;11</title>
<path fill="none" stroke="#0066cc" stroke-width="2" d="M244.09,-59.1C253.9,-70.08 267.71,-85.56 277.62,-96.66"/>
</g>
<!-- 9&#45;&gt;12 -->
<g id="edge24" class="edge">
<title>9&#45;&gt;12</title>
<path fill="none" stroke="#cc8800" stroke-width="2" d="M216.4,-54.93C211.04,-58.1 205.06,-61.63 199.72,-64.79"/>
</g>
<!-- 10&#45;&gt;11 -->
<g id="edge25" class="edge">
<title>10&#45;&gt;11</title>
<path fill="none" stroke="#cc0000" stroke-width="2" d="M247.7,-121.58C255.44,-119.56 264.51,-117.19 272.25,-115.17"/>
</g>
<!-- 10&#45;&gt;12 -->
<g id="edge26" class="edge">
<title>10&#45;&gt;12</title>
<path fill="none" stroke="#00aaaa" stroke-width="2" d="M217.98,-112.48C211.29,-104.86 202.99,-95.42 196.28,-87.8"/>
</g>
<!-- 10&#45;&gt;13 -->
<g id="edge27" class="edge">
<title>10&#45;&gt;13</title>
<path fill="none" stroke="#cc8800" stroke-width="2" d="M238.8,-142.17C244.9,-153.3 253.01,-168.09 259.1,-179.2"/>
</g>
<!-- 10&#45;&gt;14 -->
<g id="edge28" class="edge">
<title>10&#45;&gt;14</title>
<path fill="none" stroke="#0066cc" stroke-width="2" d="M212.56,-130.81C200.89,-133.9 185.6,-137.94 173.91,-141.03"/>
</g>
<!-- 10&#45;&gt;15 -->
<g id="edge29" class="edge">
<title>10&#45;&gt;15</title>
<path fill="none" stroke="#aa00aa" stroke-width="2" d="M225.21,-143.7C222.22,-154.52 218.4,-168.36 215.41,-179.23"/>
</g>
<!-- 11&#45;&gt;13 -->
<g id="edge30" class="edge">
<title>11&#45;&gt;13</title>
<path fill="none" stroke="#00aa00" stroke-width="2" d="M285.41,-128.05C281.6,-142.56 276.22,-163.09 272.41,-177.59"/>
</g>
<!-- 12&#45;&gt;14 -->
<g id="edge31" class="edge">
<title>12&#45;&gt;14</title>
<path fill="none" stroke="#cc0000" stroke-width="2" d="M177.55,-90.98C173.11,-102.41 167.28,-117.41 162.85,-128.82"/>
</g>
<!-- 13&#45;&gt;15 -->
<g id="edge32" class="edge">
<title>13&#45;&gt;15</title>
<path fill="none" stroke="#cc0000" stroke-width="2" d="M249.68,-195.71C242.99,-195.93 235.41,-196.19 228.71,-196.42"/>
</g>
<!-- 14&#45;&gt;15 -->
<g id="edge33" class="edge">
<title>14&#45;&gt;15</title>
<path fill="none" stroke="#00aa00" stroke-width="2" d="M169.42,-158.12C177.82,-166.07 188.68,-176.36 197.12,-184.36"/>
</g>
</g>
</svg>
