<?xml version="1.0" encoding="UTF-8" standalone="no"?>
<!DOCTYPE svg PUBLIC "-//W3C//DTD SVG 1.1//EN"
 "http://www.w3.org/Graphics/SVG/1.1/DTD/svg11.dtd">
<!-- Generated by graphviz version 2.43.0 (0)
 -->
<!-- Title: G Pages: 1 -->
<svg width="146pt" height="209pt"
 viewBox="0.00 0.00 146.01 208.67" xmlns="http://www.w3.org/2000/svg" xmlns:xlink="http://www.w3.org/1999/xlink">
<g id="graph0" class="graph" transform="scale(1 1) rotate(0) translate(4 204.67)">
<title>G</title>
<polygon fill="white" stroke="transparent" points="-4,4 -4,-204.67 142.01,-204.67 142.01,4 -4,4"/>
<!-- 0 -->
<g id="node1" class="node">
<title>0</title>
<ellipse fill="#ffffff" stroke="black" cx="18" cy="-18" rx="18" ry="18"/>
<text text-anchor="middle" x="18" y="-14.3" font-family="Times,serif" font-size="14.00">0</text>
</g>
<!-- 1 -->
<g id="node2" class="node">
<title>1</title>
<ellipse fill="#ffffff" stroke="black" cx="89.83" cy="-37.3" rx="18" ry="18"/>
<text text-anchor="middle" x="89.83" y="-33.6" font-family="Times,serif" font-size="14.00">1</text>
</g>
<!-- 0&#45;&gt;1 -->
<g id="edge1" class="edge">
<title>0&#45;&gt;1</title>
<path fill="none" stroke="#000000" d="M35.39,-22.67C46.6,-25.68 61.13,-29.58 72.35,-32.6"/>
</g>
<!-- 2 -->
<g id="node3" class="node">
<title>2</title>
<ellipse fill="#ffffff" stroke="black" cx="42.13" cy="-88.88" rx="18" ry="18"/>
<text text-anchor="middle" x="42.13" y="-85.18" font-family="Times,serif" font-size="14.00">2</text>
</g>
<!-- 0&#45;&gt;2 -->
<g id="edge2" class="edge">
<title>0&#45;&gt;2</title>
<path fill="none" stroke="#000000" d="M23.84,-35.16C27.58,-46.14 32.41,-60.34 36.17,-71.39"/>
</g>
<!-- 1&#45;&gt;2 -->
<g id="edge3" class="edge">
<title>1&#45;&gt;2</title>
<path fill="none" stroke="#000000" d="M77.55,-50.58C70.48,-58.22 61.62,-67.79 54.54,-75.46"/>
</g>
<!-- 3 -->
<g id="node4" class="node">
<title>3</title>
<ellipse fill="#ffffff" stroke="black" cx="120.01" cy="-104.8" rx="18" ry="18"/>
<text text-anchor="middle" x="120.01" y="-101.1" font-family="Times,serif" font-size="14.00">3</text>
</g>
<!-- 1&#45;&gt;3 -->
<g id="edge4" class="edge">
<title>1&#45;&gt;3</title>
<path fill="none" stroke="#000000" d="M97.29,-53.98C101.97,-64.45 107.98,-77.88 112.64,-88.3"/>
</g>
<!-- 2&#45;&gt;3 -->
<g id="edge5" class="edge">
<title>2&#45;&gt;3</title>
<path fill="none" stroke="#000000" d="M59.8,-92.49C72.46,-95.08 89.44,-98.55 102.14,-101.15"/>
</g>
<!-- 5 -->
<g id="node6" class="node">
<title>5</title>
<ellipse fill="#ffffff" stroke="black" cx="30.92" cy="-166.08" rx="18" ry="18"/>
<text text-anchor="middle" x="30.92" y="-162.38" font-family="Times,serif" font-size="14.00">5</text>
</g>
<!-- 2&#45;&gt;5 -->
<g id="edge6" class="edge">
<title>2&#45;&gt;5</title>
<path fill="none" stroke="#000000" d="M39.53,-106.78C37.73,-119.17 35.34,-135.58 33.54,-148.01"/>
</g>
<!-- 4 -->
<g id="node5" class="node">
<title>4</title>
<ellipse fill="#ffffff" stroke="black" cx="108.09" cy="-182.67" rx="18" ry="18"/>
<text text-anchor="middle" x="108.09" y="-178.97" font-family="Times,serif" font-size="14.00">4</text>
</g>
<!-- 3&#45;&gt;4 -->
<g id="edge7" class="edge">
<title>3&#45;&gt;4</title>
<path fill="none" stroke="#000000" d="M117.24,-122.86C115.32,-135.44 112.76,-152.15 110.84,-164.7"/>
</g>
<!-- 4&#45;&gt;5 -->
<g id="edge8" class="edge">
<title>4&#45;&gt;5</title>
<path fill="none" stroke="#000000" d="M90.19,-178.82C77.72,-176.14 61.16,-172.58 48.72,-169.91"/>
</g>
</g>
</svg>
