<?xml version="1.0" encoding="UTF-8" standalone="no"?>
<!DOCTYPE svg PUBLIC "-//W3C//DTD SVG 1.1//EN"
 "http://www.w3.org/Graphics/SVG/1.1/DTD/svg11.dtd">
<!-- Generated by graphviz version 2.43.0 (0)
 -->
<!-- Title: G Pages: 1 -->
<svg width="330pt" height="306pt"
 viewBox="0.00 0.00 329.91 305.87" xmlns="http://www.w3.org/2000/svg" xmlns:xlink="http://www.w3.org/1999/xlink">
<g id="graph0" class="graph" transform="scale(1 1) rotate(0) translate(4 301.87)">
<title>G</title>
<polygon fill="white" stroke="transparent" points="-4,4 -4,-301.87 325.91,-301.87 325.91,4 -4,4"/>
<!-- 0 -->
<g id="node1" class="node">
<title>0</title>
<ellipse fill="#ffffff" stroke="black" cx="18" cy="-194.56" rx="18" ry="18"/>
<text text-anchor="middle" x="18" y="-190.86" font-family="Times,serif" font-size="14.00">0</text>
</g>
<!-- 1 -->
<g id="node2" class="node">
<title>1</title>
<ellipse fill="#ffffff" stroke="black" cx="94.32" cy="-235.96" rx="18" ry="18"/>
<text text-anchor="middle" x="94.32" y="-232.26" font-family="Times,serif" font-size="14.00">1</text>
</g>
<!-- 0&#45;&gt;1 -->
<g id="edge1" class="edge">
<title>0&#45;&gt;1</title>
<path fill="none" stroke="#000000" d="M34.19,-203.34C47.23,-210.41 65.46,-220.3 78.42,-227.34"/>
</g>
<!-- 2 -->
<g id="node3" class="node">
<title>2</title>
<ellipse fill="#ffffff" stroke="black" cx="32.45" cy="-109.13" rx="18" ry="18"/>
<text text-anchor="middle" x="32.45" y="-105.43" font-family="Times,serif" font-size="14.00">2</text>
</g>
<!-- 0&#45;&gt;2 -->
<g id="edge2" class="edge">
<title>0&#45;&gt;2</title>
<path fill="none" stroke="#000000" d="M21.07,-176.44C23.53,-161.85 26.99,-141.44 29.44,-126.93"/>
</g>
<!-- 3 -->
<g id="node4" class="node">
<title>3</title>
<ellipse fill="#ffffff" stroke="black" cx="177.15" cy="-279.87" rx="18" ry="18"/>
<text text-anchor="middle" x="177.15" y="-276.17" font-family="Times,serif" font-size="14.00">3</text>
</g>
<!-- 1&#45;&gt;3 -->
<g id="edge3" class="edge">
<title>1&#45;&gt;3</title>
<path fill="none" stroke="#000000" d="M110.29,-244.43C124.96,-252.2 146.58,-263.66 161.23,-271.43"/>
</g>
<!-- 4 -->
<g id="node5" class="node">
<title>4</title>
<ellipse fill="#ffff66" stroke="black" cx="128.21" cy="-165.64" rx="18" ry="18"/>
<text text-anchor="middle" x="128.21" y="-161.94" font-family="Times,serif" font-size="14.00">4</text>
</g>
<!-- 1&#45;&gt;4 -->
<g id="edge4" class="edge">
<title>1&#45;&gt;4</title>
<path fill="none" stroke="#000000" d="M102.18,-219.65C107.66,-208.29 114.93,-193.2 120.39,-181.86"/>
</g>
<!-- 5 -->
<g id="node6" class="node">
<title>5</title>
<ellipse fill="#ffffff" stroke="black" cx="33.82" cy="-25.62" rx="18" ry="18"/>
<text text-anchor="middle" x="33.82" y="-21.92" font-family="Times,serif" font-size="14.00">5</text>
</g>
<!-- 2&#45;&gt;5 -->
<g id="edge5" class="edge">
<title>2&#45;&gt;5</title>
<path fill="none" stroke="#000000" d="M32.75,-91.01C32.98,-77 33.29,-57.7 33.52,-43.71"/>
</g>
<!-- 6 -->
<g id="node7" class="node">
<title>6</title>
<ellipse fill="#ffff66" stroke="black" cx="115.35" cy="-98.45" rx="18" ry="18"/>
<text text-anchor="middle" x="115.35" y="-94.75" font-family="Times,serif" font-size="14.00">6</text>
</g>
<!-- 2&#45;&gt;6 -->
<g id="edge6" class="edge">
<title>2&#45;&gt;6</title>
<path fill="none" stroke="#000000" d="M50.44,-106.81C64.35,-105.02 83.5,-102.55 97.4,-100.76"/>
</g>
<!-- 7 -->
<g id="node8" class="node">
<title>7</title>
<ellipse fill="#ffffff" stroke="black" cx="187.03" cy="-219.68" rx="18" ry="18"/>
<text text-anchor="middle" x="187.03" y="-215.98" font-family="Times,serif" font-size="14.00">7</text>
</g>
<!-- 3&#45;&gt;7 -->
<g id="edge7" class="edge">
<title>3&#45;&gt;7</title>
<path fill="none" stroke="#000000" d="M180.12,-261.81C181.37,-254.19 182.82,-245.34 184.07,-237.73"/>
</g>
<!-- 13 -->
<g id="node14" class="node">
<title>13</title>
<ellipse fill="#ffffff" stroke="black" cx="266.09" cy="-238.64" rx="18" ry="18"/>
<text text-anchor="middle" x="266.09" y="-234.94" font-family="Times,serif" font-size="14.00">13</text>
</g>
<!-- 3&#45;&gt;13 -->
<g id="edge8" class="edge">
<title>3&#45;&gt;13</title>
<path fill="none" stroke="#000000" d="M193.88,-272.11C209.88,-264.7 233.86,-253.58 249.74,-246.22"/>
</g>
<!-- 4&#45;&gt;6 -->
<g id="edge9" class="edge">
<title>4&#45;&gt;6</title>
<path fill="none" stroke="#cc0000" stroke-width="2" d="M124.76,-147.63C122.92,-137.99 120.65,-126.15 118.8,-116.5"/>
</g>
<!-- 4&#45;&gt;7 -->
<g id="edge10" class="edge">
<title>4&#45;&gt;7</title>
<path fill="none" stroke="#000000" d="M141.56,-177.9C151.19,-186.74 164.12,-198.63 173.74,-207.47"/>
</g>
<!-- 12 -->
<g id="node13" class="node">
<title>12</title>
<ellipse fill="#ffff66" stroke="black" cx="192.47" cy="-102.1" rx="18" ry="18"/>
<text text-anchor="middle" x="192.47" y="-98.4" font-family="Times,serif" font-size="14.00">12</text>
</g>
<!-- 4&#45;&gt;12 -->
<g id="edge11" class="edge">
<title>4&#45;&gt;12</title>
<path fill="none" stroke="#cc0000" stroke-width="2" d="M141.21,-152.78C152.36,-141.76 168.34,-125.96 179.49,-114.94"/>
</g>
<!-- 14 -->
<g id="node15" class="node">
<title>14</title>
<ellipse fill="#ffff66" stroke="black" cx="177.19" cy="-151.46" rx="18" ry="18"/>
<text text-anchor="middle" x="177.19" y="-147.76" font-family="Times,serif" font-size="14.00">14</text>
</g>
<!-- 4&#45;&gt;14 -->
<g id="edge12" class="edge">
<title>4&#45;&gt;14</title>
<path fill="none" stroke="#cc0000" stroke-width="2" d="M145.62,-160.6C150.24,-159.26 155.23,-157.82 159.84,-156.48"/>
</g>
<!-- 8 -->
<g id="node9" class="node">
<title>8</title>
<ellipse fill="#ffffff" stroke="black" cx="117.81" cy="-18" rx="18" ry="18"/>
<text text-anchor="middle" x="117.81" y="-14.3" font-family="Times,serif" font-size="14.00">8</text>
</g>
<!-- 5&#45;&gt;8 -->
<g id="edge13" class="edge">
<title>5&#45;&gt;8</title>
<path fill="none" stroke="#000000" d="M52.04,-23.97C66.13,-22.69 85.54,-20.93 99.62,-19.65"/>
</g>
<!-- 6&#45;&gt;8 -->
<g id="edge14" class="edge">
<title>6&#45;&gt;8</title>
<path fill="none" stroke="#000000" d="M115.91,-80.19C116.31,-67.03 116.85,-49.33 117.25,-36.18"/>
</g>
<!-- 6&#45;&gt;12 -->
<g id="edge15" class="edge">
<title>6&#45;&gt;12</title>
<path fill="none" stroke="#cc0000" stroke-width="2" d="M133.63,-99.31C145.92,-99.89 162.06,-100.66 174.33,-101.24"/>
</g>
<!-- 6&#45;&gt;14 -->
<g id="edge16" class="edge">
<title>6&#45;&gt;14</title>
<path fill="none" stroke="#cc0000" stroke-width="2" d="M129.07,-110.21C139.32,-119 153.27,-130.95 163.51,-139.72"/>
</g>
<!-- 7&#45;&gt;14 -->
<g id="edge17" class="edge">
<title>7&#45;&gt;14</title>
<path fill="none" stroke="#000000" d="M184.45,-201.75C183.01,-191.81 181.23,-179.47 179.8,-169.5"/>
</g>
<!-- 15 -->
<g id="node16" class="node">
<title>15</title>
<ellipse fill="#ffffff" stroke="black" cx="243.72" cy="-170.5" rx="18" ry="18"/>
<text text-anchor="middle" x="243.72" y="-166.8" font-family="Times,serif" font-size="14.00">15</text>
</g>
<!-- 7&#45;&gt;15 -->
<g id="edge18" class="edge">
<title>7&#45;&gt;15</title>
<path fill="none" stroke="#000000" d="M200.76,-207.77C209.54,-200.16 220.9,-190.3 229.73,-182.64"/>
</g>
<!-- 9 -->
<g id="node10" class="node">
<title>9</title>
<ellipse fill="#ffffff" stroke="black" cx="201.35" cy="-26.88" rx="18" ry="18"/>
<text text-anchor="middle" x="201.35" y="-23.18" font-family="Times,serif" font-size="14.00">9</text>
</g>
<!-- 8&#45;&gt;9 -->
<g id="edge19" class="edge">
<title>8&#45;&gt;9</title>
<path fill="none" stroke="#000000" d="M135.93,-19.93C149.95,-21.42 169.25,-23.47 183.26,-24.96"/>
</g>
<!-- 10 -->
<g id="node11" class="node">
<title>10</title>
<ellipse fill="#ffffff" stroke="black" cx="262.47" cy="-75.53" rx="18" ry="18"/>
<text text-anchor="middle" x="262.47" y="-71.83" font-family="Times,serif" font-size="14.00">10</text>
</g>
<!-- 9&#45;&gt;10 -->
<g id="edge20" class="edge">
<title>9&#45;&gt;10</title>
<path fill="none" stroke="#000000" d="M215.52,-38.16C225.4,-46.02 238.51,-56.46 248.37,-64.31"/>
</g>
<!-- 9&#45;&gt;12 -->
<g id="edge21" class="edge">
<title>9&#45;&gt;12</title>
<path fill="none" stroke="#000000" d="M199.2,-45.09C197.8,-56.91 195.99,-72.26 194.6,-84.06"/>
</g>
<!-- 11 -->
<g id="node12" class="node">
<title>11</title>
<ellipse fill="#ffffff" stroke="black" cx="303.91" cy="-156.53" rx="18" ry="18"/>
<text text-anchor="middle" x="303.91" y="-152.83" font-family="Times,serif" font-size="14.00">11</text>
</g>
<!-- 10&#45;&gt;11 -->
<g id="edge22" class="edge">
<title>10&#45;&gt;11</title>
<path fill="none" stroke="#000000" d="M270.86,-91.92C278.09,-106.07 288.49,-126.38 295.68,-140.44"/>
</g>
<!-- 10&#45;&gt;12 -->
<g id="edge23" class="edge">
<title>10&#45;&gt;12</title>
<path fill="none" stroke="#000000" d="M245.52,-81.96C234.68,-86.08 220.65,-91.4 209.75,-95.54"/>
</g>
<!-- 11&#45;&gt;13 -->
<g id="edge24" class="edge">
<title>11&#45;&gt;13</title>
<path fill="none" stroke="#000000" d="M296.26,-173.14C289.7,-187.39 280.29,-207.81 273.73,-222.05"/>
</g>
<!-- 11&#45;&gt;15 -->
<g id="edge25" class="edge">
<title>11&#45;&gt;15</title>
<path fill="none" stroke="#000000" d="M286.18,-160.64C278.41,-162.45 269.31,-164.56 261.53,-166.36"/>
</g>
<!-- 12&#45;&gt;14 -->
<g id="edge26" class="edge">
<title>12&#45;&gt;14</title>
<path fill="none" stroke="#cc0000" stroke-width="2" d="M187.13,-119.36C185.65,-124.14 184.04,-129.33 182.56,-134.12"/>
</g>
<!-- 12&#45;&gt;15 -->
<g id="edge27" class="edge">
<title>12&#45;&gt;15</title>
<path fill="none" stroke="#000000" d="M203.34,-116.6C212.04,-128.21 224.17,-144.41 232.87,-156.02"/>
</g>
<!-- 13&#45;&gt;15 -->
<g id="edge28" class="edge">
<title>13&#45;&gt;15</title>
<path fill="none" stroke="#000000" d="M260.45,-221.45C257.08,-211.2 252.82,-198.22 249.44,-187.93"/>
</g>
<!-- 14&#45;&gt;15 -->
<g id="edge29" class="edge">
<title>14&#45;&gt;15</title>
<path fill="none" stroke="#000000" d="M194.67,-156.46C204.37,-159.24 216.41,-162.68 226.13,-165.46"/>
</g>
</g>
</svg>
