<?xml version="1.0" encoding="UTF-8" standalone="no"?>
<!DOCTYPE svg PUBLIC "-//W3C//DTD SVG 1.1//EN"
 "http://www.w3.org/Graphics/SVG/1.1/DTD/svg11.dtd">
<!-- Generated by graphviz version 2.43.0 (0)
 -->
<!-- Title: G Pages: 1 -->
<svg width="334pt" height="306pt"
 viewBox="0.00 0.00 334.38 305.88" xmlns="http://www.w3.org/2000/svg" xmlns:xlink="http://www.w3.org/1999/xlink">
<g id="graph0" class="graph" transform="scale(1 1) rotate(0) translate(4 301.88)">
<title>G</title>
<polygon fill="white" stroke="transparent" points="-4,4 -4,-301.88 330.38,-301.88 330.38,4 -4,4"/>
<!-- 0 -->
<g id="node1" class="node">
<title>0</title>
<ellipse fill="#ffffff" stroke="black" cx="18" cy="-194.62" rx="18" ry="18"/>
<text text-anchor="middle" x="18" y="-190.92" font-family="Times,serif" font-size="14.00">0</text>
</g>
<!-- 1 -->
<g id="node2" class="node">
<title>1</title>
<ellipse fill="#ffffff" stroke="black" cx="88.41" cy="-250.46" rx="18" ry="18"/>
<text text-anchor="middle" x="88.41" y="-246.76" font-family="Times,serif" font-size="14.00">1</text>
</g>
<!-- 0&#45;&gt;1 -->
<g id="edge1" class="edge">
<title>0&#45;&gt;1</title>
<path fill="none" stroke="#000000" d="M32.25,-205.92C44.47,-215.61 61.97,-229.5 74.18,-239.18"/>
</g>
<!-- 2 -->
<g id="node3" class="node">
<title>2</title>
<ellipse fill="#ffff66" stroke="black" cx="36.98" cy="-108.42" rx="18" ry="18"/>
<text text-anchor="middle" x="36.98" y="-104.72" font-family="Times,serif" font-size="14.00">2</text>
</g>
<!-- 0&#45;&gt;2 -->
<g id="edge2" class="edge">
<title>0&#45;&gt;2</title>
<path fill="none" stroke="#cc0000" stroke-width="2" d="M21.93,-176.76C25.19,-161.97 29.8,-141.04 33.06,-126.26"/>
</g>
<!-- 3 -->
<g id="node4" class="node">
<title>3</title>
<ellipse fill="#ffff66" stroke="black" cx="183.29" cy="-279.88" rx="18" ry="18"/>
<text text-anchor="middle" x="183.29" y="-276.18" font-family="Times,serif" font-size="14.00">3</text>
</g>
<!-- 1&#45;&gt;3 -->
<g id="edge3" class="edge">
<title>1&#45;&gt;3</title>
<path fill="none" stroke="#cc0000" stroke-width="2" d="M105.81,-255.86C122.93,-261.17 148.92,-269.22 166,-274.52"/>
</g>
<!-- 4 -->
<g id="node5" class="node">
<title>4</title>
<ellipse fill="#ffff66" stroke="black" cx="112.34" cy="-181.38" rx="18" ry="18"/>
<text text-anchor="middle" x="112.34" y="-177.68" font-family="Times,serif" font-size="14.00">4</text>
</g>
<!-- 1&#45;&gt;4 -->
<g id="edge4" class="edge">
<title>1&#45;&gt;4</title>
<path fill="none" stroke="#cc0000" stroke-width="2" d="M94.33,-233.39C97.98,-222.84 102.65,-209.34 106.32,-198.74"/>
</g>
<!-- 5 -->
<g id="node6" class="node">
<title>5</title>
<ellipse fill="#ffffff" stroke="black" cx="39.14" cy="-25.48" rx="18" ry="18"/>
<text text-anchor="middle" x="39.14" y="-21.78" font-family="Times,serif" font-size="14.00">5</text>
</g>
<!-- 2&#45;&gt;5 -->
<g id="edge5" class="edge">
<title>2&#45;&gt;5</title>
<path fill="none" stroke="#cc0000" stroke-width="2" d="M37.45,-90.42C37.81,-76.61 38.31,-57.61 38.67,-43.73"/>
</g>
<!-- 6 -->
<g id="node7" class="node">
<title>6</title>
<ellipse fill="#ffffff" stroke="black" cx="120.47" cy="-102.34" rx="18" ry="18"/>
<text text-anchor="middle" x="120.47" y="-98.64" font-family="Times,serif" font-size="14.00">6</text>
</g>
<!-- 2&#45;&gt;6 -->
<g id="edge6" class="edge">
<title>2&#45;&gt;6</title>
<path fill="none" stroke="#cc0000" stroke-width="2" d="M55.1,-107.1C69.1,-106.08 88.4,-104.67 102.39,-103.65"/>
</g>
<!-- 7 -->
<g id="node8" class="node">
<title>7</title>
<ellipse fill="#ffffff" stroke="black" cx="166.33" cy="-226.77" rx="18" ry="18"/>
<text text-anchor="middle" x="166.33" y="-223.07" font-family="Times,serif" font-size="14.00">7</text>
</g>
<!-- 3&#45;&gt;7 -->
<g id="edge7" class="edge">
<title>3&#45;&gt;7</title>
<path fill="none" stroke="#cc0000" stroke-width="2" d="M177.73,-262.49C175.84,-256.56 173.73,-249.93 171.84,-244.02"/>
</g>
<!-- 13 -->
<g id="node14" class="node">
<title>13</title>
<ellipse fill="#ffffff" stroke="black" cx="266.73" cy="-230.65" rx="18" ry="18"/>
<text text-anchor="middle" x="266.73" y="-226.95" font-family="Times,serif" font-size="14.00">13</text>
</g>
<!-- 3&#45;&gt;13 -->
<g id="edge8" class="edge">
<title>3&#45;&gt;13</title>
<path fill="none" stroke="#cc0000" stroke-width="2" d="M198.98,-270.62C213.9,-261.82 236.21,-248.65 251.1,-239.86"/>
</g>
<!-- 4&#45;&gt;6 -->
<g id="edge9" class="edge">
<title>4&#45;&gt;6</title>
<path fill="none" stroke="#cc0000" stroke-width="2" d="M114.18,-163.45C115.5,-150.6 117.28,-133.37 118.61,-120.48"/>
</g>
<!-- 4&#45;&gt;7 -->
<g id="edge10" class="edge">
<title>4&#45;&gt;7</title>
<path fill="none" stroke="#cc0000" stroke-width="2" d="M126.24,-193.07C134.24,-199.79 144.26,-208.22 152.29,-214.96"/>
</g>
<!-- 14 -->
<g id="node15" class="node">
<title>14</title>
<ellipse fill="#ffff66" stroke="black" cx="175.17" cy="-152.21" rx="18" ry="18"/>
<text text-anchor="middle" x="175.17" y="-148.51" font-family="Times,serif" font-size="14.00">14</text>
</g>
<!-- 4&#45;&gt;14 -->
<g id="edge11" class="edge">
<title>4&#45;&gt;14</title>
<path fill="none" stroke="#000000" d="M128.85,-173.72C138.01,-169.46 149.37,-164.19 158.55,-159.93"/>
</g>
<!-- 8 -->
<g id="node9" class="node">
<title>8</title>
<ellipse fill="#ffff66" stroke="black" cx="122.27" cy="-20.76" rx="18" ry="18"/>
<text text-anchor="middle" x="122.27" y="-17.06" font-family="Times,serif" font-size="14.00">8</text>
</g>
<!-- 5&#45;&gt;8 -->
<g id="edge12" class="edge">
<title>5&#45;&gt;8</title>
<path fill="none" stroke="#cc0000" stroke-width="2" d="M57.18,-24.46C71.12,-23.67 90.33,-22.58 104.27,-21.78"/>
</g>
<!-- 6&#45;&gt;8 -->
<g id="edge13" class="edge">
<title>6&#45;&gt;8</title>
<path fill="none" stroke="#cc0000" stroke-width="2" d="M120.87,-84.23C121.17,-70.71 121.58,-52.32 121.87,-38.81"/>
</g>
<!-- 12 -->
<g id="node13" class="node">
<title>12</title>
<ellipse fill="#ffff66" stroke="black" cx="204.31" cy="-92" rx="18" ry="18"/>
<text text-anchor="middle" x="204.31" y="-88.3" font-family="Times,serif" font-size="14.00">12</text>
</g>
<!-- 6&#45;&gt;12 -->
<g id="edge14" class="edge">
<title>6&#45;&gt;12</title>
<path fill="none" stroke="#cc0000" stroke-width="2" d="M138.66,-100.09C152.82,-98.35 172.37,-95.94 186.44,-94.2"/>
</g>
<!-- 6&#45;&gt;14 -->
<g id="edge15" class="edge">
<title>6&#45;&gt;14</title>
<path fill="none" stroke="#cc0000" stroke-width="2" d="M133.99,-114.67C142.47,-122.4 153.36,-132.32 161.81,-140.03"/>
</g>
<!-- 7&#45;&gt;14 -->
<g id="edge16" class="edge">
<title>7&#45;&gt;14</title>
<path fill="none" stroke="#cc0000" stroke-width="2" d="M168.47,-208.72C169.86,-197 171.66,-181.78 173.05,-170.09"/>
</g>
<!-- 9 -->
<g id="node10" class="node">
<title>9</title>
<ellipse fill="#ffffff" stroke="black" cx="208.35" cy="-18" rx="18" ry="18"/>
<text text-anchor="middle" x="208.35" y="-14.3" font-family="Times,serif" font-size="14.00">9</text>
</g>
<!-- 8&#45;&gt;9 -->
<g id="edge17" class="edge">
<title>8&#45;&gt;9</title>
<path fill="none" stroke="#cc0000" stroke-width="2" d="M140.53,-20.17C155.14,-19.71 175.52,-19.05 190.12,-18.58"/>
</g>
<!-- 10 -->
<g id="node11" class="node">
<title>10</title>
<ellipse fill="#ffffff" stroke="black" cx="272.06" cy="-66.88" rx="18" ry="18"/>
<text text-anchor="middle" x="272.06" y="-63.18" font-family="Times,serif" font-size="14.00">10</text>
</g>
<!-- 9&#45;&gt;10 -->
<g id="edge18" class="edge">
<title>9&#45;&gt;10</title>
<path fill="none" stroke="#000000" d="M222.81,-29.09C233.23,-37.09 247.25,-47.84 257.66,-55.83"/>
</g>
<!-- 9&#45;&gt;12 -->
<g id="edge19" class="edge">
<title>9&#45;&gt;12</title>
<path fill="none" stroke="#cc0000" stroke-width="2" d="M207.35,-36.29C206.73,-47.76 205.92,-62.49 205.3,-73.92"/>
</g>
<!-- 11 -->
<g id="node12" class="node">
<title>11</title>
<ellipse fill="#ffff66" stroke="black" cx="308.38" cy="-150.63" rx="18" ry="18"/>
<text text-anchor="middle" x="308.38" y="-146.93" font-family="Times,serif" font-size="14.00">11</text>
</g>
<!-- 10&#45;&gt;11 -->
<g id="edge20" class="edge">
<title>10&#45;&gt;11</title>
<path fill="none" stroke="#cc0000" stroke-width="2" d="M279.24,-83.42C285.56,-98.01 294.74,-119.17 301.1,-133.83"/>
</g>
<!-- 10&#45;&gt;12 -->
<g id="edge21" class="edge">
<title>10&#45;&gt;12</title>
<path fill="none" stroke="#cc0000" stroke-width="2" d="M254.96,-73.22C244.77,-77 231.87,-81.78 221.64,-85.58"/>
</g>
<!-- 11&#45;&gt;13 -->
<g id="edge22" class="edge">
<title>11&#45;&gt;13</title>
<path fill="none" stroke="#cc0000" stroke-width="2" d="M299.96,-166.82C292.73,-180.7 282.37,-200.6 275.15,-214.48"/>
</g>
<!-- 15 -->
<g id="node16" class="node">
<title>15</title>
<ellipse fill="#ffffff" stroke="black" cx="248.68" cy="-159.55" rx="18" ry="18"/>
<text text-anchor="middle" x="248.68" y="-155.85" font-family="Times,serif" font-size="14.00">15</text>
</g>
<!-- 11&#45;&gt;15 -->
<g id="edge23" class="edge">
<title>11&#45;&gt;15</title>
<path fill="none" stroke="#cc0000" stroke-width="2" d="M290.47,-153.3C282.91,-154.43 274.13,-155.74 266.58,-156.87"/>
</g>
<!-- 12&#45;&gt;14 -->
<g id="edge24" class="edge">
<title>12&#45;&gt;14</title>
<path fill="none" stroke="#000000" d="M196.35,-108.45C192.24,-116.95 187.23,-127.29 183.12,-135.78"/>
</g>
<!-- 12&#45;&gt;15 -->
<g id="edge25" class="edge">
<title>12&#45;&gt;15</title>
<path fill="none" stroke="#cc0000" stroke-width="2" d="M214.38,-107.33C221.64,-118.38 231.4,-133.24 238.65,-144.28"/>
</g>
<!-- 13&#45;&gt;15 -->
<g id="edge26" class="edge">
<title>13&#45;&gt;15</title>
<path fill="none" stroke="#000000" d="M262.27,-213.07C259.51,-202.21 255.98,-188.32 253.21,-177.41"/>
</g>
<!-- 14&#45;&gt;15 -->
<g id="edge27" class="edge">
<title>14&#45;&gt;15</title>
<path fill="none" stroke="#cc0000" stroke-width="2" d="M193.34,-154.03C204.73,-155.16 219.36,-156.62 230.72,-157.76"/>
</g>
</g>
</svg>
