<svg width="2090" height="1416" xmlns="http://www.w3.org/2000/svg" xmlns:xlink="http://www.w3.org/1999/xlink" overflow="hidden"><defs><clipPath id="clip0"><rect x="2114" y="302" width="2090" height="1416"/></clipPath></defs><g clip-path="url(#clip0)" transform="translate(-2114 -302)"><path d="M2385.5 1305C2385.5 1267.17 2415.94 1236.5 2453.5 1236.5 2491.06 1236.5 2521.5 1267.17 2521.5 1305 2521.5 1342.83 2491.06 1373.5 2453.5 1373.5 2415.94 1373.5 2385.5 1342.83 2385.5 1305Z" stroke="#000000" stroke-width="4.58333" stroke-miterlimit="8" fill="#9DC3E6" fill-rule="evenodd"/><path d="M2429.73 1291.54C2431.46 1291.54 2432.82 1292.12 2433.82 1293.29 2434.82 1294.45 2435.32 1296.02 2435.32 1297.99 2435.32 1300.12 2434.9 1302.78 2434.06 1305.97L2432.28 1312.98C2431.82 1314.77 2431.49 1316.16 2431.29 1317.16 2431.09 1318.16 2430.94 1319.02 2430.84 1319.75 2430.75 1320.48 2430.7 1321.09 2430.7 1321.57 2430.7 1323.44 2431.01 1324.78 2431.63 1325.61 2432.25 1326.43 2433.27 1326.84 2434.67 1326.84 2435.81 1326.84 2437.03 1326.39 2438.34 1325.49 2439.65 1324.58 2441.04 1323.22 2442.51 1321.39 2443.99 1319.57 2445.17 1317.8 2446.06 1316.08 2446.95 1314.37 2447.68 1312.25 2448.25 1309.74L2452.1 1292.19 2459.11 1292.19 2453.19 1317.89C2452.6 1320.48 2452.3 1322.48 2452.3 1323.88 2452.3 1324.97 2452.48 1325.75 2452.83 1326.24 2453.18 1326.72 2453.73 1326.96 2454.49 1326.96 2455.3 1326.96 2456.17 1326.63 2457.08 1325.97 2458 1325.31 2459.3 1324.05 2460.97 1322.18L2463.28 1324.45C2460.83 1327.07 2458.73 1328.92 2457 1330 2455.27 1331.08 2453.44 1331.63 2451.49 1331.63 2449.82 1331.63 2448.48 1331.07 2447.48 1329.96 2446.48 1328.86 2445.98 1327.38 2445.98 1325.55 2445.98 1324.09 2446.3 1322.49 2446.95 1320.76L2446.47 1320.6C2443.79 1324.36 2441.26 1327.13 2438.87 1328.91 2436.48 1330.69 2434.02 1331.58 2431.51 1331.58 2429 1331.58 2427.07 1330.86 2425.72 1329.42 2424.36 1327.97 2423.69 1325.96 2423.69 1323.4 2423.69 1321.7 2424.08 1319.28 2424.86 1316.14L2427.5 1305.53C2428.23 1302.58 2428.59 1300.5 2428.59 1299.28 2428.59 1298.2 2428.42 1297.42 2428.07 1296.93 2427.72 1296.45 2427.16 1296.2 2426.4 1296.2 2425.57 1296.2 2424.68 1296.55 2423.75 1297.24 2422.82 1297.93 2421.54 1299.18 2419.92 1300.99L2417.61 1298.72C2419.91 1296.39 2421.64 1294.8 2422.8 1293.93 2423.96 1293.07 2425.07 1292.46 2426.14 1292.09 2427.21 1291.73 2428.4 1291.54 2429.73 1291.54Z" fill-rule="evenodd"/><text fill="#000000" fill-opacity="0" font-family="Arial,Arial_MSFontService,sans-serif" font-size="40.0815" x="2417.61" y="1326.61">𝑢</text><path d="M2744.5 1305C2744.5 1267.17 2774.94 1236.5 2812.5 1236.5 2850.06 1236.5 2880.5 1267.17 2880.5 1305 2880.5 1342.83 2850.06 1373.5 2812.5 1373.5 2774.94 1373.5 2744.5 1342.83 2744.5 1305Z" stroke="#000000" stroke-width="4.58333" stroke-miterlimit="8" fill="#F4B183" fill-rule="evenodd"/><path d="M2814.99 1291.38C2816.93 1291.38 2818.34 1291.89 2819.2 1292.9 2820.07 1293.91 2820.5 1295.27 2820.5 1296.97 2820.5 1298.27 2820.27 1299.76 2819.81 1301.43 2819.35 1303.11 2818.7 1304.88 2817.86 1306.74 2817.03 1308.61 2816.03 1310.52 2814.86 1312.48 2813.7 1314.43 2812.42 1316.34 2811.01 1318.19 2809.61 1320.04 2808.11 1321.78 2806.52 1323.42 2804.92 1325.05 2803.27 1326.48 2801.55 1327.69 2799.84 1328.91 2798.09 1329.88 2796.32 1330.59 2794.55 1331.31 2792.79 1331.67 2791.03 1331.67 2790.25 1331.67 2789.6 1331.47 2789.07 1331.08 2788.54 1330.69 2788.12 1330.13 2787.79 1329.42 2787.47 1328.7 2787.24 1327.86 2787.1 1326.88 2786.97 1325.91 2786.9 1324.84 2786.9 1323.68 2786.9 1322.14 2787 1320.49 2787.18 1318.74 2787.37 1316.98 2787.62 1315.21 2787.91 1313.43L2789.62 1302.2C2789.72 1301.55 2789.81 1300.94 2789.88 1300.36 2789.95 1299.78 2789.98 1299.35 2789.98 1299.08 2789.98 1298.24 2789.85 1297.56 2789.58 1297.01 2789.31 1296.47 2788.85 1296.2 2788.2 1296.2 2787.68 1296.2 2787.13 1296.36 2786.54 1296.67 2785.94 1296.98 2785.34 1297.38 2784.73 1297.87 2784.12 1298.35 2783.54 1298.87 2782.97 1299.43 2782.4 1299.98 2781.88 1300.5 2781.39 1300.99L2779.44 1298.72C2780.28 1297.85 2781.17 1296.99 2782.12 1296.14 2783.06 1295.29 2784.06 1294.52 2785.12 1293.83 2786.17 1293.14 2787.28 1292.59 2788.44 1292.17 2789.6 1291.75 2790.79 1291.54 2792.01 1291.54 2793.03 1291.54 2793.87 1291.71 2794.52 1292.05 2795.17 1292.39 2795.68 1292.83 2796.04 1293.39 2796.4 1293.94 2796.65 1294.55 2796.79 1295.21 2796.92 1295.87 2796.99 1296.53 2796.99 1297.18 2796.99 1297.56 2796.98 1297.92 2796.95 1298.27 2796.92 1298.62 2796.88 1298.95 2796.83 1299.24L2794.56 1313.91C2794.32 1315.45 2794.11 1316.96 2793.95 1318.43 2793.79 1319.91 2793.71 1321.21 2793.71 1322.34 2793.71 1323.48 2793.78 1324.4 2793.91 1325.1 2794.05 1325.8 2794.3 1326.15 2794.68 1326.15 2795.57 1326.15 2796.7 1325.8 2798.05 1325.08 2799.4 1324.36 2800.82 1323.38 2802.3 1322.12 2803.79 1320.87 2805.27 1319.38 2806.76 1317.66 2808.25 1315.95 2809.58 1314.09 2810.77 1312.09 2811.96 1310.09 2812.93 1307.98 2813.67 1305.77 2814.41 1303.55 2814.78 1301.32 2814.78 1299.08 2814.78 1298.11 2814.57 1297.36 2814.16 1296.83 2813.74 1296.31 2813.08 1296.04 2812.19 1296.04 2811.06 1296.04 2810.01 1296.48 2809.05 1297.36 2808.09 1298.24 2807.1 1299.39 2806.07 1300.82L2803.76 1298.76C2804.41 1297.78 2805.17 1296.85 2806.05 1295.96 2806.93 1295.07 2807.86 1294.29 2808.85 1293.61 2809.83 1292.94 2810.85 1292.39 2811.91 1291.99 2812.96 1291.58 2813.99 1291.38 2814.99 1291.38Z" fill-rule="evenodd"/><text fill="#000000" fill-opacity="0" font-family="Arial,Arial_MSFontService,sans-serif" font-size="40.2842" x="2779.44" y="1326.63">𝑣</text><path d="M2501.5 1256.5 2763.85 1256.5" stroke="#4472C4" stroke-width="6.875" stroke-miterlimit="8" fill="none" fill-rule="evenodd"/><path d="M0 0 0.000360892 174.15" stroke="#4472C4" stroke-width="6.875" stroke-miterlimit="8" fill="none" fill-rule="evenodd" transform="matrix(1 0 0 -1 2453.5 1236.65)"/><path d="M2405.02 1256.1 2259 1108" stroke="#4472C4" stroke-width="27.5" stroke-miterlimit="8" fill="none" fill-rule="evenodd"/><path d="M0 0 174.243 0.000360892" stroke="#4472C4" stroke-width="6.875" stroke-miterlimit="8" fill="none" fill-rule="evenodd" transform="matrix(-1 0 0 1 2385.74 1304.5)"/><path d="M0 0 131.698 148.104" stroke="#4472C4" stroke-width="6.875" stroke-miterlimit="8" fill="none" fill-rule="evenodd" transform="matrix(-1 0 0 1 2405.2 1353.5)"/><path d="M2453.5 1373.5 2453.5 1525.09" stroke="#4472C4" stroke-width="6.875" stroke-miterlimit="8" fill="none" fill-rule="evenodd"/><path d="M2501.5 1353.5 2763.85 1353.5" stroke="#C55A11" stroke-width="6.875" stroke-miterlimit="8" fill="none" fill-rule="evenodd"/><path d="M0 0 0.000360892 174.15" stroke="#C55A11" stroke-width="6.875" stroke-miterlimit="8" fill="none" fill-rule="evenodd" transform="matrix(1 0 0 -1 2812.5 1236.65)"/><path d="M0 0 0.000360892 174.15" stroke="#C55A11" stroke-width="6.875" stroke-miterlimit="8" fill="none" fill-rule="evenodd" transform="matrix(1 0 0 -1 2812.5 1547.65)"/><path d="M2986.59 1547.6 2860.5 1353.5" stroke="#C55A11" stroke-width="6.875" stroke-miterlimit="8" fill="none" fill-rule="evenodd"/><path d="M2880.5 1304.5 3041.8 1304.5" stroke="#C55A11" stroke-width="6.875" stroke-miterlimit="8" fill="none" fill-rule="evenodd"/><path d="M0 0 156.212 130.104" stroke="#C55A11" stroke-width="27.5" stroke-miterlimit="8" fill="none" fill-rule="evenodd" transform="matrix(-1 0 0 1 3016.21 1126)"/><path d="M3427.5 547.5C3427.5 509.945 3458.17 479.5 3496 479.5 3533.83 479.5 3564.5 509.945 3564.5 547.5 3564.5 585.055 3533.83 615.5 3496 615.5 3458.17 615.5 3427.5 585.055 3427.5 547.5Z" stroke="#000000" stroke-width="4.58333" stroke-miterlimit="8" fill="#9DC3E6" fill-rule="evenodd"/><path d="M3471.97 534.337C3473.7 534.337 3475.06 534.918 3476.06 536.079 3477.06 537.241 3477.56 538.808 3477.56 540.781 3477.56 542.915 3477.14 545.576 3476.3 548.764L3474.52 555.776C3474.06 557.559 3473.73 558.95 3473.53 559.95 3473.32 560.95 3473.18 561.814 3473.08 562.544 3472.99 563.273 3472.94 563.881 3472.94 564.367 3472.94 566.232 3473.25 567.576 3473.87 568.4 3474.49 569.224 3475.51 569.636 3476.91 569.636 3478.05 569.636 3479.27 569.183 3480.58 568.278 3481.89 567.373 3483.28 566.009 3484.75 564.185 3486.22 562.361 3487.41 560.592 3488.3 558.876 3489.19 557.16 3489.92 555.046 3490.49 552.533L3494.34 534.985 3501.35 534.985 3495.43 560.679C3494.84 563.273 3494.54 565.273 3494.54 566.677 3494.54 567.758 3494.72 568.542 3495.07 569.028 3495.42 569.514 3495.97 569.758 3496.73 569.758 3497.54 569.758 3498.4 569.427 3499.32 568.765 3500.24 568.103 3501.54 566.84 3503.21 564.975L3505.52 567.245C3503.06 569.866 3500.97 571.716 3499.24 572.797 3497.51 573.878 3495.67 574.418 3493.73 574.418 3492.05 574.418 3490.72 573.864 3489.72 572.757 3488.72 571.649 3488.22 570.176 3488.22 568.339 3488.22 566.88 3488.54 565.286 3489.19 563.557L3488.7 563.395C3486.03 567.15 3483.5 569.92 3481.1 571.703 3478.71 573.486 3476.26 574.378 3473.75 574.378 3471.24 574.378 3469.3 573.655 3467.95 572.209 3466.6 570.764 3465.93 568.758 3465.93 566.191 3465.93 564.489 3466.32 562.071 3467.1 558.937L3469.74 548.319C3470.47 545.374 3470.83 543.293 3470.83 542.077 3470.83 540.997 3470.66 540.213 3470.3 539.727 3469.95 539.24 3469.4 538.997 3468.64 538.997 3467.81 538.997 3466.92 539.342 3465.99 540.031 3465.06 540.72 3463.78 541.969 3462.16 543.78L3459.85 541.51C3462.15 539.186 3463.87 537.592 3465.04 536.728 3466.2 535.863 3467.31 535.249 3468.38 534.884 3469.45 534.519 3470.64 534.337 3471.97 534.337Z" fill-rule="evenodd"/><text fill="#000000" fill-opacity="0" font-family="Arial,Arial_MSFontService,sans-serif" font-size="40.0815" x="3459.85" y="569.408">𝑢</text><path d="M3786.5 547.5C3786.5 509.945 3816.94 479.5 3854.5 479.5 3892.06 479.5 3922.5 509.945 3922.5 547.5 3922.5 585.055 3892.06 615.5 3854.5 615.5 3816.94 615.5 3786.5 585.055 3786.5 547.5Z" stroke="#000000" stroke-width="4.58333" stroke-miterlimit="8" fill="#F4B183" fill-rule="evenodd"/><path d="M3857.22 534.175C3859.17 534.175 3860.57 534.681 3861.44 535.694 3862.3 536.708 3862.74 538.065 3862.74 539.767 3862.74 541.064 3862.51 542.55 3862.05 544.225 3861.59 545.9 3860.94 547.67 3860.1 549.534 3859.26 551.399 3858.26 553.31 3857.1 555.269 3855.94 557.228 3854.66 559.133 3853.25 560.983 3851.85 562.834 3850.35 564.577 3848.75 566.211 3847.16 567.846 3845.51 569.271 3843.79 570.487 3842.07 571.703 3840.33 572.669 3838.56 573.385 3836.79 574.101 3835.03 574.459 3833.27 574.459 3832.49 574.459 3831.83 574.263 3831.31 573.871 3830.78 573.479 3830.35 572.925 3830.03 572.209 3829.71 571.493 3829.48 570.649 3829.34 569.677 3829.21 568.704 3829.14 567.637 3829.14 566.475 3829.14 564.935 3829.23 563.287 3829.42 561.531 3829.61 559.774 3829.85 558.005 3830.15 556.221L3831.85 544.995C3831.96 544.347 3832.05 543.732 3832.12 543.151 3832.19 542.57 3832.22 542.145 3832.22 541.875 3832.22 541.037 3832.08 540.348 3831.81 539.808 3831.54 539.268 3831.08 538.997 3830.44 538.997 3829.92 538.997 3829.37 539.153 3828.77 539.463 3828.18 539.774 3827.58 540.173 3826.97 540.659 3826.36 541.145 3825.78 541.665 3825.21 542.219 3824.64 542.773 3824.11 543.293 3823.63 543.78L3821.68 541.51C3822.52 540.645 3823.41 539.788 3824.36 538.937 3825.3 538.085 3826.3 537.315 3827.36 536.626 3828.41 535.938 3829.52 535.384 3830.68 534.965 3831.84 534.546 3833.03 534.337 3834.25 534.337 3835.27 534.337 3836.11 534.506 3836.76 534.843 3837.41 535.181 3837.91 535.627 3838.28 536.181 3838.64 536.735 3838.89 537.342 3839.03 538.004 3839.16 538.666 3839.23 539.322 3839.23 539.97 3839.23 540.348 3839.22 540.713 3839.19 541.064 3839.16 541.415 3839.12 541.74 3839.07 542.037L3836.8 556.708C3836.56 558.248 3836.35 559.754 3836.19 561.227 3836.03 562.699 3835.95 564.003 3835.95 565.137 3835.95 566.272 3836.02 567.191 3836.15 567.893 3836.29 568.596 3836.54 568.947 3836.92 568.947 3837.81 568.947 3838.93 568.589 3840.28 567.873 3841.63 567.157 3843.05 566.171 3844.54 564.915 3846.03 563.658 3847.51 562.172 3849 560.457 3850.48 558.741 3851.82 556.883 3853.01 554.884 3854.2 552.885 3855.16 550.777 3855.91 548.562 3856.65 546.346 3857.02 544.117 3857.02 541.875 3857.02 540.902 3856.81 540.152 3856.39 539.625 3855.97 539.099 3855.32 538.835 3854.43 538.835 3853.29 538.835 3852.25 539.274 3851.29 540.152 3850.33 541.03 3849.33 542.185 3848.31 543.617L3846 541.551C3846.65 540.578 3847.41 539.646 3848.29 538.754 3849.17 537.863 3850.1 537.079 3851.08 536.404 3852.07 535.728 3853.09 535.188 3854.14 534.782 3855.2 534.377 3856.22 534.175 3857.22 534.175Z" fill-rule="evenodd"/><text fill="#000000" fill-opacity="0" font-family="Arial,Arial_MSFontService,sans-serif" font-size="40.2842" x="3821.68" y="569.423">𝑣</text><path d="M3544.5 499.5 3806.85 499.5" stroke="#4472C4" stroke-width="6.875" stroke-miterlimit="8" fill="none" fill-rule="evenodd"/><path d="M0 0 0.000360892 174.15" stroke="#4472C4" stroke-width="6.875" stroke-miterlimit="8" fill="none" fill-rule="evenodd" transform="matrix(1 0 0 -1 3495.5 479.65)"/><path d="M3447.02 499.104 3301 351" stroke="#4472C4" stroke-width="27.5" stroke-miterlimit="8" fill="none" fill-rule="evenodd"/><path d="M0 0 174.243 0.000360892" stroke="#4472C4" stroke-width="6.875" stroke-miterlimit="8" fill="none" fill-rule="evenodd" transform="matrix(-1 0 0 1 3427.74 547.5)"/><path d="M0 0 131.698 148.104" stroke="#4472C4" stroke-width="6.875" stroke-miterlimit="8" fill="none" fill-rule="evenodd" transform="matrix(-1 0 0 1 3448.2 595.5)"/><path d="M3495.5 615.5 3495.5 767.093" stroke="#4472C4" stroke-width="6.875" stroke-miterlimit="8" fill="none" fill-rule="evenodd"/><path d="M3544.5 595.5 3806.85 595.5" stroke="#C55A11" stroke-width="6.875" stroke-miterlimit="8" fill="none" fill-rule="evenodd"/><path d="M0 0 0.000360892 174.15" stroke="#C55A11" stroke-width="6.875" stroke-miterlimit="8" fill="none" fill-rule="evenodd" transform="matrix(1 0 0 -1 3854.5 479.65)"/><path d="M0 0 0.000360892 174.15" stroke="#C55A11" stroke-width="6.875" stroke-miterlimit="8" fill="none" fill-rule="evenodd" transform="matrix(1 0 0 -1 3854.5 789.65)"/><path d="M4028.59 789.604 3902.5 595.5" stroke="#C55A11" stroke-width="6.875" stroke-miterlimit="8" fill="none" fill-rule="evenodd"/><path d="M3922.5 547.5 4083.8 547.5" stroke="#C55A11" stroke-width="6.875" stroke-miterlimit="8" fill="none" fill-rule="evenodd"/><path d="M0 0 156.212 130.104" stroke="#C55A11" stroke-width="6.875" stroke-miterlimit="8" fill="none" fill-rule="evenodd" transform="matrix(-1 0 0 1 4058.71 369.5)"/><path d="M3427.5 1309C3427.5 1271.17 3458.17 1240.5 3496 1240.5 3533.83 1240.5 3564.5 1271.17 3564.5 1309 3564.5 1346.83 3533.83 1377.5 3496 1377.5 3458.17 1377.5 3427.5 1346.83 3427.5 1309Z" stroke="#000000" stroke-width="4.58333" stroke-miterlimit="8" fill="#9DC3E6" fill-rule="evenodd"/><path d="M3472.09 1295.55C3473.82 1295.55 3475.19 1296.13 3476.19 1297.29 3477.19 1298.46 3477.69 1300.02 3477.69 1302 3477.69 1304.13 3477.27 1306.79 3476.43 1309.98L3474.65 1316.99C3474.19 1318.77 3473.86 1320.17 3473.65 1321.17 3473.45 1322.16 3473.3 1323.03 3473.21 1323.76 3473.11 1324.49 3473.07 1325.1 3473.07 1325.58 3473.07 1327.45 3473.38 1328.79 3474 1329.61 3474.62 1330.44 3475.63 1330.85 3477.04 1330.85 3478.17 1330.85 3479.4 1330.4 3480.71 1329.49 3482.02 1328.59 3483.41 1327.22 3484.88 1325.4 3486.35 1323.58 3487.54 1321.81 3488.43 1320.09 3489.32 1318.38 3490.05 1316.26 3490.62 1313.75L3494.47 1296.2 3501.48 1296.2 3495.56 1321.89C3494.97 1324.49 3494.67 1326.49 3494.67 1327.89 3494.67 1328.97 3494.84 1329.76 3495.2 1330.24 3495.55 1330.73 3496.1 1330.97 3496.86 1330.97 3497.67 1330.97 3498.53 1330.64 3499.45 1329.98 3500.37 1329.32 3501.67 1328.05 3503.34 1326.19L3505.65 1328.46C3503.19 1331.08 3501.1 1332.93 3499.37 1334.01 3497.64 1335.09 3495.8 1335.63 3493.86 1335.63 3492.18 1335.63 3490.85 1335.08 3489.85 1333.97 3488.85 1332.86 3488.35 1331.39 3488.35 1329.55 3488.35 1328.1 3488.67 1326.5 3489.32 1324.77L3488.83 1324.61C3486.16 1328.37 3483.62 1331.13 3481.23 1332.92 3478.84 1334.7 3476.39 1335.59 3473.88 1335.59 3471.36 1335.59 3469.43 1334.87 3468.08 1333.42 3466.73 1331.98 3466.06 1329.97 3466.06 1327.41 3466.06 1325.7 3466.45 1323.29 3467.23 1320.15L3469.87 1309.53C3470.59 1306.59 3470.96 1304.51 3470.96 1303.29 3470.96 1302.21 3470.78 1301.43 3470.43 1300.94 3470.08 1300.46 3469.53 1300.21 3468.77 1300.21 3467.93 1300.21 3467.05 1300.56 3466.12 1301.25 3465.18 1301.93 3463.91 1303.18 3462.29 1304.99L3459.98 1302.73C3462.27 1300.4 3464 1298.81 3465.16 1297.94 3466.33 1297.08 3467.44 1296.46 3468.51 1296.1 3469.57 1295.73 3470.77 1295.55 3472.09 1295.55Z" fill-rule="evenodd"/><text fill="#000000" fill-opacity="0" font-family="Arial,Arial_MSFontService,sans-serif" font-size="40.0815" x="3459.98" y="1330.62">𝑢</text><path d="M3786.5 1309C3786.5 1271.17 3816.94 1240.5 3854.5 1240.5 3892.06 1240.5 3922.5 1271.17 3922.5 1309 3922.5 1346.83 3892.06 1377.5 3854.5 1377.5 3816.94 1377.5 3786.5 1346.83 3786.5 1309Z" stroke="#000000" stroke-width="4.58333" stroke-miterlimit="8" fill="#F4B183" fill-rule="evenodd"/><path d="M3857.35 1295.39C3859.3 1295.39 3860.7 1295.9 3861.57 1296.91 3862.43 1297.92 3862.86 1299.28 3862.86 1300.98 3862.86 1302.28 3862.63 1303.77 3862.18 1305.44 3861.72 1307.12 3861.07 1308.89 3860.23 1310.75 3859.39 1312.61 3858.39 1314.53 3857.23 1316.48 3856.07 1318.44 3854.79 1320.35 3853.38 1322.2 3851.98 1324.05 3850.48 1325.79 3848.88 1327.43 3847.29 1329.06 3845.63 1330.49 3843.92 1331.7 3842.2 1332.92 3840.46 1333.88 3838.69 1334.6 3836.92 1335.32 3835.16 1335.67 3833.4 1335.67 3832.62 1335.67 3831.96 1335.48 3831.44 1335.09 3830.91 1334.69 3830.48 1334.14 3830.16 1333.42 3829.83 1332.71 3829.6 1331.86 3829.47 1330.89 3829.33 1329.92 3829.27 1328.85 3829.27 1327.69 3829.27 1326.15 3829.36 1324.5 3829.55 1322.75 3829.74 1320.99 3829.98 1319.22 3830.28 1317.44L3831.98 1306.21C3832.09 1305.56 3832.18 1304.95 3832.25 1304.37 3832.31 1303.79 3832.35 1303.36 3832.35 1303.09 3832.35 1302.25 3832.21 1301.56 3831.94 1301.02 3831.67 1300.48 3831.21 1300.21 3830.56 1300.21 3830.05 1300.21 3829.5 1300.37 3828.9 1300.68 3828.31 1300.99 3827.71 1301.39 3827.1 1301.87 3826.49 1302.36 3825.9 1302.88 3825.34 1303.43 3824.77 1303.99 3824.24 1304.51 3823.76 1304.99L3821.81 1302.73C3822.65 1301.86 3823.54 1301 3824.49 1300.15 3825.43 1299.3 3826.43 1298.53 3827.48 1297.84 3828.54 1297.15 3829.65 1296.6 3830.81 1296.18 3831.97 1295.76 3833.16 1295.55 3834.37 1295.55 3835.4 1295.55 3836.24 1295.72 3836.89 1296.06 3837.53 1296.4 3838.04 1296.84 3838.41 1297.4 3838.77 1297.95 3839.02 1298.56 3839.16 1299.22 3839.29 1299.88 3839.36 1300.54 3839.36 1301.19 3839.36 1301.56 3839.35 1301.93 3839.32 1302.28 3839.29 1302.63 3839.25 1302.95 3839.2 1303.25L3836.93 1317.92C3836.68 1319.46 3836.48 1320.97 3836.32 1322.44 3836.16 1323.91 3836.08 1325.22 3836.08 1326.35 3836.08 1327.49 3836.14 1328.41 3836.28 1329.11 3836.41 1329.81 3836.67 1330.16 3837.05 1330.16 3837.94 1330.16 3839.06 1329.8 3840.41 1329.09 3841.76 1328.37 3843.18 1327.39 3844.67 1326.13 3846.15 1324.87 3847.64 1323.39 3849.13 1321.67 3850.61 1319.96 3851.95 1318.1 3853.14 1316.1 3854.33 1314.1 3855.29 1311.99 3856.04 1309.78 3856.78 1307.56 3857.15 1305.33 3857.15 1303.09 3857.15 1302.12 3856.94 1301.37 3856.52 1300.84 3856.1 1300.31 3855.45 1300.05 3854.56 1300.05 3853.42 1300.05 3852.37 1300.49 3851.42 1301.37 3850.46 1302.25 3849.46 1303.4 3848.44 1304.83L3846.13 1302.77C3846.78 1301.79 3847.54 1300.86 3848.42 1299.97 3849.29 1299.08 3850.23 1298.29 3851.21 1297.62 3852.2 1296.94 3853.22 1296.4 3854.27 1296 3855.33 1295.59 3856.35 1295.39 3857.35 1295.39Z" fill-rule="evenodd"/><text fill="#000000" fill-opacity="0" font-family="Arial,Arial_MSFontService,sans-serif" font-size="40.2842" x="3821.81" y="1330.64">𝑣</text><path d="M3544.5 1260.5 3806.85 1260.5" stroke="#4472C4" stroke-width="6.875" stroke-miterlimit="8" fill="none" fill-rule="evenodd"/><path d="M0 0 0.000360892 174.15" stroke="#4472C4" stroke-width="6.875" stroke-miterlimit="8" fill="none" fill-rule="evenodd" transform="matrix(1 0 0 -1 3496.5 1240.65)"/><path d="M3447.52 1260.6 3301.5 1112.5" stroke="#4472C4" stroke-width="6.875" stroke-miterlimit="8" fill="none" fill-rule="evenodd"/><path d="M0 0 174.243 0.000360892" stroke="#4472C4" stroke-width="6.875" stroke-miterlimit="8" fill="none" fill-rule="evenodd" transform="matrix(-1 0 0 1 3427.74 1308.5)"/><path d="M0 0 131.698 148.104" stroke="#4472C4" stroke-width="6.875" stroke-miterlimit="8" fill="none" fill-rule="evenodd" transform="matrix(-1 0 0 1 3448.2 1357.5)"/><path d="M3496.5 1377.5 3496.5 1529.09" stroke="#4472C4" stroke-width="6.875" stroke-miterlimit="8" fill="none" fill-rule="evenodd"/><path d="M3544.5 1357.5 3806.85 1357.5" stroke="#C55A11" stroke-width="6.875" stroke-miterlimit="8" fill="none" fill-rule="evenodd"/><path d="M0 0 0.000360892 174.15" stroke="#C55A11" stroke-width="6.875" stroke-miterlimit="8" fill="none" fill-rule="evenodd" transform="matrix(1 0 0 -1 3854.5 1240.65)"/><path d="M0 0 0.000360892 174.15" stroke="#C55A11" stroke-width="6.875" stroke-miterlimit="8" fill="none" fill-rule="evenodd" transform="matrix(1 0 0 -1 3854.5 1551.65)"/><path d="M4028.59 1551.6 3902.5 1357.5" stroke="#C55A11" stroke-width="6.875" stroke-miterlimit="8" fill="none" fill-rule="evenodd"/><path d="M3922.5 1308.5 4083.8 1308.5" stroke="#C55A11" stroke-width="6.875" stroke-miterlimit="8" fill="none" fill-rule="evenodd"/><path d="M0 0 156.212 130.104" stroke="#C55A11" stroke-width="27.5" stroke-miterlimit="8" fill="none" fill-rule="evenodd" transform="matrix(-1 0 0 1 4058.21 1130)"/><path d="M2393.5 547.5C2393.5 509.945 2423.94 479.5 2461.5 479.5 2499.06 479.5 2529.5 509.945 2529.5 547.5 2529.5 585.055 2499.06 615.5 2461.5 615.5 2423.94 615.5 2393.5 585.055 2393.5 547.5Z" stroke="#000000" stroke-width="4.58333" stroke-miterlimit="8" fill="#9DC3E6" fill-rule="evenodd"/><path d="M2437.44 534.337C2439.17 534.337 2440.54 534.918 2441.54 536.079 2442.54 537.241 2443.04 538.808 2443.04 540.781 2443.04 542.915 2442.62 545.576 2441.78 548.764L2440 555.776C2439.54 557.559 2439.21 558.95 2439 559.95 2438.8 560.95 2438.65 561.814 2438.56 562.544 2438.46 563.273 2438.42 563.881 2438.42 564.367 2438.42 566.232 2438.73 567.576 2439.35 568.4 2439.97 569.224 2440.98 569.636 2442.39 569.636 2443.52 569.636 2444.75 569.183 2446.06 568.278 2447.37 567.373 2448.76 566.009 2450.23 564.185 2451.7 562.361 2452.89 560.592 2453.78 558.876 2454.67 557.16 2455.4 555.046 2455.97 552.533L2459.82 534.985 2466.83 534.985 2460.91 560.679C2460.31 563.273 2460.02 565.273 2460.02 566.677 2460.02 567.758 2460.19 568.542 2460.54 569.028 2460.9 569.514 2461.45 569.758 2462.21 569.758 2463.02 569.758 2463.88 569.427 2464.8 568.765 2465.72 568.103 2467.02 566.84 2468.69 564.975L2471 567.245C2468.54 569.866 2466.45 571.716 2464.72 572.797 2462.99 573.878 2461.15 574.418 2459.21 574.418 2457.53 574.418 2456.19 573.864 2455.2 572.757 2454.2 571.649 2453.7 570.176 2453.7 568.339 2453.7 566.88 2454.02 565.286 2454.67 563.557L2454.18 563.395C2451.51 567.15 2448.97 569.92 2446.58 571.703 2444.19 573.486 2441.74 574.378 2439.23 574.378 2436.71 574.378 2434.78 573.655 2433.43 572.209 2432.08 570.764 2431.41 568.758 2431.41 566.191 2431.41 564.489 2431.8 562.071 2432.58 558.937L2435.22 548.319C2435.94 545.374 2436.31 543.293 2436.31 542.077 2436.31 540.997 2436.13 540.213 2435.78 539.727 2435.43 539.24 2434.88 538.997 2434.12 538.997 2433.28 538.997 2432.4 539.342 2431.47 540.031 2430.53 540.72 2429.26 541.969 2427.64 543.78L2425.33 541.51C2427.62 539.186 2429.35 537.592 2430.51 536.728 2431.68 535.863 2432.79 535.249 2433.86 534.884 2434.92 534.519 2436.12 534.337 2437.44 534.337Z" fill-rule="evenodd"/><text fill="#000000" fill-opacity="0" font-family="Arial,Arial_MSFontService,sans-serif" font-size="40.0815" x="2425.33" y="569.408">𝑢</text><path d="M2751.5 547.5C2751.5 509.945 2782.17 479.5 2820 479.5 2857.83 479.5 2888.5 509.945 2888.5 547.5 2888.5 585.055 2857.83 615.5 2820 615.5 2782.17 615.5 2751.5 585.055 2751.5 547.5Z" stroke="#000000" stroke-width="4.58333" stroke-miterlimit="8" fill="#F4B183" fill-rule="evenodd"/><path d="M2822.7 534.175C2824.65 534.175 2826.05 534.681 2826.92 535.694 2827.78 536.708 2828.21 538.065 2828.21 539.767 2828.21 541.064 2827.98 542.55 2827.53 544.225 2827.07 545.9 2826.42 547.67 2825.58 549.534 2824.74 551.399 2823.74 553.31 2822.58 555.269 2821.42 557.228 2820.14 559.133 2818.73 560.983 2817.33 562.834 2815.83 564.577 2814.23 566.211 2812.64 567.846 2810.98 569.271 2809.27 570.487 2807.55 571.703 2805.81 572.669 2804.04 573.385 2802.27 574.101 2800.51 574.459 2798.75 574.459 2797.97 574.459 2797.31 574.263 2796.79 573.871 2796.26 573.479 2795.83 572.925 2795.51 572.209 2795.18 571.493 2794.95 570.649 2794.82 569.677 2794.68 568.704 2794.62 567.637 2794.62 566.475 2794.62 564.935 2794.71 563.287 2794.9 561.531 2795.09 559.774 2795.33 558.005 2795.63 556.221L2797.33 544.995C2797.44 544.347 2797.53 543.732 2797.6 543.151 2797.66 542.57 2797.7 542.145 2797.7 541.875 2797.7 541.037 2797.56 540.348 2797.29 539.808 2797.02 539.268 2796.56 538.997 2795.91 538.997 2795.4 538.997 2794.85 539.153 2794.25 539.463 2793.66 539.774 2793.06 540.173 2792.45 540.659 2791.84 541.145 2791.25 541.665 2790.69 542.219 2790.12 542.773 2789.59 543.293 2789.11 543.78L2787.16 541.51C2788 540.645 2788.89 539.788 2789.83 538.937 2790.78 538.085 2791.78 537.315 2792.83 536.626 2793.89 535.938 2795 535.384 2796.16 534.965 2797.32 534.546 2798.51 534.337 2799.72 534.337 2800.75 534.337 2801.59 534.506 2802.24 534.843 2802.88 535.181 2803.39 535.627 2803.76 536.181 2804.12 536.735 2804.37 537.342 2804.51 538.004 2804.64 538.666 2804.71 539.322 2804.71 539.97 2804.71 540.348 2804.7 540.713 2804.67 541.064 2804.64 541.415 2804.6 541.74 2804.55 542.037L2802.28 556.708C2802.03 558.248 2801.83 559.754 2801.67 561.227 2801.51 562.699 2801.43 564.003 2801.43 565.137 2801.43 566.272 2801.49 567.191 2801.63 567.893 2801.76 568.596 2802.02 568.947 2802.4 568.947 2803.29 568.947 2804.41 568.589 2805.76 567.873 2807.11 567.157 2808.53 566.171 2810.02 564.915 2811.5 563.658 2812.99 562.172 2814.48 560.457 2815.96 558.741 2817.3 556.883 2818.49 554.884 2819.68 552.885 2820.64 550.777 2821.39 548.562 2822.13 546.346 2822.5 544.117 2822.5 541.875 2822.5 540.902 2822.29 540.152 2821.87 539.625 2821.45 539.099 2820.8 538.835 2819.91 538.835 2818.77 538.835 2817.72 539.274 2816.77 540.152 2815.81 541.03 2814.81 542.185 2813.79 543.617L2811.48 541.551C2812.12 540.578 2812.89 539.646 2813.77 538.754 2814.64 537.863 2815.58 537.079 2816.56 536.404 2817.55 535.728 2818.57 535.188 2819.62 534.782 2820.68 534.377 2821.7 534.175 2822.7 534.175Z" fill-rule="evenodd"/><text fill="#000000" fill-opacity="0" font-family="Arial,Arial_MSFontService,sans-serif" font-size="40.2842" x="2787.16" y="569.423">𝑣</text><path d="M2509 499 2771.35 499" stroke="#4472C4" stroke-width="27.5" stroke-miterlimit="8" fill="none" fill-rule="evenodd"/><path d="M0 0 0.000360892 174.15" stroke="#4472C4" stroke-width="6.875" stroke-miterlimit="8" fill="none" fill-rule="evenodd" transform="matrix(1 0 0 -1 2461.5 479.65)"/><path d="M2413.52 499.604 2267.5 351.5" stroke="#4472C4" stroke-width="6.875" stroke-miterlimit="8" fill="none" fill-rule="evenodd"/><path d="M0 0 174.243 0.000360892" stroke="#4472C4" stroke-width="6.875" stroke-miterlimit="8" fill="none" fill-rule="evenodd" transform="matrix(-1 0 0 1 2393.74 547.5)"/><path d="M0 0 131.698 148.104" stroke="#4472C4" stroke-width="6.875" stroke-miterlimit="8" fill="none" fill-rule="evenodd" transform="matrix(-1 0 0 1 2413.2 595.5)"/><path d="M2461.5 615.5 2461.5 767.093" stroke="#4472C4" stroke-width="6.875" stroke-miterlimit="8" fill="none" fill-rule="evenodd"/><path d="M2509 595 2771.35 595" stroke="#C55A11" stroke-width="27.5" stroke-miterlimit="8" fill="none" fill-rule="evenodd"/><path d="M0 0 0.000360892 174.15" stroke="#C55A11" stroke-width="6.875" stroke-miterlimit="8" fill="none" fill-rule="evenodd" transform="matrix(1 0 0 -1 2820.5 479.65)"/><path d="M0 0 0.000360892 174.15" stroke="#C55A11" stroke-width="6.875" stroke-miterlimit="8" fill="none" fill-rule="evenodd" transform="matrix(1 0 0 -1 2820.5 789.65)"/><path d="M2994.59 789.604 2868.5 595.5" stroke="#C55A11" stroke-width="6.875" stroke-miterlimit="8" fill="none" fill-rule="evenodd"/><path d="M2888.5 547.5 3049.8 547.5" stroke="#C55A11" stroke-width="6.875" stroke-miterlimit="8" fill="none" fill-rule="evenodd"/><path d="M0 0 156.212 130.104" stroke="#C55A11" stroke-width="6.875" stroke-miterlimit="8" fill="none" fill-rule="evenodd" transform="matrix(-1 0 0 1 3024.71 369.5)"/><path d="M3231.14 888.359C3234.19 888.359 3236.86 888.832 3239.16 889.778 3241.46 890.723 3243.21 892.081 3244.43 893.851 3245.65 895.62 3246.25 897.735 3246.25 900.193 3246.25 902.49 3245.79 904.509 3244.88 906.252 3243.96 907.995 3242.67 909.515 3241 910.811 3239.34 912.108 3237.19 913.378 3234.54 914.621L3234.54 914.986C3236.19 915.283 3237.78 915.79 3239.3 916.506 3240.83 917.222 3242.19 918.147 3243.38 919.282 3244.56 920.416 3245.52 921.774 3246.23 923.355 3246.95 924.935 3247.31 926.739 3247.31 928.765 3247.31 931.899 3246.62 934.682 3245.26 937.114 3243.9 939.545 3241.81 941.464 3239 942.869 3236.19 944.274 3232.77 944.976 3228.75 944.976 3226.42 944.976 3223.92 944.713 3221.23 944.186 3218.54 943.659 3216.07 942.963 3213.83 942.099L3213.83 933.507 3218.69 933.507C3219.64 936.317 3220.89 938.357 3222.44 939.626 3224 940.896 3226.11 941.531 3228.79 941.531 3232.3 941.531 3234.95 940.572 3236.75 938.654 3238.55 936.735 3239.44 933.899 3239.44 930.143 3239.44 926.198 3238.26 923.186 3235.88 921.105 3233.5 919.025 3230.02 917.985 3225.42 917.985L3221.77 917.985 3221.77 914.418C3225.42 914.202 3228.5 913.5 3230.99 912.311 3233.49 911.122 3235.35 909.596 3236.57 907.731 3237.78 905.867 3238.39 903.773 3238.39 901.45 3238.39 898.451 3237.59 896.141 3236 894.519 3234.41 892.898 3232.08 892.088 3229.03 892.088 3226.49 892.088 3224.42 892.777 3222.83 894.155 3221.23 895.533 3220.06 897.64 3219.3 900.477L3214.44 900.477 3214.44 892.777C3217.57 891.291 3220.5 890.183 3223.23 889.454 3225.96 888.724 3228.6 888.359 3231.14 888.359Z" fill-rule="evenodd"/><text fill="#000000" fill-opacity="0" font-family="Arial,Arial_MSFontService,sans-serif" font-size="56.6167" x="3213.83" y="937.899">3</text><path d="M3258.25 934.925 3266.43 934.925 3266.43 944.328 3258.25 944.328Z" fill-rule="evenodd"/><text fill="#000000" fill-opacity="0" font-family="Arial,Arial_MSFontService,sans-serif" font-size="9.40234" x="3258.25" y="943.152">.</text><path d="M3294.78 886.333 3301.02 886.333 3301.02 961.754 3294.78 961.754Z" fill-rule="evenodd"/><text fill="#000000" fill-opacity="0" font-family="Arial,Arial_MSFontService,sans-serif" font-size="75.4214" x="3294.78" y="952.327">|</text><path d="M3323.97 889.008 3336.9 889.008 3347.59 920.579C3349.14 925.118 3350.32 928.954 3351.16 932.088L3351.61 932.088C3351.82 930.44 3352.32 927.698 3353.09 923.861 3353.86 920.025 3354.57 916.674 3355.21 913.81L3358.05 901.044C3358.65 898.37 3358.94 896.195 3358.94 894.519 3358.94 893.25 3358.63 892.365 3357.99 891.865 3357.36 891.365 3356.35 891.075 3354.97 890.994L3355.42 889.008 3369.6 889.008 3369.16 890.994C3368.13 891.21 3367.39 891.453 3366.95 891.723 3366.5 891.993 3366.1 892.399 3365.75 892.939 3365.4 893.479 3365.04 894.324 3364.66 895.472 3364.28 896.62 3363.81 898.491 3363.24 901.085L3353.71 944.328 3348.2 944.328 3336.37 909.555C3334.94 905.394 3333.68 901.247 3332.6 897.113L3332.07 897.113C3331.91 898.491 3331.47 901.119 3330.74 904.996 3330.01 908.873 3329.24 912.662 3328.43 916.364L3324.86 932.534C3324.29 935.101 3324.01 937.208 3324.01 938.856 3324.01 940.072 3324.31 940.93 3324.92 941.43 3325.53 941.93 3326.55 942.234 3327.98 942.342L3327.53 944.328 3313.35 944.328 3313.8 942.342C3314.82 942.18 3315.59 941.916 3316.11 941.551 3316.62 941.187 3317.05 940.68 3317.4 940.032 3317.75 939.383 3318.08 938.593 3318.37 937.661 3318.67 936.729 3319.12 934.925 3319.71 932.25L3326.6 901.044C3326.87 899.883 3327.09 898.775 3327.25 897.721 3327.41 896.667 3327.49 895.6 3327.49 894.519 3327.49 893.25 3327.18 892.365 3326.54 891.865 3325.91 891.365 3324.9 891.075 3323.52 890.994Z" fill-rule="evenodd"/><text fill="#000000" fill-opacity="0" font-family="Arial,Arial_MSFontService,sans-serif" font-size="55.3198" x="3313.35" y="937.413">𝑁</text><path d="M3459.8 882.214C3467.69 884.294 3473.75 888.786 3477.98 895.689 3482.21 902.592 3484.32 910.92 3484.32 920.674 3484.32 930.455 3482.21 938.783 3478 945.659 3473.78 952.535 3467.72 957.013 3459.8 959.094L3458.83 955.973C3465.07 953.893 3469.71 949.786 3472.75 943.653 3475.79 937.52 3477.31 929.725 3477.31 920.269 3477.31 911.137 3475.8 903.551 3472.77 897.513 3469.75 891.474 3465.06 887.415 3458.71 885.334ZM3405.11 882.214 3406.2 885.334C3399.88 887.415 3395.2 891.474 3392.16 897.513 3389.12 903.551 3387.6 911.137 3387.6 920.269 3387.6 929.725 3389.12 937.52 3392.16 943.653 3395.2 949.786 3399.84 953.893 3406.08 955.973L3405.11 959.094C3397.19 957.013 3391.13 952.535 3386.91 945.659 3382.7 938.783 3380.59 930.455 3380.59 920.674 3380.59 910.92 3382.7 902.592 3386.93 895.689 3391.16 888.786 3397.22 884.294 3405.11 882.214Z" fill-rule="evenodd"/><path d="M3420.62 904.894C3422.35 904.894 3423.71 905.475 3424.71 906.637 3425.71 907.799 3426.21 909.366 3426.21 911.338 3426.21 913.473 3425.8 916.134 3424.96 919.322L3423.17 926.333C3422.72 928.117 3422.38 929.508 3422.18 930.508 3421.98 931.507 3421.83 932.372 3421.74 933.102 3421.64 933.831 3421.59 934.439 3421.59 934.925 3421.59 936.789 3421.9 938.134 3422.53 938.958 3423.15 939.782 3424.16 940.194 3425.57 940.194 3426.7 940.194 3427.92 939.741 3429.23 938.836 3430.54 937.931 3431.94 936.567 3433.41 934.743 3434.88 932.919 3436.06 931.149 3436.95 929.434 3437.85 927.718 3438.57 925.604 3439.14 923.091L3442.99 905.543 3450 905.543 3444.09 931.237C3443.49 933.831 3443.19 935.83 3443.19 937.235 3443.19 938.316 3443.37 939.1 3443.72 939.586 3444.07 940.072 3444.63 940.315 3445.38 940.315 3446.19 940.315 3447.06 939.984 3447.98 939.322 3448.9 938.661 3450.19 937.397 3451.87 935.533L3454.18 937.803C3451.72 940.423 3449.63 942.274 3447.9 943.355 3446.17 944.436 3444.33 944.976 3442.38 944.976 3440.71 944.976 3439.37 944.422 3438.37 943.314 3437.37 942.207 3436.87 940.734 3436.87 938.897 3436.87 937.438 3437.2 935.844 3437.85 934.115L3437.36 933.953C3434.68 937.708 3432.15 940.477 3429.76 942.261 3427.37 944.044 3424.92 944.935 3422.4 944.935 3419.89 944.935 3417.96 944.213 3416.61 942.767 3415.26 941.322 3414.58 939.316 3414.58 936.749 3414.58 935.047 3414.97 932.629 3415.76 929.495L3418.39 918.876C3419.12 915.931 3419.49 913.851 3419.49 912.635 3419.49 911.554 3419.31 910.771 3418.96 910.285 3418.61 909.798 3418.05 909.555 3417.3 909.555 3416.46 909.555 3415.58 909.9 3414.64 910.589 3413.71 911.278 3412.43 912.527 3410.81 914.337L3408.5 912.068C3410.8 909.744 3412.53 908.15 3413.69 907.286 3414.85 906.421 3415.97 905.806 3417.03 905.442 3418.1 905.077 3419.3 904.894 3420.62 904.894Z" fill-rule="evenodd"/><text fill="#000000" fill-opacity="0" font-family="Arial,Arial_MSFontService,sans-serif" font-size="40.0815" x="3408.5" y="939.966">𝑢</text><path d="M3501.42 886.333 3507.66 886.333 3507.66 961.754 3501.42 961.754Z" fill-rule="evenodd"/><text fill="#000000" fill-opacity="0" font-family="Arial,Arial_MSFontService,sans-serif" font-size="75.4214" x="3501.42" y="952.327">|</text><path d="M3564.22 894.56 3569.97 894.56 3569.97 917.904 3592.06 917.904 3592.06 923.294 3569.97 923.294 3569.97 946.638 3564.22 946.638 3564.22 923.294 3542.13 923.294 3542.13 917.904 3564.22 917.904Z" fill-rule="evenodd"/><text fill="#000000" fill-opacity="0" font-family="Arial,Arial_MSFontService,sans-serif" font-size="52.0776" x="3542.13" y="940.128">+</text><path d="M3626.31 886.333 3632.55 886.333 3632.55 961.754 3626.31 961.754Z" fill-rule="evenodd"/><text fill="#000000" fill-opacity="0" font-family="Arial,Arial_MSFontService,sans-serif" font-size="75.4214" x="3626.31" y="952.327">|</text><path d="M3655.5 889.008 3668.43 889.008 3679.13 920.579C3680.67 925.118 3681.86 928.954 3682.7 932.088L3683.14 932.088C3683.36 930.44 3683.85 927.698 3684.62 923.861 3685.39 920.025 3686.1 916.674 3686.75 913.81L3689.59 901.044C3690.18 898.37 3690.48 896.195 3690.48 894.519 3690.48 893.25 3690.16 892.365 3689.53 891.865 3688.89 891.365 3687.88 891.075 3686.51 890.994L3686.95 889.008 3701.14 889.008 3700.69 890.994C3699.66 891.21 3698.93 891.453 3698.48 891.723 3698.04 891.993 3697.64 892.399 3697.29 892.939 3696.94 893.479 3696.57 894.324 3696.19 895.472 3695.81 896.62 3695.34 898.491 3694.77 901.085L3685.25 944.328 3679.74 944.328 3667.9 909.555C3666.47 905.394 3665.22 901.247 3664.14 897.113L3663.61 897.113C3663.45 898.491 3663 901.119 3662.27 904.996 3661.54 908.873 3660.77 912.662 3659.96 916.364L3656.39 932.534C3655.83 935.101 3655.54 937.208 3655.54 938.856 3655.54 940.072 3655.85 940.93 3656.46 941.43 3657.06 941.93 3658.08 942.234 3659.52 942.342L3659.07 944.328 3644.88 944.328 3645.33 942.342C3646.36 942.18 3647.13 941.916 3647.64 941.551 3648.15 941.187 3648.59 940.68 3648.94 940.032 3649.29 939.383 3649.61 938.593 3649.91 937.661 3650.21 936.729 3650.65 934.925 3651.25 932.25L3658.14 901.044C3658.41 899.883 3658.62 898.775 3658.79 897.721 3658.95 896.667 3659.03 895.6 3659.03 894.519 3659.03 893.25 3658.71 892.365 3658.08 891.865 3657.44 891.365 3656.44 891.075 3655.06 890.994Z" fill-rule="evenodd"/><text fill="#000000" fill-opacity="0" font-family="Arial,Arial_MSFontService,sans-serif" font-size="55.3198" x="3644.88" y="937.413">𝑁</text><path d="M3788.79 882.214C3796.68 884.294 3802.74 888.786 3806.97 895.689 3811.2 902.592 3813.31 910.92 3813.31 920.674 3813.31 930.455 3811.21 938.783 3806.99 945.659 3802.78 952.535 3796.71 957.013 3788.79 959.094L3787.82 955.973C3794.06 953.893 3798.7 949.786 3801.74 943.653 3804.78 937.52 3806.3 929.725 3806.3 920.269 3806.3 911.137 3804.79 903.551 3801.76 897.513 3798.74 891.474 3794.05 887.415 3787.7 885.334ZM3736.64 882.214 3737.74 885.334C3731.41 887.415 3726.73 891.474 3723.69 897.513 3720.65 903.551 3719.13 911.137 3719.13 920.269 3719.13 929.725 3720.65 937.52 3723.69 943.653 3726.73 949.786 3731.37 953.893 3737.62 955.973L3736.64 959.094C3728.73 957.013 3722.66 952.535 3718.45 945.659 3714.23 938.783 3712.12 930.455 3712.12 920.674 3712.12 910.92 3714.24 902.592 3718.47 895.689 3722.69 888.786 3728.75 884.294 3736.64 882.214Z" fill-rule="evenodd"/><path d="M3777.45 904.732C3779.39 904.732 3780.8 905.239 3781.66 906.252 3782.52 907.265 3782.96 908.623 3782.96 910.325 3782.96 911.622 3782.73 913.108 3782.27 914.783 3781.81 916.458 3781.16 918.228 3780.32 920.092 3779.49 921.956 3778.49 923.868 3777.32 925.827 3776.16 927.786 3774.88 929.69 3773.47 931.541 3772.07 933.392 3770.57 935.135 3768.98 936.769 3767.38 938.404 3765.73 939.829 3764.01 941.045 3762.3 942.261 3760.55 943.227 3758.78 943.943 3757.01 944.659 3755.25 945.017 3753.49 945.017 3752.71 945.017 3752.06 944.821 3751.53 944.429 3751 944.037 3750.58 943.483 3750.25 942.767 3749.93 942.051 3749.7 941.207 3749.56 940.234 3749.43 939.262 3749.36 938.194 3749.36 937.033 3749.36 935.493 3749.45 933.844 3749.64 932.088 3749.83 930.332 3750.08 928.562 3750.37 926.779L3752.08 915.553C3752.18 914.905 3752.27 914.29 3752.34 913.709 3752.41 913.128 3752.44 912.703 3752.44 912.433 3752.44 911.595 3752.31 910.906 3752.03 910.366 3751.76 909.825 3751.31 909.555 3750.66 909.555 3750.14 909.555 3749.59 909.71 3749 910.021 3748.4 910.332 3747.8 910.73 3747.19 911.217 3746.58 911.703 3746 912.223 3745.43 912.777 3744.86 913.331 3744.33 913.851 3743.85 914.337L3741.9 912.068C3742.74 911.203 3743.63 910.345 3744.58 909.494 3745.52 908.643 3746.52 907.873 3747.58 907.184 3748.63 906.495 3749.74 905.941 3750.9 905.523 3752.06 905.104 3753.25 904.894 3754.47 904.894 3755.49 904.894 3756.33 905.063 3756.98 905.401 3757.63 905.739 3758.13 906.185 3758.5 906.738 3758.86 907.292 3759.11 907.9 3759.25 908.562 3759.38 909.224 3759.45 909.879 3759.45 910.528 3759.45 910.906 3759.44 911.271 3759.41 911.622 3759.38 911.973 3759.34 912.297 3759.29 912.595L3757.02 927.266C3756.78 928.806 3756.57 930.312 3756.41 931.784 3756.25 933.257 3756.17 934.56 3756.17 935.695 3756.17 936.83 3756.24 937.749 3756.37 938.451 3756.51 939.154 3756.76 939.505 3757.14 939.505 3758.03 939.505 3759.15 939.147 3760.51 938.431 3761.86 937.715 3763.27 936.729 3764.76 935.472 3766.25 934.216 3767.73 932.73 3769.22 931.014 3770.7 929.299 3772.04 927.441 3773.23 925.442 3774.42 923.443 3775.39 921.335 3776.13 919.12 3776.87 916.904 3777.24 914.675 3777.24 912.433 3777.24 911.46 3777.03 910.71 3776.61 910.183 3776.2 909.656 3775.54 909.393 3774.65 909.393 3773.51 909.393 3772.47 909.832 3771.51 910.71 3770.55 911.588 3769.56 912.743 3768.53 914.175L3766.22 912.108C3766.87 911.136 3767.63 910.204 3768.51 909.312 3769.39 908.42 3770.32 907.637 3771.31 906.961 3772.29 906.286 3773.31 905.746 3774.37 905.34 3775.42 904.935 3776.45 904.732 3777.45 904.732Z" fill-rule="evenodd"/><text fill="#000000" fill-opacity="0" font-family="Arial,Arial_MSFontService,sans-serif" font-size="40.2842" x="3741.9" y="939.981">𝑣</text><path d="M3830.41 886.333 3836.65 886.333 3836.65 961.754 3830.41 961.754Z" fill-rule="evenodd"/><text fill="#000000" fill-opacity="0" font-family="Arial,Arial_MSFontService,sans-serif" font-size="75.4214" x="3830.41" y="952.327">|</text><path d="M3875.71 926.333 3925.64 926.333 3925.64 931.724 3875.71 931.724ZM3875.71 909.515 3925.64 909.515 3925.64 914.905 3875.71 914.905Z" fill-rule="evenodd"/><text fill="#000000" fill-opacity="0" font-family="Arial,Arial_MSFontService,sans-serif" font-size="22.209" x="3875.71" y="928.947">=</text><path d="M3980.64 888.359 3982.87 888.359C3982.71 890.953 3982.63 894.547 3982.63 899.14L3982.63 933.75C3982.63 935.317 3982.71 936.499 3982.89 937.296 3983.07 938.093 3983.38 938.742 3983.82 939.241 3984.27 939.741 3984.91 940.133 3985.75 940.417 3986.58 940.7 3987.64 940.917 3988.91 941.065 3990.18 941.214 3991.85 941.315 3993.93 941.369L3993.93 944.328 3963.98 944.328 3963.98 941.369C3966.98 941.234 3969.12 941.052 3970.41 940.822 3971.69 940.592 3972.67 940.248 3973.35 939.789 3974.02 939.329 3974.51 938.681 3974.82 937.843 3975.14 937.006 3975.29 935.641 3975.29 933.75L3975.29 900.882C3975.29 899.802 3975.1 899.011 3974.72 898.511 3974.35 898.012 3973.79 897.762 3973.06 897.762 3972.2 897.762 3970.97 898.207 3969.37 899.099 3967.78 899.991 3965.81 901.22 3963.46 902.787L3961.67 899.666Z" fill-rule="evenodd"/><text fill="#000000" fill-opacity="0" font-family="Arial,Arial_MSFontService,sans-serif" font-size="55.9683" x="3961.67" y="937.332">1</text><path d="M4046.75 894.56 4052.51 894.56 4052.51 917.904 4074.59 917.904 4074.59 923.294 4052.51 923.294 4052.51 946.638 4046.75 946.638 4046.75 923.294 4024.67 923.294 4024.67 917.904 4046.75 917.904Z" fill-rule="evenodd"/><text fill="#000000" fill-opacity="0" font-family="Arial,Arial_MSFontService,sans-serif" font-size="52.0776" x="4024.67" y="940.128">+</text><path d="M4121.81 891.804C4119.95 891.804 4118.39 892.358 4117.13 893.466 4115.88 894.573 4114.86 896.168 4114.09 898.248 4113.32 900.328 4112.78 902.861 4112.45 905.847 4112.13 908.832 4111.97 912.203 4111.97 915.958 4111.97 924.766 4112.78 931.23 4114.42 935.351 4116.05 939.471 4118.59 941.531 4122.02 941.531 4125.29 941.531 4127.71 939.593 4129.29 935.716 4130.87 931.838 4131.66 925.834 4131.66 917.701 4131.66 911.487 4131.26 906.455 4130.45 902.605 4129.64 898.755 4128.51 895.992 4127.06 894.317 4125.62 892.642 4123.87 891.804 4121.81 891.804ZM4122.02 888.359C4127.93 888.359 4132.34 890.642 4135.23 895.208 4138.12 899.775 4139.56 906.678 4139.56 915.918 4139.56 925.482 4138.02 932.716 4134.92 937.62 4131.83 942.524 4127.31 944.976 4121.37 944.976 4115.53 944.976 4111.19 942.679 4108.34 938.086 4105.49 933.493 4104.06 926.523 4104.06 917.174 4104.06 912.203 4104.5 907.907 4105.38 904.287 4106.26 900.666 4107.49 897.674 4109.07 895.31 4110.65 892.946 4112.55 891.196 4114.76 890.061 4116.98 888.927 4119.4 888.359 4122.02 888.359Z" fill-rule="evenodd"/><text fill="#000000" fill-opacity="0" font-family="Arial,Arial_MSFontService,sans-serif" font-size="56.6167" x="4104.06" y="937.899">0</text><path d="M3243.09 1631.22 3227.24 1656.39 3227.24 1656.95 3243.09 1656.95 3243.09 1646.86C3243.09 1644.32 3243.13 1641.48 3243.21 1638.33 3243.29 1635.18 3243.39 1632.81 3243.49 1631.22ZM3244.26 1622.06 3250.06 1622.06 3250.06 1656.95 3250.91 1656.95C3252.48 1656.95 3253.6 1656.84 3254.27 1656.61 3254.95 1656.38 3255.51 1655.97 3255.96 1655.39 3256.4 1654.81 3256.81 1653.86 3257.19 1652.54L3260.27 1652.54 3259.79 1660.88 3250.06 1660.88 3250.06 1667.53C3250.06 1669.34 3250.12 1670.67 3250.24 1671.5 3250.36 1672.34 3250.57 1673 3250.85 1673.49 3251.13 1673.98 3251.55 1674.38 3252.11 1674.7 3252.66 1675.03 3253.56 1675.35 3254.8 1675.68L3254.8 1677.66 3238.35 1677.66 3238.35 1675.68C3240.02 1675.24 3241.14 1674.77 3241.71 1674.24 3242.28 1673.71 3242.65 1672.96 3242.83 1671.99 3243 1671.02 3243.09 1669.53 3243.09 1667.53L3243.09 1660.88 3220.56 1660.88 3220.56 1657.85Z" fill-rule="evenodd"/><text fill="#000000" fill-opacity="0" font-family="Arial,Arial_MSFontService,sans-serif" font-size="55.6035" x="3220.56" y="1670.71">4</text><path d="M3267.69 1668.26 3275.87 1668.26 3275.87 1677.66 3267.69 1677.66Z" fill-rule="evenodd"/><text fill="#000000" fill-opacity="0" font-family="Arial,Arial_MSFontService,sans-serif" font-size="9.40234" x="3267.69" y="1676.49">.</text><path d="M3304.22 1619.67 3310.46 1619.67 3310.46 1695.09 3304.22 1695.09Z" fill-rule="evenodd"/><text fill="#000000" fill-opacity="0" font-family="Arial,Arial_MSFontService,sans-serif" font-size="75.4214" x="3304.22" y="1685.66">|</text><path d="M3333.41 1622.34 3346.34 1622.34 3357.03 1653.91C3358.57 1658.45 3359.76 1662.29 3360.6 1665.42L3361.05 1665.42C3361.26 1663.78 3361.76 1661.03 3362.53 1657.2 3363.3 1653.36 3364.01 1650.01 3364.65 1647.15L3367.49 1634.38C3368.08 1631.71 3368.38 1629.53 3368.38 1627.85 3368.38 1626.59 3368.06 1625.7 3367.43 1625.2 3366.79 1624.7 3365.79 1624.41 3364.41 1624.33L3364.86 1622.34 3379.04 1622.34 3378.59 1624.33C3377.57 1624.55 3376.83 1624.79 3376.39 1625.06 3375.94 1625.33 3375.54 1625.73 3375.19 1626.27 3374.84 1626.81 3374.47 1627.66 3374.1 1628.81 3373.72 1629.96 3373.25 1631.83 3372.68 1634.42L3363.15 1677.66 3357.64 1677.66 3345.81 1642.89C3344.38 1638.73 3343.12 1634.58 3342.04 1630.45L3341.51 1630.45C3341.35 1631.83 3340.9 1634.45 3340.18 1638.33 3339.45 1642.21 3338.68 1646 3337.86 1649.7L3334.3 1665.87C3333.73 1668.44 3333.45 1670.54 3333.45 1672.19 3333.45 1673.41 3333.75 1674.27 3334.36 1674.77 3334.97 1675.27 3335.99 1675.57 3337.42 1675.68L3336.97 1677.66 3322.79 1677.66 3323.23 1675.68C3324.26 1675.52 3325.03 1675.25 3325.54 1674.89 3326.06 1674.52 3326.49 1674.02 3326.84 1673.37 3327.19 1672.72 3327.52 1671.93 3327.81 1671 3328.11 1670.06 3328.56 1668.26 3329.15 1665.59L3336.04 1634.38C3336.31 1633.22 3336.53 1632.11 3336.69 1631.06 3336.85 1630 3336.93 1628.94 3336.93 1627.85 3336.93 1626.59 3336.62 1625.7 3335.98 1625.2 3335.35 1624.7 3334.34 1624.41 3332.96 1624.33Z" fill-rule="evenodd"/><text fill="#000000" fill-opacity="0" font-family="Arial,Arial_MSFontService,sans-serif" font-size="55.3198" x="3322.79" y="1670.75">𝑁</text><path d="M3469.24 1615.55C3477.13 1617.63 3483.19 1622.12 3487.42 1629.02 3491.65 1635.93 3493.76 1644.26 3493.76 1654.01 3493.76 1663.79 3491.65 1672.12 3487.44 1678.99 3483.22 1685.87 3477.16 1690.35 3469.24 1692.43L3468.27 1689.31C3474.51 1687.23 3479.15 1683.12 3482.19 1676.99 3485.23 1670.86 3486.75 1663.06 3486.75 1653.6 3486.75 1644.47 3485.24 1636.89 3482.21 1630.85 3479.18 1624.81 3474.5 1620.75 3468.15 1618.67ZM3414.55 1615.55 3415.64 1618.67C3409.32 1620.75 3404.64 1624.81 3401.6 1630.85 3398.56 1636.89 3397.04 1644.47 3397.04 1653.6 3397.04 1663.06 3398.56 1670.86 3401.6 1676.99 3404.64 1683.12 3409.28 1687.23 3415.52 1689.31L3414.55 1692.43C3406.63 1690.35 3400.56 1685.87 3396.35 1678.99 3392.14 1672.12 3390.03 1663.79 3390.03 1654.01 3390.03 1644.26 3392.14 1635.93 3396.37 1629.02 3400.6 1622.12 3406.66 1617.63 3414.55 1615.55Z" fill-rule="evenodd"/><path d="M3430.06 1638.23C3431.79 1638.23 3433.15 1638.81 3434.15 1639.97 3435.15 1641.13 3435.65 1642.7 3435.65 1644.67 3435.65 1646.81 3435.23 1649.47 3434.4 1652.66L3432.61 1659.67C3432.15 1661.45 3431.82 1662.84 3431.62 1663.84 3431.42 1664.84 3431.27 1665.71 3431.18 1666.44 3431.08 1667.17 3431.03 1667.77 3431.03 1668.26 3431.03 1670.12 3431.34 1671.47 3431.97 1672.29 3432.59 1673.12 3433.6 1673.53 3435 1673.53 3436.14 1673.53 3437.36 1673.08 3438.67 1672.17 3439.98 1671.27 3441.37 1669.9 3442.85 1668.08 3444.32 1666.25 3445.5 1664.48 3446.39 1662.77 3447.28 1661.05 3448.01 1658.94 3448.58 1656.43L3452.43 1638.88 3459.44 1638.88 3453.53 1664.57C3452.93 1667.17 3452.63 1669.17 3452.63 1670.57 3452.63 1671.65 3452.81 1672.44 3453.16 1672.92 3453.51 1673.41 3454.07 1673.65 3454.82 1673.65 3455.63 1673.65 3456.5 1673.32 3457.42 1672.66 3458.34 1672 3459.63 1670.73 3461.31 1668.87L3463.62 1671.14C3461.16 1673.76 3459.06 1675.61 3457.34 1676.69 3455.61 1677.77 3453.77 1678.31 3451.82 1678.31 3450.15 1678.31 3448.81 1677.76 3447.81 1676.65 3446.81 1675.54 3446.31 1674.07 3446.31 1672.23 3446.31 1670.77 3446.64 1669.18 3447.28 1667.45L3446.8 1667.29C3444.12 1671.04 3441.59 1673.81 3439.2 1675.6 3436.81 1677.38 3434.36 1678.27 3431.84 1678.27 3429.33 1678.27 3427.4 1677.55 3426.05 1676.1 3424.7 1674.66 3424.02 1672.65 3424.02 1670.08 3424.02 1668.38 3424.41 1665.96 3425.2 1662.83L3427.83 1652.21C3428.56 1649.27 3428.93 1647.19 3428.93 1645.97 3428.93 1644.89 3428.75 1644.11 3428.4 1643.62 3428.05 1643.13 3427.49 1642.89 3426.74 1642.89 3425.9 1642.89 3425.01 1643.24 3424.08 1643.92 3423.15 1644.61 3421.87 1645.86 3420.25 1647.67L3417.94 1645.4C3420.24 1643.08 3421.97 1641.49 3423.13 1640.62 3424.29 1639.76 3425.41 1639.14 3426.47 1638.78 3427.54 1638.41 3428.74 1638.23 3430.06 1638.23Z" fill-rule="evenodd"/><text fill="#000000" fill-opacity="0" font-family="Arial,Arial_MSFontService,sans-serif" font-size="40.0815" x="3417.94" y="1673.3">𝑢</text><path d="M3510.86 1619.67 3517.1 1619.67 3517.1 1695.09 3510.86 1695.09Z" fill-rule="evenodd"/><text fill="#000000" fill-opacity="0" font-family="Arial,Arial_MSFontService,sans-serif" font-size="75.4214" x="3510.86" y="1685.66">|</text><path d="M3573.66 1627.9 3579.41 1627.9 3579.41 1651.24 3601.5 1651.24 3601.5 1656.63 3579.41 1656.63 3579.41 1679.97 3573.66 1679.97 3573.66 1656.63 3551.57 1656.63 3551.57 1651.24 3573.66 1651.24Z" fill-rule="evenodd"/><text fill="#000000" fill-opacity="0" font-family="Arial,Arial_MSFontService,sans-serif" font-size="52.0776" x="3551.57" y="1673.46">+</text><path d="M3635.75 1619.67 3641.99 1619.67 3641.99 1695.09 3635.75 1695.09Z" fill-rule="evenodd"/><text fill="#000000" fill-opacity="0" font-family="Arial,Arial_MSFontService,sans-serif" font-size="75.4214" x="3635.75" y="1685.66">|</text><path d="M3664.94 1622.34 3677.87 1622.34 3688.57 1653.91C3690.11 1658.45 3691.3 1662.29 3692.14 1665.42L3692.58 1665.42C3692.8 1663.78 3693.29 1661.03 3694.06 1657.2 3694.83 1653.36 3695.54 1650.01 3696.19 1647.15L3699.03 1634.38C3699.62 1631.71 3699.92 1629.53 3699.92 1627.85 3699.92 1626.59 3699.6 1625.7 3698.97 1625.2 3698.33 1624.7 3697.32 1624.41 3695.95 1624.33L3696.39 1622.34 3710.58 1622.34 3710.13 1624.33C3709.1 1624.55 3708.37 1624.79 3707.92 1625.06 3707.48 1625.33 3707.08 1625.73 3706.73 1626.27 3706.37 1626.81 3706.01 1627.66 3705.63 1628.81 3705.25 1629.96 3704.78 1631.83 3704.21 1634.42L3694.69 1677.66 3689.18 1677.66 3677.34 1642.89C3675.91 1638.73 3674.66 1634.58 3673.57 1630.45L3673.05 1630.45C3672.89 1631.83 3672.44 1634.45 3671.71 1638.33 3670.98 1642.21 3670.21 1646 3669.4 1649.7L3665.83 1665.87C3665.27 1668.44 3664.98 1670.54 3664.98 1672.19 3664.98 1673.41 3665.29 1674.27 3665.89 1674.77 3666.5 1675.27 3667.52 1675.57 3668.95 1675.68L3668.51 1677.66 3654.32 1677.66 3654.77 1675.68C3655.8 1675.52 3656.57 1675.25 3657.08 1674.89 3657.59 1674.52 3658.03 1674.02 3658.38 1673.37 3658.73 1672.72 3659.05 1671.93 3659.35 1671 3659.65 1670.06 3660.09 1668.26 3660.69 1665.59L3667.58 1634.38C3667.85 1633.22 3668.06 1632.11 3668.23 1631.06 3668.39 1630 3668.47 1628.94 3668.47 1627.85 3668.47 1626.59 3668.15 1625.7 3667.52 1625.2 3666.88 1624.7 3665.87 1624.41 3664.5 1624.33Z" fill-rule="evenodd"/><text fill="#000000" fill-opacity="0" font-family="Arial,Arial_MSFontService,sans-serif" font-size="55.3198" x="3654.32" y="1670.75">𝑁</text><path d="M3798.23 1615.55C3806.12 1617.63 3812.18 1622.12 3816.41 1629.02 3820.64 1635.93 3822.75 1644.26 3822.75 1654.01 3822.75 1663.79 3820.65 1672.12 3816.43 1678.99 3812.22 1685.87 3806.15 1690.35 3798.23 1692.43L3797.26 1689.31C3803.5 1687.23 3808.14 1683.12 3811.18 1676.99 3814.22 1670.86 3815.74 1663.06 3815.74 1653.6 3815.74 1644.47 3814.23 1636.89 3811.2 1630.85 3808.18 1624.81 3803.49 1620.75 3797.14 1618.67ZM3746.08 1615.55 3747.18 1618.67C3740.85 1620.75 3736.17 1624.81 3733.13 1630.85 3730.09 1636.89 3728.57 1644.47 3728.57 1653.6 3728.57 1663.06 3730.09 1670.86 3733.13 1676.99 3736.17 1683.12 3740.81 1687.23 3747.05 1689.31L3746.08 1692.43C3738.17 1690.35 3732.1 1685.87 3727.89 1678.99 3723.67 1672.12 3721.56 1663.79 3721.56 1654.01 3721.56 1644.26 3723.68 1635.93 3727.91 1629.02 3732.13 1622.12 3738.19 1617.63 3746.08 1615.55Z" fill-rule="evenodd"/><path d="M3786.89 1638.07C3788.83 1638.07 3790.24 1638.57 3791.1 1639.59 3791.96 1640.6 3792.4 1641.96 3792.4 1643.66 3792.4 1644.96 3792.17 1646.44 3791.71 1648.12 3791.25 1649.79 3790.6 1651.56 3789.76 1653.43 3788.92 1655.29 3787.93 1657.2 3786.76 1659.16 3785.6 1661.12 3784.32 1663.03 3782.91 1664.88 3781.51 1666.73 3780.01 1668.47 3778.41 1670.1 3776.82 1671.74 3775.17 1673.16 3773.45 1674.38 3771.73 1675.6 3769.99 1676.56 3768.22 1677.28 3766.45 1677.99 3764.69 1678.35 3762.93 1678.35 3762.15 1678.35 3761.49 1678.16 3760.97 1677.76 3760.44 1677.37 3760.02 1676.82 3759.69 1676.1 3759.37 1675.39 3759.14 1674.54 3759 1673.57 3758.87 1672.6 3758.8 1671.53 3758.8 1670.37 3758.8 1668.83 3758.89 1667.18 3759.08 1665.42 3759.27 1663.67 3759.52 1661.9 3759.81 1660.11L3761.51 1648.89C3761.62 1648.24 3761.71 1647.63 3761.78 1647.04 3761.85 1646.46 3761.88 1646.04 3761.88 1645.77 3761.88 1644.93 3761.74 1644.24 3761.47 1643.7 3761.2 1643.16 3760.74 1642.89 3760.1 1642.89 3759.58 1642.89 3759.03 1643.05 3758.43 1643.36 3757.84 1643.67 3757.24 1644.07 3756.63 1644.55 3756.02 1645.04 3755.44 1645.56 3754.87 1646.11 3754.3 1646.67 3753.77 1647.19 3753.29 1647.67L3751.34 1645.4C3752.18 1644.54 3753.07 1643.68 3754.02 1642.83 3754.96 1641.98 3755.96 1641.21 3757.02 1640.52 3758.07 1639.83 3759.18 1639.28 3760.34 1638.86 3761.5 1638.44 3762.69 1638.23 3763.91 1638.23 3764.93 1638.23 3765.77 1638.4 3766.42 1638.74 3767.07 1639.07 3767.57 1639.52 3767.94 1640.07 3768.3 1640.63 3768.55 1641.24 3768.69 1641.9 3768.82 1642.56 3768.89 1643.21 3768.89 1643.86 3768.89 1644.24 3768.88 1644.61 3768.85 1644.96 3768.82 1645.31 3768.78 1645.63 3768.73 1645.93L3766.46 1660.6C3766.22 1662.14 3766.01 1663.65 3765.85 1665.12 3765.69 1666.59 3765.61 1667.9 3765.61 1669.03 3765.61 1670.17 3765.68 1671.08 3765.81 1671.79 3765.95 1672.49 3766.2 1672.84 3766.58 1672.84 3767.47 1672.84 3768.59 1672.48 3769.94 1671.77 3771.3 1671.05 3772.71 1670.06 3774.2 1668.81 3775.69 1667.55 3777.17 1666.07 3778.66 1664.35 3780.14 1662.63 3781.48 1660.78 3782.67 1658.78 3783.86 1656.78 3784.82 1654.67 3785.57 1652.46 3786.31 1650.24 3786.68 1648.01 3786.68 1645.77 3786.68 1644.8 3786.47 1644.05 3786.05 1643.52 3785.64 1642.99 3784.98 1642.73 3784.09 1642.73 3782.95 1642.73 3781.91 1643.17 3780.95 1644.05 3779.99 1644.92 3779 1646.08 3777.97 1647.51L3775.66 1645.44C3776.31 1644.47 3777.07 1643.54 3777.95 1642.65 3778.83 1641.76 3779.76 1640.97 3780.75 1640.3 3781.73 1639.62 3782.75 1639.08 3783.8 1638.68 3784.86 1638.27 3785.89 1638.07 3786.89 1638.07Z" fill-rule="evenodd"/><text fill="#000000" fill-opacity="0" font-family="Arial,Arial_MSFontService,sans-serif" font-size="40.2842" x="3751.34" y="1673.32">𝑣</text><path d="M3839.85 1619.67 3846.09 1619.67 3846.09 1695.09 3839.85 1695.09Z" fill-rule="evenodd"/><text fill="#000000" fill-opacity="0" font-family="Arial,Arial_MSFontService,sans-serif" font-size="75.4214" x="3839.85" y="1685.66">|</text><path d="M3885.15 1659.67 3935.08 1659.67 3935.08 1665.06 3885.15 1665.06ZM3885.15 1642.85 3935.08 1642.85 3935.08 1648.24 3885.15 1648.24Z" fill-rule="evenodd"/><text fill="#000000" fill-opacity="0" font-family="Arial,Arial_MSFontService,sans-serif" font-size="22.209" x="3885.15" y="1662.28">=</text><path d="M3986.88 1625.14C3985.01 1625.14 3983.45 1625.69 3982.2 1626.8 3980.94 1627.91 3979.93 1629.5 3979.16 1631.58 3978.39 1633.66 3977.84 1636.2 3977.52 1639.18 3977.19 1642.17 3977.03 1645.54 3977.03 1649.29 3977.03 1658.1 3977.85 1664.57 3979.48 1668.69 3981.12 1672.81 3983.65 1674.87 3987.08 1674.87 3990.35 1674.87 3992.78 1672.93 3994.36 1669.05 3995.94 1665.17 3996.73 1659.17 3996.73 1651.04 3996.73 1644.82 3996.32 1639.79 3995.51 1635.94 3994.7 1632.09 3993.57 1629.33 3992.13 1627.65 3990.68 1625.98 3988.93 1625.14 3986.88 1625.14ZM3987.08 1621.69C3993 1621.69 3997.4 1623.98 4000.29 1628.54 4003.18 1633.11 4004.63 1640.01 4004.63 1649.25 4004.63 1658.82 4003.08 1666.05 3999.99 1670.96 3996.9 1675.86 3992.38 1678.31 3986.43 1678.31 3980.6 1678.31 3976.25 1676.02 3973.4 1671.42 3970.55 1666.83 3969.13 1659.86 3969.13 1650.51 3969.13 1645.54 3969.57 1641.24 3970.44 1637.62 3971.32 1634 3972.55 1631.01 3974.13 1628.65 3975.71 1626.28 3977.61 1624.53 3979.83 1623.4 3982.04 1622.26 3984.46 1621.69 3987.08 1621.69Z" fill-rule="evenodd"/><text fill="#000000" fill-opacity="0" font-family="Arial,Arial_MSFontService,sans-serif" font-size="56.6167" x="3969.13" y="1671.23">0</text><path d="M4056.19 1627.9 4061.95 1627.9 4061.95 1651.24 4084.03 1651.24 4084.03 1656.63 4061.95 1656.63 4061.95 1679.97 4056.19 1679.97 4056.19 1656.63 4034.1 1656.63 4034.1 1651.24 4056.19 1651.24Z" fill-rule="evenodd"/><text fill="#000000" fill-opacity="0" font-family="Arial,Arial_MSFontService,sans-serif" font-size="52.0776" x="4034.1" y="1673.46">+</text><path d="M4134.46 1621.69 4136.68 1621.69C4136.52 1624.29 4136.44 1627.88 4136.44 1632.48L4136.44 1667.09C4136.44 1668.65 4136.53 1669.83 4136.7 1670.63 4136.88 1671.43 4137.19 1672.08 4137.64 1672.58 4138.08 1673.08 4138.72 1673.47 4139.56 1673.75 4140.4 1674.04 4141.45 1674.25 4142.72 1674.4 4143.99 1674.55 4145.67 1674.65 4147.75 1674.7L4147.75 1677.66 4117.8 1677.66 4117.8 1674.7C4120.8 1674.57 4122.94 1674.39 4124.22 1674.16 4125.51 1673.93 4126.48 1673.58 4127.16 1673.12 4127.84 1672.66 4128.33 1672.02 4128.64 1671.18 4128.95 1670.34 4129.11 1668.98 4129.11 1667.09L4129.11 1634.22C4129.11 1633.14 4128.92 1632.35 4128.54 1631.85 4128.16 1631.35 4127.61 1631.1 4126.88 1631.1 4126.01 1631.1 4124.78 1631.54 4123.19 1632.43 4121.59 1633.33 4119.62 1634.56 4117.27 1636.12L4115.49 1633Z" fill-rule="evenodd"/><text fill="#000000" fill-opacity="0" font-family="Arial,Arial_MSFontService,sans-serif" font-size="55.9683" x="4115.49" y="1670.67">1</text><path d="M2190.28 885.862 2192.51 885.862C2192.34 888.456 2192.26 892.049 2192.26 896.642L2192.26 931.253C2192.26 932.82 2192.35 934.002 2192.53 934.799 2192.7 935.596 2193.01 936.244 2193.46 936.744 2193.9 937.244 2194.54 937.636 2195.38 937.919 2196.22 938.203 2197.27 938.419 2198.54 938.568 2199.81 938.716 2201.49 938.818 2203.57 938.872L2203.57 941.83 2173.62 941.83 2173.62 938.872C2176.62 938.737 2178.76 938.554 2180.04 938.325 2181.33 938.095 2182.31 937.75 2182.98 937.291 2183.66 936.832 2184.15 936.183 2184.46 935.346 2184.77 934.508 2184.93 933.144 2184.93 931.253L2184.93 898.385C2184.93 897.304 2184.74 896.514 2184.36 896.014 2183.98 895.514 2183.43 895.264 2182.7 895.264 2181.83 895.264 2180.6 895.71 2179.01 896.602 2177.42 897.493 2175.44 898.723 2173.09 900.29L2171.31 897.169Z" fill-rule="evenodd"/><text fill="#000000" fill-opacity="0" font-family="Arial,Arial_MSFontService,sans-serif" font-size="55.9683" x="2171.31" y="934.834">1</text><path d="M2214.35 932.428 2222.53 932.428 2222.53 941.83 2214.35 941.83Z" fill-rule="evenodd"/><text fill="#000000" fill-opacity="0" font-family="Arial,Arial_MSFontService,sans-serif" font-size="9.40234" x="2214.35" y="940.655">.</text><path d="M2250.88 883.836 2257.12 883.836 2257.12 959.257 2250.88 959.257Z" fill-rule="evenodd"/><text fill="#000000" fill-opacity="0" font-family="Arial,Arial_MSFontService,sans-serif" font-size="75.4214" x="2250.88" y="949.829">|</text><path d="M2280.07 886.51 2293 886.51 2303.7 918.081C2305.24 922.62 2306.42 926.457 2307.26 929.591L2307.71 929.591C2307.92 927.943 2308.42 925.201 2309.19 921.364 2309.96 917.527 2310.67 914.177 2311.31 911.313L2314.15 898.547C2314.75 895.872 2315.04 893.697 2315.04 892.022 2315.04 890.752 2314.73 889.867 2314.09 889.368 2313.46 888.868 2312.45 888.577 2311.07 888.496L2311.52 886.51 2325.7 886.51 2325.26 888.496C2324.23 888.712 2323.49 888.956 2323.05 889.226 2322.6 889.496 2322.2 889.901 2321.85 890.442 2321.5 890.982 2321.14 891.826 2320.76 892.974 2320.38 894.123 2319.91 895.994 2319.34 898.588L2309.81 941.83 2304.3 941.83 2292.47 907.058C2291.04 902.897 2289.78 898.75 2288.7 894.616L2288.17 894.616C2288.01 895.994 2287.57 898.621 2286.84 902.498 2286.11 906.376 2285.34 910.165 2284.53 913.866L2280.96 930.037C2280.39 932.603 2280.11 934.711 2280.11 936.359 2280.11 937.575 2280.41 938.433 2281.02 938.932 2281.63 939.432 2282.65 939.736 2284.08 939.844L2283.63 941.83 2269.45 941.83 2269.9 939.844C2270.92 939.682 2271.69 939.419 2272.21 939.054 2272.72 938.689 2273.15 938.183 2273.5 937.534 2273.85 936.886 2274.18 936.096 2274.47 935.163 2274.77 934.231 2275.22 932.428 2275.81 929.753L2282.7 898.547C2282.97 897.385 2283.19 896.277 2283.35 895.224 2283.51 894.17 2283.59 893.103 2283.59 892.022 2283.59 890.752 2283.28 889.867 2282.64 889.368 2282.01 888.868 2281 888.577 2279.62 888.496Z" fill-rule="evenodd"/><text fill="#000000" fill-opacity="0" font-family="Arial,Arial_MSFontService,sans-serif" font-size="55.3198" x="2269.45" y="934.915">𝑁</text><path d="M2415.9 879.716C2423.79 881.797 2429.85 886.288 2434.08 893.191 2438.31 900.095 2440.42 908.423 2440.42 918.177 2440.42 927.957 2438.31 936.286 2434.1 943.162 2429.88 950.038 2423.82 954.516 2415.9 956.596L2414.93 953.476C2421.17 951.396 2425.81 947.289 2428.85 941.156 2431.89 935.022 2433.41 927.228 2433.41 917.771 2433.41 908.639 2431.9 901.054 2428.87 895.015 2425.85 888.977 2421.16 884.917 2414.81 882.837ZM2361.21 879.716 2362.3 882.837C2355.98 884.917 2351.3 888.977 2348.26 895.015 2345.22 901.054 2343.7 908.639 2343.7 917.771 2343.7 927.228 2345.22 935.022 2348.26 941.156 2351.3 947.289 2355.94 951.396 2362.18 953.476L2361.21 956.596C2353.29 954.516 2347.23 950.038 2343.01 943.162 2338.8 936.286 2336.69 927.957 2336.69 918.177 2336.69 908.423 2338.8 900.095 2343.03 893.191 2347.26 886.288 2353.32 881.797 2361.21 879.716Z" fill-rule="evenodd"/><path d="M2376.72 902.397C2378.45 902.397 2379.81 902.978 2380.81 904.14 2381.81 905.302 2382.31 906.869 2382.31 908.841 2382.31 910.975 2381.9 913.637 2381.06 916.825L2379.27 923.836C2378.82 925.619 2378.48 927.011 2378.28 928.01 2378.08 929.01 2377.93 929.875 2377.84 930.604 2377.74 931.334 2377.69 931.942 2377.69 932.428 2377.69 934.292 2378 935.636 2378.63 936.46 2379.25 937.284 2380.26 937.696 2381.67 937.696 2382.8 937.696 2384.02 937.244 2385.33 936.339 2386.64 935.434 2388.04 934.069 2389.51 932.245 2390.98 930.422 2392.16 928.652 2393.05 926.936 2393.95 925.221 2394.67 923.107 2395.24 920.594L2399.09 903.046 2406.1 903.046 2400.19 928.74C2399.59 931.334 2399.29 933.333 2399.29 934.738 2399.29 935.819 2399.47 936.602 2399.82 937.089 2400.17 937.575 2400.73 937.818 2401.48 937.818 2402.29 937.818 2403.16 937.487 2404.08 936.825 2405 936.163 2406.29 934.9 2407.97 933.036L2410.28 935.305C2407.82 937.926 2405.73 939.777 2404 940.858 2402.27 941.938 2400.43 942.479 2398.48 942.479 2396.81 942.479 2395.47 941.925 2394.47 940.817 2393.47 939.709 2392.97 938.237 2392.97 936.4 2392.97 934.941 2393.3 933.346 2393.95 931.617L2393.46 931.455C2390.78 935.211 2388.25 937.98 2385.86 939.763 2383.47 941.547 2381.02 942.438 2378.5 942.438 2375.99 942.438 2374.06 941.715 2372.71 940.27 2371.36 938.824 2370.68 936.818 2370.68 934.252 2370.68 932.549 2371.07 930.131 2371.86 926.997L2374.49 916.379C2375.22 913.434 2375.59 911.354 2375.59 910.138 2375.59 909.057 2375.41 908.274 2375.06 907.787 2374.71 907.301 2374.15 907.058 2373.4 907.058 2372.56 907.058 2371.68 907.402 2370.74 908.091 2369.81 908.78 2368.53 910.03 2366.91 911.84L2364.6 909.57C2366.9 907.247 2368.63 905.653 2369.79 904.788 2370.95 903.924 2372.07 903.309 2373.13 902.944 2374.2 902.579 2375.4 902.397 2376.72 902.397Z" fill-rule="evenodd"/><text fill="#000000" fill-opacity="0" font-family="Arial,Arial_MSFontService,sans-serif" font-size="40.0815" x="2364.6" y="937.468">𝑢</text><path d="M2457.52 883.836 2463.76 883.836 2463.76 959.257 2457.52 959.257Z" fill-rule="evenodd"/><text fill="#000000" fill-opacity="0" font-family="Arial,Arial_MSFontService,sans-serif" font-size="75.4214" x="2457.52" y="949.829">|</text><path d="M2520.32 892.063 2526.07 892.063 2526.07 915.406 2548.16 915.406 2548.16 920.797 2526.07 920.797 2526.07 944.14 2520.32 944.14 2520.32 920.797 2498.23 920.797 2498.23 915.406 2520.32 915.406Z" fill-rule="evenodd"/><text fill="#000000" fill-opacity="0" font-family="Arial,Arial_MSFontService,sans-serif" font-size="52.0776" x="2498.23" y="937.631">+</text><path d="M2582.41 883.836 2588.65 883.836 2588.65 959.257 2582.41 959.257Z" fill-rule="evenodd"/><text fill="#000000" fill-opacity="0" font-family="Arial,Arial_MSFontService,sans-serif" font-size="75.4214" x="2582.41" y="949.829">|</text><path d="M2611.6 886.51 2624.53 886.51 2635.23 918.081C2636.77 922.62 2637.96 926.457 2638.8 929.591L2639.24 929.591C2639.46 927.943 2639.95 925.201 2640.72 921.364 2641.49 917.527 2642.2 914.177 2642.85 911.313L2645.69 898.547C2646.28 895.872 2646.58 893.697 2646.58 892.022 2646.58 890.752 2646.26 889.867 2645.63 889.368 2644.99 888.868 2643.98 888.577 2642.61 888.496L2643.05 886.51 2657.24 886.51 2656.79 888.496C2655.76 888.712 2655.03 888.956 2654.58 889.226 2654.14 889.496 2653.74 889.901 2653.39 890.442 2653.04 890.982 2652.67 891.826 2652.29 892.974 2651.91 894.123 2651.44 895.994 2650.87 898.588L2641.35 941.83 2635.84 941.83 2624 907.058C2622.57 902.897 2621.32 898.75 2620.24 894.616L2619.71 894.616C2619.55 895.994 2619.1 898.621 2618.37 902.498 2617.64 906.376 2616.87 910.165 2616.06 913.866L2612.49 930.037C2611.93 932.603 2611.64 934.711 2611.64 936.359 2611.64 937.575 2611.95 938.433 2612.56 938.932 2613.16 939.432 2614.18 939.736 2615.62 939.844L2615.17 941.83 2600.98 941.83 2601.43 939.844C2602.46 939.682 2603.23 939.419 2603.74 939.054 2604.25 938.689 2604.69 938.183 2605.04 937.534 2605.39 936.886 2605.71 936.096 2606.01 935.163 2606.31 934.231 2606.75 932.428 2607.35 929.753L2614.24 898.547C2614.51 897.385 2614.72 896.277 2614.89 895.224 2615.05 894.17 2615.13 893.103 2615.13 892.022 2615.13 890.752 2614.81 889.867 2614.18 889.368 2613.54 888.868 2612.54 888.577 2611.16 888.496Z" fill-rule="evenodd"/><text fill="#000000" fill-opacity="0" font-family="Arial,Arial_MSFontService,sans-serif" font-size="55.3198" x="2600.98" y="934.915">𝑁</text><path d="M2744.89 879.716C2752.78 881.797 2758.84 886.288 2763.07 893.191 2767.3 900.095 2769.41 908.423 2769.41 918.177 2769.41 927.957 2767.31 936.286 2763.09 943.162 2758.88 950.038 2752.81 954.516 2744.89 956.596L2743.92 953.476C2750.16 951.396 2754.8 947.289 2757.84 941.156 2760.88 935.022 2762.4 927.228 2762.4 917.771 2762.4 908.639 2760.89 901.054 2757.86 895.015 2754.84 888.977 2750.15 884.917 2743.8 882.837ZM2692.74 879.716 2693.84 882.837C2687.51 884.917 2682.83 888.977 2679.79 895.015 2676.75 901.054 2675.23 908.639 2675.23 917.771 2675.23 927.228 2676.75 935.022 2679.79 941.156 2682.83 947.289 2687.47 951.396 2693.72 953.476L2692.74 956.596C2684.83 954.516 2678.76 950.038 2674.55 943.162 2670.33 936.286 2668.22 927.957 2668.22 918.177 2668.22 908.423 2670.34 900.095 2674.57 893.191 2678.79 886.288 2684.85 881.797 2692.74 879.716Z" fill-rule="evenodd"/><path d="M2733.55 902.235C2735.49 902.235 2736.9 902.742 2737.76 903.755 2738.62 904.768 2739.06 906.126 2739.06 907.828 2739.06 909.125 2738.83 910.611 2738.37 912.286 2737.91 913.961 2737.26 915.731 2736.42 917.595 2735.59 919.459 2734.59 921.371 2733.42 923.329 2732.26 925.288 2730.98 927.193 2729.57 929.044 2728.17 930.895 2726.67 932.637 2725.08 934.272 2723.48 935.906 2721.83 937.332 2720.11 938.547 2718.4 939.763 2716.65 940.729 2714.88 941.445 2713.11 942.161 2711.35 942.519 2709.59 942.519 2708.81 942.519 2708.16 942.323 2707.63 941.932 2707.1 941.54 2706.68 940.986 2706.35 940.27 2706.03 939.554 2705.8 938.71 2705.66 937.737 2705.53 936.764 2705.46 935.697 2705.46 934.535 2705.46 932.995 2705.55 931.347 2705.74 929.591 2705.93 927.835 2706.18 926.065 2706.47 924.282L2708.18 913.056C2708.28 912.407 2708.37 911.793 2708.44 911.212 2708.51 910.631 2708.54 910.205 2708.54 909.935 2708.54 909.098 2708.41 908.409 2708.14 907.868 2707.86 907.328 2707.41 907.058 2706.76 907.058 2706.24 907.058 2705.69 907.213 2705.1 907.524 2704.5 907.835 2703.9 908.233 2703.29 908.719 2702.68 909.206 2702.1 909.726 2701.53 910.28 2700.96 910.834 2700.43 911.354 2699.95 911.84L2698 909.57C2698.84 908.706 2699.73 907.848 2700.68 906.997 2701.62 906.146 2702.62 905.376 2703.68 904.687 2704.73 903.998 2705.84 903.444 2707 903.025 2708.16 902.607 2709.35 902.397 2710.57 902.397 2711.59 902.397 2712.43 902.566 2713.08 902.904 2713.73 903.241 2714.23 903.687 2714.6 904.241 2714.96 904.795 2715.21 905.403 2715.35 906.065 2715.48 906.727 2715.55 907.382 2715.55 908.03 2715.55 908.409 2715.54 908.773 2715.51 909.125 2715.48 909.476 2715.44 909.8 2715.39 910.097L2713.12 924.768C2712.88 926.308 2712.67 927.815 2712.51 929.287 2712.35 930.759 2712.27 932.063 2712.27 933.198 2712.27 934.333 2712.34 935.251 2712.47 935.954 2712.61 936.656 2712.86 937.007 2713.24 937.007 2714.13 937.007 2715.25 936.649 2716.61 935.933 2717.96 935.217 2719.37 934.231 2720.86 932.975 2722.35 931.719 2723.83 930.233 2725.32 928.517 2726.8 926.801 2728.14 924.944 2729.33 922.944 2730.52 920.945 2731.49 918.838 2732.23 916.622 2732.97 914.407 2733.34 912.178 2733.34 909.935 2733.34 908.963 2733.13 908.213 2732.71 907.686 2732.3 907.159 2731.64 906.896 2730.75 906.896 2729.61 906.896 2728.57 907.335 2727.61 908.213 2726.65 909.091 2725.66 910.246 2724.63 911.678L2722.32 909.611C2722.97 908.638 2723.73 907.706 2724.61 906.815 2725.49 905.923 2726.42 905.139 2727.41 904.464 2728.39 903.789 2729.41 903.248 2730.47 902.843 2731.52 902.438 2732.55 902.235 2733.55 902.235Z" fill-rule="evenodd"/><text fill="#000000" fill-opacity="0" font-family="Arial,Arial_MSFontService,sans-serif" font-size="40.2842" x="2698" y="937.484">𝑣</text><path d="M2786.51 883.836 2792.75 883.836 2792.75 959.257 2786.51 959.257Z" fill-rule="evenodd"/><text fill="#000000" fill-opacity="0" font-family="Arial,Arial_MSFontService,sans-serif" font-size="75.4214" x="2786.51" y="949.829">|</text><path d="M2831.81 923.836 2881.74 923.836 2881.74 929.226 2831.81 929.226ZM2831.81 907.017 2881.74 907.017 2881.74 912.407 2831.81 912.407Z" fill-rule="evenodd"/><text fill="#000000" fill-opacity="0" font-family="Arial,Arial_MSFontService,sans-serif" font-size="22.209" x="2831.81" y="926.45">=</text><path d="M2936.74 885.862 2938.97 885.862C2938.81 888.456 2938.73 892.049 2938.73 896.642L2938.73 931.253C2938.73 932.82 2938.81 934.002 2938.99 934.799 2939.17 935.596 2939.48 936.244 2939.92 936.744 2940.37 937.244 2941.01 937.636 2941.85 937.919 2942.68 938.203 2943.74 938.419 2945.01 938.568 2946.28 938.716 2947.95 938.818 2950.03 938.872L2950.03 941.83 2920.08 941.83 2920.08 938.872C2923.08 938.737 2925.22 938.554 2926.51 938.325 2927.79 938.095 2928.77 937.75 2929.45 937.291 2930.12 936.832 2930.61 936.183 2930.93 935.346 2931.24 934.508 2931.39 933.144 2931.39 931.253L2931.39 898.385C2931.39 897.304 2931.2 896.514 2930.82 896.014 2930.45 895.514 2929.89 895.264 2929.16 895.264 2928.3 895.264 2927.07 895.71 2925.47 896.602 2923.88 897.493 2921.91 898.723 2919.56 900.29L2917.77 897.169Z" fill-rule="evenodd"/><text fill="#000000" fill-opacity="0" font-family="Arial,Arial_MSFontService,sans-serif" font-size="55.9683" x="2917.77" y="934.834">1</text><path d="M3002.85 892.063 3008.61 892.063 3008.61 915.406 3030.69 915.406 3030.69 920.797 3008.61 920.797 3008.61 944.14 3002.85 944.14 3002.85 920.797 2980.77 920.797 2980.77 915.406 3002.85 915.406Z" fill-rule="evenodd"/><text fill="#000000" fill-opacity="0" font-family="Arial,Arial_MSFontService,sans-serif" font-size="52.0776" x="2980.77" y="937.631">+</text><path d="M3081.12 885.862 3083.34 885.862C3083.18 888.456 3083.1 892.049 3083.1 896.642L3083.1 931.253C3083.1 932.82 3083.19 934.002 3083.36 934.799 3083.54 935.596 3083.85 936.244 3084.3 936.744 3084.74 937.244 3085.38 937.636 3086.22 937.919 3087.06 938.203 3088.11 938.419 3089.38 938.568 3090.65 938.716 3092.33 938.818 3094.41 938.872L3094.41 941.83 3064.46 941.83 3064.46 938.872C3067.46 938.737 3069.6 938.554 3070.88 938.325 3072.17 938.095 3073.15 937.75 3073.82 937.291 3074.5 936.832 3074.99 936.183 3075.3 935.346 3075.61 934.508 3075.77 933.144 3075.77 931.253L3075.77 898.385C3075.77 897.304 3075.58 896.514 3075.2 896.014 3074.82 895.514 3074.27 895.264 3073.54 895.264 3072.67 895.264 3071.44 895.71 3069.85 896.602 3068.26 897.493 3066.28 898.723 3063.93 900.29L3062.15 897.169Z" fill-rule="evenodd"/><text fill="#000000" fill-opacity="0" font-family="Arial,Arial_MSFontService,sans-serif" font-size="55.9683" x="3062.15" y="934.834">1</text><path d="M2195.11 1617.94C2200.14 1617.94 2203.94 1619.04 2206.5 1621.24 2209.07 1623.44 2210.35 1626.64 2210.35 1630.82 2210.35 1632.26 2210.21 1633.57 2209.93 1634.77 2209.64 1635.98 2209.2 1637.17 2208.59 1638.34 2207.98 1639.52 2207.17 1640.78 2206.14 1642.13 2205.11 1643.48 2203.98 1644.85 2202.73 1646.24 2201.49 1647.64 2199.34 1649.95 2196.29 1653.19 2191.16 1658.63 2187.39 1663.37 2184.98 1667.42L2200.26 1667.42C2201.59 1667.42 2202.65 1667.34 2203.46 1667.18 2204.27 1667.01 2204.92 1666.74 2205.41 1666.37 2205.9 1665.99 2206.28 1665.49 2206.56 1664.89 2206.85 1664.28 2207.21 1663.34 2207.64 1662.07L2211.08 1662.07 2210.39 1673.9 2177.04 1673.9 2177.04 1671.96C2178.2 1669.12 2179.77 1666.22 2181.74 1663.25 2183.71 1660.27 2186.51 1656.77 2190.13 1652.75 2193.26 1649.29 2195.52 1646.67 2196.9 1644.89 2198.41 1642.94 2199.54 1641.26 2200.28 1639.84 2201.03 1638.42 2201.56 1637.08 2201.88 1635.83 2202.21 1634.57 2202.37 1633.31 2202.37 1632.04 2202.37 1630.01 2202.05 1628.22 2201.4 1626.67 2200.75 1625.12 2199.76 1623.89 2198.42 1623 2197.08 1622.11 2195.4 1621.66 2193.37 1621.66 2188.32 1621.66 2184.92 1624.47 2183.16 1630.09L2178.26 1630.09 2178.26 1622.31C2181.52 1620.77 2184.58 1619.66 2187.44 1618.97 2190.29 1618.28 2192.85 1617.94 2195.11 1617.94Z" fill-rule="evenodd"/><text fill="#000000" fill-opacity="0" font-family="Arial,Arial_MSFontService,sans-serif" font-size="55.9683" x="2177.04" y="1666.91">2</text><path d="M2222.06 1664.5 2230.25 1664.5 2230.25 1673.9 2222.06 1673.9Z" fill-rule="evenodd"/><text fill="#000000" fill-opacity="0" font-family="Arial,Arial_MSFontService,sans-serif" font-size="9.40234" x="2222.06" y="1672.73">.</text><path d="M2258.59 1615.91 2264.83 1615.91 2264.83 1691.33 2258.59 1691.33Z" fill-rule="evenodd"/><text fill="#000000" fill-opacity="0" font-family="Arial,Arial_MSFontService,sans-serif" font-size="75.4214" x="2258.59" y="1681.9">|</text><path d="M2287.78 1618.58 2300.71 1618.58 2311.41 1650.15C2312.95 1654.69 2314.14 1658.53 2314.98 1661.66L2315.42 1661.66C2315.64 1660.02 2316.13 1657.27 2316.9 1653.44 2317.67 1649.6 2318.38 1646.25 2319.03 1643.39L2321.87 1630.62C2322.46 1627.95 2322.76 1625.77 2322.76 1624.1 2322.76 1622.83 2322.44 1621.94 2321.81 1621.44 2321.17 1620.94 2320.17 1620.65 2318.79 1620.57L2319.23 1618.58 2333.42 1618.58 2332.97 1620.57C2331.95 1620.79 2331.21 1621.03 2330.76 1621.3 2330.32 1621.57 2329.92 1621.97 2329.57 1622.52 2329.22 1623.06 2328.85 1623.9 2328.47 1625.05 2328.1 1626.2 2327.62 1628.07 2327.05 1630.66L2317.53 1673.9 2312.02 1673.9 2300.19 1639.13C2298.75 1634.97 2297.5 1630.82 2296.42 1626.69L2295.89 1626.69C2295.73 1628.07 2295.28 1630.7 2294.55 1634.57 2293.82 1638.45 2293.05 1642.24 2292.24 1645.94L2288.68 1662.11C2288.11 1664.68 2287.82 1666.78 2287.82 1668.43 2287.82 1669.65 2288.13 1670.51 2288.74 1671.01 2289.34 1671.51 2290.36 1671.81 2291.8 1671.92L2291.35 1673.9 2277.17 1673.9 2277.61 1671.92C2278.64 1671.76 2279.41 1671.49 2279.92 1671.13 2280.44 1670.76 2280.87 1670.26 2281.22 1669.61 2281.57 1668.96 2281.89 1668.17 2282.19 1667.24 2282.49 1666.31 2282.93 1664.5 2283.53 1661.83L2290.42 1630.62C2290.69 1629.46 2290.9 1628.35 2291.07 1627.3 2291.23 1626.24 2291.31 1625.18 2291.31 1624.1 2291.31 1622.83 2290.99 1621.94 2290.36 1621.44 2289.72 1620.94 2288.72 1620.65 2287.34 1620.57Z" fill-rule="evenodd"/><text fill="#000000" fill-opacity="0" font-family="Arial,Arial_MSFontService,sans-serif" font-size="55.3198" x="2277.17" y="1666.99">𝑁</text><path d="M2423.62 1611.79C2431.51 1613.87 2437.57 1618.36 2441.8 1625.27 2446.02 1632.17 2448.14 1640.5 2448.14 1650.25 2448.14 1660.03 2446.03 1668.36 2441.82 1675.24 2437.6 1682.11 2431.54 1686.59 2423.62 1688.67L2422.65 1685.55C2428.89 1683.47 2433.53 1679.36 2436.57 1673.23 2439.61 1667.1 2441.13 1659.3 2441.13 1649.85 2441.13 1640.71 2439.61 1633.13 2436.59 1627.09 2433.56 1621.05 2428.87 1616.99 2422.52 1614.91ZM2368.92 1611.79 2370.02 1614.91C2363.7 1616.99 2359.01 1621.05 2355.97 1627.09 2352.94 1633.13 2351.42 1640.71 2351.42 1649.85 2351.42 1659.3 2352.94 1667.1 2355.97 1673.23 2359.01 1679.36 2363.65 1683.47 2369.9 1685.55L2368.92 1688.67C2361.01 1686.59 2354.94 1682.11 2350.73 1675.24 2346.51 1668.36 2344.4 1660.03 2344.4 1650.25 2344.4 1640.5 2346.52 1632.17 2350.75 1625.27 2354.98 1618.36 2361.03 1613.87 2368.92 1611.79Z" fill-rule="evenodd"/><path d="M2384.44 1634.47C2386.17 1634.47 2387.53 1635.05 2388.53 1636.21 2389.53 1637.38 2390.03 1638.94 2390.03 1640.91 2390.03 1643.05 2389.61 1645.71 2388.77 1648.9L2386.99 1655.91C2386.53 1657.69 2386.2 1659.08 2386 1660.08 2385.8 1661.08 2385.65 1661.95 2385.55 1662.68 2385.46 1663.41 2385.41 1664.02 2385.41 1664.5 2385.41 1666.37 2385.72 1667.71 2386.34 1668.53 2386.96 1669.36 2387.98 1669.77 2389.38 1669.77 2390.52 1669.77 2391.74 1669.32 2393.05 1668.41 2394.36 1667.51 2395.75 1666.14 2397.22 1664.32 2398.7 1662.5 2399.88 1660.73 2400.77 1659.01 2401.66 1657.29 2402.39 1655.18 2402.96 1652.67L2406.81 1635.12 2413.82 1635.12 2407.9 1660.81C2407.31 1663.41 2407.01 1665.41 2407.01 1666.81 2407.01 1667.89 2407.19 1668.68 2407.54 1669.16 2407.89 1669.65 2408.44 1669.89 2409.2 1669.89 2410.01 1669.89 2410.87 1669.56 2411.79 1668.9 2412.71 1668.24 2414.01 1666.97 2415.68 1665.11L2417.99 1667.38C2415.54 1670 2413.44 1671.85 2411.71 1672.93 2409.98 1674.01 2408.15 1674.55 2406.2 1674.55 2404.53 1674.55 2403.19 1674 2402.19 1672.89 2401.19 1671.78 2400.69 1670.31 2400.69 1668.47 2400.69 1667.01 2401.01 1665.42 2401.66 1663.69L2401.18 1663.53C2398.5 1667.28 2395.97 1670.05 2393.58 1671.84 2391.19 1673.62 2388.73 1674.51 2386.22 1674.51 2383.71 1674.51 2381.78 1673.79 2380.43 1672.34 2379.07 1670.9 2378.4 1668.89 2378.4 1666.33 2378.4 1664.62 2378.79 1662.21 2379.57 1659.07L2382.21 1648.45C2382.94 1645.51 2383.3 1643.43 2383.3 1642.21 2383.3 1641.13 2383.13 1640.35 2382.78 1639.86 2382.42 1639.37 2381.87 1639.13 2381.11 1639.13 2380.28 1639.13 2379.39 1639.48 2378.46 1640.16 2377.53 1640.85 2376.25 1642.1 2374.63 1643.91L2372.32 1641.64C2374.62 1639.32 2376.35 1637.73 2377.51 1636.86 2378.67 1636 2379.78 1635.38 2380.85 1635.02 2381.92 1634.65 2383.11 1634.47 2384.44 1634.47Z" fill-rule="evenodd"/><text fill="#000000" fill-opacity="0" font-family="Arial,Arial_MSFontService,sans-serif" font-size="40.0815" x="2372.32" y="1669.54">𝑢</text><path d="M2465.23 1615.91 2471.47 1615.91 2471.47 1691.33 2465.23 1691.33Z" fill-rule="evenodd"/><text fill="#000000" fill-opacity="0" font-family="Arial,Arial_MSFontService,sans-serif" font-size="75.4214" x="2465.23" y="1681.9">|</text><path d="M2528.04 1624.14 2533.79 1624.14 2533.79 1647.48 2555.88 1647.48 2555.88 1652.87 2533.79 1652.87 2533.79 1676.21 2528.04 1676.21 2528.04 1652.87 2505.95 1652.87 2505.95 1647.48 2528.04 1647.48Z" fill-rule="evenodd"/><text fill="#000000" fill-opacity="0" font-family="Arial,Arial_MSFontService,sans-serif" font-size="52.0776" x="2505.95" y="1669.7">+</text><path d="M2590.13 1615.91 2596.37 1615.91 2596.37 1691.33 2590.13 1691.33Z" fill-rule="evenodd"/><text fill="#000000" fill-opacity="0" font-family="Arial,Arial_MSFontService,sans-serif" font-size="75.4214" x="2590.13" y="1681.9">|</text><path d="M2619.32 1618.58 2632.25 1618.58 2642.95 1650.15C2644.49 1654.69 2645.68 1658.53 2646.51 1661.66L2646.96 1661.66C2647.18 1660.02 2647.67 1657.27 2648.44 1653.44 2649.21 1649.6 2649.92 1646.25 2650.57 1643.39L2653.4 1630.62C2654 1627.95 2654.29 1625.77 2654.29 1624.1 2654.29 1622.83 2653.98 1621.94 2653.34 1621.44 2652.71 1620.94 2651.7 1620.65 2650.32 1620.57L2650.77 1618.58 2664.95 1618.58 2664.51 1620.57C2663.48 1620.79 2662.74 1621.03 2662.3 1621.3 2661.85 1621.57 2661.45 1621.97 2661.1 1622.52 2660.75 1623.06 2660.39 1623.9 2660.01 1625.05 2659.63 1626.2 2659.16 1628.07 2658.59 1630.66L2649.07 1673.9 2643.55 1673.9 2631.72 1639.13C2630.29 1634.97 2629.03 1630.82 2627.95 1626.69L2627.42 1626.69C2627.26 1628.07 2626.82 1630.7 2626.09 1634.57 2625.36 1638.45 2624.59 1642.24 2623.78 1645.94L2620.21 1662.11C2619.64 1664.68 2619.36 1666.78 2619.36 1668.43 2619.36 1669.65 2619.66 1670.51 2620.27 1671.01 2620.88 1671.51 2621.9 1671.81 2623.33 1671.92L2622.89 1673.9 2608.7 1673.9 2609.15 1671.92C2610.17 1671.76 2610.94 1671.49 2611.46 1671.13 2611.97 1670.76 2612.4 1670.26 2612.75 1669.61 2613.11 1668.96 2613.43 1668.17 2613.73 1667.24 2614.02 1666.31 2614.47 1664.5 2615.06 1661.83L2621.95 1630.62C2622.22 1629.46 2622.44 1628.35 2622.6 1627.3 2622.76 1626.24 2622.85 1625.18 2622.85 1624.1 2622.85 1622.83 2622.53 1621.94 2621.89 1621.44 2621.26 1620.94 2620.25 1620.65 2618.87 1620.57Z" fill-rule="evenodd"/><text fill="#000000" fill-opacity="0" font-family="Arial,Arial_MSFontService,sans-serif" font-size="55.3198" x="2608.7" y="1666.99">𝑁</text><path d="M2752.61 1611.79C2760.5 1613.87 2766.56 1618.36 2770.79 1625.27 2775.02 1632.17 2777.13 1640.5 2777.13 1650.25 2777.13 1660.03 2775.02 1668.36 2770.81 1675.24 2766.59 1682.11 2760.53 1686.59 2752.61 1688.67L2751.64 1685.55C2757.88 1683.47 2762.52 1679.36 2765.56 1673.23 2768.6 1667.1 2770.12 1659.3 2770.12 1649.85 2770.12 1640.71 2768.61 1633.13 2765.58 1627.09 2762.55 1621.05 2757.87 1616.99 2751.52 1614.91ZM2700.46 1611.79 2701.55 1614.91C2695.23 1616.99 2690.55 1621.05 2687.51 1627.09 2684.47 1633.13 2682.95 1640.71 2682.95 1649.85 2682.95 1659.3 2684.47 1667.1 2687.51 1673.23 2690.55 1679.36 2695.19 1683.47 2701.43 1685.55L2700.46 1688.67C2692.54 1686.59 2686.48 1682.11 2682.26 1675.24 2678.05 1668.36 2675.94 1660.03 2675.94 1650.25 2675.94 1640.5 2678.05 1632.17 2682.28 1625.27 2686.51 1618.36 2692.57 1613.87 2700.46 1611.79Z" fill-rule="evenodd"/><path d="M2741.26 1634.31C2743.21 1634.31 2744.61 1634.82 2745.48 1635.83 2746.34 1636.84 2746.77 1638.2 2746.77 1639.9 2746.77 1641.2 2746.54 1642.68 2746.08 1644.36 2745.63 1646.03 2744.98 1647.8 2744.14 1649.67 2743.3 1651.53 2742.3 1653.44 2741.14 1655.4 2739.98 1657.36 2738.7 1659.27 2737.29 1661.12 2735.89 1662.97 2734.39 1664.71 2732.79 1666.35 2731.2 1667.98 2729.54 1669.41 2727.83 1670.62 2726.11 1671.84 2724.37 1672.8 2722.6 1673.52 2720.83 1674.23 2719.07 1674.59 2717.31 1674.59 2716.53 1674.59 2715.87 1674.4 2715.34 1674.01 2714.82 1673.61 2714.39 1673.06 2714.07 1672.34 2713.74 1671.63 2713.51 1670.78 2713.38 1669.81 2713.24 1668.84 2713.18 1667.77 2713.18 1666.61 2713.18 1665.07 2713.27 1663.42 2713.46 1661.66 2713.65 1659.91 2713.89 1658.14 2714.19 1656.36L2715.89 1645.13C2716 1644.48 2716.09 1643.87 2716.16 1643.29 2716.22 1642.7 2716.26 1642.28 2716.26 1642.01 2716.26 1641.17 2716.12 1640.48 2715.85 1639.94 2715.58 1639.4 2715.12 1639.13 2714.47 1639.13 2713.96 1639.13 2713.41 1639.29 2712.81 1639.6 2712.22 1639.91 2711.62 1640.31 2711.01 1640.79 2710.4 1641.28 2709.81 1641.8 2709.25 1642.35 2708.68 1642.91 2708.15 1643.43 2707.66 1643.91L2705.72 1641.64C2706.56 1640.78 2707.45 1639.92 2708.39 1639.07 2709.34 1638.22 2710.34 1637.45 2711.39 1636.76 2712.45 1636.07 2713.55 1635.52 2714.72 1635.1 2715.88 1634.68 2717.07 1634.47 2718.28 1634.47 2719.31 1634.47 2720.15 1634.64 2720.8 1634.98 2721.44 1635.32 2721.95 1635.76 2722.32 1636.31 2722.68 1636.87 2722.93 1637.48 2723.07 1638.14 2723.2 1638.8 2723.27 1639.46 2723.27 1640.1 2723.27 1640.48 2723.25 1640.85 2723.23 1641.2 2723.2 1641.55 2723.16 1641.87 2723.11 1642.17L2720.84 1656.84C2720.59 1658.38 2720.39 1659.89 2720.23 1661.36 2720.07 1662.83 2719.99 1664.14 2719.99 1665.27 2719.99 1666.41 2720.05 1667.32 2720.19 1668.03 2720.32 1668.73 2720.58 1669.08 2720.96 1669.08 2721.85 1669.08 2722.97 1668.72 2724.32 1668.01 2725.67 1667.29 2727.09 1666.31 2728.58 1665.05 2730.06 1663.79 2731.55 1662.31 2733.03 1660.59 2734.52 1658.88 2735.86 1657.02 2737.05 1655.02 2738.24 1653.02 2739.2 1650.91 2739.94 1648.7 2740.69 1646.48 2741.06 1644.25 2741.06 1642.01 2741.06 1641.04 2740.85 1640.29 2740.43 1639.76 2740.01 1639.23 2739.36 1638.97 2738.47 1638.97 2737.33 1638.97 2736.28 1639.41 2735.32 1640.29 2734.37 1641.16 2733.37 1642.32 2732.35 1643.75L2730.04 1641.68C2730.68 1640.71 2731.45 1639.78 2732.33 1638.89 2733.2 1638 2734.14 1637.21 2735.12 1636.54 2736.11 1635.86 2737.13 1635.32 2738.18 1634.92 2739.24 1634.51 2740.26 1634.31 2741.26 1634.31Z" fill-rule="evenodd"/><text fill="#000000" fill-opacity="0" font-family="Arial,Arial_MSFontService,sans-serif" font-size="40.2842" x="2705.72" y="1669.56">𝑣</text><path d="M2794.22 1615.91 2800.47 1615.91 2800.47 1691.33 2794.22 1691.33Z" fill-rule="evenodd"/><text fill="#000000" fill-opacity="0" font-family="Arial,Arial_MSFontService,sans-serif" font-size="75.4214" x="2794.22" y="1681.9">|</text><path d="M2839.52 1655.91 2889.45 1655.91 2889.45 1661.3 2839.52 1661.3ZM2839.52 1639.09 2889.45 1639.09 2889.45 1644.48 2839.52 1644.48Z" fill-rule="evenodd"/><text fill="#000000" fill-opacity="0" font-family="Arial,Arial_MSFontService,sans-serif" font-size="22.209" x="2839.52" y="1658.52">=</text><path d="M2944.46 1617.94 2946.69 1617.94C2946.52 1620.53 2946.44 1624.12 2946.44 1628.72L2946.44 1663.33C2946.44 1664.89 2946.53 1666.08 2946.71 1666.87 2946.88 1667.67 2947.19 1668.32 2947.64 1668.82 2948.08 1669.32 2948.73 1669.71 2949.56 1669.99 2950.4 1670.28 2951.45 1670.49 2952.72 1670.64 2953.99 1670.79 2955.67 1670.89 2957.75 1670.95L2957.75 1673.9 2927.8 1673.9 2927.8 1670.95C2930.8 1670.81 2932.94 1670.63 2934.22 1670.4 2935.51 1670.17 2936.49 1669.82 2937.16 1669.36 2937.84 1668.91 2938.33 1668.26 2938.64 1667.42 2938.95 1666.58 2939.11 1665.22 2939.11 1663.33L2939.11 1630.46C2939.11 1629.38 2938.92 1628.59 2938.54 1628.09 2938.16 1627.59 2937.61 1627.34 2936.88 1627.34 2936.01 1627.34 2934.78 1627.78 2933.19 1628.68 2931.6 1629.57 2929.62 1630.8 2927.27 1632.36L2925.49 1629.24Z" fill-rule="evenodd"/><text fill="#000000" fill-opacity="0" font-family="Arial,Arial_MSFontService,sans-serif" font-size="55.9683" x="2925.49" y="1666.91">1</text><path d="M3010.57 1624.14 3016.32 1624.14 3016.32 1647.48 3038.41 1647.48 3038.41 1652.87 3016.32 1652.87 3016.32 1676.21 3010.57 1676.21 3010.57 1652.87 2988.48 1652.87 2988.48 1647.48 3010.57 1647.48Z" fill-rule="evenodd"/><text fill="#000000" fill-opacity="0" font-family="Arial,Arial_MSFontService,sans-serif" font-size="52.0776" x="2988.48" y="1669.7">+</text><path d="M3088.83 1617.94 3091.06 1617.94C3090.9 1620.53 3090.82 1624.12 3090.82 1628.72L3090.82 1663.33C3090.82 1664.89 3090.91 1666.08 3091.08 1666.87 3091.26 1667.67 3091.57 1668.32 3092.01 1668.82 3092.46 1669.32 3093.1 1669.71 3093.94 1669.99 3094.78 1670.28 3095.83 1670.49 3097.1 1670.64 3098.37 1670.79 3100.04 1670.89 3102.12 1670.95L3102.12 1673.9 3072.18 1673.9 3072.18 1670.95C3075.17 1670.81 3077.32 1670.63 3078.6 1670.4 3079.88 1670.17 3080.86 1669.82 3081.54 1669.36 3082.21 1668.91 3082.71 1668.26 3083.02 1667.42 3083.33 1666.58 3083.48 1665.22 3083.48 1663.33L3083.48 1630.46C3083.48 1629.38 3083.29 1628.59 3082.91 1628.09 3082.54 1627.59 3081.98 1627.34 3081.25 1627.34 3080.39 1627.34 3079.16 1627.78 3077.57 1628.68 3075.97 1629.57 3074 1630.8 3071.65 1632.36L3069.86 1629.24Z" fill-rule="evenodd"/><text fill="#000000" fill-opacity="0" font-family="Arial,Arial_MSFontService,sans-serif" font-size="55.9683" x="3069.86" y="1666.91">1</text></g></svg>