<?xml version="1.0" encoding="UTF-8" standalone="no"?>
<!DOCTYPE svg PUBLIC "-//W3C//DTD SVG 1.1//EN"
 "http://www.w3.org/Graphics/SVG/1.1/DTD/svg11.dtd">
<!-- Generated by graphviz version 2.43.0 (0)
 -->
<!-- Title: G Pages: 1 -->
<svg width="267pt" height="232pt"
 viewBox="0.00 0.00 266.60 231.97" xmlns="http://www.w3.org/2000/svg" xmlns:xlink="http://www.w3.org/1999/xlink">
<g id="graph0" class="graph" transform="scale(1 1) rotate(0) translate(4 227.97)">
<title>G</title>
<polygon fill="white" stroke="transparent" points="-4,4 -4,-227.97 262.6,-227.97 262.6,4 -4,4"/>
<!-- 0 -->
<g id="node1" class="node">
<title>0</title>
<ellipse fill="#ffffff" stroke="black" cx="24.78" cy="-149.68" rx="18" ry="18"/>
<text text-anchor="middle" x="24.78" y="-145.98" font-family="Times,serif" font-size="14.00">0</text>
</g>
<!-- 1 -->
<g id="node2" class="node">
<title>1</title>
<ellipse fill="#ffff66" stroke="black" cx="102.99" cy="-167.52" rx="18" ry="18"/>
<text text-anchor="middle" x="102.99" y="-163.82" font-family="Times,serif" font-size="14.00">1</text>
</g>
<!-- 0&#45;&gt;1 -->
<g id="edge1" class="edge">
<title>0&#45;&gt;1</title>
<path fill="none" stroke="#000000" d="M42.53,-153.73C55.33,-156.65 72.53,-160.57 85.31,-163.49"/>
</g>
<!-- 2 -->
<g id="node3" class="node">
<title>2</title>
<ellipse fill="#ffffff" stroke="black" cx="18" cy="-67.09" rx="18" ry="18"/>
<text text-anchor="middle" x="18" y="-63.39" font-family="Times,serif" font-size="14.00">2</text>
</g>
<!-- 0&#45;&gt;2 -->
<g id="edge2" class="edge">
<title>0&#45;&gt;2</title>
<path fill="none" stroke="#000000" d="M23.28,-131.35C22.14,-117.57 20.6,-98.78 19.48,-85.08"/>
</g>
<!-- 3 -->
<g id="node4" class="node">
<title>3</title>
<ellipse fill="#ffffff" stroke="black" cx="181.76" cy="-205.97" rx="18" ry="18"/>
<text text-anchor="middle" x="181.76" y="-202.27" font-family="Times,serif" font-size="14.00">3</text>
</g>
<!-- 1&#45;&gt;3 -->
<g id="edge3" class="edge">
<title>1&#45;&gt;3</title>
<path fill="none" stroke="#000000" d="M119.31,-175.49C132.83,-182.09 151.95,-191.42 165.46,-198.01"/>
</g>
<!-- 4 -->
<g id="node5" class="node">
<title>4</title>
<ellipse fill="#ffff66" stroke="black" cx="163.78" cy="-150.32" rx="18" ry="18"/>
<text text-anchor="middle" x="163.78" y="-146.62" font-family="Times,serif" font-size="14.00">4</text>
</g>
<!-- 1&#45;&gt;4 -->
<g id="edge4" class="edge">
<title>1&#45;&gt;4</title>
<path fill="none" stroke="#cc0000" stroke-width="2" d="M120.57,-162.55C128.71,-160.25 138.34,-157.52 146.45,-155.23"/>
</g>
<!-- 6 -->
<g id="node7" class="node">
<title>6</title>
<ellipse fill="#ffff66" stroke="black" cx="141.13" cy="-90.99" rx="18" ry="18"/>
<text text-anchor="middle" x="141.13" y="-87.29" font-family="Times,serif" font-size="14.00">6</text>
</g>
<!-- 1&#45;&gt;6 -->
<g id="edge5" class="edge">
<title>1&#45;&gt;6</title>
<path fill="none" stroke="#cc0000" stroke-width="2" d="M111.08,-151.29C117.55,-138.3 126.58,-120.18 133.05,-107.2"/>
</g>
<!-- 5 -->
<g id="node6" class="node">
<title>5</title>
<ellipse fill="#ffffff" stroke="black" cx="91.49" cy="-33.74" rx="18" ry="18"/>
<text text-anchor="middle" x="91.49" y="-30.04" font-family="Times,serif" font-size="14.00">5</text>
</g>
<!-- 2&#45;&gt;5 -->
<g id="edge6" class="edge">
<title>2&#45;&gt;5</title>
<path fill="none" stroke="#000000" d="M34.68,-59.52C46.7,-54.06 62.87,-46.73 74.88,-41.28"/>
</g>
<!-- 7 -->
<g id="node8" class="node">
<title>7</title>
<ellipse fill="#ffff66" stroke="black" cx="219.47" cy="-124.53" rx="18" ry="18"/>
<text text-anchor="middle" x="219.47" y="-120.83" font-family="Times,serif" font-size="14.00">7</text>
</g>
<!-- 3&#45;&gt;7 -->
<g id="edge7" class="edge">
<title>3&#45;&gt;7</title>
<path fill="none" stroke="#000000" d="M189.39,-189.49C195.93,-175.36 205.31,-155.11 211.85,-140.99"/>
</g>
<!-- 4&#45;&gt;6 -->
<g id="edge8" class="edge">
<title>4&#45;&gt;6</title>
<path fill="none" stroke="#cc0000" stroke-width="2" d="M157.35,-133.48C154.32,-125.53 150.7,-116.06 147.66,-108.08"/>
</g>
<!-- 4&#45;&gt;7 -->
<g id="edge9" class="edge">
<title>4&#45;&gt;7</title>
<path fill="none" stroke="#cc0000" stroke-width="2" d="M180.19,-142.73C187.37,-139.4 195.79,-135.5 202.99,-132.17"/>
</g>
<!-- 5&#45;&gt;6 -->
<g id="edge10" class="edge">
<title>5&#45;&gt;6</title>
<path fill="none" stroke="#000000" d="M103.51,-47.6C111.31,-56.6 121.44,-68.28 129.23,-77.26"/>
</g>
<!-- 8 -->
<g id="node9" class="node">
<title>8</title>
<ellipse fill="#ffff66" stroke="black" cx="164.21" cy="-18" rx="18" ry="18"/>
<text text-anchor="middle" x="164.21" y="-14.3" font-family="Times,serif" font-size="14.00">8</text>
</g>
<!-- 5&#45;&gt;8 -->
<g id="edge11" class="edge">
<title>5&#45;&gt;8</title>
<path fill="none" stroke="#000000" d="M109.09,-29.93C120.44,-27.47 135.15,-24.29 146.52,-21.83"/>
</g>
<!-- 6&#45;&gt;7 -->
<g id="edge13" class="edge">
<title>6&#45;&gt;7</title>
<path fill="none" stroke="#cc0000" stroke-width="2" d="M157.75,-98.1C171.04,-103.8 189.59,-111.74 202.88,-117.43"/>
</g>
<!-- 6&#45;&gt;8 -->
<g id="edge12" class="edge">
<title>6&#45;&gt;8</title>
<path fill="none" stroke="#cc0000" stroke-width="2" d="M146.6,-73.69C150.28,-62.06 155.11,-46.78 158.78,-35.17"/>
</g>
<!-- 9 -->
<g id="node10" class="node">
<title>9</title>
<ellipse fill="#ffff66" stroke="black" cx="240.6" cy="-47.04" rx="18" ry="18"/>
<text text-anchor="middle" x="240.6" y="-43.34" font-family="Times,serif" font-size="14.00">9</text>
</g>
<!-- 7&#45;&gt;9 -->
<g id="edge14" class="edge">
<title>7&#45;&gt;9</title>
<path fill="none" stroke="#cc0000" stroke-width="2" d="M224.26,-106.95C227.72,-94.27 232.37,-77.22 235.82,-64.55"/>
</g>
<!-- 8&#45;&gt;9 -->
<g id="edge15" class="edge">
<title>8&#45;&gt;9</title>
<path fill="none" stroke="#cc0000" stroke-width="2" d="M181.16,-24.44C193.82,-29.26 211.04,-35.8 223.69,-40.61"/>
</g>
</g>
</svg>
