<svg width="1118" height="901" xmlns="http://www.w3.org/2000/svg" xmlns:xlink="http://www.w3.org/1999/xlink" overflow="hidden"><defs><clipPath id="clip0"><rect x="334" y="343" width="1118" height="901"/></clipPath></defs><g clip-path="url(#clip0)" transform="translate(-334 -343)"><path d="M616.5 503.5C616.5 475.886 639.109 453.5 667 453.5 694.89 453.5 717.5 475.886 717.5 503.5 717.5 531.114 694.89 553.5 667 553.5 639.109 553.5 616.5 531.114 616.5 503.5Z" stroke="#000000" stroke-width="4.58333" stroke-miterlimit="8" fill="none" fill-rule="evenodd"/><path d="M982.5 503.5C982.5 475.886 1005.11 453.5 1033 453.5 1060.89 453.5 1083.5 475.886 1083.5 503.5 1083.5 531.114 1060.89 553.5 1033 553.5 1005.11 553.5 982.5 531.114 982.5 503.5Z" stroke="#000000" stroke-width="4.58333" stroke-miterlimit="8" fill="none" fill-rule="evenodd"/><path d="M1348.5 503.5C1348.5 475.886 1371.11 453.5 1399 453.5 1426.89 453.5 1449.5 475.886 1449.5 503.5 1449.5 531.114 1426.89 553.5 1399 553.5 1371.11 553.5 1348.5 531.114 1348.5 503.5Z" stroke="#000000" stroke-width="4.58333" stroke-miterlimit="8" fill="none" fill-rule="evenodd"/><path d="M616.5 847.5C616.5 819.886 639.109 797.5 667 797.5 694.89 797.5 717.5 819.886 717.5 847.5 717.5 875.114 694.89 897.5 667 897.5 639.109 897.5 616.5 875.114 616.5 847.5Z" stroke="#000000" stroke-width="4.58333" stroke-miterlimit="8" fill="none" fill-rule="evenodd"/><path d="M982.5 847.5C982.5 819.886 1005.11 797.5 1033 797.5 1060.89 797.5 1083.5 819.886 1083.5 847.5 1083.5 875.114 1060.89 897.5 1033 897.5 1005.11 897.5 982.5 875.114 982.5 847.5Z" stroke="#000000" stroke-width="4.58333" stroke-miterlimit="8" fill="none" fill-rule="evenodd"/><path d="M1348.5 847.5C1348.5 819.886 1371.11 797.5 1399 797.5 1426.89 797.5 1449.5 819.886 1449.5 847.5 1449.5 875.114 1426.89 897.5 1399 897.5 1371.11 897.5 1348.5 875.114 1348.5 847.5Z" stroke="#000000" stroke-width="4.58333" stroke-miterlimit="8" fill="none" fill-rule="evenodd"/><path d="M616.5 1191.5C616.5 1163.89 639.109 1141.5 667 1141.5 694.89 1141.5 717.5 1163.89 717.5 1191.5 717.5 1219.11 694.89 1241.5 667 1241.5 639.109 1241.5 616.5 1219.11 616.5 1191.5Z" stroke="#000000" stroke-width="4.58333" stroke-miterlimit="8" fill="none" fill-rule="evenodd"/><path d="M982.5 1191.5C982.5 1163.89 1005.11 1141.5 1033 1141.5 1060.89 1141.5 1083.5 1163.89 1083.5 1191.5 1083.5 1219.11 1060.89 1241.5 1033 1241.5 1005.11 1241.5 982.5 1219.11 982.5 1191.5Z" stroke="#000000" stroke-width="4.58333" stroke-miterlimit="8" fill="none" fill-rule="evenodd"/><path d="M1348.5 1191.5C1348.5 1163.89 1371.11 1141.5 1399 1141.5 1426.89 1141.5 1449.5 1163.89 1449.5 1191.5 1449.5 1219.11 1426.89 1241.5 1399 1241.5 1371.11 1241.5 1348.5 1219.11 1348.5 1191.5Z" stroke="#000000" stroke-width="4.58333" stroke-miterlimit="8" fill="none" fill-rule="evenodd"/><path d="M432.877 382.365 433.971 385.486C427.649 387.566 422.968 391.626 419.928 397.664 416.889 403.703 415.369 411.288 415.369 420.42 415.369 429.877 416.889 437.672 419.928 443.805 422.968 449.938 427.608 454.045 433.85 456.125L432.877 459.246C424.961 457.165 418.895 452.687 414.68 445.811 410.465 438.935 408.358 430.606 408.358 420.826 408.358 411.072 410.472 402.744 414.7 395.841 418.929 388.937 424.988 384.446 432.877 382.365Z" fill-rule="evenodd"/><text fill="#000000" fill-opacity="0" font-family="Arial,Arial_MSFontService,sans-serif" font-size="76.8804" x="408.358" y="449.636">(</text><path d="M458.417 388.404C456.553 388.404 454.992 388.958 453.736 390.065 452.48 391.173 451.466 392.767 450.696 394.848 449.926 396.928 449.379 399.461 449.055 402.447 448.731 405.432 448.569 408.803 448.569 412.558 448.569 421.366 449.386 427.83 451.021 431.95 452.655 436.071 455.188 438.131 458.62 438.131 461.889 438.131 464.314 436.192 465.894 432.315 467.475 428.438 468.265 422.433 468.265 414.301 468.265 408.087 467.86 403.054 467.049 399.204 466.239 395.354 465.111 392.592 463.665 390.917 462.22 389.241 460.47 388.404 458.417 388.404ZM458.62 384.959C464.537 384.959 468.941 387.242 471.831 391.808 474.722 396.374 476.168 403.277 476.168 412.518 476.168 422.082 474.621 429.316 471.528 434.22 468.434 439.124 463.915 441.576 457.971 441.576 452.135 441.576 447.792 439.279 444.942 434.686 442.091 430.093 440.666 423.122 440.666 413.774 440.666 408.803 441.105 404.507 441.983 400.886 442.861 397.266 444.091 394.274 445.671 391.909 447.252 389.545 449.15 387.796 451.365 386.661 453.581 385.526 455.999 384.959 458.62 384.959Z" fill-rule="evenodd"/><text fill="#000000" fill-opacity="0" font-family="Arial,Arial_MSFontService,sans-serif" font-size="56.6167" x="440.666" y="434.499">0</text><path d="M486.702 431.525 493.794 431.525C494.172 433.416 494.362 435.28 494.362 437.118 494.362 439.009 494.037 440.738 493.389 442.305 492.741 443.872 491.707 445.433 490.289 446.986 488.87 448.54 486.918 450.249 484.432 452.113L482.244 449.641C483.622 448.344 484.622 447.175 485.243 446.135 485.864 445.095 486.31 443.913 486.58 442.589 486.851 441.265 486.986 439.603 486.986 437.604 486.986 435.551 486.891 433.524 486.702 431.525Z" fill-rule="evenodd"/><text fill="#000000" fill-opacity="0" font-family="Arial,Arial_MSFontService,sans-serif" font-size="20.5879" x="482.244" y="449.539">,</text><path d="M521.438 388.404C519.573 388.404 518.013 388.958 516.757 390.065 515.5 391.173 514.487 392.767 513.717 394.848 512.947 396.928 512.4 399.461 512.076 402.447 511.752 405.432 511.59 408.803 511.59 412.558 511.59 421.366 512.407 427.83 514.042 431.95 515.676 436.071 518.209 438.131 521.64 438.131 524.91 438.131 527.334 436.192 528.915 432.315 530.496 428.438 531.286 422.433 531.286 414.301 531.286 408.087 530.881 403.054 530.07 399.204 529.26 395.354 528.132 392.592 526.686 390.917 525.241 389.241 523.491 388.404 521.438 388.404ZM521.64 384.959C527.557 384.959 531.961 387.242 534.852 391.808 537.743 396.374 539.189 403.277 539.189 412.518 539.189 422.082 537.642 429.316 534.548 434.22 531.455 439.124 526.936 441.576 520.992 441.576 515.156 441.576 510.813 439.279 507.962 434.686 505.112 430.093 503.687 423.122 503.687 413.774 503.687 408.803 504.126 404.507 505.004 400.886 505.882 397.266 507.111 394.274 508.692 391.909 510.272 389.545 512.171 387.796 514.386 386.661 516.602 385.526 519.02 384.959 521.64 384.959Z" fill-rule="evenodd"/><text fill="#000000" fill-opacity="0" font-family="Arial,Arial_MSFontService,sans-serif" font-size="56.6167" x="503.687" y="434.499">0</text><path d="M546.926 382.365C554.816 384.446 560.875 388.937 565.103 395.841 569.331 402.744 571.445 411.072 571.445 420.826 571.445 430.606 569.338 438.935 565.123 445.811 560.908 452.687 554.843 457.165 546.926 459.246L545.954 456.125C552.195 454.045 556.835 449.938 559.875 443.805 562.914 437.672 564.434 429.877 564.434 420.42 564.434 411.288 562.921 403.703 559.895 397.664 556.869 391.626 552.181 387.566 545.832 385.486Z" fill-rule="evenodd"/><text fill="#000000" fill-opacity="0" font-family="Arial,Arial_MSFontService,sans-serif" font-size="76.8804" x="545.832" y="449.636">)</text><path d="M787.74 380.794 788.834 383.915C782.511 385.995 777.831 390.054 774.791 396.093 771.751 402.132 770.232 409.717 770.232 418.849 770.232 428.306 771.751 436.1 774.791 442.233 777.831 448.367 782.471 452.473 788.712 454.554L787.74 457.674C779.823 455.594 773.758 451.116 769.543 444.24 765.328 437.363 763.22 429.035 763.22 419.254 763.22 409.501 765.335 401.172 769.563 394.269 773.791 387.366 779.85 382.874 787.74 380.794Z" fill-rule="evenodd"/><text fill="#000000" fill-opacity="0" font-family="Arial,Arial_MSFontService,sans-serif" font-size="76.8804" x="763.22" y="448.064">(</text><path d="M813.28 386.833C811.415 386.833 809.855 387.386 808.599 388.494 807.342 389.602 806.329 391.196 805.559 393.276 804.789 395.357 804.242 397.89 803.918 400.875 803.594 403.861 803.431 407.231 803.431 410.987 803.431 419.795 804.249 426.259 805.883 430.379 807.518 434.499 810.051 436.56 813.482 436.56 816.751 436.56 819.176 434.621 820.757 430.744 822.337 426.867 823.128 420.862 823.128 412.729 823.128 406.515 822.722 401.483 821.912 397.633 821.101 393.783 819.973 391.02 818.528 389.345 817.082 387.67 815.333 386.833 813.28 386.833ZM813.482 383.388C819.399 383.388 823.803 385.671 826.694 390.237 829.585 394.803 831.031 401.706 831.031 410.946 831.031 420.511 829.484 427.745 826.39 432.649 823.297 437.552 818.778 440.004 812.834 440.004 806.998 440.004 802.655 437.708 799.804 433.115 796.954 428.522 795.529 421.551 795.529 412.203 795.529 407.231 795.968 402.935 796.846 399.315 797.724 395.694 798.953 392.702 800.534 390.338 802.114 387.974 804.012 386.225 806.228 385.09 808.443 383.955 810.861 383.388 813.482 383.388Z" fill-rule="evenodd"/><text fill="#000000" fill-opacity="0" font-family="Arial,Arial_MSFontService,sans-serif" font-size="56.6167" x="795.529" y="432.927">0</text><path d="M841.565 429.954 848.657 429.954C849.035 431.845 849.224 433.709 849.224 435.546 849.224 437.438 848.9 439.167 848.252 440.734 847.603 442.301 846.57 443.861 845.151 445.415 843.733 446.968 841.781 448.677 839.295 450.542L837.107 448.069C838.484 446.772 839.484 445.604 840.106 444.564 840.727 443.524 841.173 442.341 841.443 441.018 841.713 439.694 841.848 438.032 841.848 436.033 841.848 433.979 841.754 431.953 841.565 429.954Z" fill-rule="evenodd"/><text fill="#000000" fill-opacity="0" font-family="Arial,Arial_MSFontService,sans-serif" font-size="20.5879" x="837.107" y="447.968">,</text><path d="M922.3 386.833C920.436 386.833 918.876 387.386 917.619 388.494 916.363 389.602 915.35 391.196 914.58 393.276 913.81 395.357 913.263 397.89 912.939 400.875 912.614 403.861 912.452 407.231 912.452 410.987 912.452 419.795 913.27 426.259 914.904 430.379 916.539 434.499 919.072 436.56 922.503 436.56 925.772 436.56 928.197 434.621 929.778 430.744 931.358 426.867 932.148 420.862 932.148 412.729 932.148 406.515 931.743 401.483 930.933 397.633 930.122 393.783 928.994 391.02 927.549 389.345 926.103 387.67 924.354 386.833 922.3 386.833ZM922.503 383.388C928.42 383.388 932.824 385.671 935.715 390.237 938.606 394.803 940.051 401.706 940.051 410.946 940.051 420.511 938.505 427.745 935.411 432.649 932.317 437.552 927.799 440.004 921.855 440.004 916.019 440.004 911.675 437.708 908.825 433.115 905.975 428.522 904.549 421.551 904.549 412.203 904.549 407.231 904.988 402.935 905.867 399.315 906.745 395.694 907.974 392.702 909.555 390.338 911.135 387.974 913.033 386.225 915.249 385.09 917.464 383.955 919.882 383.388 922.503 383.388ZM879.502 383.388 881.731 383.388C881.569 385.981 881.488 389.575 881.488 394.168L881.488 428.778C881.488 430.345 881.576 431.527 881.751 432.324 881.927 433.121 882.238 433.77 882.683 434.27 883.129 434.77 883.771 435.161 884.608 435.445 885.446 435.729 886.5 435.945 887.77 436.094 889.039 436.242 890.715 436.343 892.795 436.397L892.795 439.356 862.845 439.356 862.845 436.397C865.844 436.262 867.985 436.08 869.269 435.85 870.552 435.621 871.532 435.276 872.207 434.817 872.883 434.358 873.376 433.709 873.686 432.872 873.997 432.034 874.152 430.67 874.152 428.778L874.152 395.911C874.152 394.83 873.963 394.04 873.585 393.54 873.207 393.04 872.653 392.79 871.923 392.79 871.059 392.79 869.829 393.236 868.235 394.127 866.641 395.019 864.669 396.248 862.318 397.815L860.535 394.695Z" fill-rule="evenodd"/><text fill="#000000" fill-opacity="0" font-family="Arial,Arial_MSFontService,sans-serif" font-size="56.6167" x="860.535" y="432.927">10</text><path d="M947.622 380.794C955.512 382.874 961.57 387.366 965.799 394.269 970.027 401.172 972.141 409.501 972.141 419.254 972.141 429.035 970.034 437.363 965.819 444.24 961.604 451.116 955.539 455.594 947.622 457.674L946.65 454.554C952.891 452.473 957.531 448.367 960.571 442.233 963.61 436.1 965.13 428.306 965.13 418.849 965.13 409.717 963.617 402.132 960.591 396.093 957.565 390.054 952.877 385.995 946.528 383.915Z" fill-rule="evenodd"/><text fill="#000000" fill-opacity="0" font-family="Arial,Arial_MSFontService,sans-serif" font-size="76.8804" x="946.528" y="448.064">)</text><path d="M1168.66 380.794 1169.75 383.915C1163.43 385.995 1158.75 390.054 1155.71 396.093 1152.67 402.132 1151.15 409.717 1151.15 418.849 1151.15 428.306 1152.67 436.1 1155.71 442.233 1158.75 448.367 1163.39 452.473 1169.63 454.554L1168.66 457.674C1160.74 455.594 1154.68 451.116 1150.46 444.24 1146.25 437.363 1144.14 429.035 1144.14 419.254 1144.14 409.501 1146.25 401.172 1150.48 394.269 1154.71 387.366 1160.77 382.874 1168.66 380.794Z" fill-rule="evenodd"/><text fill="#000000" fill-opacity="0" font-family="Arial,Arial_MSFontService,sans-serif" font-size="76.8804" x="1144.14" y="448.064">(</text><path d="M1194.2 386.833C1192.33 386.833 1190.77 387.386 1189.52 388.494 1188.26 389.602 1187.25 391.196 1186.48 393.276 1185.71 395.357 1185.16 397.89 1184.84 400.875 1184.51 403.861 1184.35 407.231 1184.35 410.987 1184.35 419.795 1185.17 426.259 1186.8 430.379 1188.44 434.499 1190.97 436.56 1194.4 436.56 1197.67 436.56 1200.1 434.621 1201.68 430.744 1203.26 426.867 1204.05 420.862 1204.05 412.729 1204.05 406.515 1203.64 401.483 1202.83 397.633 1202.02 393.783 1200.89 391.02 1199.45 389.345 1198 387.67 1196.25 386.833 1194.2 386.833ZM1194.4 383.388C1200.32 383.388 1204.72 385.671 1207.61 390.237 1210.5 394.803 1211.95 401.706 1211.95 410.946 1211.95 420.511 1210.4 427.745 1207.31 432.649 1204.22 437.552 1199.7 440.004 1193.75 440.004 1187.92 440.004 1183.57 437.708 1180.72 433.115 1177.87 428.522 1176.45 421.551 1176.45 412.203 1176.45 407.231 1176.89 402.935 1177.76 399.315 1178.64 395.694 1179.87 392.702 1181.45 390.338 1183.03 387.974 1184.93 386.225 1187.15 385.09 1189.36 383.955 1191.78 383.388 1194.4 383.388Z" fill-rule="evenodd"/><text fill="#000000" fill-opacity="0" font-family="Arial,Arial_MSFontService,sans-serif" font-size="56.6167" x="1176.45" y="432.927">0</text><path d="M1222.48 429.954 1229.58 429.954C1229.95 431.845 1230.14 433.709 1230.14 435.546 1230.14 437.438 1229.82 439.167 1229.17 440.734 1228.52 442.301 1227.49 443.861 1226.07 445.415 1224.65 446.968 1222.7 448.677 1220.21 450.542L1218.03 448.069C1219.4 446.772 1220.4 445.604 1221.02 444.564 1221.65 443.524 1222.09 442.341 1222.36 441.018 1222.63 439.694 1222.77 438.032 1222.77 436.033 1222.77 433.979 1222.67 431.953 1222.48 429.954Z" fill-rule="evenodd"/><text fill="#000000" fill-opacity="0" font-family="Arial,Arial_MSFontService,sans-serif" font-size="20.5879" x="1218.03" y="447.968">,</text><path d="M1303.22 386.833C1301.36 386.833 1299.79 387.386 1298.54 388.494 1297.28 389.602 1296.27 391.196 1295.5 393.276 1294.73 395.357 1294.18 397.89 1293.86 400.875 1293.53 403.861 1293.37 407.231 1293.37 410.987 1293.37 419.795 1294.19 426.259 1295.82 430.379 1297.46 434.499 1299.99 436.56 1303.42 436.56 1306.69 436.56 1309.12 434.621 1310.7 430.744 1312.28 426.867 1313.07 420.862 1313.07 412.729 1313.07 406.515 1312.66 401.483 1311.85 397.633 1311.04 393.783 1309.91 391.02 1308.47 389.345 1307.02 387.67 1305.27 386.833 1303.22 386.833ZM1303.42 383.388C1309.34 383.388 1313.74 385.671 1316.63 390.237 1319.53 394.803 1320.97 401.706 1320.97 410.946 1320.97 420.511 1319.42 427.745 1316.33 432.649 1313.24 437.552 1308.72 440.004 1302.77 440.004 1296.94 440.004 1292.59 437.708 1289.74 433.115 1286.89 428.522 1285.47 421.551 1285.47 412.203 1285.47 407.231 1285.91 402.935 1286.79 399.315 1287.66 395.694 1288.89 392.702 1290.47 390.338 1292.05 387.974 1293.95 386.225 1296.17 385.09 1298.38 383.955 1300.8 383.388 1303.42 383.388ZM1257.54 383.388C1262.57 383.388 1266.37 384.489 1268.93 386.691 1271.5 388.893 1272.78 392.088 1272.78 396.275 1272.78 397.707 1272.64 399.025 1272.36 400.227 1272.07 401.429 1271.63 402.618 1271.02 403.793 1270.41 404.969 1269.59 406.232 1268.57 407.583 1267.54 408.933 1266.41 410.305 1265.16 411.696 1263.92 413.087 1261.77 415.404 1258.72 418.646 1253.59 424.077 1249.82 428.819 1247.41 432.872L1262.69 432.872C1264.01 432.872 1265.08 432.791 1265.89 432.628 1266.7 432.466 1267.35 432.196 1267.84 431.818 1268.32 431.44 1268.71 430.947 1268.99 430.339 1269.28 429.731 1269.63 428.792 1270.07 427.522L1273.51 427.522 1272.82 439.356 1239.47 439.356 1239.47 437.411C1240.63 434.574 1242.2 431.669 1244.17 428.697 1246.14 425.725 1248.94 422.226 1252.56 418.201 1255.69 414.742 1257.95 412.122 1259.33 410.338 1260.84 408.393 1261.97 406.711 1262.71 405.293 1263.45 403.874 1263.99 402.537 1264.31 401.281 1264.64 400.024 1264.8 398.761 1264.8 397.491 1264.8 395.465 1264.47 393.675 1263.83 392.121 1263.18 390.568 1262.18 389.345 1260.85 388.454 1259.51 387.562 1257.83 387.116 1255.8 387.116 1250.75 387.116 1247.34 389.926 1245.59 395.546L1240.68 395.546 1240.68 387.765C1243.95 386.225 1247.01 385.11 1249.86 384.421 1252.71 383.732 1255.27 383.388 1257.54 383.388Z" fill-rule="evenodd"/><text fill="#000000" fill-opacity="0" font-family="Arial,Arial_MSFontService,sans-serif" font-size="56.6167" x="1239.47" y="432.927">20</text><path d="M1328.54 380.794C1336.43 382.874 1342.49 387.366 1346.72 394.269 1350.95 401.172 1353.06 409.501 1353.06 419.254 1353.06 429.035 1350.95 437.363 1346.74 444.24 1342.52 451.116 1336.46 455.594 1328.54 457.674L1327.57 454.554C1333.81 452.473 1338.45 448.367 1341.49 442.233 1344.53 436.1 1346.05 428.306 1346.05 418.849 1346.05 409.717 1344.54 402.132 1341.51 396.093 1338.48 390.054 1333.8 385.995 1327.45 383.915Z" fill-rule="evenodd"/><text fill="#000000" fill-opacity="0" font-family="Arial,Arial_MSFontService,sans-serif" font-size="76.8804" x="1327.45" y="448.064">)</text><path d="M411.662 732.15 412.756 735.27C406.434 737.351 401.753 741.41 398.713 747.449 395.674 753.487 394.154 761.073 394.154 770.205 394.154 779.661 395.674 787.456 398.713 793.589 401.753 799.722 406.393 803.829 412.634 805.909L411.662 809.03C403.745 806.95 397.68 802.471 393.465 795.595 389.25 788.719 387.143 780.391 387.143 770.61 387.143 760.857 389.257 752.528 393.485 745.625 397.714 738.722 403.772 734.23 411.662 732.15Z" fill-rule="evenodd"/><text fill="#000000" fill-opacity="0" font-family="Arial,Arial_MSFontService,sans-serif" font-size="76.8804" x="387.143" y="799.42">(</text><path d="M483.202 738.188C481.337 738.188 479.777 738.742 478.521 739.85 477.264 740.958 476.251 742.552 475.481 744.632 474.711 746.713 474.164 749.245 473.84 752.231 473.516 755.217 473.354 758.587 473.354 762.343 473.354 771.151 474.171 777.615 475.805 781.735 477.44 785.855 479.973 787.915 483.404 787.915 486.674 787.915 489.098 785.977 490.679 782.1 492.26 778.223 493.05 772.218 493.05 764.085 493.05 757.871 492.645 752.839 491.834 748.989 491.023 745.139 489.895 742.376 488.45 740.701 487.005 739.026 485.255 738.188 483.202 738.188ZM483.404 734.743C489.321 734.743 493.725 737.026 496.616 741.593 499.507 746.159 500.953 753.062 500.953 762.302 500.953 771.867 499.406 779.101 496.312 784.004 493.219 788.908 488.7 791.36 482.756 791.36 476.92 791.36 472.577 789.064 469.726 784.471 466.876 779.877 465.451 772.907 465.451 763.558 465.451 758.587 465.89 754.291 466.768 750.671 467.646 747.05 468.875 744.058 470.456 741.694 472.036 739.33 473.934 737.58 476.15 736.446 478.365 735.311 480.784 734.743 483.404 734.743ZM440.403 734.743 442.632 734.743C442.47 737.337 442.389 740.931 442.389 745.524L442.389 780.134C442.389 781.701 442.477 782.883 442.653 783.68 442.828 784.477 443.139 785.126 443.585 785.626 444.031 786.125 444.672 786.517 445.51 786.801 446.347 787.085 447.401 787.301 448.671 787.449 449.941 787.598 451.616 787.699 453.696 787.753L453.696 790.712 423.747 790.712 423.747 787.753C426.746 787.618 428.887 787.436 430.17 787.206 431.454 786.976 432.433 786.632 433.108 786.173 433.784 785.713 434.277 785.065 434.588 784.227 434.898 783.39 435.054 782.025 435.054 780.134L435.054 747.266C435.054 746.186 434.865 745.395 434.486 744.896 434.108 744.396 433.554 744.146 432.825 744.146 431.96 744.146 430.731 744.592 429.137 745.483 427.543 746.375 425.57 747.604 423.22 749.171L421.437 746.051Z" fill-rule="evenodd"/><text fill="#000000" fill-opacity="0" font-family="Arial,Arial_MSFontService,sans-serif" font-size="56.6167" x="421.437" y="784.283">10</text><path d="M511.32 781.309 518.412 781.309C518.791 783.201 518.98 785.065 518.98 786.902 518.98 788.793 518.655 790.523 518.007 792.09 517.359 793.657 516.325 795.217 514.907 796.771 513.488 798.324 511.536 800.033 509.051 801.897L506.862 799.425C508.24 798.128 509.24 796.96 509.861 795.919 510.482 794.879 510.928 793.697 511.198 792.373 511.469 791.049 511.604 789.388 511.604 787.388 511.604 785.335 511.509 783.309 511.32 781.309Z" fill-rule="evenodd"/><text fill="#000000" fill-opacity="0" font-family="Arial,Arial_MSFontService,sans-serif" font-size="20.5879" x="506.862" y="799.324">,</text><path d="M546.056 738.188C544.192 738.188 542.631 738.742 541.375 739.85 540.119 740.958 539.105 742.552 538.335 744.632 537.565 746.713 537.018 749.245 536.694 752.231 536.37 755.217 536.208 758.587 536.208 762.343 536.208 771.151 537.025 777.615 538.66 781.735 540.294 785.855 542.827 787.915 546.258 787.915 549.528 787.915 551.953 785.977 553.533 782.1 555.114 778.223 555.904 772.218 555.904 764.085 555.904 757.871 555.499 752.839 554.688 748.989 553.878 745.139 552.75 742.376 551.304 740.701 549.859 739.026 548.109 738.188 546.056 738.188ZM546.258 734.743C552.175 734.743 556.579 737.026 559.47 741.593 562.361 746.159 563.807 753.062 563.807 762.302 563.807 771.867 562.26 779.101 559.166 784.004 556.073 788.908 551.554 791.36 545.61 791.36 539.774 791.36 535.431 789.064 532.581 784.471 529.73 779.877 528.305 772.907 528.305 763.558 528.305 758.587 528.744 754.291 529.622 750.671 530.5 747.05 531.729 744.058 533.31 741.694 534.891 739.33 536.789 737.58 539.004 736.446 541.22 735.311 543.638 734.743 546.258 734.743Z" fill-rule="evenodd"/><text fill="#000000" fill-opacity="0" font-family="Arial,Arial_MSFontService,sans-serif" font-size="56.6167" x="528.305" y="784.283">0</text><path d="M571.544 732.15C579.434 734.23 585.493 738.722 589.721 745.625 593.949 752.528 596.064 760.857 596.064 770.61 596.064 780.391 593.956 788.719 589.741 795.595 585.526 802.471 579.461 806.95 571.544 809.03L570.572 805.909C576.813 803.829 581.453 799.722 584.493 793.589 587.533 787.456 589.052 779.661 589.052 770.205 589.052 761.073 587.539 753.487 584.513 747.449 581.487 741.41 576.8 737.351 570.45 735.27Z" fill-rule="evenodd"/><text fill="#000000" fill-opacity="0" font-family="Arial,Arial_MSFontService,sans-serif" font-size="76.8804" x="570.45" y="799.42">)</text><path d="M766.226 730.578 767.321 733.699C760.998 735.779 756.317 739.839 753.278 745.878 750.238 751.916 748.719 759.501 748.719 768.634 748.719 778.09 750.238 785.885 753.278 792.018 756.317 798.151 760.958 802.258 767.199 804.338L766.226 807.459C758.31 805.378 752.244 800.9 748.03 794.024 743.815 787.148 741.707 778.819 741.707 769.039 741.707 759.285 743.821 750.957 748.05 744.054 752.278 737.151 758.337 732.659 766.226 730.578Z" fill-rule="evenodd"/><text fill="#000000" fill-opacity="0" font-family="Arial,Arial_MSFontService,sans-serif" font-size="76.8804" x="741.707" y="797.849">(</text><path d="M837.766 736.617C835.902 736.617 834.342 737.171 833.085 738.279 831.829 739.386 830.816 740.98 830.046 743.061 829.276 745.141 828.729 747.674 828.405 750.66 828.08 753.645 827.918 757.016 827.918 760.771 827.918 769.579 828.736 776.043 830.37 780.164 832.005 784.284 834.538 786.344 837.969 786.344 841.238 786.344 843.663 784.406 845.244 780.528 846.824 776.651 847.615 770.646 847.615 762.514 847.615 756.3 847.209 751.268 846.399 747.418 845.588 743.567 844.46 740.805 843.015 739.13 841.569 737.455 839.82 736.617 837.766 736.617ZM837.969 733.172C843.886 733.172 848.29 735.455 851.181 740.021 854.072 744.587 855.517 751.491 855.517 760.731 855.517 770.295 853.971 777.529 850.877 782.433 847.783 787.337 843.265 789.789 837.321 789.789 831.485 789.789 827.141 787.492 824.291 782.899 821.441 778.306 820.015 771.335 820.015 761.987 820.015 757.016 820.454 752.72 821.333 749.099 822.211 745.479 823.44 742.487 825.021 740.123 826.601 737.759 828.499 736.009 830.715 734.874 832.93 733.74 835.348 733.172 837.969 733.172ZM794.968 733.172 797.197 733.172C797.035 735.766 796.954 739.359 796.954 743.952L796.954 778.563C796.954 780.13 797.042 781.312 797.217 782.109 797.393 782.906 797.704 783.554 798.149 784.054 798.595 784.554 799.237 784.946 800.074 785.23 800.912 785.513 801.966 785.729 803.236 785.878 804.505 786.027 806.181 786.128 808.261 786.182L808.261 789.14 778.311 789.14 778.311 786.182C781.31 786.047 783.451 785.865 784.735 785.635 786.018 785.405 786.998 785.061 787.673 784.601 788.349 784.142 788.842 783.494 789.152 782.656 789.463 781.818 789.618 780.454 789.618 778.563L789.618 745.695C789.618 744.614 789.429 743.824 789.051 743.324 788.673 742.824 788.119 742.575 787.389 742.575 786.525 742.575 785.295 743.02 783.701 743.912 782.107 744.804 780.135 746.033 777.784 747.6L776.001 744.479Z" fill-rule="evenodd"/><text fill="#000000" fill-opacity="0" font-family="Arial,Arial_MSFontService,sans-serif" font-size="56.6167" x="776.001" y="782.712">10</text><path d="M865.885 779.738 872.977 779.738C873.355 781.629 873.544 783.494 873.544 785.331 873.544 787.222 873.22 788.951 872.572 790.518 871.923 792.085 870.89 793.646 869.471 795.199 868.053 796.753 866.101 798.462 863.615 800.326L861.427 797.854C862.805 796.557 863.804 795.388 864.426 794.348 865.047 793.308 865.493 792.126 865.763 790.802 866.033 789.478 866.168 787.817 866.168 785.817 866.168 783.764 866.074 781.737 865.885 779.738Z" fill-rule="evenodd"/><text fill="#000000" fill-opacity="0" font-family="Arial,Arial_MSFontService,sans-serif" font-size="20.5879" x="861.427" y="797.753">,</text><path d="M946.621 736.617C944.756 736.617 943.196 737.171 941.94 738.279 940.683 739.386 939.67 740.98 938.9 743.061 938.13 745.141 937.583 747.674 937.259 750.66 936.935 753.645 936.772 757.016 936.772 760.771 936.772 769.579 937.59 776.043 939.224 780.164 940.859 784.284 943.392 786.344 946.823 786.344 950.092 786.344 952.517 784.406 954.098 780.528 955.678 776.651 956.469 770.646 956.469 762.514 956.469 756.3 956.063 751.268 955.253 747.418 954.442 743.567 953.314 740.805 951.869 739.13 950.423 737.455 948.674 736.617 946.621 736.617ZM946.823 733.172C952.74 733.172 957.144 735.455 960.035 740.021 962.926 744.587 964.372 751.491 964.372 760.731 964.372 770.295 962.825 777.529 959.731 782.433 956.638 787.337 952.119 789.789 946.175 789.789 940.339 789.789 935.996 787.492 933.145 782.899 930.295 778.306 928.87 771.335 928.87 761.987 928.87 757.016 929.309 752.72 930.187 749.099 931.065 745.479 932.294 742.487 933.875 740.123 935.455 737.759 937.353 736.009 939.569 734.874 941.784 733.74 944.202 733.172 946.823 733.172ZM903.822 733.172 906.051 733.172C905.889 735.766 905.808 739.359 905.808 743.952L905.808 778.563C905.808 780.13 905.896 781.312 906.071 782.109 906.247 782.906 906.558 783.554 907.004 784.054 907.449 784.554 908.091 784.946 908.929 785.23 909.766 785.513 910.82 785.729 912.09 785.878 913.36 786.027 915.035 786.128 917.115 786.182L917.115 789.14 887.165 789.14 887.165 786.182C890.164 786.047 892.306 785.865 893.589 785.635 894.872 785.405 895.852 785.061 896.527 784.601 897.203 784.142 897.696 783.494 898.007 782.656 898.317 781.818 898.473 780.454 898.473 778.563L898.473 745.695C898.473 744.614 898.283 743.824 897.905 743.324 897.527 742.824 896.973 742.575 896.244 742.575 895.379 742.575 894.15 743.02 892.556 743.912 890.962 744.804 888.989 746.033 886.639 747.6L884.855 744.479Z" fill-rule="evenodd"/><text fill="#000000" fill-opacity="0" font-family="Arial,Arial_MSFontService,sans-serif" font-size="56.6167" x="884.855" y="782.712">10</text><path d="M971.942 730.578C979.832 732.659 985.891 737.151 990.119 744.054 994.347 750.957 996.461 759.285 996.461 769.039 996.461 778.819 994.354 787.148 990.139 794.024 985.924 800.9 979.859 805.378 971.942 807.459L970.97 804.338C977.211 802.258 981.851 798.151 984.891 792.018 987.93 785.885 989.45 778.09 989.45 768.634 989.45 759.501 987.937 751.916 984.911 745.878 981.885 739.839 977.198 735.779 970.848 733.699Z" fill-rule="evenodd"/><text fill="#000000" fill-opacity="0" font-family="Arial,Arial_MSFontService,sans-serif" font-size="76.8804" x="970.848" y="797.849">)</text><path d="M1147.42 730.578 1148.51 733.699C1142.19 735.779 1137.51 739.839 1134.47 745.878 1131.43 751.916 1129.91 759.501 1129.91 768.634 1129.91 778.09 1131.43 785.885 1134.47 792.018 1137.51 798.151 1142.15 802.258 1148.39 804.338L1147.42 807.459C1139.5 805.378 1133.44 800.9 1129.22 794.024 1125.01 787.148 1122.9 778.819 1122.9 769.039 1122.9 759.285 1125.02 750.957 1129.24 744.054 1133.47 737.151 1139.53 732.659 1147.42 730.578Z" fill-rule="evenodd"/><text fill="#000000" fill-opacity="0" font-family="Arial,Arial_MSFontService,sans-serif" font-size="76.8804" x="1122.9" y="797.849">(</text><path d="M1218.96 736.617C1217.1 736.617 1215.54 737.171 1214.28 738.279 1213.02 739.386 1212.01 740.98 1211.24 743.061 1210.47 745.141 1209.92 747.674 1209.6 750.66 1209.27 753.645 1209.11 757.016 1209.11 760.771 1209.11 769.579 1209.93 776.043 1211.56 780.164 1213.2 784.284 1215.73 786.344 1219.16 786.344 1222.43 786.344 1224.86 784.406 1226.44 780.528 1228.02 776.651 1228.81 770.646 1228.81 762.514 1228.81 756.3 1228.4 751.268 1227.59 747.418 1226.78 743.567 1225.65 740.805 1224.21 739.13 1222.76 737.455 1221.01 736.617 1218.96 736.617ZM1219.16 733.172C1225.08 733.172 1229.48 735.455 1232.38 740.021 1235.27 744.587 1236.71 751.491 1236.71 760.731 1236.71 770.295 1235.16 777.529 1232.07 782.433 1228.98 787.337 1224.46 789.789 1218.51 789.789 1212.68 789.789 1208.34 787.492 1205.49 782.899 1202.63 778.306 1201.21 771.335 1201.21 761.987 1201.21 757.016 1201.65 752.72 1202.53 749.099 1203.4 745.479 1204.63 742.487 1206.21 740.123 1207.8 737.759 1209.69 736.009 1211.91 734.874 1214.12 733.74 1216.54 733.172 1219.16 733.172ZM1176.16 733.172 1178.39 733.172C1178.23 735.766 1178.15 739.359 1178.15 743.952L1178.15 778.563C1178.15 780.13 1178.24 781.312 1178.41 782.109 1178.59 782.906 1178.9 783.554 1179.34 784.054 1179.79 784.554 1180.43 784.946 1181.27 785.23 1182.11 785.513 1183.16 785.729 1184.43 785.878 1185.7 786.027 1187.37 786.128 1189.46 786.182L1189.46 789.14 1159.51 789.14 1159.51 786.182C1162.5 786.047 1164.65 785.865 1165.93 785.635 1167.21 785.405 1168.19 785.061 1168.87 784.601 1169.54 784.142 1170.04 783.494 1170.35 782.656 1170.66 781.818 1170.81 780.454 1170.81 778.563L1170.81 745.695C1170.81 744.614 1170.62 743.824 1170.25 743.324 1169.87 742.824 1169.31 742.575 1168.58 742.575 1167.72 742.575 1166.49 743.02 1164.9 743.912 1163.3 744.804 1161.33 746.033 1158.98 747.6L1157.2 744.479Z" fill-rule="evenodd"/><text fill="#000000" fill-opacity="0" font-family="Arial,Arial_MSFontService,sans-serif" font-size="56.6167" x="1157.2" y="782.712">10</text><path d="M1247.08 779.738 1254.17 779.738C1254.55 781.629 1254.74 783.494 1254.74 785.331 1254.74 787.222 1254.41 788.951 1253.77 790.518 1253.12 792.085 1252.08 793.646 1250.67 795.199 1249.25 796.753 1247.3 798.462 1244.81 800.326L1242.62 797.854C1244 796.557 1245 795.388 1245.62 794.348 1246.24 793.308 1246.69 792.126 1246.96 790.802 1247.23 789.478 1247.36 787.817 1247.36 785.817 1247.36 783.764 1247.27 781.737 1247.08 779.738Z" fill-rule="evenodd"/><text fill="#000000" fill-opacity="0" font-family="Arial,Arial_MSFontService,sans-serif" font-size="20.5879" x="1242.62" y="797.753">,</text><path d="M1327.81 736.617C1325.95 736.617 1324.39 737.171 1323.13 738.279 1321.88 739.386 1320.86 740.98 1320.09 743.061 1319.32 745.141 1318.78 747.674 1318.45 750.66 1318.13 753.645 1317.97 757.016 1317.97 760.771 1317.97 769.579 1318.78 776.043 1320.42 780.164 1322.05 784.284 1324.59 786.344 1328.02 786.344 1331.29 786.344 1333.71 784.406 1335.29 780.528 1336.87 776.651 1337.66 770.646 1337.66 762.514 1337.66 756.3 1337.26 751.268 1336.45 747.418 1335.64 743.567 1334.51 740.805 1333.06 739.13 1331.62 737.455 1329.87 736.617 1327.81 736.617ZM1328.02 733.172C1333.93 733.172 1338.34 735.455 1341.23 740.021 1344.12 744.587 1345.57 751.491 1345.57 760.731 1345.57 770.295 1344.02 777.529 1340.93 782.433 1337.83 787.337 1333.31 789.789 1327.37 789.789 1321.53 789.789 1317.19 787.492 1314.34 782.899 1311.49 778.306 1310.06 771.335 1310.06 761.987 1310.06 757.016 1310.5 752.72 1311.38 749.099 1312.26 745.479 1313.49 742.487 1315.07 740.123 1316.65 737.759 1318.55 736.009 1320.76 734.874 1322.98 733.74 1325.4 733.172 1328.02 733.172ZM1282.14 733.172C1287.16 733.172 1290.96 734.273 1293.53 736.475 1296.09 738.677 1297.38 741.872 1297.38 746.06 1297.38 747.492 1297.24 748.809 1296.95 750.011 1296.67 751.214 1296.22 752.402 1295.61 753.578 1295.01 754.753 1294.19 756.016 1293.16 757.367 1292.14 758.718 1291 760.089 1289.76 761.481 1288.52 762.872 1286.37 765.189 1283.31 768.431 1278.18 773.862 1274.41 778.603 1272.01 782.656L1287.29 782.656C1288.61 782.656 1289.68 782.575 1290.49 782.413 1291.3 782.251 1291.95 781.981 1292.43 781.602 1292.92 781.224 1293.3 780.731 1293.59 780.123 1293.87 779.515 1294.23 778.576 1294.66 777.306L1298.11 777.306 1297.42 789.14 1264.06 789.14 1264.06 787.195C1265.23 784.358 1266.79 781.454 1268.76 778.482 1270.74 775.51 1273.53 772.011 1277.15 767.985 1280.29 764.527 1282.54 761.906 1283.92 760.123 1285.44 758.178 1286.56 756.496 1287.31 755.077 1288.05 753.659 1288.58 752.321 1288.91 751.065 1289.23 749.809 1289.39 748.546 1289.39 747.276 1289.39 745.249 1289.07 743.459 1288.42 741.906 1287.77 740.352 1286.78 739.13 1285.44 738.238 1284.1 737.346 1282.42 736.901 1280.4 736.901 1275.34 736.901 1271.94 739.711 1270.18 745.33L1265.28 745.33 1265.28 737.549C1268.55 736.009 1271.61 734.895 1274.46 734.206 1277.31 733.517 1279.87 733.172 1282.14 733.172Z" fill-rule="evenodd"/><text fill="#000000" fill-opacity="0" font-family="Arial,Arial_MSFontService,sans-serif" font-size="56.6167" x="1264.06" y="782.712">20</text><path d="M1353.14 730.578C1361.03 732.659 1367.08 737.151 1371.31 744.054 1375.54 750.957 1377.66 759.285 1377.66 769.039 1377.66 778.819 1375.55 787.148 1371.33 794.024 1367.12 800.9 1361.05 805.378 1353.14 807.459L1352.16 804.338C1358.41 802.258 1363.05 798.151 1366.09 792.018 1369.12 785.885 1370.64 778.09 1370.64 768.634 1370.64 759.501 1369.13 751.916 1366.11 745.878 1363.08 739.839 1358.39 735.779 1352.04 733.699Z" fill-rule="evenodd"/><text fill="#000000" fill-opacity="0" font-family="Arial,Arial_MSFontService,sans-serif" font-size="76.8804" x="1352.04" y="797.849">)</text><path d="M422.814 1062.65 423.909 1065.77C417.586 1067.85 412.905 1071.91 409.866 1077.95 406.826 1083.99 405.307 1091.58 405.307 1100.71 405.307 1110.16 406.826 1117.96 409.866 1124.09 412.905 1130.23 417.546 1134.33 423.787 1136.41L422.814 1139.53C414.898 1137.45 408.832 1132.97 404.618 1126.1 400.403 1119.22 398.295 1110.89 398.295 1101.11 398.295 1091.36 400.409 1083.03 404.638 1076.13 408.866 1069.22 414.925 1064.73 422.814 1062.65Z" fill-rule="evenodd"/><text fill="#000000" fill-opacity="0" font-family="Arial,Arial_MSFontService,sans-serif" font-size="76.8804" x="398.295" y="1129.92">(</text><path d="M494.354 1068.69C492.49 1068.69 490.93 1069.25 489.673 1070.35 488.417 1071.46 487.404 1073.05 486.634 1075.14 485.864 1077.22 485.317 1079.75 484.993 1082.73 484.668 1085.72 484.506 1089.09 484.506 1092.85 484.506 1101.65 485.324 1108.12 486.958 1112.24 488.593 1116.36 491.126 1118.42 494.557 1118.42 497.826 1118.42 500.251 1116.48 501.832 1112.6 503.412 1108.73 504.203 1102.72 504.203 1094.59 504.203 1088.37 503.797 1083.34 502.987 1079.49 502.176 1075.64 501.048 1072.88 499.603 1071.2 498.157 1069.53 496.408 1068.69 494.354 1068.69ZM494.557 1065.25C500.474 1065.25 504.878 1067.53 507.769 1072.1 510.66 1076.66 512.105 1083.56 512.105 1092.81 512.105 1102.37 510.559 1109.6 507.465 1114.51 504.371 1119.41 499.853 1121.86 493.909 1121.86 488.073 1121.86 483.729 1119.57 480.879 1114.97 478.029 1110.38 476.603 1103.41 476.603 1094.06 476.603 1089.09 477.042 1084.79 477.921 1081.17 478.799 1077.55 480.028 1074.56 481.609 1072.2 483.189 1069.83 485.087 1068.08 487.303 1066.95 489.518 1065.81 491.936 1065.25 494.557 1065.25ZM448.679 1065.25C453.704 1065.25 457.5 1066.35 460.067 1068.55 462.633 1070.75 463.917 1073.95 463.917 1078.13 463.917 1079.57 463.775 1080.88 463.491 1082.09 463.208 1083.29 462.762 1084.48 462.154 1085.65 461.546 1086.83 460.729 1088.09 459.702 1089.44 458.675 1090.79 457.541 1092.16 456.298 1093.55 455.055 1094.95 452.907 1097.26 449.854 1100.51 444.72 1105.94 440.951 1110.68 438.547 1114.73L453.826 1114.73C455.149 1114.73 456.217 1114.65 457.027 1114.49 457.838 1114.33 458.486 1114.06 458.973 1113.68 459.459 1113.3 459.844 1112.81 460.128 1112.2 460.411 1111.59 460.769 1110.65 461.202 1109.38L464.646 1109.38 463.957 1121.21 430.603 1121.21 430.603 1119.27C431.765 1116.43 433.332 1113.53 435.305 1110.56 437.277 1107.58 440.073 1104.09 443.694 1100.06 446.828 1096.6 449.084 1093.98 450.462 1092.2 451.975 1090.25 453.103 1088.57 453.846 1087.15 454.589 1085.73 455.122 1084.4 455.447 1083.14 455.771 1081.88 455.933 1080.62 455.933 1079.35 455.933 1077.32 455.609 1075.53 454.96 1073.98 454.312 1072.43 453.319 1071.2 451.982 1070.31 450.644 1069.42 448.962 1068.98 446.936 1068.98 441.884 1068.98 438.479 1071.79 436.723 1077.4L431.819 1077.4 431.819 1069.62C435.088 1068.08 438.148 1066.97 440.999 1066.28 443.849 1065.59 446.409 1065.25 448.679 1065.25Z" fill-rule="evenodd"/><text fill="#000000" fill-opacity="0" font-family="Arial,Arial_MSFontService,sans-serif" font-size="56.6167" x="430.603" y="1114.79">20</text><path d="M522.473 1111.81 529.565 1111.81C529.943 1113.7 530.132 1115.57 530.132 1117.41 530.132 1119.3 529.808 1121.03 529.16 1122.59 528.511 1124.16 527.478 1125.72 526.059 1127.27 524.641 1128.83 522.689 1130.54 520.203 1132.4L518.015 1129.93C519.393 1128.63 520.392 1127.46 521.014 1126.42 521.635 1125.38 522.081 1124.2 522.351 1122.88 522.621 1121.55 522.756 1119.89 522.756 1117.89 522.756 1115.84 522.662 1113.81 522.473 1111.81Z" fill-rule="evenodd"/><text fill="#000000" fill-opacity="0" font-family="Arial,Arial_MSFontService,sans-serif" font-size="20.5879" x="518.015" y="1129.83">,</text><path d="M557.208 1068.69C555.344 1068.69 553.784 1069.25 552.528 1070.35 551.271 1071.46 550.258 1073.05 549.488 1075.14 548.718 1077.22 548.171 1079.75 547.847 1082.73 547.522 1085.72 547.36 1089.09 547.36 1092.85 547.36 1101.65 548.178 1108.12 549.812 1112.24 551.447 1116.36 553.98 1118.42 557.411 1118.42 560.68 1118.42 563.105 1116.48 564.686 1112.6 566.266 1108.73 567.057 1102.72 567.057 1094.59 567.057 1088.37 566.651 1083.34 565.841 1079.49 565.03 1075.64 563.902 1072.88 562.457 1071.2 561.011 1069.53 559.262 1068.69 557.208 1068.69ZM557.411 1065.25C563.328 1065.25 567.732 1067.53 570.623 1072.1 573.514 1076.66 574.959 1083.56 574.959 1092.81 574.959 1102.37 573.413 1109.6 570.319 1114.51 567.226 1119.41 562.707 1121.86 556.763 1121.86 550.927 1121.86 546.584 1119.57 543.733 1114.97 540.883 1110.38 539.458 1103.41 539.458 1094.06 539.458 1089.09 539.897 1084.79 540.775 1081.17 541.653 1077.55 542.882 1074.56 544.463 1072.2 546.043 1069.83 547.941 1068.08 550.157 1066.95 552.372 1065.81 554.79 1065.25 557.411 1065.25Z" fill-rule="evenodd"/><text fill="#000000" fill-opacity="0" font-family="Arial,Arial_MSFontService,sans-serif" font-size="56.6167" x="539.458" y="1114.79">0</text><path d="M582.697 1062.65C590.586 1064.73 596.645 1069.22 600.874 1076.13 605.102 1083.03 607.216 1091.36 607.216 1101.11 607.216 1110.89 605.109 1119.22 600.894 1126.1 596.679 1132.97 590.613 1137.45 582.697 1139.53L581.724 1136.41C587.966 1134.33 592.606 1130.23 595.646 1124.09 598.685 1117.96 600.205 1110.16 600.205 1100.71 600.205 1091.58 598.692 1083.99 595.666 1077.95 592.64 1071.91 587.952 1067.85 581.603 1065.77Z" fill-rule="evenodd"/><text fill="#000000" fill-opacity="0" font-family="Arial,Arial_MSFontService,sans-serif" font-size="76.8804" x="581.603" y="1129.92">)</text><path d="M777.379 1061.08 778.473 1064.2C772.151 1066.28 767.47 1070.34 764.43 1076.38 761.391 1082.42 759.871 1090 759.871 1099.14 759.871 1108.59 761.391 1116.39 764.43 1122.52 767.47 1128.65 772.11 1132.76 778.352 1134.84L777.379 1137.96C769.463 1135.88 763.397 1131.4 759.182 1124.53 754.967 1117.65 752.86 1109.32 752.86 1099.54 752.86 1089.79 754.974 1081.46 759.202 1074.56 763.431 1067.65 769.49 1063.16 777.379 1061.08Z" fill-rule="evenodd"/><text fill="#000000" fill-opacity="0" font-family="Arial,Arial_MSFontService,sans-serif" font-size="76.8804" x="752.86" y="1128.35">(</text><path d="M848.919 1067.12C847.055 1067.12 845.494 1067.67 844.238 1068.78 842.982 1069.89 841.969 1071.48 841.199 1073.56 840.429 1075.64 839.881 1078.18 839.557 1081.16 839.233 1084.15 839.071 1087.52 839.071 1091.27 839.071 1100.08 839.888 1106.55 841.523 1110.67 843.157 1114.79 845.69 1116.85 849.122 1116.85 852.391 1116.85 854.816 1114.91 856.396 1111.03 857.977 1107.15 858.767 1101.15 858.767 1093.02 858.767 1086.8 858.362 1081.77 857.551 1077.92 856.741 1074.07 855.613 1071.31 854.167 1069.63 852.722 1067.96 850.972 1067.12 848.919 1067.12ZM849.122 1063.68C855.039 1063.68 859.443 1065.96 862.334 1070.52 865.224 1075.09 866.67 1081.99 866.67 1091.23 866.67 1100.8 865.123 1108.03 862.03 1112.94 858.936 1117.84 854.417 1120.29 848.473 1120.29 842.637 1120.29 838.294 1118 835.444 1113.4 832.593 1108.81 831.168 1101.84 831.168 1092.49 831.168 1087.52 831.607 1083.22 832.485 1079.6 833.363 1075.98 834.593 1072.99 836.173 1070.63 837.754 1068.26 839.652 1066.51 841.867 1065.38 844.083 1064.24 846.501 1063.68 849.122 1063.68ZM803.243 1063.68C808.269 1063.68 812.065 1064.78 814.631 1066.98 817.198 1069.18 818.482 1072.38 818.482 1076.56 818.482 1077.99 818.34 1079.31 818.056 1080.51 817.772 1081.72 817.326 1082.91 816.719 1084.08 816.111 1085.26 815.293 1086.52 814.267 1087.87 813.24 1089.22 812.105 1090.59 810.862 1091.98 809.62 1093.38 807.472 1095.69 804.419 1098.93 799.285 1104.36 795.516 1109.11 793.111 1113.16L808.39 1113.16C809.714 1113.16 810.781 1113.08 811.592 1112.92 812.402 1112.75 813.051 1112.48 813.537 1112.11 814.023 1111.73 814.409 1111.23 814.692 1110.63 814.976 1110.02 815.334 1109.08 815.766 1107.81L819.211 1107.81 818.522 1119.64 785.168 1119.64 785.168 1117.7C786.33 1114.86 787.897 1111.96 789.869 1108.98 791.842 1106.01 794.638 1102.51 798.258 1098.49 801.392 1095.03 803.648 1092.41 805.026 1090.63 806.539 1088.68 807.667 1087 808.41 1085.58 809.153 1084.16 809.687 1082.82 810.011 1081.57 810.336 1080.31 810.498 1079.05 810.498 1077.78 810.498 1075.75 810.173 1073.96 809.525 1072.41 808.877 1070.86 807.884 1069.63 806.546 1068.74 805.209 1067.85 803.527 1067.4 801.501 1067.4 796.448 1067.4 793.044 1070.21 791.288 1075.83L786.384 1075.83 786.384 1068.05C789.653 1066.51 792.713 1065.4 795.563 1064.71 798.414 1064.02 800.974 1063.68 803.243 1063.68Z" fill-rule="evenodd"/><text fill="#000000" fill-opacity="0" font-family="Arial,Arial_MSFontService,sans-serif" font-size="56.6167" x="785.168" y="1113.21">20</text><path d="M877.037 1110.24 884.13 1110.24C884.508 1112.13 884.697 1114 884.697 1115.83 884.697 1117.73 884.373 1119.45 883.724 1121.02 883.076 1122.59 882.042 1124.15 880.624 1125.7 879.206 1127.26 877.253 1128.96 874.768 1130.83L872.579 1128.36C873.957 1127.06 874.957 1125.89 875.578 1124.85 876.2 1123.81 876.646 1122.63 876.916 1121.31 877.186 1119.98 877.321 1118.32 877.321 1116.32 877.321 1114.27 877.227 1112.24 877.037 1110.24Z" fill-rule="evenodd"/><text fill="#000000" fill-opacity="0" font-family="Arial,Arial_MSFontService,sans-serif" font-size="20.5879" x="872.579" y="1128.26">,</text><path d="M957.773 1067.12C955.909 1067.12 954.349 1067.67 953.092 1068.78 951.836 1069.89 950.823 1071.48 950.053 1073.56 949.283 1075.64 948.736 1078.18 948.411 1081.16 948.087 1084.15 947.925 1087.52 947.925 1091.27 947.925 1100.08 948.742 1106.55 950.377 1110.67 952.012 1114.79 954.544 1116.85 957.976 1116.85 961.245 1116.85 963.67 1114.91 965.25 1111.03 966.831 1107.15 967.621 1101.15 967.621 1093.02 967.621 1086.8 967.216 1081.77 966.406 1077.92 965.595 1074.07 964.467 1071.31 963.021 1069.63 961.576 1067.96 959.827 1067.12 957.773 1067.12ZM957.976 1063.68C963.893 1063.68 968.297 1065.96 971.188 1070.52 974.079 1075.09 975.524 1081.99 975.524 1091.23 975.524 1100.8 973.977 1108.03 970.884 1112.94 967.79 1117.84 963.271 1120.29 957.327 1120.29 951.491 1120.29 947.148 1118 944.298 1113.4 941.447 1108.81 940.022 1101.84 940.022 1092.49 940.022 1087.52 940.461 1083.22 941.339 1079.6 942.217 1075.98 943.447 1072.99 945.027 1070.63 946.608 1068.26 948.506 1066.51 950.721 1065.38 952.937 1064.24 955.355 1063.68 957.976 1063.68ZM914.975 1063.68 917.204 1063.68C917.042 1066.27 916.961 1069.86 916.961 1074.46L916.961 1109.07C916.961 1110.63 917.049 1111.81 917.224 1112.61 917.4 1113.41 917.71 1114.06 918.156 1114.56 918.602 1115.06 919.244 1115.45 920.081 1115.73 920.919 1116.02 921.973 1116.23 923.242 1116.38 924.512 1116.53 926.187 1116.63 928.268 1116.68L928.268 1119.64 898.318 1119.64 898.318 1116.68C901.317 1116.55 903.458 1116.37 904.742 1116.14 906.025 1115.91 907.004 1115.56 907.68 1115.1 908.355 1114.65 908.848 1114 909.159 1113.16 909.47 1112.32 909.625 1110.96 909.625 1109.07L909.625 1076.2C909.625 1075.12 909.436 1074.33 909.058 1073.83 908.68 1073.33 908.126 1073.08 907.396 1073.08 906.532 1073.08 905.302 1073.52 903.708 1074.41 902.114 1075.31 900.142 1076.54 897.791 1078.1L896.008 1074.98Z" fill-rule="evenodd"/><text fill="#000000" fill-opacity="0" font-family="Arial,Arial_MSFontService,sans-serif" font-size="56.6167" x="896.008" y="1113.21">10</text><path d="M983.095 1061.08C990.984 1063.16 997.043 1067.65 1001.27 1074.56 1005.5 1081.46 1007.61 1089.79 1007.61 1099.54 1007.61 1109.32 1005.51 1117.65 1001.29 1124.53 997.077 1131.4 991.011 1135.88 983.095 1137.96L982.122 1134.84C988.364 1132.76 993.004 1128.65 996.044 1122.52 999.083 1116.39 1000.6 1108.59 1000.6 1099.14 1000.6 1090 999.09 1082.42 996.064 1076.38 993.038 1070.34 988.35 1066.28 982.001 1064.2Z" fill-rule="evenodd"/><text fill="#000000" fill-opacity="0" font-family="Arial,Arial_MSFontService,sans-serif" font-size="76.8804" x="982.001" y="1128.35">)</text><path d="M1158.57 1061.08 1159.67 1064.2C1153.35 1066.28 1148.66 1070.34 1145.62 1076.38 1142.59 1082.42 1141.07 1090 1141.07 1099.14 1141.07 1108.59 1142.59 1116.39 1145.62 1122.52 1148.66 1128.65 1153.3 1132.76 1159.55 1134.84L1158.57 1137.96C1150.66 1135.88 1144.59 1131.4 1140.38 1124.53 1136.16 1117.65 1134.05 1109.32 1134.05 1099.54 1134.05 1089.79 1136.17 1081.46 1140.4 1074.56 1144.62 1067.65 1150.68 1063.16 1158.57 1061.08Z" fill-rule="evenodd"/><text fill="#000000" fill-opacity="0" font-family="Arial,Arial_MSFontService,sans-serif" font-size="76.8804" x="1134.05" y="1128.35">(</text><path d="M1230.11 1067.12C1228.25 1067.12 1226.69 1067.67 1225.43 1068.78 1224.18 1069.89 1223.16 1071.48 1222.39 1073.56 1221.62 1075.64 1221.08 1078.18 1220.75 1081.16 1220.43 1084.15 1220.27 1087.52 1220.27 1091.27 1220.27 1100.08 1221.08 1106.55 1222.72 1110.67 1224.35 1114.79 1226.88 1116.85 1230.32 1116.85 1233.58 1116.85 1236.01 1114.91 1237.59 1111.03 1239.17 1107.15 1239.96 1101.15 1239.96 1093.02 1239.96 1086.8 1239.56 1081.77 1238.75 1077.92 1237.93 1074.07 1236.81 1071.31 1235.36 1069.63 1233.92 1067.96 1232.17 1067.12 1230.11 1067.12ZM1230.32 1063.68C1236.23 1063.68 1240.64 1065.96 1243.53 1070.52 1246.42 1075.09 1247.86 1081.99 1247.86 1091.23 1247.86 1100.8 1246.32 1108.03 1243.22 1112.94 1240.13 1117.84 1235.61 1120.29 1229.67 1120.29 1223.83 1120.29 1219.49 1118 1216.64 1113.4 1213.79 1108.81 1212.36 1101.84 1212.36 1092.49 1212.36 1087.52 1212.8 1083.22 1213.68 1079.6 1214.56 1075.98 1215.79 1072.99 1217.37 1070.63 1218.95 1068.26 1220.85 1066.51 1223.06 1065.38 1225.28 1064.24 1227.7 1063.68 1230.32 1063.68ZM1184.44 1063.68C1189.46 1063.68 1193.26 1064.78 1195.83 1066.98 1198.39 1069.18 1199.68 1072.38 1199.68 1076.56 1199.68 1077.99 1199.53 1079.31 1199.25 1080.51 1198.97 1081.72 1198.52 1082.91 1197.91 1084.08 1197.3 1085.26 1196.49 1086.52 1195.46 1087.87 1194.43 1089.22 1193.3 1090.59 1192.06 1091.98 1190.81 1093.38 1188.67 1095.69 1185.61 1098.93 1180.48 1104.36 1176.71 1109.11 1174.31 1113.16L1189.58 1113.16C1190.91 1113.16 1191.98 1113.08 1192.79 1112.92 1193.6 1112.75 1194.24 1112.48 1194.73 1112.11 1195.22 1111.73 1195.6 1111.23 1195.89 1110.63 1196.17 1110.02 1196.53 1109.08 1196.96 1107.81L1200.41 1107.81 1199.72 1119.64 1166.36 1119.64 1166.36 1117.7C1167.52 1114.86 1169.09 1111.96 1171.06 1108.98 1173.04 1106.01 1175.83 1102.51 1179.45 1098.49 1182.59 1095.03 1184.84 1092.41 1186.22 1090.63 1187.73 1088.68 1188.86 1087 1189.6 1085.58 1190.35 1084.16 1190.88 1082.82 1191.21 1081.57 1191.53 1080.31 1191.69 1079.05 1191.69 1077.78 1191.69 1075.75 1191.37 1073.96 1190.72 1072.41 1190.07 1070.86 1189.08 1069.63 1187.74 1068.74 1186.4 1067.85 1184.72 1067.4 1182.69 1067.4 1177.64 1067.4 1174.24 1070.21 1172.48 1075.83L1167.58 1075.83 1167.58 1068.05C1170.85 1066.51 1173.91 1065.4 1176.76 1064.71 1179.61 1064.02 1182.17 1063.68 1184.44 1063.68Z" fill-rule="evenodd"/><text fill="#000000" fill-opacity="0" font-family="Arial,Arial_MSFontService,sans-serif" font-size="56.6167" x="1166.36" y="1113.21">20</text><path d="M1258.23 1110.24 1265.32 1110.24C1265.7 1112.13 1265.89 1114 1265.89 1115.83 1265.89 1117.73 1265.57 1119.45 1264.92 1121.02 1264.27 1122.59 1263.24 1124.15 1261.82 1125.7 1260.4 1127.26 1258.45 1128.96 1255.96 1130.83L1253.77 1128.36C1255.15 1127.06 1256.15 1125.89 1256.77 1124.85 1257.39 1123.81 1257.84 1122.63 1258.11 1121.31 1258.38 1119.98 1258.52 1118.32 1258.52 1116.32 1258.52 1114.27 1258.42 1112.24 1258.23 1110.24Z" fill-rule="evenodd"/><text fill="#000000" fill-opacity="0" font-family="Arial,Arial_MSFontService,sans-serif" font-size="20.5879" x="1253.77" y="1128.26">,</text><path d="M1338.97 1067.12C1337.1 1067.12 1335.54 1067.67 1334.29 1068.78 1333.03 1069.89 1332.02 1071.48 1331.25 1073.56 1330.48 1075.64 1329.93 1078.18 1329.61 1081.16 1329.28 1084.15 1329.12 1087.52 1329.12 1091.27 1329.12 1100.08 1329.94 1106.55 1331.57 1110.67 1333.21 1114.79 1335.74 1116.85 1339.17 1116.85 1342.44 1116.85 1344.86 1114.91 1346.44 1111.03 1348.03 1107.15 1348.82 1101.15 1348.82 1093.02 1348.82 1086.8 1348.41 1081.77 1347.6 1077.92 1346.79 1074.07 1345.66 1071.31 1344.22 1069.63 1342.77 1067.96 1341.02 1067.12 1338.97 1067.12ZM1339.17 1063.68C1345.09 1063.68 1349.49 1065.96 1352.38 1070.52 1355.27 1075.09 1356.72 1081.99 1356.72 1091.23 1356.72 1100.8 1355.17 1108.03 1352.08 1112.94 1348.98 1117.84 1344.47 1120.29 1338.52 1120.29 1332.69 1120.29 1328.34 1118 1325.49 1113.4 1322.64 1108.81 1321.22 1101.84 1321.22 1092.49 1321.22 1087.52 1321.66 1083.22 1322.53 1079.6 1323.41 1075.98 1324.64 1072.99 1326.22 1070.63 1327.8 1068.26 1329.7 1066.51 1331.92 1065.38 1334.13 1064.24 1336.55 1063.68 1339.17 1063.68ZM1293.29 1063.68C1298.32 1063.68 1302.11 1064.78 1304.68 1066.98 1307.25 1069.18 1308.53 1072.38 1308.53 1076.56 1308.53 1077.99 1308.39 1079.31 1308.1 1080.51 1307.82 1081.72 1307.37 1082.91 1306.77 1084.08 1306.16 1085.26 1305.34 1086.52 1304.32 1087.87 1303.29 1089.22 1302.15 1090.59 1300.91 1091.98 1299.67 1093.38 1297.52 1095.69 1294.47 1098.93 1289.33 1104.36 1285.56 1109.11 1283.16 1113.16L1298.44 1113.16C1299.76 1113.16 1300.83 1113.08 1301.64 1112.92 1302.45 1112.75 1303.1 1112.48 1303.59 1112.11 1304.07 1111.73 1304.46 1111.23 1304.74 1110.63 1305.02 1110.02 1305.38 1109.08 1305.81 1107.81L1309.26 1107.81 1308.57 1119.64 1275.22 1119.64 1275.22 1117.7C1276.38 1114.86 1277.95 1111.96 1279.92 1108.98 1281.89 1106.01 1284.69 1102.51 1288.31 1098.49 1291.44 1095.03 1293.7 1092.41 1295.07 1090.63 1296.59 1088.68 1297.72 1087 1298.46 1085.58 1299.2 1084.16 1299.74 1082.82 1300.06 1081.57 1300.38 1080.31 1300.55 1079.05 1300.55 1077.78 1300.55 1075.75 1300.22 1073.96 1299.57 1072.41 1298.92 1070.86 1297.93 1069.63 1296.59 1068.74 1295.26 1067.85 1293.58 1067.4 1291.55 1067.4 1286.5 1067.4 1283.09 1070.21 1281.34 1075.83L1276.43 1075.83 1276.43 1068.05C1279.7 1066.51 1282.76 1065.4 1285.61 1064.71 1288.46 1064.02 1291.02 1063.68 1293.29 1063.68Z" fill-rule="evenodd"/><text fill="#000000" fill-opacity="0" font-family="Arial,Arial_MSFontService,sans-serif" font-size="56.6167" x="1275.22" y="1113.21">20</text><path d="M1364.29 1061.08C1372.18 1063.16 1378.24 1067.65 1382.47 1074.56 1386.69 1081.46 1388.81 1089.79 1388.81 1099.54 1388.81 1109.32 1386.7 1117.65 1382.49 1124.53 1378.27 1131.4 1372.21 1135.88 1364.29 1137.96L1363.32 1134.84C1369.56 1132.76 1374.2 1128.65 1377.24 1122.52 1380.28 1116.39 1381.8 1108.59 1381.8 1099.14 1381.8 1090 1380.28 1082.42 1377.26 1076.38 1374.23 1070.34 1369.54 1066.28 1363.2 1064.2Z" fill-rule="evenodd"/><text fill="#000000" fill-opacity="0" font-family="Arial,Arial_MSFontService,sans-serif" font-size="76.8804" x="1363.2" y="1128.35">)</text><path d="M717.5 500.063 960.154 500.063 960.154 506.938 717.5 506.938ZM955.571 489.75 983.071 503.5 955.571 517.25Z" fill="#0D0D0D"/><path d="M1083.5 500.063 1326.15 500.063 1326.15 506.938 1083.5 506.938ZM1321.57 489.75 1349.07 503.5 1321.57 517.25Z" fill="#0D0D0D"/><path d="M1402.94 553.5 1402.94 774.155 1396.06 774.155 1396.06 553.5ZM1413.25 769.571 1399.5 797.071 1385.75 769.571Z" fill="#0D0D0D"/><path d="M3.4375-4.98764e-06 3.43783 225.812-3.43717 225.812-3.4375 4.98764e-06ZM13.7503 221.228 0.000360892 248.728-13.7497 221.229Z" fill="#0D0D0D" transform="matrix(-1 0 0 1 1399.5 897.5)"/><path d="M4.67132e-06-3.4375 242.654-3.43717 242.654 3.43783-4.67132e-06 3.4375ZM238.071-13.7497 265.571 0.000360892 238.071 13.7503Z" fill="#0D0D0D" transform="matrix(-1 0 0 1 1349.07 1191.5)"/><path d="M3.4375-5.09324e-06 3.43783 220.655-3.43717 220.655-3.4375 5.09324e-06ZM13.7503 216.071 0.000360892 243.571-13.7497 216.071Z" fill="#0D0D0D" transform="matrix(1 0 0 -1 1032.5 1141.07)"/><path d="M2.33479-2.52292 280.543 254.94 275.874 259.986-2.33479 2.52292ZM284.184 244.258 295.028 273.028 265.505 264.441Z" fill="#0D0D0D" transform="matrix(-1 0 0 1 997.528 883.5)"/><path d="M3.4375-5.09324e-06 3.43783 220.655-3.43717 220.655-3.4375 5.09324e-06ZM13.7503 216.071 0.000360892 243.571-13.7497 216.071Z" fill="#0D0D0D" transform="matrix(1 0 0 -1 666.5 797.071)"/><path d="M3.4375-5.09324e-06 3.43783 220.655-3.43717 220.655-3.4375 5.09324e-06ZM13.7503 216.071 0.000360892 243.571-13.7497 216.071Z" fill="#0D0D0D" transform="matrix(1 0 0 -1 666.5 1141.07)"/></g></svg>