<?xml version="1.0" encoding="UTF-8" standalone="no"?>
<!DOCTYPE svg PUBLIC "-//W3C//DTD SVG 1.1//EN"
 "http://www.w3.org/Graphics/SVG/1.1/DTD/svg11.dtd">
<!-- Generated by graphviz version 2.43.0 (0)
 -->
<!-- Title: G Pages: 1 -->
<svg width="254pt" height="283pt"
 viewBox="0.00 0.00 254.00 283.00" xmlns="http://www.w3.org/2000/svg" xmlns:xlink="http://www.w3.org/1999/xlink">
<g id="graph0" class="graph" transform="scale(1 1) rotate(0) translate(4 279)">
<title>G</title>
<polygon fill="white" stroke="transparent" points="-4,4 -4,-279 250,-279 250,4 -4,4"/>
<!-- 0 -->
<g id="node1" class="node">
<title>0</title>
<ellipse fill="#ffffff" stroke="black" cx="18" cy="-26" rx="18" ry="18"/>
<text text-anchor="middle" x="18" y="-22.3" font-family="Times,serif" font-size="14.00">0</text>
</g>
<!-- 3 -->
<g id="node4" class="node">
<title>3</title>
<ellipse fill="#ffffff" stroke="black" cx="129" cy="-25" rx="18" ry="18"/>
<text text-anchor="middle" x="129" y="-21.3" font-family="Times,serif" font-size="14.00">3</text>
</g>
<!-- 0&#45;&gt;3 -->
<g id="edge7" class="edge">
<title>0&#45;&gt;3</title>
<path fill="none" stroke="red" stroke-width="2" d="M36.33,-25.83C53.76,-25.68 80.25,-25.44 100.45,-25.26"/>
<polygon fill="red" stroke="red" stroke-width="2" points="100.68,-28.76 110.64,-25.17 100.61,-21.76 100.68,-28.76"/>
</g>
<!-- 1 -->
<g id="node2" class="node">
<title>1</title>
<ellipse fill="#ffffff" stroke="black" cx="41" cy="-139" rx="18" ry="18"/>
<text text-anchor="middle" x="41" y="-135.3" font-family="Times,serif" font-size="14.00">1</text>
</g>
<!-- 1&#45;&gt;0 -->
<g id="edge6" class="edge">
<title>1&#45;&gt;0</title>
<path fill="none" stroke="red" stroke-width="2" d="M37.41,-121.34C33.73,-103.29 27.97,-74.98 23.68,-53.89"/>
<polygon fill="red" stroke="red" stroke-width="2" points="27.07,-53.01 21.64,-43.91 20.21,-54.4 27.07,-53.01"/>
</g>
<!-- 2 -->
<g id="node3" class="node">
<title>2</title>
<ellipse fill="#ffffff" stroke="black" cx="20" cy="-240" rx="18" ry="18"/>
<text text-anchor="middle" x="20" y="-236.3" font-family="Times,serif" font-size="14.00">2</text>
</g>
<!-- 4 -->
<g id="node5" class="node">
<title>4</title>
<ellipse fill="#ffffff" stroke="black" cx="116" cy="-156" rx="18" ry="18"/>
<text text-anchor="middle" x="116" y="-152.3" font-family="Times,serif" font-size="14.00">4</text>
</g>
<!-- 2&#45;&gt;4 -->
<g id="edge4" class="edge">
<title>2&#45;&gt;4</title>
<path fill="none" stroke="red" stroke-width="2" d="M33.75,-227.96C49.65,-214.05 76.01,-191 94.59,-174.73"/>
<polygon fill="red" stroke="red" stroke-width="2" points="97.05,-177.23 102.27,-168.01 92.44,-171.96 97.05,-177.23"/>
</g>
<!-- 6 -->
<g id="node7" class="node">
<title>6</title>
<ellipse fill="#ffffff" stroke="black" cx="228" cy="-18" rx="18" ry="18"/>
<text text-anchor="middle" x="228" y="-14.3" font-family="Times,serif" font-size="14.00">6</text>
</g>
<!-- 3&#45;&gt;6 -->
<g id="edge8" class="edge">
<title>3&#45;&gt;6</title>
<path fill="none" stroke="red" stroke-width="2" d="M147.16,-23.72C161.81,-22.68 182.69,-21.2 199.56,-20.01"/>
<polygon fill="red" stroke="red" stroke-width="2" points="200.23,-23.47 209.96,-19.28 199.74,-16.49 200.23,-23.47"/>
</g>
<!-- 4&#45;&gt;1 -->
<g id="edge5" class="edge">
<title>4&#45;&gt;1</title>
<path fill="none" stroke="red" stroke-width="2" d="M98.23,-151.97C89.35,-149.96 78.42,-147.48 68.5,-145.23"/>
<polygon fill="red" stroke="red" stroke-width="2" points="69.17,-141.8 58.65,-143 67.63,-148.62 69.17,-141.8"/>
</g>
<!-- 5 -->
<g id="node6" class="node">
<title>5</title>
<ellipse fill="#ffffff" stroke="black" cx="119" cy="-257" rx="18" ry="18"/>
<text text-anchor="middle" x="119" y="-253.3" font-family="Times,serif" font-size="14.00">5</text>
</g>
<!-- 5&#45;&gt;2 -->
<g id="edge3" class="edge">
<title>5&#45;&gt;2</title>
<path fill="none" stroke="red" stroke-width="2" d="M100.84,-253.88C86.05,-251.34 64.91,-247.71 47.96,-244.8"/>
<polygon fill="red" stroke="red" stroke-width="2" points="48.49,-241.34 38.04,-243.1 47.31,-248.24 48.49,-241.34"/>
</g>
<!-- 7 -->
<g id="node8" class="node">
<title>7</title>
<ellipse fill="#ffffff" stroke="black" cx="218" cy="-127" rx="18" ry="18"/>
<text text-anchor="middle" x="218" y="-123.3" font-family="Times,serif" font-size="14.00">7</text>
</g>
<!-- 6&#45;&gt;7 -->
<g id="edge9" class="edge">
<title>6&#45;&gt;7</title>
<path fill="none" stroke="red" stroke-width="2" d="M226.35,-36C224.78,-53.12 222.39,-79.13 220.57,-98.97"/>
<polygon fill="red" stroke="red" stroke-width="2" points="217.08,-98.7 219.65,-108.97 224.05,-99.34 217.08,-98.7"/>
</g>
<!-- 8 -->
<g id="node9" class="node">
<title>8</title>
<ellipse fill="#ffffff" stroke="black" cx="219" cy="-247" rx="18" ry="18"/>
<text text-anchor="middle" x="219" y="-243.3" font-family="Times,serif" font-size="14.00">8</text>
</g>
<!-- 7&#45;&gt;8 -->
<g id="edge1" class="edge">
<title>7&#45;&gt;8</title>
<path fill="none" stroke="red" stroke-width="2" d="M218.15,-145.23C218.32,-164.81 218.58,-196.18 218.77,-218.92"/>
<polygon fill="red" stroke="red" stroke-width="2" points="215.27,-219.03 218.85,-229 222.27,-218.97 215.27,-219.03"/>
</g>
<!-- 8&#45;&gt;5 -->
<g id="edge2" class="edge">
<title>8&#45;&gt;5</title>
<path fill="none" stroke="red" stroke-width="2" d="M200.66,-248.83C185.72,-250.33 164.37,-252.46 147.24,-254.18"/>
<polygon fill="red" stroke="red" stroke-width="2" points="146.83,-250.7 137.23,-255.18 147.52,-257.66 146.83,-250.7"/>
</g>
</g>
</svg>
