<svg width="1001" height="1002" xmlns="http://www.w3.org/2000/svg" xmlns:xlink="http://www.w3.org/1999/xlink" overflow="hidden"><defs><clipPath id="clip0"><rect x="910" y="404" width="1001" height="1002"/></clipPath></defs><g clip-path="url(#clip0)" transform="translate(-910 -404)"><path d="M956 904.5C956 653.487 1159.49 450 1410.5 450 1661.51 450 1865 653.487 1865 904.5 1865 1155.51 1661.51 1359 1410.5 1359 1159.49 1359 956 1155.51 956 904.5Z" stroke="#0070C0" stroke-width="91.6667" stroke-miterlimit="8" fill="none" fill-rule="evenodd"/><path d="M1475 1100 1864.76 1359.84" stroke="#0070C0" stroke-width="91.6667" stroke-miterlimit="8" fill="none" fill-rule="evenodd"/><path d="M1110 813 1369.84 813" stroke="#FF0000" stroke-width="91.6667" stroke-miterlimit="8" fill="none" fill-rule="evenodd"/><path d="M0 0 0.000360892 259.843" stroke="#FF0000" stroke-width="91.6667" stroke-miterlimit="8" fill="none" fill-rule="evenodd" transform="matrix(1 0 0 -1 1240 942.843)"/><path d="M1446 813 1705.84 813" stroke="#00B050" stroke-width="91.6667" stroke-miterlimit="8" fill="none" fill-rule="evenodd"/><path d="M0 0 0.000360892 259.843" stroke="#00B050" stroke-width="91.6667" stroke-miterlimit="8" fill="none" fill-rule="evenodd" transform="matrix(1 0 0 -1 1576 942.843)"/></g></svg>